<?xml version="1.0" encoding="UTF-8" standalone="no"?>
<!DOCTYPE svg PUBLIC "-//W3C//DTD SVG 1.1//EN"
 "http://www.w3.org/Graphics/SVG/1.1/DTD/svg11.dtd">
<!-- Generated by graphviz version 2.40.1 (20161225.0304)
 -->
<!-- Title: G Pages: 1 -->
<svg width="776pt" height="404pt"
 viewBox="0.00 0.00 776.20 404.00" xmlns="http://www.w3.org/2000/svg" xmlns:xlink="http://www.w3.org/1999/xlink">
<g id="graph0" class="graph" transform="scale(1 1) rotate(0) translate(4 400)">
<title>G</title>
<polygon fill="#ffffff" stroke="transparent" points="-4,4 -4,-400 772.2023,-400 772.2023,4 -4,4"/>
<!-- 80 -->
<g id="node1" class="node">
<title>80</title>
<ellipse fill="#ffd700" stroke="#000000" cx="454" cy="-378" rx="27" ry="18"/>
<text text-anchor="middle" x="454" y="-374.3" font-family="Times,serif" font-size="14.00" fill="#000000">80</text>
</g>
<!-- 40 -->
<g id="node2" class="node">
<title>40</title>
<ellipse fill="#ffd700" stroke="#000000" cx="509" cy="-306" rx="27" ry="18"/>
<text text-anchor="middle" x="509" y="-302.3" font-family="Times,serif" font-size="14.00" fill="#000000">40</text>
</g>
<!-- 80&#45;&gt;40 -->
<g id="edge40" class="edge">
<title>80&#45;&gt;40</title>
<path fill="none" stroke="#000000" d="M466.4804,-361.6621C474.4969,-351.1676 484.9699,-337.4575 493.5159,-326.2702"/>
<polygon fill="#000000" stroke="#000000" points="496.569,-322.2733 495.3218,-327.6125 495.0514,-324.2599 493.5338,-326.2466 493.5338,-326.2466 493.5338,-326.2466 495.0514,-324.2599 491.7458,-324.8808 496.569,-322.2733 496.569,-322.2733"/>
</g>
<!-- 20 -->
<g id="node3" class="node">
<title>20</title>
<ellipse fill="#ffd700" stroke="#000000" cx="482" cy="-234" rx="27" ry="18"/>
<text text-anchor="middle" x="482" y="-230.3" font-family="Times,serif" font-size="14.00" fill="#000000">20</text>
</g>
<!-- 80&#45;&gt;20 -->
<g id="edge42" class="edge">
<title>80&#45;&gt;20</title>
<path fill="none" stroke="#000000" d="M457.4896,-360.0535C462.5408,-334.0761 471.8936,-285.9759 477.4708,-257.2928"/>
<polygon fill="#000000" stroke="#000000" points="478.4664,-252.1727 479.7206,-257.5103 477.9892,-254.6268 477.512,-257.0808 477.512,-257.0808 477.512,-257.0808 477.9892,-254.6268 475.3034,-256.6513 478.4664,-252.1727 478.4664,-252.1727"/>
</g>
<!-- 1 -->
<g id="node11" class="node">
<title>1</title>
<ellipse fill="none" stroke="#000000" cx="380" cy="-18" rx="27" ry="18"/>
<text text-anchor="middle" x="380" y="-14.3" font-family="Times,serif" font-size="14.00" fill="#000000">1</text>
</g>
<!-- 80&#45;&gt;1 -->
<g id="edge36" class="edge">
<title>80&#45;&gt;1</title>
<path fill="none" stroke="#000000" d="M426.9598,-375.3812C329.222,-365.1806 0,-324.1312 0,-234 0,-234 0,-234 0,-162 0,-118.0449 6.0253,-98.6237 41,-72 88.9295,-35.5147 272.5431,-22.9792 347.6712,-19.3198"/>
<polygon fill="#000000" stroke="#000000" points="352.8896,-19.0714 348.0022,-21.5567 350.3924,-19.1903 347.8952,-19.3092 347.8952,-19.3092 347.8952,-19.3092 350.3924,-19.1903 347.7882,-17.0618 352.8896,-19.0714 352.8896,-19.0714"/>
</g>
<!-- 5 -->
<g id="node13" class="node">
<title>5</title>
<ellipse fill="none" stroke="#000000" cx="253" cy="-90" rx="27" ry="18"/>
<text text-anchor="middle" x="253" y="-86.3" font-family="Times,serif" font-size="14.00" fill="#000000">5</text>
</g>
<!-- 80&#45;&gt;5 -->
<g id="edge39" class="edge">
<title>80&#45;&gt;5</title>
<path fill="none" stroke="#000000" d="M426.9656,-375.8748C367.0316,-369.5135 223.8244,-344.8209 167,-252 135.7666,-200.9812 196.6868,-137.6011 231.3284,-107.4769"/>
<polygon fill="#000000" stroke="#000000" points="235.4147,-103.9712 233.0849,-108.9346 233.5173,-105.599 231.6199,-107.2269 231.6199,-107.2269 231.6199,-107.2269 233.5173,-105.599 230.1548,-105.5192 235.4147,-103.9712 235.4147,-103.9712"/>
</g>
<!-- 2 -->
<g id="node14" class="node">
<title>2</title>
<ellipse fill="none" stroke="#000000" cx="617" cy="-90" rx="27" ry="18"/>
<text text-anchor="middle" x="617" y="-86.3" font-family="Times,serif" font-size="14.00" fill="#000000">2</text>
</g>
<!-- 80&#45;&gt;2 -->
<g id="edge37" class="edge">
<title>80&#45;&gt;2</title>
<path fill="none" stroke="#000000" d="M480.7974,-375.1761C520.6724,-370.0292 596.9379,-356.4863 653,-324 722.6826,-283.621 743.6364,-258.174 763,-180 766.8469,-164.4693 772.1432,-157.1302 763,-144 749.5132,-124.6321 686.4698,-106.5563 647.7684,-97.0248"/>
<polygon fill="#000000" stroke="#000000" points="642.7094,-95.7933 648.0998,-94.7898 645.1385,-96.3846 647.5676,-96.976 647.5676,-96.976 647.5676,-96.976 645.1385,-96.3846 647.0353,-99.1621 642.7094,-95.7933 642.7094,-95.7933"/>
</g>
<!-- 4 -->
<g id="node15" class="node">
<title>4</title>
<ellipse fill="none" stroke="#000000" cx="727" cy="-162" rx="27" ry="18"/>
<text text-anchor="middle" x="727" y="-158.3" font-family="Times,serif" font-size="14.00" fill="#000000">4</text>
</g>
<!-- 80&#45;&gt;4 -->
<g id="edge38" class="edge">
<title>80&#45;&gt;4</title>
<path fill="none" stroke="#000000" d="M479.9292,-372.3497C530.7454,-359.8961 643.6393,-325.1855 703,-252 718.4293,-232.9773 724.0023,-204.959 725.9809,-185.2489"/>
<polygon fill="#000000" stroke="#000000" points="726.4297,-180.1763 728.2302,-185.3552 726.2093,-182.6666 725.989,-185.1569 725.989,-185.1569 725.989,-185.1569 726.2093,-182.6666 723.7477,-184.9585 726.4297,-180.1763 726.4297,-180.1763"/>
</g>
<!-- 10 -->
<g id="node16" class="node">
<title>10</title>
<ellipse fill="none" stroke="#000000" cx="241" cy="-162" rx="27" ry="18"/>
<text text-anchor="middle" x="241" y="-158.3" font-family="Times,serif" font-size="14.00" fill="#000000">10</text>
</g>
<!-- 80&#45;&gt;10 -->
<g id="edge41" class="edge">
<title>80&#45;&gt;10</title>
<path fill="none" stroke="#000000" d="M431.8579,-367.5582C394.947,-349.1218 320.5989,-307.4484 277,-252 261.407,-232.169 251.7314,-204.7025 246.3899,-185.3427"/>
<polygon fill="#000000" stroke="#000000" points="244.9969,-180.1103 248.4576,-184.3631 245.6401,-182.5261 246.2833,-184.942 246.2833,-184.942 246.2833,-184.942 245.6401,-182.5261 244.109,-185.5208 244.9969,-180.1103 244.9969,-180.1103"/>
</g>
<!-- 40&#45;&gt;20 -->
<g id="edge35" class="edge">
<title>40&#45;&gt;20</title>
<path fill="none" stroke="#000000" d="M502.3258,-288.2022C498.7292,-278.6113 494.2555,-266.6813 490.4215,-256.4573"/>
<polygon fill="#000000" stroke="#000000" points="488.5974,-251.593 492.4598,-255.4846 489.4752,-253.9339 490.3531,-256.2747 490.3531,-256.2747 490.3531,-256.2747 489.4752,-253.9339 488.2463,-257.0647 488.5974,-251.593 488.5974,-251.593"/>
</g>
<!-- 40&#45;&gt;1 -->
<g id="edge30" class="edge">
<title>40&#45;&gt;1</title>
<path fill="none" stroke="#000000" d="M535.8393,-303.6178C575.2946,-299.0493 650.0009,-286.2532 703,-252 749.1168,-222.1948 779.6539,-196.3236 763,-144 751.1064,-106.6326 745.269,-92.7594 712,-72 662.1067,-40.8673 485.2074,-25.2965 412.0392,-20.0719"/>
<polygon fill="#000000" stroke="#000000" points="406.9535,-19.7135 412.0993,-17.8207 409.4473,-19.8893 411.9411,-20.0651 411.9411,-20.0651 411.9411,-20.0651 409.4473,-19.8893 411.7829,-22.3095 406.9535,-19.7135 406.9535,-19.7135"/>
</g>
<!-- 40&#45;&gt;5 -->
<g id="edge33" class="edge">
<title>40&#45;&gt;5</title>
<path fill="none" stroke="#000000" d="M486.4728,-295.8549C447.0737,-277.281 364.6521,-234.6456 310,-180 289.9854,-159.9878 273.5311,-131.7408 263.5325,-112.2553"/>
<polygon fill="#000000" stroke="#000000" points="261.1313,-107.5005 265.3937,-110.9494 262.2583,-109.7321 263.3853,-111.9637 263.3853,-111.9637 263.3853,-111.9637 262.2583,-109.7321 261.3768,-112.978 261.1313,-107.5005 261.1313,-107.5005"/>
</g>
<!-- 40&#45;&gt;2 -->
<g id="edge31" class="edge">
<title>40&#45;&gt;2</title>
<path fill="none" stroke="#000000" d="M517.6555,-288.6889C537.1754,-249.6492 584.5927,-154.8145 606.0867,-111.8267"/>
<polygon fill="#000000" stroke="#000000" points="608.4532,-107.0937 608.2295,-112.5721 607.3351,-109.3297 606.217,-111.5658 606.217,-111.5658 606.217,-111.5658 607.3351,-109.3297 604.2046,-110.5596 608.4532,-107.0937 608.4532,-107.0937"/>
</g>
<!-- 40&#45;&gt;4 -->
<g id="edge32" class="edge">
<title>40&#45;&gt;4</title>
<path fill="none" stroke="#000000" d="M535.961,-303.2271C571.3462,-298.3555 633.7841,-285.3768 675,-252 696.8115,-234.3369 711.3138,-204.9162 719.3374,-184.544"/>
<polygon fill="#000000" stroke="#000000" points="721.1426,-179.8295 721.4558,-185.3035 720.2486,-182.1642 719.3546,-184.4989 719.3546,-184.4989 719.3546,-184.4989 720.2486,-182.1642 717.2534,-183.6943 721.1426,-179.8295 721.1426,-179.8295"/>
</g>
<!-- 40&#45;&gt;10 -->
<g id="edge34" class="edge">
<title>40&#45;&gt;10</title>
<path fill="none" stroke="#000000" d="M482.3202,-303.1928C443.8532,-298.1299 371.7569,-284.7633 320,-252 291.9556,-234.2473 268.1664,-203.6359 254.2315,-183.1074"/>
<polygon fill="#000000" stroke="#000000" points="251.4095,-178.8882 256.0595,-181.7934 252.7994,-180.9662 254.1893,-183.0443 254.1893,-183.0443 254.1893,-183.0443 252.7994,-180.9662 252.319,-184.2952 251.4095,-178.8882 251.4095,-178.8882"/>
</g>
<!-- 20&#45;&gt;1 -->
<g id="edge20" class="edge">
<title>20&#45;&gt;1</title>
<path fill="none" stroke="#000000" d="M473.8253,-216.6889C455.4354,-177.7456 410.8279,-83.2825 390.4579,-40.1461"/>
<polygon fill="#000000" stroke="#000000" points="388.2136,-35.3935 392.3832,-38.954 389.2811,-37.6541 390.3487,-39.9148 390.3487,-39.9148 390.3487,-39.9148 389.2811,-37.6541 388.3141,-40.8755 388.2136,-35.3935 388.2136,-35.3935"/>
</g>
<!-- 20&#45;&gt;5 -->
<g id="edge23" class="edge">
<title>20&#45;&gt;5</title>
<path fill="none" stroke="#000000" d="M457.0262,-226.3455C430.1184,-217.4756 386.6372,-201.3063 353,-180 344.2078,-174.4309 299.185,-132.9905 272.643,-108.3276"/>
<polygon fill="#000000" stroke="#000000" points="268.8676,-104.8168 274.0613,-106.574 270.6984,-106.5192 272.5291,-108.2217 272.5291,-108.2217 272.5291,-108.2217 270.6984,-106.5192 270.9969,-109.8694 268.8676,-104.8168 268.8676,-104.8168"/>
</g>
<!-- 20&#45;&gt;2 -->
<g id="edge21" class="edge">
<title>20&#45;&gt;2</title>
<path fill="none" stroke="#000000" d="M491.4831,-216.8461C502.5371,-197.7633 522.1067,-166.643 544,-144 558.4985,-129.005 577.5105,-115.0852 592.4974,-105.1348"/>
<polygon fill="#000000" stroke="#000000" points="597.0099,-102.1774 594.0613,-106.8 594.9189,-103.5478 592.828,-104.9182 592.828,-104.9182 592.828,-104.9182 594.9189,-103.5478 591.5946,-103.0363 597.0099,-102.1774 597.0099,-102.1774"/>
</g>
<!-- 20&#45;&gt;4 -->
<g id="edge22" class="edge">
<title>20&#45;&gt;4</title>
<path fill="none" stroke="#000000" d="M506.8402,-226.7C552.2389,-213.3584 648.4193,-185.0931 697.236,-170.747"/>
<polygon fill="#000000" stroke="#000000" points="702.0941,-169.3193 697.9314,-172.8878 699.6955,-170.0242 697.2969,-170.7291 697.2969,-170.7291 697.2969,-170.7291 699.6955,-170.0242 696.6625,-168.5704 702.0941,-169.3193 702.0941,-169.3193"/>
</g>
<!-- 20&#45;&gt;10 -->
<g id="edge24" class="edge">
<title>20&#45;&gt;10</title>
<path fill="none" stroke="#000000" d="M457.1165,-226.5659C412.4427,-213.2194 318.8337,-185.2532 270.8114,-170.9063"/>
<polygon fill="#000000" stroke="#000000" points="265.7481,-169.3936 271.183,-168.6691 268.1435,-170.1093 270.5389,-170.825 270.5389,-170.825 270.5389,-170.825 268.1435,-170.1093 269.8948,-172.9808 265.7481,-169.3936 265.7481,-169.3936"/>
</g>
<!-- 50 -->
<g id="node4" class="node">
<title>50</title>
<ellipse fill="#ffd700" stroke="#000000" cx="203" cy="-234" rx="27" ry="18"/>
<text text-anchor="middle" x="203" y="-230.3" font-family="Times,serif" font-size="14.00" fill="#000000">50</text>
</g>
<!-- 50&#45;&gt;1 -->
<g id="edge14" class="edge">
<title>50&#45;&gt;1</title>
<path fill="none" stroke="#000000" d="M196.9719,-216.3239C187.0084,-183.4887 171.5168,-112.7274 207,-72 225.6577,-50.5849 304.0434,-32.5176 348.632,-23.7273"/>
<polygon fill="#000000" stroke="#000000" points="353.6313,-22.7527 349.1543,-25.918 351.1775,-23.2311 348.7237,-23.7095 348.7237,-23.7095 348.7237,-23.7095 351.1775,-23.2311 348.2931,-21.5011 353.6313,-22.7527 353.6313,-22.7527"/>
</g>
<!-- 50&#45;&gt;5 -->
<g id="edge17" class="edge">
<title>50&#45;&gt;5</title>
<path fill="none" stroke="#000000" d="M199.8654,-216.0394C197.3987,-197.3459 195.7399,-167.5646 205,-144 210.508,-129.9836 221.4074,-117.2368 231.4297,-107.6517"/>
<polygon fill="#000000" stroke="#000000" points="235.3598,-104.0062 233.2241,-109.0562 233.5269,-105.7064 231.694,-107.4066 231.694,-107.4066 231.694,-107.4066 233.5269,-105.7064 230.1639,-105.757 235.3598,-104.0062 235.3598,-104.0062"/>
</g>
<!-- 50&#45;&gt;2 -->
<g id="edge15" class="edge">
<title>50&#45;&gt;2</title>
<path fill="none" stroke="#000000" d="M229.1077,-229.3547C271.0902,-221.5078 355.8976,-204.0954 425,-180 497.104,-154.858 512.1749,-141.079 581,-108 584.2041,-106.46 587.5565,-104.8212 590.8717,-103.1837"/>
<polygon fill="#000000" stroke="#000000" points="595.3519,-100.961 591.8729,-105.1988 593.1124,-102.0721 590.8729,-103.1832 590.8729,-103.1832 590.8729,-103.1832 593.1124,-102.0721 589.8729,-101.1676 595.3519,-100.961 595.3519,-100.961"/>
</g>
<!-- 50&#45;&gt;10 -->
<g id="edge16" class="edge">
<title>50&#45;&gt;10</title>
<path fill="none" stroke="#000000" d="M212.0055,-216.937C217.1823,-207.1282 223.7431,-194.6974 229.3138,-184.1422"/>
<polygon fill="#000000" stroke="#000000" points="231.7952,-179.4407 231.4512,-184.9128 230.6283,-181.6516 229.4614,-183.8626 229.4614,-183.8626 229.4614,-183.8626 230.6283,-181.6516 227.4715,-182.8124 231.7952,-179.4407 231.7952,-179.4407"/>
</g>
<!-- 12 -->
<g id="node5" class="node">
<title>12</title>
<ellipse fill="#ffd700" stroke="#000000" cx="639" cy="-234" rx="27" ry="18"/>
<text text-anchor="middle" x="639" y="-230.3" font-family="Times,serif" font-size="14.00" fill="#000000">12</text>
</g>
<!-- 12&#45;&gt;1 -->
<g id="edge9" class="edge">
<title>12&#45;&gt;1</title>
<path fill="none" stroke="#000000" d="M647.6389,-216.54C662.3286,-184.0649 687.4073,-113.8798 653,-72 622.8702,-35.3267 478.1821,-23.138 412.5271,-19.4526"/>
<polygon fill="#000000" stroke="#000000" points="407.1817,-19.1616 412.2966,-17.1868 409.678,-19.2975 412.1743,-19.4335 412.1743,-19.4335 412.1743,-19.4335 409.678,-19.2975 412.0519,-21.6801 407.1817,-19.1616 407.1817,-19.1616"/>
</g>
<!-- 3 -->
<g id="node12" class="node">
<title>3</title>
<ellipse fill="none" stroke="#000000" cx="545" cy="-90" rx="27" ry="18"/>
<text text-anchor="middle" x="545" y="-86.3" font-family="Times,serif" font-size="14.00" fill="#000000">3</text>
</g>
<!-- 12&#45;&gt;3 -->
<g id="edge11" class="edge">
<title>12&#45;&gt;3</title>
<path fill="none" stroke="#000000" d="M628.217,-217.4814C611.0971,-191.2551 577.7101,-140.1091 558.8451,-111.2095"/>
<polygon fill="#000000" stroke="#000000" points="555.9468,-106.7695 560.564,-109.7265 557.3134,-108.863 558.6799,-110.9564 558.6799,-110.9564 558.6799,-110.9564 557.3134,-108.863 556.7958,-112.1864 555.9468,-106.7695 555.9468,-106.7695"/>
</g>
<!-- 12&#45;&gt;2 -->
<g id="edge10" class="edge">
<title>12&#45;&gt;2</title>
<path fill="none" stroke="#000000" d="M636.2582,-216.0535C632.2894,-190.0761 624.9408,-141.9759 620.5586,-113.2928"/>
<polygon fill="#000000" stroke="#000000" points="619.7764,-108.1727 622.7558,-112.7755 620.154,-110.644 620.5316,-113.1154 620.5316,-113.1154 620.5316,-113.1154 620.154,-110.644 618.3074,-113.4552 619.7764,-108.1727 619.7764,-108.1727"/>
</g>
<!-- 12&#45;&gt;4 -->
<g id="edge12" class="edge">
<title>12&#45;&gt;4</title>
<path fill="none" stroke="#000000" d="M656.386,-219.7751C670.4878,-208.2373 690.4317,-191.9195 705.5293,-179.567"/>
<polygon fill="#000000" stroke="#000000" points="709.6501,-176.1953 707.2051,-181.103 707.7152,-177.7784 705.7803,-179.3616 705.7803,-179.3616 705.7803,-179.3616 707.7152,-177.7784 704.3555,-177.6201 709.6501,-176.1953 709.6501,-176.1953"/>
</g>
<!-- 77 -->
<g id="node6" class="node">
<title>77</title>
<ellipse fill="#ffd700" stroke="#000000" cx="55" cy="-162" rx="27" ry="18"/>
<text text-anchor="middle" x="55" y="-158.3" font-family="Times,serif" font-size="14.00" fill="#000000">77</text>
</g>
<!-- 11 -->
<g id="node8" class="node">
<title>11</title>
<ellipse fill="#ffd700" stroke="#000000" cx="93" cy="-90" rx="27" ry="18"/>
<text text-anchor="middle" x="93" y="-86.3" font-family="Times,serif" font-size="14.00" fill="#000000">11</text>
</g>
<!-- 77&#45;&gt;11 -->
<g id="edge8" class="edge">
<title>77&#45;&gt;11</title>
<path fill="none" stroke="#000000" d="M64.0055,-144.937C69.1823,-135.1282 75.7431,-122.6974 81.3138,-112.1422"/>
<polygon fill="#000000" stroke="#000000" points="83.7952,-107.4407 83.4512,-112.9128 82.6283,-109.6516 81.4614,-111.8626 81.4614,-111.8626 81.4614,-111.8626 82.6283,-109.6516 79.4715,-110.8124 83.7952,-107.4407 83.7952,-107.4407"/>
</g>
<!-- 77&#45;&gt;1 -->
<g id="edge7" class="edge">
<title>77&#45;&gt;1</title>
<path fill="none" stroke="#000000" d="M49.3619,-144.0842C44.269,-124.0187 39.9142,-91.7306 57,-72 75.9681,-50.0957 269.5485,-28.8344 347.6192,-21.082"/>
<polygon fill="#000000" stroke="#000000" points="353.0367,-20.5473 348.2819,-23.2776 350.5488,-20.7929 348.0609,-21.0385 348.0609,-21.0385 348.0609,-21.0385 350.5488,-20.7929 347.8398,-18.7994 353.0367,-20.5473 353.0367,-20.5473"/>
</g>
<!-- 13 -->
<g id="node7" class="node">
<title>13</title>
<ellipse fill="#ffd700" stroke="#000000" cx="325" cy="-90" rx="27" ry="18"/>
<text text-anchor="middle" x="325" y="-86.3" font-family="Times,serif" font-size="14.00" fill="#000000">13</text>
</g>
<!-- 13&#45;&gt;1 -->
<g id="edge6" class="edge">
<title>13&#45;&gt;1</title>
<path fill="none" stroke="#000000" d="M337.4804,-73.6621C345.4969,-63.1676 355.9699,-49.4575 364.5159,-38.2702"/>
<polygon fill="#000000" stroke="#000000" points="367.569,-34.2733 366.3218,-39.6125 366.0514,-36.2599 364.5338,-38.2466 364.5338,-38.2466 364.5338,-38.2466 366.0514,-36.2599 362.7458,-36.8808 367.569,-34.2733 367.569,-34.2733"/>
</g>
<!-- 11&#45;&gt;1 -->
<g id="edge5" class="edge">
<title>11&#45;&gt;1</title>
<path fill="none" stroke="#000000" d="M115.2455,-79.281C121.2424,-76.6556 127.7911,-74.0224 134,-72 209.2131,-47.5012 300.9731,-30.6608 348.3332,-22.8892"/>
<polygon fill="#000000" stroke="#000000" points="353.3304,-22.0759 348.7568,-25.1 350.8629,-22.4775 348.3953,-22.8792 348.3953,-22.8792 348.3953,-22.8792 350.8629,-22.4775 348.0338,-20.6584 353.3304,-22.0759 353.3304,-22.0759"/>
</g>
<!-- 15 -->
<g id="node9" class="node">
<title>15</title>
<ellipse fill="#ffd700" stroke="#000000" cx="389" cy="-162" rx="27" ry="18"/>
<text text-anchor="middle" x="389" y="-158.3" font-family="Times,serif" font-size="14.00" fill="#000000">15</text>
</g>
<!-- 15&#45;&gt;1 -->
<g id="edge2" class="edge">
<title>15&#45;&gt;1</title>
<path fill="none" stroke="#000000" d="M387.8601,-143.7623C386.2304,-117.6863 383.2345,-69.752 381.4493,-41.1881"/>
<polygon fill="#000000" stroke="#000000" points="381.1306,-36.0896 383.6882,-40.9395 381.2866,-38.5847 381.4426,-41.0799 381.4426,-41.0799 381.4426,-41.0799 381.2866,-38.5847 379.197,-41.2203 381.1306,-36.0896 381.1306,-36.0896"/>
</g>
<!-- 15&#45;&gt;3 -->
<g id="edge3" class="edge">
<title>15&#45;&gt;3</title>
<path fill="none" stroke="#000000" d="M411.5114,-152.0016C440.9305,-138.9123 490.8387,-116.6222 509,-108 512.2115,-106.4753 515.5683,-104.8458 518.8858,-103.2132"/>
<polygon fill="#000000" stroke="#000000" points="523.3681,-100.9948 519.885,-105.2293 521.1275,-102.1038 518.8869,-103.2127 518.8869,-103.2127 518.8869,-103.2127 521.1275,-102.1038 517.8888,-101.1962 523.3681,-100.9948 523.3681,-100.9948"/>
</g>
<!-- 15&#45;&gt;5 -->
<g id="edge4" class="edge">
<title>15&#45;&gt;5</title>
<path fill="none" stroke="#000000" d="M367.75,-150.75C343.8379,-138.0907 304.9771,-117.5173 279.2033,-103.8723"/>
<polygon fill="#000000" stroke="#000000" points="274.5496,-101.4086 280.0213,-101.7596 276.7591,-102.5784 278.9686,-103.7481 278.9686,-103.7481 278.9686,-103.7481 276.7591,-102.5784 277.9158,-105.7366 274.5496,-101.4086 274.5496,-101.4086"/>
</g>
<!-- 17 -->
<g id="node10" class="node">
<title>17</title>
<ellipse fill="#ffd700" stroke="#000000" cx="473" cy="-90" rx="27" ry="18"/>
<text text-anchor="middle" x="473" y="-86.3" font-family="Times,serif" font-size="14.00" fill="#000000">17</text>
</g>
<!-- 17&#45;&gt;1 -->
<g id="edge1" class="edge">
<title>17&#45;&gt;1</title>
<path fill="none" stroke="#000000" d="M455.0687,-76.1177C439.8871,-64.3642 418.0721,-47.4752 401.8677,-34.9298"/>
<polygon fill="#000000" stroke="#000000" points="397.8763,-31.8397 403.2073,-33.1215 399.8531,-33.3702 401.8299,-34.9006 401.8299,-34.9006 401.8299,-34.9006 399.8531,-33.3702 400.4525,-36.6797 397.8763,-31.8397 397.8763,-31.8397"/>
</g>
<!-- 3&#45;&gt;1 -->
<g id="edge13" class="edge">
<title>3&#45;&gt;1</title>
<path fill="none" stroke="#000000" d="M523.4119,-78.9114C518.691,-76.5693 513.7001,-74.1558 509,-72 474.721,-56.2771 434.5474,-39.7535 408.2528,-29.1896"/>
<polygon fill="#000000" stroke="#000000" points="403.5091,-27.2879 408.9873,-27.06 405.8296,-28.2182 408.1501,-29.1484 408.1501,-29.1484 408.1501,-29.1484 405.8296,-28.2182 407.3128,-31.2369 403.5091,-27.2879 403.5091,-27.2879"/>
</g>
<!-- 5&#45;&gt;1 -->
<g id="edge19" class="edge">
<title>5&#45;&gt;1</title>
<path fill="none" stroke="#000000" d="M273.6874,-78.2717C295.8278,-65.7197 330.9659,-45.7989 354.7279,-32.3275"/>
<polygon fill="#000000" stroke="#000000" points="359.3215,-29.7233 356.0815,-34.1466 357.1466,-30.9563 354.9718,-32.1892 354.9718,-32.1892 354.9718,-32.1892 357.1466,-30.9563 353.8621,-30.2319 359.3215,-29.7233 359.3215,-29.7233"/>
</g>
<!-- 2&#45;&gt;1 -->
<g id="edge18" class="edge">
<title>2&#45;&gt;1</title>
<path fill="none" stroke="#000000" d="M595.9978,-78.6145C591.1542,-76.2386 585.9645,-73.886 581,-72 522.4889,-49.7721 451.1318,-32.901 411.103,-24.3145"/>
<polygon fill="#000000" stroke="#000000" points="405.9048,-23.2083 411.2636,-22.0484 408.35,-23.7287 410.7953,-24.2491 410.7953,-24.2491 410.7953,-24.2491 408.35,-23.7287 410.3269,-26.4498 405.9048,-23.2083 405.9048,-23.2083"/>
</g>
<!-- 4&#45;&gt;1 -->
<g id="edge28" class="edge">
<title>4&#45;&gt;1</title>
<path fill="none" stroke="#000000" d="M723.9614,-144.038C719.4609,-123.2993 708.9411,-89.7681 686,-72 643.6018,-39.1623 482.4892,-24.7595 412.6328,-19.9638"/>
<polygon fill="#000000" stroke="#000000" points="407.3626,-19.6084 412.5027,-17.7 409.8569,-19.7767 412.3513,-19.9449 412.3513,-19.9449 412.3513,-19.9449 409.8569,-19.7767 412.1999,-22.1898 407.3626,-19.6084 407.3626,-19.6084"/>
</g>
<!-- 4&#45;&gt;2 -->
<g id="edge29" class="edge">
<title>4&#45;&gt;2</title>
<path fill="none" stroke="#000000" d="M707.5874,-149.2936C689.009,-137.1332 660.9367,-118.7586 640.9717,-105.6905"/>
<polygon fill="#000000" stroke="#000000" points="636.5885,-102.8216 642.0043,-103.6773 638.6803,-104.1907 640.772,-105.5599 640.772,-105.5599 640.772,-105.5599 638.6803,-104.1907 639.5398,-107.4425 636.5885,-102.8216 636.5885,-102.8216"/>
</g>
<!-- 10&#45;&gt;1 -->
<g id="edge25" class="edge">
<title>10&#45;&gt;1</title>
<path fill="none" stroke="#000000" d="M229.0248,-145.5582C216.5844,-126.2815 201,-94.1557 217,-72 232.5974,-50.4018 305.8706,-32.6398 348.6803,-23.8855"/>
<polygon fill="#000000" stroke="#000000" points="353.7441,-22.8629 349.2884,-26.0582 351.2935,-23.3578 348.843,-23.8527 348.843,-23.8527 348.843,-23.8527 351.2935,-23.3578 348.3976,-21.6473 353.7441,-22.8629 353.7441,-22.8629"/>
</g>
<!-- 10&#45;&gt;5 -->
<g id="edge27" class="edge">
<title>10&#45;&gt;5</title>
<path fill="none" stroke="#000000" d="M244.0281,-143.8314C245.589,-134.4659 247.5089,-122.9464 249.1716,-112.9701"/>
<polygon fill="#000000" stroke="#000000" points="250.0144,-107.9134 251.4117,-113.2153 249.6034,-110.3794 249.1924,-112.8454 249.1924,-112.8454 249.1924,-112.8454 249.6034,-110.3794 246.973,-112.4754 250.0144,-107.9134 250.0144,-107.9134"/>
</g>
<!-- 10&#45;&gt;2 -->
<g id="edge26" class="edge">
<title>10&#45;&gt;2</title>
<path fill="none" stroke="#000000" d="M267.2473,-157.7608C289.9429,-154.1002 323.6324,-148.6784 353,-144 454.3112,-127.8607 483.3052,-139.3078 581,-108 584.4769,-106.8858 588.0342,-105.4765 591.4942,-103.9391"/>
<polygon fill="#000000" stroke="#000000" points="596.1355,-101.7789 592.5519,-105.9287 593.8689,-102.8339 591.6024,-103.8888 591.6024,-103.8888 591.6024,-103.8888 593.8689,-102.8339 590.6529,-101.849 596.1355,-101.7789 596.1355,-101.7789"/>
</g>
</g>
</svg>
