<?xml version="1.0" encoding="UTF-8" standalone="no"?>
<!DOCTYPE svg PUBLIC "-//W3C//DTD SVG 1.1//EN"
 "http://www.w3.org/Graphics/SVG/1.1/DTD/svg11.dtd">
<!-- Generated by graphviz version 2.40.1 (20161225.0304)
 -->
<!-- Title: G Pages: 1 -->
<svg width="1484pt" height="692pt"
 viewBox="0.00 0.00 1484.45 692.00" xmlns="http://www.w3.org/2000/svg" xmlns:xlink="http://www.w3.org/1999/xlink">
<g id="graph0" class="graph" transform="scale(1 1) rotate(0) translate(4 688)">
<title>G</title>
<polygon fill="#ffffff" stroke="transparent" points="-4,4 -4,-688 1480.4469,-688 1480.4469,4 -4,4"/>
<!-- epinephrine -->
<g id="node1" class="node">
<title>epinephrine</title>
<ellipse fill="#ffd700" stroke="#000000" cx="1400.4469" cy="-522" rx="51.9908" ry="18"/>
<text text-anchor="middle" x="1400.4469" y="-518.3" font-family="Times,serif" font-size="14.00" fill="#000000">epinephrine</text>
</g>
<!-- ehinpr -->
<g id="node65" class="node">
<title>ehinpr</title>
<ellipse fill="none" stroke="#000000" cx="1400.4469" cy="-450" rx="33.2948" ry="18"/>
<text text-anchor="middle" x="1400.4469" y="-446.3" font-family="Times,serif" font-size="14.00" fill="#000000">ehinpr</text>
</g>
<!-- epinephrine&#45;&gt;ehinpr -->
<g id="edge125" class="edge">
<title>epinephrine&#45;&gt;ehinpr</title>
<path fill="none" stroke="#000000" d="M1400.4469,-503.8314C1400.4469,-494.6078 1400.4469,-483.295 1400.4469,-473.4246"/>
<polygon fill="#000000" stroke="#000000" points="1400.4469,-468.4133 1402.697,-473.4132 1400.447,-470.9133 1400.447,-473.4133 1400.447,-473.4133 1400.447,-473.4133 1400.447,-470.9133 1398.197,-473.4133 1400.4469,-468.4133 1400.4469,-468.4133"/>
</g>
<!-- melatonin -->
<g id="node2" class="node">
<title>melatonin</title>
<ellipse fill="#ffd700" stroke="#000000" cx="409.4469" cy="-522" rx="46.2923" ry="18"/>
<text text-anchor="middle" x="409.4469" y="-518.3" font-family="Times,serif" font-size="14.00" fill="#000000">melatonin</text>
</g>
<!-- elt -->
<g id="node14" class="node">
<title>elt</title>
<ellipse fill="none" stroke="#000000" cx="98.4469" cy="-450" rx="27" ry="18"/>
<text text-anchor="middle" x="98.4469" y="-446.3" font-family="Times,serif" font-size="14.00" fill="#000000">elt</text>
</g>
<!-- melatonin&#45;&gt;elt -->
<g id="edge101" class="edge">
<title>melatonin&#45;&gt;elt</title>
<path fill="none" stroke="#000000" d="M367.889,-513.9131C291.7159,-499.0804 137.2207,-468.9463 134.4469,-468 130.9914,-466.8211 127.4468,-465.3737 123.9934,-463.8163"/>
<polygon fill="#000000" stroke="#000000" points="119.3576,-461.6395 124.8399,-461.7281 121.6205,-462.7021 123.8835,-463.7648 123.8835,-463.7648 123.8835,-463.7648 121.6205,-462.7021 122.9271,-465.8014 119.3576,-461.6395 119.3576,-461.6395"/>
</g>
<!-- aeimnt -->
<g id="node31" class="node">
<title>aeimnt</title>
<ellipse fill="none" stroke="#000000" cx="398.4469" cy="-450" rx="35.194" ry="18"/>
<text text-anchor="middle" x="398.4469" y="-446.3" font-family="Times,serif" font-size="14.00" fill="#000000">aeimnt</text>
</g>
<!-- melatonin&#45;&gt;aeimnt -->
<g id="edge103" class="edge">
<title>melatonin&#45;&gt;aeimnt</title>
<path fill="none" stroke="#000000" d="M406.6712,-503.8314C405.262,-494.6078 403.5337,-483.295 402.0257,-473.4246"/>
<polygon fill="#000000" stroke="#000000" points="401.2601,-468.4133 404.2395,-473.0161 401.6377,-470.8846 402.0153,-473.3559 402.0153,-473.3559 402.0153,-473.3559 401.6377,-470.8846 399.7911,-473.6958 401.2601,-468.4133 401.2601,-468.4133"/>
</g>
<!-- aeimno -->
<g id="node55" class="node">
<title>aeimno</title>
<ellipse fill="none" stroke="#000000" cx="752.4469" cy="-450" rx="37.0935" ry="18"/>
<text text-anchor="middle" x="752.4469" y="-446.3" font-family="Times,serif" font-size="14.00" fill="#000000">aeimno</text>
</g>
<!-- melatonin&#45;&gt;aeimno -->
<g id="edge102" class="edge">
<title>melatonin&#45;&gt;aeimno</title>
<path fill="none" stroke="#000000" d="M443.8142,-509.7693C450.5948,-507.6361 457.7002,-505.5938 464.4469,-504 570.2732,-479.0002 601.3718,-495.9897 706.4469,-468 710.8286,-466.8328 715.3626,-465.3799 719.7991,-463.8091"/>
<polygon fill="#000000" stroke="#000000" points="724.5631,-462.0663 720.6405,-465.8972 722.2153,-462.9252 719.8675,-463.7842 719.8675,-463.7842 719.8675,-463.7842 722.2153,-462.9252 719.0944,-461.6711 724.5631,-462.0663 724.5631,-462.0663"/>
</g>
<!-- einot -->
<g id="node64" class="node">
<title>einot</title>
<ellipse fill="none" stroke="#000000" cx="593.4469" cy="-450" rx="28.6953" ry="18"/>
<text text-anchor="middle" x="593.4469" y="-446.3" font-family="Times,serif" font-size="14.00" fill="#000000">einot</text>
</g>
<!-- melatonin&#45;&gt;einot -->
<g id="edge104" class="edge">
<title>melatonin&#45;&gt;einot</title>
<path fill="none" stroke="#000000" d="M444.584,-510.2107C474.6098,-499.8715 518.7971,-484.0252 556.4469,-468 559.5526,-466.6781 562.7723,-465.231 565.9581,-463.7499"/>
<polygon fill="#000000" stroke="#000000" points="570.9152,-461.4077 567.3557,-465.5781 568.6548,-462.4757 566.3945,-463.5438 566.3945,-463.5438 566.3945,-463.5438 568.6548,-462.4757 565.4332,-461.5094 570.9152,-461.4077 570.9152,-461.4077"/>
</g>
<!-- norepinephrine -->
<g id="node3" class="node">
<title>norepinephrine</title>
<ellipse fill="#ffd700" stroke="#000000" cx="1236.4469" cy="-594" rx="63.8893" ry="18"/>
<text text-anchor="middle" x="1236.4469" y="-590.3" font-family="Times,serif" font-size="14.00" fill="#000000">norepinephrine</text>
</g>
<!-- ehinopr -->
<g id="node42" class="node">
<title>ehinopr</title>
<ellipse fill="none" stroke="#000000" cx="1236.4469" cy="-522" rx="37.8943" ry="18"/>
<text text-anchor="middle" x="1236.4469" y="-518.3" font-family="Times,serif" font-size="14.00" fill="#000000">ehinopr</text>
</g>
<!-- norepinephrine&#45;&gt;ehinopr -->
<g id="edge89" class="edge">
<title>norepinephrine&#45;&gt;ehinopr</title>
<path fill="none" stroke="#000000" d="M1236.4469,-575.8314C1236.4469,-566.6078 1236.4469,-555.295 1236.4469,-545.4246"/>
<polygon fill="#000000" stroke="#000000" points="1236.4469,-540.4133 1238.697,-545.4132 1236.447,-542.9133 1236.447,-545.4133 1236.447,-545.4133 1236.447,-545.4133 1236.447,-542.9133 1234.197,-545.4133 1236.4469,-540.4133 1236.4469,-540.4133"/>
</g>
<!-- triiodothyronine -->
<g id="node4" class="node">
<title>triiodothyronine</title>
<ellipse fill="#ffd700" stroke="#000000" cx="739.4469" cy="-666" rx="67.6881" ry="18"/>
<text text-anchor="middle" x="739.4469" y="-662.3" font-family="Times,serif" font-size="14.00" fill="#000000">triiodothyronine</text>
</g>
<!-- dehinorty -->
<g id="node22" class="node">
<title>dehinorty</title>
<ellipse fill="none" stroke="#000000" cx="739.4469" cy="-594" rx="44.393" ry="18"/>
<text text-anchor="middle" x="739.4469" y="-590.3" font-family="Times,serif" font-size="14.00" fill="#000000">dehinorty</text>
</g>
<!-- triiodothyronine&#45;&gt;dehinorty -->
<g id="edge86" class="edge">
<title>triiodothyronine&#45;&gt;dehinorty</title>
<path fill="none" stroke="#000000" d="M739.4469,-647.8314C739.4469,-638.6078 739.4469,-627.295 739.4469,-617.4246"/>
<polygon fill="#000000" stroke="#000000" points="739.4469,-612.4133 741.697,-617.4132 739.447,-614.9133 739.447,-617.4133 739.447,-617.4133 739.447,-617.4133 739.447,-614.9133 737.197,-617.4133 739.4469,-612.4133 739.4469,-612.4133"/>
</g>
<!-- thyroxine -->
<g id="node5" class="node">
<title>thyroxine</title>
<ellipse fill="#ffd700" stroke="#000000" cx="633.4469" cy="-594" rx="44.393" ry="18"/>
<text text-anchor="middle" x="633.4469" y="-590.3" font-family="Times,serif" font-size="14.00" fill="#000000">thyroxine</text>
</g>
<!-- ehinorty -->
<g id="node62" class="node">
<title>ehinorty</title>
<ellipse fill="none" stroke="#000000" cx="686.4469" cy="-522" rx="40.0939" ry="18"/>
<text text-anchor="middle" x="686.4469" y="-518.3" font-family="Times,serif" font-size="14.00" fill="#000000">ehinorty</text>
</g>
<!-- thyroxine&#45;&gt;ehinorty -->
<g id="edge79" class="edge">
<title>thyroxine&#45;&gt;ehinorty</title>
<path fill="none" stroke="#000000" d="M646.2768,-576.5708C653.6332,-566.5772 662.925,-553.9543 670.7188,-543.3666"/>
<polygon fill="#000000" stroke="#000000" points="673.7353,-539.2687 672.5832,-544.6292 672.2532,-541.282 670.7711,-543.2954 670.7711,-543.2954 670.7711,-543.2954 672.2532,-541.282 668.9591,-541.9615 673.7353,-539.2687 673.7353,-539.2687"/>
</g>
<!-- dopamine -->
<g id="node6" class="node">
<title>dopamine</title>
<ellipse fill="#ffd700" stroke="#000000" cx="847.4469" cy="-522" rx="46.2923" ry="18"/>
<text text-anchor="middle" x="847.4469" y="-518.3" font-family="Times,serif" font-size="14.00" fill="#000000">dopamine</text>
</g>
<!-- aeimnp -->
<g id="node32" class="node">
<title>aeimnp</title>
<ellipse fill="none" stroke="#000000" cx="844.4469" cy="-450" rx="37.0935" ry="18"/>
<text text-anchor="middle" x="844.4469" y="-446.3" font-family="Times,serif" font-size="14.00" fill="#000000">aeimnp</text>
</g>
<!-- dopamine&#45;&gt;aeimnp -->
<g id="edge61" class="edge">
<title>dopamine&#45;&gt;aeimnp</title>
<path fill="none" stroke="#000000" d="M846.6899,-503.8314C846.3056,-494.6078 845.8342,-483.295 845.423,-473.4246"/>
<polygon fill="#000000" stroke="#000000" points="845.2142,-468.4133 847.6705,-473.3152 845.3183,-470.9111 845.4224,-473.4089 845.4224,-473.4089 845.4224,-473.4089 845.3183,-470.9111 843.1744,-473.5026 845.2142,-468.4133 845.2142,-468.4133"/>
</g>
<!-- eimnop -->
<g id="node43" class="node">
<title>eimnop</title>
<ellipse fill="none" stroke="#000000" cx="1016.4469" cy="-450" rx="37.8943" ry="18"/>
<text text-anchor="middle" x="1016.4469" y="-446.3" font-family="Times,serif" font-size="14.00" fill="#000000">eimnop</text>
</g>
<!-- dopamine&#45;&gt;eimnop -->
<g id="edge64" class="edge">
<title>dopamine&#45;&gt;eimnop</title>
<path fill="none" stroke="#000000" d="M878.8385,-508.6261C908.6488,-495.9259 953.2889,-476.9076 983.5775,-464.0035"/>
<polygon fill="#000000" stroke="#000000" points="988.311,-461.9869 984.5929,-466.0167 986.011,-462.9668 983.711,-463.9467 983.711,-463.9467 983.711,-463.9467 986.011,-462.9668 982.8291,-461.8767 988.311,-461.9869 988.311,-461.9869"/>
</g>
<!-- dopamine&#45;&gt;aeimno -->
<g id="edge62" class="edge">
<title>dopamine&#45;&gt;aeimno</title>
<path fill="none" stroke="#000000" d="M825.89,-505.6621C811.2784,-494.5881 791.9424,-479.9334 776.7784,-468.4407"/>
<polygon fill="#000000" stroke="#000000" points="772.6194,-465.2886 777.9634,-466.5156 774.6119,-466.7987 776.6043,-468.3087 776.6043,-468.3087 776.6043,-468.3087 774.6119,-466.7987 775.2452,-470.1019 772.6194,-465.2886 772.6194,-465.2886"/>
</g>
<!-- deino -->
<g id="node56" class="node">
<title>deino</title>
<ellipse fill="none" stroke="#000000" cx="930.4469" cy="-450" rx="30.5947" ry="18"/>
<text text-anchor="middle" x="930.4469" y="-446.3" font-family="Times,serif" font-size="14.00" fill="#000000">deino</text>
</g>
<!-- dopamine&#45;&gt;deino -->
<g id="edge63" class="edge">
<title>dopamine&#45;&gt;deino</title>
<path fill="none" stroke="#000000" d="M866.6974,-505.3008C879.4568,-494.2324 896.2,-479.7082 909.3256,-468.3221"/>
<polygon fill="#000000" stroke="#000000" points="913.2745,-464.8966 910.9719,-469.8727 911.386,-466.5348 909.4975,-468.173 909.4975,-468.173 909.4975,-468.173 911.386,-466.5348 908.0231,-466.4734 913.2745,-464.8966 913.2745,-464.8966"/>
</g>
<!-- morphine -->
<g id="node7" class="node">
<title>morphine</title>
<ellipse fill="#ffd700" stroke="#000000" cx="1109.4469" cy="-594" rx="44.6926" ry="18"/>
<text text-anchor="middle" x="1109.4469" y="-590.3" font-family="Times,serif" font-size="14.00" fill="#000000">morphine</text>
</g>
<!-- ehimnp -->
<g id="node33" class="node">
<title>ehimnp</title>
<ellipse fill="none" stroke="#000000" cx="1109.4469" cy="-450" rx="37.8943" ry="18"/>
<text text-anchor="middle" x="1109.4469" y="-446.3" font-family="Times,serif" font-size="14.00" fill="#000000">ehimnp</text>
</g>
<!-- morphine&#45;&gt;ehimnp -->
<g id="edge43" class="edge">
<title>morphine&#45;&gt;ehimnp</title>
<path fill="none" stroke="#000000" d="M1109.4469,-575.7623C1109.4469,-549.6863 1109.4469,-501.752 1109.4469,-473.1881"/>
<polygon fill="#000000" stroke="#000000" points="1109.4469,-468.0896 1111.697,-473.0896 1109.447,-470.5896 1109.447,-473.0896 1109.447,-473.0896 1109.447,-473.0896 1109.447,-470.5896 1107.197,-473.0897 1109.4469,-468.0896 1109.4469,-468.0896"/>
</g>
<!-- morphine&#45;&gt;ehinopr -->
<g id="edge41" class="edge">
<title>morphine&#45;&gt;ehinopr</title>
<path fill="none" stroke="#000000" d="M1135.4537,-579.256C1156.3208,-567.4258 1185.6038,-550.8245 1207.2679,-538.5424"/>
<polygon fill="#000000" stroke="#000000" points="1211.7694,-535.9904 1208.5295,-540.4137 1209.5946,-537.2234 1207.4198,-538.4564 1207.4198,-538.4564 1207.4198,-538.4564 1209.5946,-537.2234 1206.3101,-536.499 1211.7694,-535.9904 1211.7694,-535.9904"/>
</g>
<!-- morphine&#45;&gt;eimnop -->
<g id="edge42" class="edge">
<title>morphine&#45;&gt;eimnop</title>
<path fill="none" stroke="#000000" d="M1098.0433,-576.3428C1081.0084,-549.9662 1048.9497,-500.3268 1030.4942,-471.7505"/>
<polygon fill="#000000" stroke="#000000" points="1027.6534,-467.3519 1032.2561,-470.3314 1029.0097,-469.452 1030.366,-471.5521 1030.366,-471.5521 1030.366,-471.5521 1029.0097,-469.452 1028.4759,-472.7728 1027.6534,-467.3519 1027.6534,-467.3519"/>
</g>
<!-- methamphetamine -->
<g id="node8" class="node">
<title>methamphetamine</title>
<ellipse fill="#ffd700" stroke="#000000" cx="550.4469" cy="-522" rx="77.1866" ry="18"/>
<text text-anchor="middle" x="550.4469" y="-518.3" font-family="Times,serif" font-size="14.00" fill="#000000">methamphetamine</text>
</g>
<!-- ahnt -->
<g id="node15" class="node">
<title>ahnt</title>
<ellipse fill="none" stroke="#000000" cx="280.4469" cy="-450" rx="27" ry="18"/>
<text text-anchor="middle" x="280.4469" y="-446.3" font-family="Times,serif" font-size="14.00" fill="#000000">ahnt</text>
</g>
<!-- methamphetamine&#45;&gt;ahnt -->
<g id="edge21" class="edge">
<title>methamphetamine&#45;&gt;ahnt</title>
<path fill="none" stroke="#000000" d="M499.3446,-508.3727C443.6996,-493.534 356.5476,-470.2935 310.8048,-458.0954"/>
<polygon fill="#000000" stroke="#000000" points="305.7048,-456.7354 311.1157,-455.8498 308.1203,-457.3796 310.5359,-458.0238 310.5359,-458.0238 310.5359,-458.0238 308.1203,-457.3796 309.9562,-460.1978 305.7048,-456.7354 305.7048,-456.7354"/>
</g>
<!-- enpt -->
<g id="node27" class="node">
<title>enpt</title>
<ellipse fill="none" stroke="#000000" cx="395.4469" cy="-378" rx="27" ry="18"/>
<text text-anchor="middle" x="395.4469" y="-374.3" font-family="Times,serif" font-size="14.00" fill="#000000">enpt</text>
</g>
<!-- methamphetamine&#45;&gt;enpt -->
<g id="edge22" class="edge">
<title>methamphetamine&#45;&gt;enpt</title>
<path fill="none" stroke="#000000" d="M526.3725,-504.8866C512.5143,-494.6821 495.0143,-481.1821 480.4469,-468 455.4088,-445.3428 429.087,-416.596 412.4885,-397.7689"/>
<polygon fill="#000000" stroke="#000000" points="408.894,-393.6743 413.8836,-395.9475 410.5433,-395.5531 412.1926,-397.4319 412.1926,-397.4319 412.1926,-397.4319 410.5433,-395.5531 410.5017,-398.9163 408.894,-393.6743 408.894,-393.6743"/>
</g>
<!-- methamphetamine&#45;&gt;aeimnt -->
<g id="edge23" class="edge">
<title>methamphetamine&#45;&gt;aeimnt</title>
<path fill="none" stroke="#000000" d="M516.3352,-505.8418C490.132,-493.4298 454.2677,-476.4414 428.9983,-464.4717"/>
<polygon fill="#000000" stroke="#000000" points="424.408,-462.2973 429.8899,-462.4044 426.6674,-463.3676 428.9267,-464.4378 428.9267,-464.4378 428.9267,-464.4378 426.6674,-463.3676 427.9635,-466.4712 424.408,-462.2973 424.408,-462.2973"/>
</g>
<!-- methamphetamine&#45;&gt;aeimnp -->
<g id="edge24" class="edge">
<title>methamphetamine&#45;&gt;aeimnp</title>
<path fill="none" stroke="#000000" d="M608.054,-509.9594C675.5141,-495.7803 780.3896,-473.4612 798.4469,-468 802.5769,-466.751 806.8602,-465.2976 811.0772,-463.7685"/>
<polygon fill="#000000" stroke="#000000" points="815.9839,-461.9464 812.0799,-465.7964 813.6402,-462.8167 811.2966,-463.6871 811.2966,-463.6871 811.2966,-463.6871 813.6402,-462.8167 810.5133,-461.5778 815.9839,-461.9464 815.9839,-461.9464"/>
</g>
<!-- methamphetamine&#45;&gt;ehimnp -->
<g id="edge25" class="edge">
<title>methamphetamine&#45;&gt;ehimnp</title>
<path fill="none" stroke="#000000" d="M606.4327,-509.3891C616.7103,-507.3673 627.3727,-505.4625 637.4469,-504 825.4841,-476.7028 878.3839,-511.0673 1063.4469,-468 1067.8634,-466.9722 1072.4178,-465.6011 1076.8648,-464.0724"/>
<polygon fill="#000000" stroke="#000000" points="1081.6365,-462.3604 1077.6901,-466.1668 1079.2833,-463.2047 1076.9302,-464.049 1076.9302,-464.049 1076.9302,-464.049 1079.2833,-463.2047 1076.1704,-461.9311 1081.6365,-462.3604 1081.6365,-462.3604"/>
</g>
<!-- ehint -->
<g id="node34" class="node">
<title>ehint</title>
<ellipse fill="none" stroke="#000000" cx="518.4469" cy="-450" rx="28.6953" ry="18"/>
<text text-anchor="middle" x="518.4469" y="-446.3" font-family="Times,serif" font-size="14.00" fill="#000000">ehint</text>
</g>
<!-- methamphetamine&#45;&gt;ehint -->
<g id="edge26" class="edge">
<title>methamphetamine&#45;&gt;ehint</title>
<path fill="none" stroke="#000000" d="M542.372,-503.8314C538.1077,-494.2368 532.8387,-482.3815 528.3317,-472.2407"/>
<polygon fill="#000000" stroke="#000000" points="526.1881,-467.4177 530.275,-471.0729 527.2035,-469.7022 528.2189,-471.9868 528.2189,-471.9868 528.2189,-471.9868 527.2035,-469.7022 526.1628,-472.9006 526.1881,-467.4177 526.1881,-467.4177"/>
</g>
<!-- progesterone -->
<g id="node9" class="node">
<title>progesterone</title>
<ellipse fill="#ffd700" stroke="#000000" cx="347.4469" cy="-594" rx="55.7903" ry="18"/>
<text text-anchor="middle" x="347.4469" y="-590.3" font-family="Times,serif" font-size="14.00" fill="#000000">progesterone</text>
</g>
<!-- enorst -->
<g id="node21" class="node">
<title>enorst</title>
<ellipse fill="none" stroke="#000000" cx="275.4469" cy="-522" rx="32.4942" ry="18"/>
<text text-anchor="middle" x="275.4469" y="-518.3" font-family="Times,serif" font-size="14.00" fill="#000000">enorst</text>
</g>
<!-- progesterone&#45;&gt;enorst -->
<g id="edge15" class="edge">
<title>progesterone&#45;&gt;enorst</title>
<path fill="none" stroke="#000000" d="M330.0178,-576.5708C319.3986,-565.9516 305.8106,-552.3637 294.8503,-541.4033"/>
<polygon fill="#000000" stroke="#000000" points="291.2421,-537.7951 296.3686,-539.7397 293.0099,-539.5629 294.7776,-541.3307 294.7776,-541.3307 294.7776,-541.3307 293.0099,-539.5629 293.1866,-542.9217 291.2421,-537.7951 291.2421,-537.7951"/>
</g>
<!-- progesterone&#45;&gt;enpt -->
<g id="edge16" class="edge">
<title>progesterone&#45;&gt;enpt</title>
<path fill="none" stroke="#000000" d="M344.8043,-575.8296C341.0801,-545.1339 336.5793,-481.5178 354.4469,-432 359.1314,-419.0177 368.1254,-406.5998 376.4987,-396.9525"/>
<polygon fill="#000000" stroke="#000000" points="380.0349,-392.9941 378.3818,-398.2219 378.3694,-394.8585 376.7038,-396.7229 376.7038,-396.7229 376.7038,-396.7229 378.3694,-394.8585 375.0258,-395.2239 380.0349,-392.9941 380.0349,-392.9941"/>
</g>
<!-- enopr -->
<g id="node28" class="node">
<title>enopr</title>
<ellipse fill="none" stroke="#000000" cx="1318.4469" cy="-450" rx="30.5947" ry="18"/>
<text text-anchor="middle" x="1318.4469" y="-446.3" font-family="Times,serif" font-size="14.00" fill="#000000">enopr</text>
</g>
<!-- progesterone&#45;&gt;enopr -->
<g id="edge17" class="edge">
<title>progesterone&#45;&gt;enopr</title>
<path fill="none" stroke="#000000" d="M401.7455,-589.3604C521.7807,-578.999 806.6272,-553.8057 902.4469,-540 1070.8553,-515.7357 1116.2049,-519.2607 1278.4469,-468 1282.2251,-466.8063 1286.1199,-465.3542 1289.9277,-463.7982"/>
<polygon fill="#000000" stroke="#000000" points="1294.6892,-461.7832 1290.9615,-465.804 1292.3869,-462.7575 1290.0846,-463.7319 1290.0846,-463.7319 1290.0846,-463.7319 1292.3869,-462.7575 1289.2076,-461.6598 1294.6892,-461.7832 1294.6892,-461.7832"/>
</g>
<!-- dihydrotestosterone -->
<g id="node10" class="node">
<title>dihydrotestosterone</title>
<ellipse fill="#ffd700" stroke="#000000" cx="263.4469" cy="-666" rx="79.8859" ry="18"/>
<text text-anchor="middle" x="263.4469" y="-662.3" font-family="Times,serif" font-size="14.00" fill="#000000">dihydrotestosterone</text>
</g>
<!-- hnst -->
<g id="node16" class="node">
<title>hnst</title>
<ellipse fill="none" stroke="#000000" cx="170.4469" cy="-450" rx="27" ry="18"/>
<text text-anchor="middle" x="170.4469" y="-446.3" font-family="Times,serif" font-size="14.00" fill="#000000">hnst</text>
</g>
<!-- dihydrotestosterone&#45;&gt;hnst -->
<g id="edge9" class="edge">
<title>dihydrotestosterone&#45;&gt;hnst</title>
<path fill="none" stroke="#000000" d="M230.7901,-649.4519C194.8614,-629.191 139.0805,-591.1589 115.4469,-540 108.7369,-525.475 109.2563,-518.7538 115.4469,-504 121.9128,-488.5903 135.1587,-475.3645 147.0311,-465.859"/>
<polygon fill="#000000" stroke="#000000" points="150.9929,-462.7803 148.4255,-467.625 149.0189,-464.3143 147.0448,-465.8484 147.0448,-465.8484 147.0448,-465.8484 149.0189,-464.3143 145.6642,-464.0717 150.9929,-462.7803 150.9929,-462.7803"/>
</g>
<!-- dihydrotestosterone&#45;&gt;enorst -->
<g id="edge7" class="edge">
<title>dihydrotestosterone&#45;&gt;enorst</title>
<path fill="none" stroke="#000000" d="M264.9668,-647.7623C267.1398,-621.6863 271.1343,-573.752 273.5146,-545.1881"/>
<polygon fill="#000000" stroke="#000000" points="273.9395,-540.0896 275.7664,-545.2592 273.7318,-542.581 273.5242,-545.0723 273.5242,-545.0723 273.5242,-545.0723 273.7318,-542.581 271.2819,-544.8855 273.9395,-540.0896 273.9395,-540.0896"/>
</g>
<!-- dihydrotestosterone&#45;&gt;dehinorty -->
<g id="edge8" class="edge">
<title>dihydrotestosterone&#45;&gt;dehinorty</title>
<path fill="none" stroke="#000000" d="M340.2921,-660.8417C425.6826,-654.0372 567.2503,-639.5556 686.4469,-612 691.4176,-610.8509 696.5785,-609.4161 701.6426,-607.8611"/>
<polygon fill="#000000" stroke="#000000" points="706.6638,-606.2721 702.5757,-609.9259 704.2803,-607.0264 701.8968,-607.7807 701.8968,-607.7807 701.8968,-607.7807 704.2803,-607.0264 701.2179,-605.6355 706.6638,-606.2721 706.6638,-606.2721"/>
</g>
<!-- banana -->
<g id="node11" class="node">
<title>banana</title>
<ellipse fill="#ffd700" stroke="#000000" cx="548.4469" cy="-378" rx="35.9954" ry="18"/>
<text text-anchor="middle" x="548.4469" y="-374.3" font-family="Times,serif" font-size="14.00" fill="#000000">banana</text>
</g>
<!-- an -->
<g id="node19" class="node">
<title>an</title>
<ellipse fill="none" stroke="#000000" cx="560.4469" cy="-306" rx="27" ry="18"/>
<text text-anchor="middle" x="560.4469" y="-302.3" font-family="Times,serif" font-size="14.00" fill="#000000">an</text>
</g>
<!-- banana&#45;&gt;an -->
<g id="edge5" class="edge">
<title>banana&#45;&gt;an</title>
<path fill="none" stroke="#000000" d="M551.4751,-359.8314C553.036,-350.4659 554.9559,-338.9464 556.6186,-328.9701"/>
<polygon fill="#000000" stroke="#000000" points="557.4614,-323.9134 558.8587,-329.2153 557.0503,-326.3794 556.6393,-328.8454 556.6393,-328.8454 556.6393,-328.8454 557.0503,-326.3794 554.4199,-328.4754 557.4614,-323.9134 557.4614,-323.9134"/>
</g>
<!-- kazakhstan -->
<g id="node12" class="node">
<title>kazakhstan</title>
<ellipse fill="#ffd700" stroke="#000000" cx="174.4469" cy="-522" rx="50.0912" ry="18"/>
<text text-anchor="middle" x="174.4469" y="-518.3" font-family="Times,serif" font-size="14.00" fill="#000000">kazakhstan</text>
</g>
<!-- kazakhstan&#45;&gt;ahnt -->
<g id="edge2" class="edge">
<title>kazakhstan&#45;&gt;ahnt</title>
<path fill="none" stroke="#000000" d="M197.9718,-506.0209C215.5149,-494.1048 239.3755,-477.8976 256.9193,-465.9811"/>
<polygon fill="#000000" stroke="#000000" points="261.2358,-463.0491 258.3639,-467.7198 259.1677,-464.4538 257.0997,-465.8585 257.0997,-465.8585 257.0997,-465.8585 259.1677,-464.4538 255.8354,-463.9973 261.2358,-463.0491 261.2358,-463.0491"/>
</g>
<!-- kazakhstan&#45;&gt;hnst -->
<g id="edge3" class="edge">
<title>kazakhstan&#45;&gt;hnst</title>
<path fill="none" stroke="#000000" d="M173.4376,-503.8314C172.9252,-494.6078 172.2967,-483.295 171.7483,-473.4246"/>
<polygon fill="#000000" stroke="#000000" points="171.4699,-468.4133 173.9939,-473.2807 171.6086,-470.9094 171.7473,-473.4056 171.7473,-473.4056 171.7473,-473.4056 171.6086,-470.9094 169.5008,-473.5304 171.4699,-468.4133 171.4699,-468.4133"/>
</g>
<!-- lettuce -->
<g id="node13" class="node">
<title>lettuce</title>
<ellipse fill="#ffd700" stroke="#000000" cx="34.4469" cy="-522" rx="34.394" ry="18"/>
<text text-anchor="middle" x="34.4469" y="-518.3" font-family="Times,serif" font-size="14.00" fill="#000000">lettuce</text>
</g>
<!-- lettuce&#45;&gt;elt -->
<g id="edge1" class="edge">
<title>lettuce&#45;&gt;elt</title>
<path fill="none" stroke="#000000" d="M48.9695,-505.6621C58.4293,-495.0198 70.8286,-481.0707 80.8479,-469.799"/>
<polygon fill="#000000" stroke="#000000" points="84.4217,-465.7784 82.7815,-471.0104 82.7607,-467.647 81.0998,-469.5155 81.0998,-469.5155 81.0998,-469.5155 82.7607,-467.647 79.4181,-468.0207 84.4217,-465.7784 84.4217,-465.7784"/>
</g>
<!-- et -->
<g id="node25" class="node">
<title>et</title>
<ellipse fill="none" stroke="#000000" cx="340.4469" cy="-234" rx="27" ry="18"/>
<text text-anchor="middle" x="340.4469" y="-230.3" font-family="Times,serif" font-size="14.00" fill="#000000">et</text>
</g>
<!-- elt&#45;&gt;et -->
<g id="edge124" class="edge">
<title>elt&#45;&gt;et</title>
<path fill="none" stroke="#000000" d="M105.0359,-432.3573C112.6071,-413.3971 126.234,-382.9023 143.4469,-360 171.792,-322.2861 182.1324,-314.0795 221.4469,-288 249.9829,-269.0705 286.237,-253.6907 311.1881,-244.2553"/>
<polygon fill="#000000" stroke="#000000" points="316.022,-242.4482 312.1265,-246.3067 313.6803,-243.3237 311.3385,-244.1991 311.3385,-244.1991 311.3385,-244.1991 313.6803,-243.3237 310.5506,-242.0916 316.022,-242.4482 316.022,-242.4482"/>
</g>
<!-- hnt -->
<g id="node23" class="node">
<title>hnt</title>
<ellipse fill="none" stroke="#000000" cx="251.4469" cy="-378" rx="27" ry="18"/>
<text text-anchor="middle" x="251.4469" y="-374.3" font-family="Times,serif" font-size="14.00" fill="#000000">hnt</text>
</g>
<!-- ahnt&#45;&gt;hnt -->
<g id="edge39" class="edge">
<title>ahnt&#45;&gt;hnt</title>
<path fill="none" stroke="#000000" d="M273.4269,-432.5708C269.502,-422.8263 264.5702,-410.5819 260.3733,-400.1619"/>
<polygon fill="#000000" stroke="#000000" points="258.5029,-395.5182 262.4581,-399.3155 259.437,-397.8372 260.371,-400.1562 260.371,-400.1562 260.371,-400.1562 259.437,-397.8372 258.2839,-400.9968 258.5029,-395.5182 258.5029,-395.5182"/>
</g>
<!-- ant -->
<g id="node41" class="node">
<title>ant</title>
<ellipse fill="none" stroke="#000000" cx="323.4469" cy="-378" rx="27" ry="18"/>
<text text-anchor="middle" x="323.4469" y="-374.3" font-family="Times,serif" font-size="14.00" fill="#000000">ant</text>
</g>
<!-- ahnt&#45;&gt;ant -->
<g id="edge40" class="edge">
<title>ahnt&#45;&gt;ant</title>
<path fill="none" stroke="#000000" d="M290.6373,-432.937C296.6351,-422.8943 304.2743,-410.103 310.6722,-399.3903"/>
<polygon fill="#000000" stroke="#000000" points="313.3297,-394.9405 312.6977,-400.3869 312.0478,-397.0869 310.7659,-399.2332 310.7659,-399.2332 310.7659,-399.2332 312.0478,-397.0869 308.8342,-398.0796 313.3297,-394.9405 313.3297,-394.9405"/>
</g>
<!-- hnst&#45;&gt;hnt -->
<g id="edge11" class="edge">
<title>hnst&#45;&gt;hnt</title>
<path fill="none" stroke="#000000" d="M186.8385,-435.4297C199.6839,-424.0116 217.6167,-408.0713 231.3312,-395.8807"/>
<polygon fill="#000000" stroke="#000000" points="235.0798,-392.5486 232.8375,-397.5521 233.2112,-394.2095 231.3427,-395.8705 231.3427,-395.8705 231.3427,-395.8705 233.2112,-394.2095 229.8479,-394.1888 235.0798,-392.5486 235.0798,-392.5486"/>
</g>
<!-- nst -->
<g id="node24" class="node">
<title>nst</title>
<ellipse fill="none" stroke="#000000" cx="179.4469" cy="-378" rx="27" ry="18"/>
<text text-anchor="middle" x="179.4469" y="-374.3" font-family="Times,serif" font-size="14.00" fill="#000000">nst</text>
</g>
<!-- hnst&#45;&gt;nst -->
<g id="edge12" class="edge">
<title>hnst&#45;&gt;nst</title>
<path fill="none" stroke="#000000" d="M172.718,-431.8314C173.871,-422.6078 175.2851,-411.295 176.5189,-401.4246"/>
<polygon fill="#000000" stroke="#000000" points="177.1453,-396.4133 178.7577,-401.6538 176.8352,-398.894 176.525,-401.3747 176.525,-401.3747 176.525,-401.3747 176.8352,-398.894 174.2924,-401.0955 177.1453,-396.4133 177.1453,-396.4133"/>
</g>
<!-- t -->
<g id="node17" class="node">
<title>t</title>
<ellipse fill="none" stroke="#000000" cx="412.4469" cy="-162" rx="27" ry="18"/>
<text text-anchor="middle" x="412.4469" y="-158.3" font-family="Times,serif" font-size="14.00" fill="#000000">t</text>
</g>
<g id="node18" class="node">
<title></title>
<ellipse fill="none" stroke="#000000" cx="445.4469" cy="-18" rx="27" ry="18"/>
</g>
<!-- t&#45;&gt; -->
<g id="edge4" class="edge">
<title>t&#45;&gt;</title>
<path fill="none" stroke="#000000" d="M417.3195,-144.0509C420.1103,-133.5678 423.6103,-120.0678 426.4469,-108 431.7911,-85.2644 437.2302,-59.1326 440.9116,-40.9053"/>
<polygon fill="#000000" stroke="#000000" points="441.9018,-35.9832 443.1214,-41.3288 441.4087,-38.4341 440.9156,-40.885 440.9156,-40.885 440.9156,-40.885 441.4087,-38.4341 438.7097,-40.4412 441.9018,-35.9832 441.9018,-35.9832"/>
</g>
<!-- n -->
<g id="node20" class="node">
<title>n</title>
<ellipse fill="none" stroke="#000000" cx="546.4469" cy="-90" rx="27" ry="18"/>
<text text-anchor="middle" x="546.4469" y="-86.3" font-family="Times,serif" font-size="14.00" fill="#000000">n</text>
</g>
<!-- an&#45;&gt;n -->
<g id="edge6" class="edge">
<title>an&#45;&gt;n</title>
<path fill="none" stroke="#000000" d="M559.2774,-287.9555C556.745,-248.885 550.757,-156.498 547.9492,-113.1779"/>
<polygon fill="#000000" stroke="#000000" points="547.623,-108.1451 550.1918,-112.989 547.7848,-110.6398 547.9465,-113.1346 547.9465,-113.1346 547.9465,-113.1346 547.7848,-110.6398 545.7012,-113.2802 547.623,-108.1451 547.623,-108.1451"/>
</g>
<!-- n&#45;&gt; -->
<g id="edge10" class="edge">
<title>n&#45;&gt;</title>
<path fill="none" stroke="#000000" d="M527.922,-76.7941C511.2271,-64.8928 486.6118,-47.3452 468.6193,-34.5189"/>
<polygon fill="#000000" stroke="#000000" points="464.1965,-31.366 469.574,-32.4363 466.2322,-32.8172 468.2679,-34.2684 468.2679,-34.2684 468.2679,-34.2684 466.2322,-32.8172 466.9618,-36.1006 464.1965,-31.366 464.1965,-31.366"/>
</g>
<!-- enorst&#45;&gt;nst -->
<g id="edge19" class="edge">
<title>enorst&#45;&gt;nst</title>
<path fill="none" stroke="#000000" d="M264.0575,-504.9158C246.4254,-478.4677 212.5665,-427.6794 193.4603,-399.02"/>
<polygon fill="#000000" stroke="#000000" points="190.5253,-394.6175 195.1709,-397.5297 191.912,-396.6976 193.2988,-398.7778 193.2988,-398.7778 193.2988,-398.7778 191.912,-396.6976 191.4267,-400.0259 190.5253,-394.6175 190.5253,-394.6175"/>
</g>
<!-- enort -->
<g id="node29" class="node">
<title>enort</title>
<ellipse fill="none" stroke="#000000" cx="668.4469" cy="-450" rx="28.6953" ry="18"/>
<text text-anchor="middle" x="668.4469" y="-446.3" font-family="Times,serif" font-size="14.00" fill="#000000">enort</text>
</g>
<!-- enorst&#45;&gt;enort -->
<g id="edge18" class="edge">
<title>enorst&#45;&gt;enort</title>
<path fill="none" stroke="#000000" d="M305.3213,-514.4901C320.0452,-510.9689 338.1064,-506.9167 354.4469,-504 476.6618,-482.1857 512.5202,-503.62 631.4469,-468 634.9284,-466.9573 638.4873,-465.6181 641.9555,-464.1415"/>
<polygon fill="#000000" stroke="#000000" points="646.6128,-462.0577 642.9677,-466.1536 644.3308,-463.0787 642.0488,-464.0998 642.0488,-464.0998 642.0488,-464.0998 644.3308,-463.0787 641.1298,-462.046 646.6128,-462.0577 646.6128,-462.0577"/>
</g>
<!-- dehinorty&#45;&gt;deino -->
<g id="edge88" class="edge">
<title>dehinorty&#45;&gt;deino</title>
<path fill="none" stroke="#000000" d="M778.528,-585.3983C820.9558,-575.3298 885.0071,-557.7617 902.4469,-540 920.0223,-522.1003 926.589,-493.3645 929.0293,-473.1894"/>
<polygon fill="#000000" stroke="#000000" points="929.5896,-467.9997 931.2898,-473.2123 929.3212,-470.4852 929.0528,-472.9708 929.0528,-472.9708 929.0528,-472.9708 929.3212,-470.4852 926.8158,-472.7293 929.5896,-467.9997 929.5896,-467.9997"/>
</g>
<!-- dehinorty&#45;&gt;ehinorty -->
<g id="edge87" class="edge">
<title>dehinorty&#45;&gt;ehinorty</title>
<path fill="none" stroke="#000000" d="M726.6171,-576.5708C719.2607,-566.5772 709.9689,-553.9543 702.1751,-543.3666"/>
<polygon fill="#000000" stroke="#000000" points="699.1586,-539.2687 703.9348,-541.9615 700.6407,-541.282 702.1227,-543.2954 702.1227,-543.2954 702.1227,-543.2954 700.6407,-541.282 700.3107,-544.6292 699.1586,-539.2687 699.1586,-539.2687"/>
</g>
<!-- nt -->
<g id="node30" class="node">
<title>nt</title>
<ellipse fill="none" stroke="#000000" cx="412.4469" cy="-234" rx="27" ry="18"/>
<text text-anchor="middle" x="412.4469" y="-230.3" font-family="Times,serif" font-size="14.00" fill="#000000">nt</text>
</g>
<!-- hnt&#45;&gt;nt -->
<g id="edge34" class="edge">
<title>hnt&#45;&gt;nt</title>
<path fill="none" stroke="#000000" d="M255.8924,-360.225C261.704,-340.2886 273.6733,-308.1188 294.4469,-288 323.0382,-260.31 340.4135,-268.9053 376.4469,-252 379.6653,-250.4901 383.0263,-248.8694 386.3461,-247.2416"/>
<polygon fill="#000000" stroke="#000000" points="390.8303,-245.0272 387.3434,-249.2586 388.5888,-246.1342 386.3472,-247.2412 386.3472,-247.2412 386.3472,-247.2412 388.5888,-246.1342 385.3509,-245.2237 390.8303,-245.0272 390.8303,-245.0272"/>
</g>
<!-- hn -->
<g id="node38" class="node">
<title>hn</title>
<ellipse fill="none" stroke="#000000" cx="601.4469" cy="-234" rx="27" ry="18"/>
<text text-anchor="middle" x="601.4469" y="-230.3" font-family="Times,serif" font-size="14.00" fill="#000000">hn</text>
</g>
<!-- hnt&#45;&gt;hn -->
<g id="edge35" class="edge">
<title>hnt&#45;&gt;hn</title>
<path fill="none" stroke="#000000" d="M267.5189,-363.212C290.1357,-343.196 333.4196,-307.722 376.4469,-288 441.4988,-258.1828 524.9626,-243.7152 569.7173,-237.6727"/>
<polygon fill="#000000" stroke="#000000" points="574.716,-237.0112 570.0544,-239.8978 572.2376,-237.3393 569.7592,-237.6673 569.7592,-237.6673 569.7592,-237.6673 572.2376,-237.3393 569.464,-235.4367 574.716,-237.0112 574.716,-237.0112"/>
</g>
<!-- nst&#45;&gt;nt -->
<g id="edge20" class="edge">
<title>nst&#45;&gt;nt</title>
<path fill="none" stroke="#000000" d="M191.1672,-361.6954C206.3818,-341.6432 234.7639,-307.8335 266.4469,-288 310.0488,-260.7053 328.8685,-271.5555 376.4469,-252 379.5856,-250.71 382.8289,-249.2616 386.0242,-247.7615"/>
<polygon fill="#000000" stroke="#000000" points="390.984,-245.3768 387.4529,-249.5712 388.7309,-246.4601 386.4778,-247.5434 386.4778,-247.5434 386.4778,-247.5434 388.7309,-246.4601 385.5028,-245.5156 390.984,-245.3768 390.984,-245.3768"/>
</g>
<!-- et&#45;&gt;t -->
<g id="edge13" class="edge">
<title>et&#45;&gt;t</title>
<path fill="none" stroke="#000000" d="M355.7163,-218.7307C366.7894,-207.6575 381.832,-192.6149 393.6451,-180.8018"/>
<polygon fill="#000000" stroke="#000000" points="397.1996,-177.2473 395.255,-182.3739 395.4318,-179.0151 393.664,-180.7829 393.664,-180.7829 393.664,-180.7829 395.4318,-179.0151 392.073,-179.1919 397.1996,-177.2473 397.1996,-177.2473"/>
</g>
<!-- e -->
<g id="node26" class="node">
<title>e</title>
<ellipse fill="none" stroke="#000000" cx="390.4469" cy="-90" rx="27" ry="18"/>
<text text-anchor="middle" x="390.4469" y="-86.3" font-family="Times,serif" font-size="14.00" fill="#000000">e</text>
</g>
<!-- et&#45;&gt;e -->
<g id="edge14" class="edge">
<title>et&#45;&gt;e</title>
<path fill="none" stroke="#000000" d="M346.5779,-216.3428C355.6495,-190.2167 372.6457,-141.2677 382.61,-112.5705"/>
<polygon fill="#000000" stroke="#000000" points="384.2658,-107.8017 384.7512,-113.2631 383.4458,-110.1633 382.6257,-112.525 382.6257,-112.525 382.6257,-112.525 383.4458,-110.1633 380.5002,-111.787 384.2658,-107.8017 384.2658,-107.8017"/>
</g>
<!-- e&#45;&gt; -->
<g id="edge60" class="edge">
<title>e&#45;&gt;</title>
<path fill="none" stroke="#000000" d="M402.9273,-73.6621C410.9439,-63.1676 421.4169,-49.4575 429.9628,-38.2702"/>
<polygon fill="#000000" stroke="#000000" points="433.016,-34.2733 431.7688,-39.6125 431.4984,-36.2599 429.9807,-38.2466 429.9807,-38.2466 429.9807,-38.2466 431.4984,-36.2599 428.1927,-36.8808 433.016,-34.2733 433.016,-34.2733"/>
</g>
<!-- ent -->
<g id="node35" class="node">
<title>ent</title>
<ellipse fill="none" stroke="#000000" cx="412.4469" cy="-306" rx="27" ry="18"/>
<text text-anchor="middle" x="412.4469" y="-302.3" font-family="Times,serif" font-size="14.00" fill="#000000">ent</text>
</g>
<!-- enpt&#45;&gt;ent -->
<g id="edge33" class="edge">
<title>enpt&#45;&gt;ent</title>
<path fill="none" stroke="#000000" d="M399.6492,-360.2022C401.8764,-350.7694 404.6378,-339.074 407.0248,-328.9643"/>
<polygon fill="#000000" stroke="#000000" points="408.2341,-323.8425 409.2749,-329.2258 407.6596,-326.2756 407.0851,-328.7087 407.0851,-328.7087 407.0851,-328.7087 407.6596,-326.2756 404.8953,-328.1917 408.2341,-323.8425 408.2341,-323.8425"/>
</g>
<!-- enp -->
<g id="node37" class="node">
<title>enp</title>
<ellipse fill="none" stroke="#000000" cx="1039.4469" cy="-234" rx="27" ry="18"/>
<text text-anchor="middle" x="1039.4469" y="-230.3" font-family="Times,serif" font-size="14.00" fill="#000000">enp</text>
</g>
<!-- enpt&#45;&gt;enp -->
<g id="edge32" class="edge">
<title>enpt&#45;&gt;enp</title>
<path fill="none" stroke="#000000" d="M410.9536,-362.9596C433.707,-341.9497 478.4484,-304.5371 524.4469,-288 710.3367,-221.1701 772.5284,-284.0626 967.4469,-252 981.4769,-249.6922 996.7899,-246.0293 1009.6728,-242.6085"/>
<polygon fill="#000000" stroke="#000000" points="1014.666,-241.2627 1010.4239,-244.7364 1012.2522,-241.9134 1009.8383,-242.564 1009.8383,-242.564 1009.8383,-242.564 1012.2522,-241.9134 1009.2528,-240.3915 1014.666,-241.2627 1014.666,-241.2627"/>
</g>
<!-- enor -->
<g id="node47" class="node">
<title>enor</title>
<ellipse fill="none" stroke="#000000" cx="1263.4469" cy="-378" rx="27" ry="18"/>
<text text-anchor="middle" x="1263.4469" y="-374.3" font-family="Times,serif" font-size="14.00" fill="#000000">enor</text>
</g>
<!-- enopr&#45;&gt;enor -->
<g id="edge54" class="edge">
<title>enopr&#45;&gt;enor</title>
<path fill="none" stroke="#000000" d="M1305.6906,-433.3008C1297.7344,-422.8854 1287.4406,-409.4099 1279.0064,-398.3688"/>
<polygon fill="#000000" stroke="#000000" points="1275.7558,-394.1134 1280.579,-396.7209 1277.2734,-396.1001 1278.791,-398.0868 1278.791,-398.0868 1278.791,-398.0868 1277.2734,-396.1001 1277.003,-399.4526 1275.7558,-394.1134 1275.7558,-394.1134"/>
</g>
<!-- enop -->
<g id="node50" class="node">
<title>enop</title>
<ellipse fill="none" stroke="#000000" cx="1150.4469" cy="-306" rx="27.8951" ry="18"/>
<text text-anchor="middle" x="1150.4469" y="-302.3" font-family="Times,serif" font-size="14.00" fill="#000000">enop</text>
</g>
<!-- enopr&#45;&gt;enop -->
<g id="edge53" class="edge">
<title>enopr&#45;&gt;enop</title>
<path fill="none" stroke="#000000" d="M1319.5017,-431.8687C1319.6643,-411.9097 1316.8384,-380.0068 1299.4469,-360 1270.0615,-326.1956 1217.7972,-313.5477 1183.6341,-308.8189"/>
<polygon fill="#000000" stroke="#000000" points="1178.3129,-308.126 1183.5616,-306.5406 1180.7919,-308.4488 1183.271,-308.7717 1183.271,-308.7717 1183.271,-308.7717 1180.7919,-308.4488 1182.9804,-311.0029 1178.3129,-308.126 1178.3129,-308.126"/>
</g>
<!-- enpr -->
<g id="node51" class="node">
<title>enpr</title>
<ellipse fill="none" stroke="#000000" cx="1449.4469" cy="-378" rx="27" ry="18"/>
<text text-anchor="middle" x="1449.4469" y="-374.3" font-family="Times,serif" font-size="14.00" fill="#000000">enpr</text>
</g>
<!-- enopr&#45;&gt;enpr -->
<g id="edge55" class="edge">
<title>enopr&#45;&gt;enpr</title>
<path fill="none" stroke="#000000" d="M1340.9666,-437.6228C1364.0101,-424.9576 1399.7606,-405.3085 1423.8602,-392.0629"/>
<polygon fill="#000000" stroke="#000000" points="1428.5175,-389.5032 1425.2195,-393.8833 1426.3267,-390.7074 1424.1358,-391.9115 1424.1358,-391.9115 1424.1358,-391.9115 1426.3267,-390.7074 1423.052,-389.9397 1428.5175,-389.5032 1428.5175,-389.5032"/>
</g>
<!-- enort&#45;&gt;enor -->
<g id="edge81" class="edge">
<title>enort&#45;&gt;enor</title>
<path fill="none" stroke="#000000" d="M690.0236,-438.0834C695.2585,-435.6736 700.9381,-433.44 706.4469,-432 931.0091,-373.2989 1003.5219,-457.0863 1227.4469,-396 1231.062,-395.0138 1234.7422,-393.651 1238.3016,-392.1125"/>
<polygon fill="#000000" stroke="#000000" points="1243.063,-389.9247 1239.4591,-394.0569 1240.7913,-390.9686 1238.5196,-392.0124 1238.5196,-392.0124 1238.5196,-392.0124 1240.7913,-390.9686 1237.5802,-389.9679 1243.063,-389.9247 1243.063,-389.9247"/>
</g>
<!-- enot -->
<g id="node63" class="node">
<title>enot</title>
<ellipse fill="none" stroke="#000000" cx="629.4469" cy="-378" rx="27" ry="18"/>
<text text-anchor="middle" x="629.4469" y="-374.3" font-family="Times,serif" font-size="14.00" fill="#000000">enot</text>
</g>
<!-- enort&#45;&gt;enot -->
<g id="edge80" class="edge">
<title>enort&#45;&gt;enot</title>
<path fill="none" stroke="#000000" d="M659.2045,-432.937C653.7647,-422.8943 646.8361,-410.103 641.0334,-399.3903"/>
<polygon fill="#000000" stroke="#000000" points="638.6231,-394.9405 642.9829,-398.2653 639.8138,-397.1388 641.0045,-399.337 641.0045,-399.337 641.0045,-399.337 639.8138,-397.1388 639.0261,-400.4086 638.6231,-394.9405 638.6231,-394.9405"/>
</g>
<!-- nt&#45;&gt;t -->
<g id="edge28" class="edge">
<title>nt&#45;&gt;t</title>
<path fill="none" stroke="#000000" d="M412.4469,-215.8314C412.4469,-206.6078 412.4469,-195.295 412.4469,-185.4246"/>
<polygon fill="#000000" stroke="#000000" points="412.4469,-180.4133 414.697,-185.4132 412.447,-182.9133 412.447,-185.4133 412.447,-185.4133 412.447,-185.4133 412.447,-182.9133 410.197,-185.4133 412.4469,-180.4133 412.4469,-180.4133"/>
</g>
<!-- nt&#45;&gt;n -->
<g id="edge27" class="edge">
<title>nt&#45;&gt;n</title>
<path fill="none" stroke="#000000" d="M426.7873,-218.5895C451.4703,-192.0645 501.9122,-137.8582 528.743,-109.0251"/>
<polygon fill="#000000" stroke="#000000" points="532.2097,-105.2997 530.4507,-110.4929 530.5066,-107.1299 528.8035,-108.9601 528.8035,-108.9601 528.8035,-108.9601 530.5066,-107.1299 527.1564,-107.4273 532.2097,-105.2997 532.2097,-105.2997"/>
</g>
<!-- eint -->
<g id="node40" class="node">
<title>eint</title>
<ellipse fill="none" stroke="#000000" cx="467.4469" cy="-378" rx="27" ry="18"/>
<text text-anchor="middle" x="467.4469" y="-374.3" font-family="Times,serif" font-size="14.00" fill="#000000">eint</text>
</g>
<!-- aeimnt&#45;&gt;eint -->
<g id="edge114" class="edge">
<title>aeimnt&#45;&gt;eint</title>
<path fill="none" stroke="#000000" d="M414.1041,-433.6621C424.5353,-422.7774 438.2816,-408.4334 449.2072,-397.0328"/>
<polygon fill="#000000" stroke="#000000" points="452.7954,-393.2886 450.9603,-398.4554 451.0656,-395.0936 449.3358,-396.8986 449.3358,-396.8986 449.3358,-396.8986 451.0656,-395.0936 447.7113,-395.3418 452.7954,-393.2886 452.7954,-393.2886"/>
</g>
<!-- aeimnt&#45;&gt;ant -->
<g id="edge116" class="edge">
<title>aeimnt&#45;&gt;ant</title>
<path fill="none" stroke="#000000" d="M381.802,-434.0209C370.2256,-422.9075 354.7611,-408.0616 342.6605,-396.445"/>
<polygon fill="#000000" stroke="#000000" points="339.0211,-392.9512 344.1863,-394.7908 340.8246,-394.6826 342.6281,-396.4139 342.6281,-396.4139 342.6281,-396.4139 340.8246,-394.6826 341.0699,-398.0371 339.0211,-392.9512 339.0211,-392.9512"/>
</g>
<!-- aeimn -->
<g id="node61" class="node">
<title>aeimn</title>
<ellipse fill="none" stroke="#000000" cx="706.4469" cy="-378" rx="32.4942" ry="18"/>
<text text-anchor="middle" x="706.4469" y="-374.3" font-family="Times,serif" font-size="14.00" fill="#000000">aeimn</text>
</g>
<!-- aeimnt&#45;&gt;aeimn -->
<g id="edge115" class="edge">
<title>aeimnt&#45;&gt;aeimn</title>
<path fill="none" stroke="#000000" d="M430.7342,-442.726C445.8193,-439.3754 464.0337,-435.3979 480.4469,-432 562.4722,-415.0189 585.4968,-420.9893 665.4469,-396 669.2032,-394.8259 673.0773,-393.4123 676.8755,-391.8998"/>
<polygon fill="#000000" stroke="#000000" points="681.6316,-389.9416 677.8648,-393.9258 679.3199,-390.8934 677.0082,-391.8452 677.0082,-391.8452 677.0082,-391.8452 679.3199,-390.8934 676.1515,-389.7646 681.6316,-389.9416 681.6316,-389.9416"/>
</g>
<!-- eimnp -->
<g id="node45" class="node">
<title>eimnp</title>
<ellipse fill="none" stroke="#000000" cx="987.4469" cy="-378" rx="33.2948" ry="18"/>
<text text-anchor="middle" x="987.4469" y="-374.3" font-family="Times,serif" font-size="14.00" fill="#000000">eimnp</text>
</g>
<!-- aeimnp&#45;&gt;eimnp -->
<g id="edge74" class="edge">
<title>aeimnp&#45;&gt;eimnp</title>
<path fill="none" stroke="#000000" d="M870.3432,-436.9613C895.0441,-424.5245 932.2076,-405.8128 958.0185,-392.8171"/>
<polygon fill="#000000" stroke="#000000" points="962.7002,-390.4599 959.2462,-394.7181 960.4673,-391.5842 958.2343,-392.7085 958.2343,-392.7085 958.2343,-392.7085 960.4673,-391.5842 957.2225,-390.6988 962.7002,-390.4599 962.7002,-390.4599"/>
</g>
<!-- aeimnp&#45;&gt;aeimn -->
<g id="edge73" class="edge">
<title>aeimnp&#45;&gt;aeimn</title>
<path fill="none" stroke="#000000" d="M819.1356,-436.7941C795.2554,-424.3349 759.515,-405.6877 734.7127,-392.7473"/>
<polygon fill="#000000" stroke="#000000" points="730.2142,-390.4003 735.6879,-390.7183 732.4306,-391.5567 734.6471,-392.7132 734.6471,-392.7132 734.6471,-392.7132 732.4306,-391.5567 733.6063,-394.708 730.2142,-390.4003 730.2142,-390.4003"/>
</g>
<!-- ehimnp&#45;&gt;eimnp -->
<g id="edge49" class="edge">
<title>ehimnp&#45;&gt;eimnp</title>
<path fill="none" stroke="#000000" d="M1085.6345,-435.9468C1065.1769,-423.8734 1035.6955,-406.4746 1014.3816,-393.8959"/>
<polygon fill="#000000" stroke="#000000" points="1009.9636,-391.2885 1015.4132,-391.8921 1012.1166,-392.5592 1014.2696,-393.8298 1014.2696,-393.8298 1014.2696,-393.8298 1012.1166,-392.5592 1013.126,-395.7675 1009.9636,-391.2885 1009.9636,-391.2885"/>
</g>
<!-- ehinp -->
<g id="node46" class="node">
<title>ehinp</title>
<ellipse fill="none" stroke="#000000" cx="1187.4469" cy="-378" rx="30.5947" ry="18"/>
<text text-anchor="middle" x="1187.4469" y="-374.3" font-family="Times,serif" font-size="14.00" fill="#000000">ehinp</text>
</g>
<!-- ehimnp&#45;&gt;ehinp -->
<g id="edge50" class="edge">
<title>ehimnp&#45;&gt;ehinp</title>
<path fill="none" stroke="#000000" d="M1127.1464,-433.6621C1139.0407,-422.6827 1154.748,-408.1836 1167.1495,-396.7361"/>
<polygon fill="#000000" stroke="#000000" points="1170.8843,-393.2886 1168.7364,-398.3334 1169.0473,-394.9843 1167.2102,-396.68 1167.2102,-396.68 1167.2102,-396.68 1169.0473,-394.9843 1165.6841,-395.0267 1170.8843,-393.2886 1170.8843,-393.2886"/>
</g>
<!-- ehint&#45;&gt;hnt -->
<g id="edge38" class="edge">
<title>ehint&#45;&gt;hnt</title>
<path fill="none" stroke="#000000" d="M491.3696,-443.5568C476.8633,-440.1126 458.6844,-435.8085 442.4469,-432 373.593,-415.8504 353.9799,-419.98 287.4469,-396 284.0122,-394.762 280.4798,-393.2796 277.0328,-391.704"/>
<polygon fill="#000000" stroke="#000000" points="272.4023,-389.512 277.8843,-389.6177 274.6619,-390.5817 276.9215,-391.6514 276.9215,-391.6514 276.9215,-391.6514 274.6619,-390.5817 275.9588,-393.685 272.4023,-389.512 272.4023,-389.512"/>
</g>
<!-- ehin -->
<g id="node39" class="node">
<title>ehin</title>
<ellipse fill="none" stroke="#000000" cx="967.4469" cy="-306" rx="27" ry="18"/>
<text text-anchor="middle" x="967.4469" y="-302.3" font-family="Times,serif" font-size="14.00" fill="#000000">ehin</text>
</g>
<!-- ehint&#45;&gt;ehin -->
<g id="edge36" class="edge">
<title>ehint&#45;&gt;ehin</title>
<path fill="none" stroke="#000000" d="M540.3486,-438.1568C545.2185,-435.8617 550.4276,-433.6581 555.4469,-432 637.8855,-404.7664 664.8679,-422.8043 747.4469,-396 782.9967,-384.4609 788.7662,-373.9349 823.4469,-360 870.3953,-341.1359 884.7019,-343.3624 931.4469,-324 934.582,-322.7014 937.8232,-321.2477 941.0173,-319.7446"/>
<polygon fill="#000000" stroke="#000000" points="945.9759,-317.357 942.4471,-321.5534 943.7234,-318.4416 941.4709,-319.5262 941.4709,-319.5262 941.4709,-319.5262 943.7234,-318.4416 940.4948,-317.499 945.9759,-317.357 945.9759,-317.357"/>
</g>
<!-- ehint&#45;&gt;eint -->
<g id="edge37" class="edge">
<title>ehint&#45;&gt;eint</title>
<path fill="none" stroke="#000000" d="M506.6183,-433.3008C499.3447,-423.0321 489.9641,-409.7889 482.2063,-398.8367"/>
<polygon fill="#000000" stroke="#000000" points="479.2114,-394.6087 483.9376,-397.3882 480.6565,-396.6487 482.1015,-398.6888 482.1015,-398.6888 482.1015,-398.6888 480.6565,-396.6487 480.2655,-399.9894 479.2114,-394.6087 479.2114,-394.6087"/>
</g>
<!-- ent&#45;&gt;et -->
<g id="edge29" class="edge">
<title>ent&#45;&gt;et</title>
<path fill="none" stroke="#000000" d="M397.1776,-290.7307C386.1045,-279.6575 371.0619,-264.6149 359.2488,-252.8018"/>
<polygon fill="#000000" stroke="#000000" points="355.6943,-249.2473 360.8208,-251.1919 357.4621,-251.0151 359.2298,-252.7829 359.2298,-252.7829 359.2298,-252.7829 357.4621,-251.0151 357.6388,-254.3739 355.6943,-249.2473 355.6943,-249.2473"/>
</g>
<!-- ent&#45;&gt;nt -->
<g id="edge31" class="edge">
<title>ent&#45;&gt;nt</title>
<path fill="none" stroke="#000000" d="M412.4469,-287.8314C412.4469,-278.6078 412.4469,-267.295 412.4469,-257.4246"/>
<polygon fill="#000000" stroke="#000000" points="412.4469,-252.4133 414.697,-257.4132 412.447,-254.9133 412.447,-257.4133 412.447,-257.4133 412.447,-257.4133 412.447,-254.9133 410.197,-257.4133 412.4469,-252.4133 412.4469,-252.4133"/>
</g>
<!-- en -->
<g id="node36" class="node">
<title>en</title>
<ellipse fill="none" stroke="#000000" cx="859.4469" cy="-162" rx="27" ry="18"/>
<text text-anchor="middle" x="859.4469" y="-158.3" font-family="Times,serif" font-size="14.00" fill="#000000">en</text>
</g>
<!-- ent&#45;&gt;en -->
<g id="edge30" class="edge">
<title>ent&#45;&gt;en</title>
<path fill="none" stroke="#000000" d="M438.0426,-299.9099C495.999,-286.1131 632.6295,-253.545 637.4469,-252 709.5165,-228.8862 791.3089,-193.1528 832.5798,-174.4227"/>
<polygon fill="#000000" stroke="#000000" points="837.168,-172.3346 833.5491,-176.4536 834.8926,-173.3701 832.6171,-174.4057 832.6171,-174.4057 832.6171,-174.4057 834.8926,-173.3701 831.6851,-172.3578 837.168,-172.3346 837.168,-172.3346"/>
</g>
<!-- en&#45;&gt;n -->
<g id="edge47" class="edge">
<title>en&#45;&gt;n</title>
<path fill="none" stroke="#000000" d="M833.8328,-156.1079C776.6025,-142.9431 638.5582,-111.1885 576.9842,-97.0245"/>
<polygon fill="#000000" stroke="#000000" points="571.976,-95.8725 577.3532,-94.8007 574.4124,-96.433 576.8487,-96.9935 576.8487,-96.9935 576.8487,-96.9935 574.4124,-96.433 576.3443,-99.1862 571.976,-95.8725 571.976,-95.8725"/>
</g>
<!-- en&#45;&gt;e -->
<g id="edge48" class="edge">
<title>en&#45;&gt;e</title>
<path fill="none" stroke="#000000" d="M832.8877,-157.9227C752.0458,-145.512 509.1949,-108.23 422.0263,-94.848"/>
<polygon fill="#000000" stroke="#000000" points="417.0049,-94.0771 422.2884,-92.612 419.4759,-94.4565 421.947,-94.8359 421.947,-94.8359 421.947,-94.8359 419.4759,-94.4565 421.6055,-97.0599 417.0049,-94.0771 417.0049,-94.0771"/>
</g>
<!-- enp&#45;&gt;en -->
<g id="edge46" class="edge">
<title>enp&#45;&gt;en</title>
<path fill="none" stroke="#000000" d="M1016.2836,-224.7347C983.4319,-211.594 923.3616,-187.5658 887.86,-173.3652"/>
<polygon fill="#000000" stroke="#000000" points="882.8065,-171.3438 888.2845,-171.1118 885.1277,-172.2723 887.4489,-173.2008 887.4489,-173.2008 887.4489,-173.2008 885.1277,-172.2723 886.6132,-175.2899 882.8065,-171.3438 882.8065,-171.3438"/>
</g>
<!-- hn&#45;&gt;n -->
<g id="edge59" class="edge">
<title>hn&#45;&gt;n</title>
<path fill="none" stroke="#000000" d="M594.7029,-216.3428C584.7242,-190.2167 566.0284,-141.2677 555.0676,-112.5705"/>
<polygon fill="#000000" stroke="#000000" points="553.2462,-107.8017 557.1322,-111.6697 554.1382,-110.1371 555.0303,-112.4726 555.0303,-112.4726 555.0303,-112.4726 554.1382,-110.1371 552.9284,-113.2754 553.2462,-107.8017 553.2462,-107.8017"/>
</g>
<!-- ehin&#45;&gt;hn -->
<g id="edge44" class="edge">
<title>ehin&#45;&gt;hn</title>
<path fill="none" stroke="#000000" d="M946.5756,-294.2421C941.7252,-291.8854 936.4997,-289.6348 931.4469,-288 825.823,-253.825 693.8621,-240.5751 633.8479,-236.0581"/>
<polygon fill="#000000" stroke="#000000" points="628.6133,-235.6726 633.7651,-233.796 631.1066,-235.8563 633.5998,-236.0399 633.5998,-236.0399 633.5998,-236.0399 631.1066,-235.8563 633.4345,-238.2838 628.6133,-235.6726 628.6133,-235.6726"/>
</g>
<!-- ein -->
<g id="node44" class="node">
<title>ein</title>
<ellipse fill="none" stroke="#000000" cx="859.4469" cy="-234" rx="27" ry="18"/>
<text text-anchor="middle" x="859.4469" y="-230.3" font-family="Times,serif" font-size="14.00" fill="#000000">ein</text>
</g>
<!-- ehin&#45;&gt;ein -->
<g id="edge45" class="edge">
<title>ehin&#45;&gt;ein</title>
<path fill="none" stroke="#000000" d="M948.1387,-293.1278C929.8628,-280.9439 902.3932,-262.6308 882.8731,-249.6174"/>
<polygon fill="#000000" stroke="#000000" points="878.588,-246.7607 883.9964,-247.6621 880.6682,-248.1475 882.7483,-249.5343 882.7483,-249.5343 882.7483,-249.5343 880.6682,-248.1475 881.5002,-251.4064 878.588,-246.7607 878.588,-246.7607"/>
</g>
<!-- eint&#45;&gt;ent -->
<g id="edge112" class="edge">
<title>eint&#45;&gt;ent</title>
<path fill="none" stroke="#000000" d="M454.9666,-361.6621C446.95,-351.1676 436.477,-337.4575 427.9311,-326.2702"/>
<polygon fill="#000000" stroke="#000000" points="424.8779,-322.2733 429.7012,-324.8808 426.3955,-324.2599 427.9131,-326.2466 427.9131,-326.2466 427.9131,-326.2466 426.3955,-324.2599 426.1251,-327.6125 424.8779,-322.2733 424.8779,-322.2733"/>
</g>
<!-- eint&#45;&gt;ein -->
<g id="edge113" class="edge">
<title>eint&#45;&gt;ein</title>
<path fill="none" stroke="#000000" d="M473.472,-360.115C481.5479,-339.1217 498.0086,-305.0174 524.4469,-288 622.5412,-224.8604 669.8133,-273.6384 784.4469,-252 799.3301,-249.1906 815.7028,-245.3499 829.3433,-241.9376"/>
<polygon fill="#000000" stroke="#000000" points="834.2373,-240.7026 829.9399,-244.1077 831.8133,-241.3143 829.3893,-241.9261 829.3893,-241.9261 829.3893,-241.9261 831.8133,-241.3143 828.8387,-239.7445 834.2373,-240.7026 834.2373,-240.7026"/>
</g>
<!-- ant&#45;&gt;an -->
<g id="edge122" class="edge">
<title>ant&#45;&gt;an</title>
<path fill="none" stroke="#000000" d="M344.4492,-366.6145C349.2928,-364.2386 354.4824,-361.886 359.4469,-360 417.958,-337.7721 489.3151,-320.901 529.344,-312.3145"/>
<polygon fill="#000000" stroke="#000000" points="534.5422,-311.2083 530.12,-314.4498 532.0969,-311.7287 529.6517,-312.2491 529.6517,-312.2491 529.6517,-312.2491 532.0969,-311.7287 529.1833,-310.0484 534.5422,-311.2083 534.5422,-311.2083"/>
</g>
<!-- ant&#45;&gt;nt -->
<g id="edge123" class="edge">
<title>ant&#45;&gt;nt</title>
<path fill="none" stroke="#000000" d="M333.1316,-360.9111C343.5511,-342.6805 360.7441,-313.0405 376.4469,-288 383.4656,-276.8077 391.6068,-264.5401 398.37,-254.53"/>
<polygon fill="#000000" stroke="#000000" points="401.1769,-250.3878 400.2346,-255.7892 399.7744,-252.4574 398.372,-254.527 398.372,-254.527 398.372,-254.527 399.7744,-252.4574 396.5093,-253.2648 401.1769,-250.3878 401.1769,-250.3878"/>
</g>
<!-- ehinopr&#45;&gt;enopr -->
<g id="edge97" class="edge">
<title>ehinopr&#45;&gt;enopr</title>
<path fill="none" stroke="#000000" d="M1254.6454,-506.0209C1267.3023,-494.9075 1284.2101,-480.0616 1297.4401,-468.445"/>
<polygon fill="#000000" stroke="#000000" points="1301.4192,-464.9512 1299.1465,-469.941 1299.5405,-466.6007 1297.6619,-468.2503 1297.6619,-468.2503 1297.6619,-468.2503 1299.5405,-466.6007 1296.1774,-466.5595 1301.4192,-464.9512 1301.4192,-464.9512"/>
</g>
<!-- ehinor -->
<g id="node52" class="node">
<title>ehinor</title>
<ellipse fill="none" stroke="#000000" cx="1236.4469" cy="-450" rx="33.2948" ry="18"/>
<text text-anchor="middle" x="1236.4469" y="-446.3" font-family="Times,serif" font-size="14.00" fill="#000000">ehinor</text>
</g>
<!-- ehinopr&#45;&gt;ehinor -->
<g id="edge95" class="edge">
<title>ehinopr&#45;&gt;ehinor</title>
<path fill="none" stroke="#000000" d="M1236.4469,-503.8314C1236.4469,-494.6078 1236.4469,-483.295 1236.4469,-473.4246"/>
<polygon fill="#000000" stroke="#000000" points="1236.4469,-468.4133 1238.697,-473.4132 1236.447,-470.9133 1236.447,-473.4133 1236.447,-473.4133 1236.447,-473.4133 1236.447,-470.9133 1234.197,-473.4133 1236.4469,-468.4133 1236.4469,-468.4133"/>
</g>
<!-- einop -->
<g id="node59" class="node">
<title>einop</title>
<ellipse fill="none" stroke="#000000" cx="1069.4469" cy="-378" rx="30.5947" ry="18"/>
<text text-anchor="middle" x="1069.4469" y="-374.3" font-family="Times,serif" font-size="14.00" fill="#000000">einop</text>
</g>
<!-- ehinopr&#45;&gt;einop -->
<g id="edge98" class="edge">
<title>ehinopr&#45;&gt;einop</title>
<path fill="none" stroke="#000000" d="M1223.5793,-504.7381C1208.7501,-485.5585 1182.9934,-454.3517 1156.4469,-432 1138.0186,-416.4835 1114.7215,-402.2627 1096.8743,-392.3139"/>
<polygon fill="#000000" stroke="#000000" points="1092.4605,-389.8783 1097.9253,-390.3241 1094.6494,-391.0862 1096.8383,-392.2941 1096.8383,-392.2941 1096.8383,-392.2941 1094.6494,-391.0862 1095.7512,-394.264 1092.4605,-389.8783 1092.4605,-389.8783"/>
</g>
<!-- ehinopr&#45;&gt;ehinpr -->
<g id="edge96" class="edge">
<title>ehinopr&#45;&gt;ehinpr</title>
<path fill="none" stroke="#000000" d="M1264.2673,-509.7862C1293.5874,-496.9139 1339.6351,-476.6979 1369.9332,-463.3963"/>
<polygon fill="#000000" stroke="#000000" points="1374.6556,-461.323 1370.9819,-465.3932 1372.3665,-462.328 1370.0774,-463.333 1370.0774,-463.333 1370.0774,-463.333 1372.3665,-462.328 1369.1729,-461.2728 1374.6556,-461.323 1374.6556,-461.323"/>
</g>
<!-- eimnop&#45;&gt;eimnp -->
<g id="edge70" class="edge">
<title>eimnop&#45;&gt;eimnp</title>
<path fill="none" stroke="#000000" d="M1009.2784,-432.2022C1005.4154,-422.6113 1000.6103,-410.6813 996.4923,-400.4573"/>
<polygon fill="#000000" stroke="#000000" points="994.533,-395.593 998.4882,-399.3903 995.4671,-397.912 996.4011,-400.231 996.4011,-400.231 996.4011,-400.231 995.4671,-397.912 994.3141,-401.0716 994.533,-395.593 994.533,-395.593"/>
</g>
<!-- eimnop&#45;&gt;einop -->
<g id="edge69" class="edge">
<title>eimnop&#45;&gt;einop</title>
<path fill="none" stroke="#000000" d="M1029.0072,-432.937C1036.4658,-422.8046 1045.9839,-409.8744 1053.9121,-399.1039"/>
<polygon fill="#000000" stroke="#000000" points="1056.9768,-394.9405 1055.8247,-400.3011 1055.4948,-396.9539 1054.0127,-398.9672 1054.0127,-398.9672 1054.0127,-398.9672 1055.4948,-396.9539 1052.2007,-397.6334 1056.9768,-394.9405 1056.9768,-394.9405"/>
</g>
<!-- eimno -->
<g id="node60" class="node">
<title>eimno</title>
<ellipse fill="none" stroke="#000000" cx="865.4469" cy="-378" rx="33.2948" ry="18"/>
<text text-anchor="middle" x="865.4469" y="-374.3" font-family="Times,serif" font-size="14.00" fill="#000000">eimno</text>
</g>
<!-- eimnop&#45;&gt;eimno -->
<g id="edge71" class="edge">
<title>eimnop&#45;&gt;eimno</title>
<path fill="none" stroke="#000000" d="M989.4512,-437.1278C962.9882,-424.5097 922.7385,-405.3178 895.3259,-392.2469"/>
<polygon fill="#000000" stroke="#000000" points="890.7023,-390.0423 896.184,-390.1634 892.9589,-391.1183 895.2155,-392.1944 895.2155,-392.1944 895.2155,-392.1944 892.9589,-391.1183 894.2471,-394.2253 890.7023,-390.0423 890.7023,-390.0423"/>
</g>
<!-- ein&#45;&gt;en -->
<g id="edge72" class="edge">
<title>ein&#45;&gt;en</title>
<path fill="none" stroke="#000000" d="M859.4469,-215.8314C859.4469,-206.6078 859.4469,-195.295 859.4469,-185.4246"/>
<polygon fill="#000000" stroke="#000000" points="859.4469,-180.4133 861.697,-185.4132 859.447,-182.9133 859.447,-185.4133 859.447,-185.4133 859.447,-185.4133 859.447,-182.9133 857.197,-185.4133 859.4469,-180.4133 859.4469,-180.4133"/>
</g>
<!-- eimn -->
<g id="node57" class="node">
<title>eimn</title>
<ellipse fill="none" stroke="#000000" cx="821.4469" cy="-306" rx="28.6953" ry="18"/>
<text text-anchor="middle" x="821.4469" y="-302.3" font-family="Times,serif" font-size="14.00" fill="#000000">eimn</text>
</g>
<!-- eimnp&#45;&gt;eimn -->
<g id="edge67" class="edge">
<title>eimnp&#45;&gt;eimn</title>
<path fill="none" stroke="#000000" d="M960.827,-367.162C934.8358,-356.4879 894.2303,-339.5666 859.4469,-324 856.0571,-322.4829 852.5138,-320.858 849.0119,-319.2279"/>
<polygon fill="#000000" stroke="#000000" points="844.2807,-317.0115 849.763,-317.0951 846.5446,-318.0721 848.8085,-319.1326 848.8085,-319.1326 848.8085,-319.1326 846.5446,-318.0721 847.854,-321.1701 844.2807,-317.0115 844.2807,-317.0115"/>
</g>
<!-- einp -->
<g id="node58" class="node">
<title>einp</title>
<ellipse fill="none" stroke="#000000" cx="1039.4469" cy="-306" rx="27" ry="18"/>
<text text-anchor="middle" x="1039.4469" y="-302.3" font-family="Times,serif" font-size="14.00" fill="#000000">einp</text>
</g>
<!-- eimnp&#45;&gt;einp -->
<g id="edge68" class="edge">
<title>eimnp&#45;&gt;einp</title>
<path fill="none" stroke="#000000" d="M999.7702,-360.937C1007.1941,-350.6578 1016.6977,-337.499 1024.5425,-326.637"/>
<polygon fill="#000000" stroke="#000000" points="1027.5701,-322.4449 1026.4666,-327.8157 1026.1063,-324.4716 1024.6426,-326.4983 1024.6426,-326.4983 1024.6426,-326.4983 1026.1063,-324.4716 1022.8185,-325.181 1027.5701,-322.4449 1027.5701,-322.4449"/>
</g>
<!-- ehinp&#45;&gt;ehin -->
<g id="edge99" class="edge">
<title>ehinp&#45;&gt;ehin</title>
<path fill="none" stroke="#000000" d="M1162.4264,-367.3378C1155.9761,-364.7702 1149.003,-362.1505 1142.4469,-360 1081.8098,-340.1095 1063.2051,-346.3933 1003.4469,-324 1000.028,-322.7188 996.5051,-321.2108 993.0629,-319.6219"/>
<polygon fill="#000000" stroke="#000000" points="988.4366,-317.4188 993.9183,-317.5371 990.6937,-318.4937 992.9509,-319.5686 992.9509,-319.5686 992.9509,-319.5686 990.6937,-318.4937 991.9835,-321.6 988.4366,-317.4188 988.4366,-317.4188"/>
</g>
<!-- ehinp&#45;&gt;einp -->
<g id="edge100" class="edge">
<title>ehinp&#45;&gt;einp</title>
<path fill="none" stroke="#000000" d="M1163.6682,-366.432C1137.0967,-353.5053 1094.1681,-332.6211 1066.379,-319.1021"/>
<polygon fill="#000000" stroke="#000000" points="1061.7142,-316.8327 1067.1947,-316.9968 1063.9623,-317.9264 1066.2103,-319.0201 1066.2103,-319.0201 1066.2103,-319.0201 1063.9623,-317.9264 1065.226,-321.0434 1061.7142,-316.8327 1061.7142,-316.8327"/>
</g>
<!-- eno -->
<g id="node48" class="node">
<title>eno</title>
<ellipse fill="none" stroke="#000000" cx="931.4469" cy="-234" rx="27" ry="18"/>
<text text-anchor="middle" x="931.4469" y="-230.3" font-family="Times,serif" font-size="14.00" fill="#000000">eno</text>
</g>
<!-- enor&#45;&gt;eno -->
<g id="edge51" class="edge">
<title>enor&#45;&gt;eno</title>
<path fill="none" stroke="#000000" d="M1241.9995,-366.5855C1237.2698,-364.2637 1232.2398,-361.9408 1227.4469,-360 1178.1987,-340.0571 1159.2332,-350.958 1113.4469,-324 1093.3993,-312.1964 1095.1755,-300.3296 1075.4469,-288 1039.3817,-265.4605 992.4481,-250.0638 962.1333,-241.6473"/>
<polygon fill="#000000" stroke="#000000" points="957.0442,-240.2566 962.4605,-239.4043 959.4558,-240.9157 961.8674,-241.5747 961.8674,-241.5747 961.8674,-241.5747 959.4558,-240.9157 961.2742,-243.7451 957.0442,-240.2566 957.0442,-240.2566"/>
</g>
<!-- enr -->
<g id="node49" class="node">
<title>enr</title>
<ellipse fill="none" stroke="#000000" cx="1296.4469" cy="-306" rx="27" ry="18"/>
<text text-anchor="middle" x="1296.4469" y="-302.3" font-family="Times,serif" font-size="14.00" fill="#000000">enr</text>
</g>
<!-- enor&#45;&gt;enr -->
<g id="edge52" class="edge">
<title>enor&#45;&gt;enr</title>
<path fill="none" stroke="#000000" d="M1271.4353,-360.5708C1275.9347,-350.7541 1281.5968,-338.4003 1286.3954,-327.9306"/>
<polygon fill="#000000" stroke="#000000" points="1288.5321,-323.2687 1288.4942,-328.7515 1287.4905,-325.5414 1286.4488,-327.814 1286.4488,-327.814 1286.4488,-327.814 1287.4905,-325.5414 1284.4034,-326.8765 1288.5321,-323.2687 1288.5321,-323.2687"/>
</g>
<!-- eno&#45;&gt;en -->
<g id="edge75" class="edge">
<title>eno&#45;&gt;en</title>
<path fill="none" stroke="#000000" d="M916.1776,-218.7307C905.1045,-207.6575 890.0619,-192.6149 878.2488,-180.8018"/>
<polygon fill="#000000" stroke="#000000" points="874.6943,-177.2473 879.8208,-179.1919 876.4621,-179.0151 878.2298,-180.7829 878.2298,-180.7829 878.2298,-180.7829 876.4621,-179.0151 876.6388,-182.3739 874.6943,-177.2473 874.6943,-177.2473"/>
</g>
<!-- enr&#45;&gt;en -->
<g id="edge129" class="edge">
<title>enr&#45;&gt;en</title>
<path fill="none" stroke="#000000" d="M1274.2509,-295.7306C1234.8618,-277.7862 1149.8718,-240.3217 1075.4469,-216 1010.6591,-194.8276 932.6433,-177.2024 890.3603,-168.2828"/>
<polygon fill="#000000" stroke="#000000" points="885.3843,-167.2385 890.7398,-166.0635 887.831,-167.752 890.2777,-168.2655 890.2777,-168.2655 890.2777,-168.2655 887.831,-167.752 889.8155,-170.4675 885.3843,-167.2385 885.3843,-167.2385"/>
</g>
<!-- enop&#45;&gt;enp -->
<g id="edge76" class="edge">
<title>enop&#45;&gt;enp</title>
<path fill="none" stroke="#000000" d="M1130.6024,-293.1278C1111.8188,-280.9439 1083.5861,-262.6308 1063.5238,-249.6174"/>
<polygon fill="#000000" stroke="#000000" points="1059.1197,-246.7607 1064.539,-247.594 1061.2171,-248.1212 1063.3145,-249.4817 1063.3145,-249.4817 1063.3145,-249.4817 1061.2171,-248.1212 1062.0901,-251.3694 1059.1197,-246.7607 1059.1197,-246.7607"/>
</g>
<!-- enop&#45;&gt;eno -->
<g id="edge77" class="edge">
<title>enop&#45;&gt;eno</title>
<path fill="none" stroke="#000000" d="M1127.5211,-295.6409C1121.379,-293.0127 1114.7056,-290.2882 1108.4469,-288 1057.6861,-269.4419 997.2054,-251.9555 961.6993,-242.1462"/>
<polygon fill="#000000" stroke="#000000" points="956.646,-240.7554 962.0639,-239.913 959.0564,-241.4189 961.4668,-242.0823 961.4668,-242.0823 961.4668,-242.0823 959.0564,-241.4189 960.8697,-244.2516 956.646,-240.7554 956.646,-240.7554"/>
</g>
<!-- enpr&#45;&gt;enp -->
<g id="edge130" class="edge">
<title>enpr&#45;&gt;enp</title>
<path fill="none" stroke="#000000" d="M1434.7358,-362.8496C1413.9519,-342.4131 1373.8832,-306.4534 1332.4469,-288 1243.6448,-248.4525 1127.3157,-237.8679 1071.7361,-235.0351"/>
<polygon fill="#000000" stroke="#000000" points="1066.55,-234.7845 1071.6529,-232.7785 1069.0471,-234.9052 1071.5442,-235.0259 1071.5442,-235.0259 1071.5442,-235.0259 1069.0471,-234.9052 1071.4355,-237.2733 1066.55,-234.7845 1066.55,-234.7845"/>
</g>
<!-- enpr&#45;&gt;enr -->
<g id="edge131" class="edge">
<title>enpr&#45;&gt;enr</title>
<path fill="none" stroke="#000000" d="M1427.7989,-367.039C1423.0817,-364.689 1418.1075,-362.24 1413.4469,-360 1382.8235,-345.2816 1347.3562,-329.0211 1323.5707,-318.2285"/>
<polygon fill="#000000" stroke="#000000" points="1318.9742,-316.145 1324.4571,-316.1601 1321.2512,-317.1772 1323.5282,-318.2094 1323.5282,-318.2094 1323.5282,-318.2094 1321.2512,-317.1772 1322.5992,-320.2586 1318.9742,-316.145 1318.9742,-316.145"/>
</g>
<!-- ehinor&#45;&gt;enor -->
<g id="edge57" class="edge">
<title>ehinor&#45;&gt;enor</title>
<path fill="none" stroke="#000000" d="M1243.1211,-432.2022C1246.7177,-422.6113 1251.1914,-410.6813 1255.0254,-400.4573"/>
<polygon fill="#000000" stroke="#000000" points="1256.8496,-395.593 1257.2006,-401.0647 1255.9717,-397.9339 1255.0939,-400.2747 1255.0939,-400.2747 1255.0939,-400.2747 1255.9717,-397.9339 1252.9871,-399.4846 1256.8496,-395.593 1256.8496,-395.593"/>
</g>
<!-- ehinr -->
<g id="node53" class="node">
<title>ehinr</title>
<ellipse fill="none" stroke="#000000" cx="1375.4469" cy="-378" rx="28.6953" ry="18"/>
<text text-anchor="middle" x="1375.4469" y="-374.3" font-family="Times,serif" font-size="14.00" fill="#000000">ehinr</text>
</g>
<!-- ehinor&#45;&gt;ehinr -->
<g id="edge56" class="edge">
<title>ehinor&#45;&gt;ehinr</title>
<path fill="none" stroke="#000000" d="M1260.6589,-437.4586C1285.2623,-424.7143 1323.2775,-405.023 1348.7424,-391.8326"/>
<polygon fill="#000000" stroke="#000000" points="1353.3452,-389.4484 1349.9403,-393.7461 1351.1253,-390.5983 1348.9054,-391.7482 1348.9054,-391.7482 1348.9054,-391.7482 1351.1253,-390.5983 1347.8705,-389.7503 1353.3452,-389.4484 1353.3452,-389.4484"/>
</g>
<!-- eino -->
<g id="node54" class="node">
<title>eino</title>
<ellipse fill="none" stroke="#000000" cx="895.4469" cy="-306" rx="27" ry="18"/>
<text text-anchor="middle" x="895.4469" y="-302.3" font-family="Times,serif" font-size="14.00" fill="#000000">eino</text>
</g>
<!-- ehinor&#45;&gt;eino -->
<g id="edge58" class="edge">
<title>ehinor&#45;&gt;eino</title>
<path fill="none" stroke="#000000" d="M1212.5098,-437.3142C1194.0652,-427.111 1168.2794,-411.8985 1147.4469,-396 1128.9529,-381.8861 1130.0935,-370.7217 1109.4469,-360 1037.8166,-322.8025 1007.7628,-350.2767 931.4469,-324 927.9948,-322.8114 924.4521,-321.3581 920.9997,-319.7977"/>
<polygon fill="#000000" stroke="#000000" points="916.3648,-317.6184 921.847,-317.7099 918.6272,-318.6822 920.8896,-319.746 920.8896,-319.746 920.8896,-319.746 918.6272,-318.6822 919.9322,-321.7822 916.3648,-317.6184 916.3648,-317.6184"/>
</g>
<!-- ehinr&#45;&gt;ehin -->
<g id="edge132" class="edge">
<title>ehinr&#45;&gt;ehin</title>
<path fill="none" stroke="#000000" d="M1348.868,-370.9368C1334.3469,-367.2726 1315.9986,-362.9571 1299.4469,-360 1168.9877,-336.6925 1130.3492,-362.1925 1003.4469,-324 999.9508,-322.9478 996.3821,-321.5753 992.9161,-320.057"/>
<polygon fill="#000000" stroke="#000000" points="988.2699,-317.9127 993.7526,-317.965 990.5398,-318.9603 992.8098,-320.008 992.8098,-320.008 992.8098,-320.008 990.5398,-318.9603 991.8669,-322.0509 988.2699,-317.9127 988.2699,-317.9127"/>
</g>
<!-- ehinr&#45;&gt;enr -->
<g id="edge133" class="edge">
<title>ehinr&#45;&gt;enr</title>
<path fill="none" stroke="#000000" d="M1359.0781,-363.0816C1346.7089,-351.8084 1329.6673,-336.2768 1316.483,-324.2607"/>
<polygon fill="#000000" stroke="#000000" points="1312.5245,-320.653 1317.7356,-322.3581 1314.3723,-322.337 1316.22,-324.021 1316.22,-324.021 1316.22,-324.021 1314.3723,-322.337 1314.7044,-325.684 1312.5245,-320.653 1312.5245,-320.653"/>
</g>
<!-- eino&#45;&gt;ein -->
<g id="edge66" class="edge">
<title>eino&#45;&gt;ein</title>
<path fill="none" stroke="#000000" d="M886.7323,-288.5708C881.824,-278.7541 875.6471,-266.4003 870.4123,-255.9306"/>
<polygon fill="#000000" stroke="#000000" points="868.0813,-251.2687 872.3299,-254.7346 869.1993,-253.5048 870.3174,-255.7408 870.3174,-255.7408 870.3174,-255.7408 869.1993,-253.5048 868.3049,-256.7471 868.0813,-251.2687 868.0813,-251.2687"/>
</g>
<!-- eino&#45;&gt;eno -->
<g id="edge65" class="edge">
<title>eino&#45;&gt;eno</title>
<path fill="none" stroke="#000000" d="M904.1615,-288.5708C909.0699,-278.7541 915.2468,-266.4003 920.4816,-255.9306"/>
<polygon fill="#000000" stroke="#000000" points="922.8126,-251.2687 922.5889,-256.7471 921.6945,-253.5048 920.5765,-255.7408 920.5765,-255.7408 920.5765,-255.7408 921.6945,-253.5048 918.564,-254.7346 922.8126,-251.2687 922.8126,-251.2687"/>
</g>
<!-- aeimno&#45;&gt;eimno -->
<g id="edge108" class="edge">
<title>aeimno&#45;&gt;eimno</title>
<path fill="none" stroke="#000000" d="M775.0426,-435.6028C793.6048,-423.7755 819.9147,-407.0117 839.3684,-394.6164"/>
<polygon fill="#000000" stroke="#000000" points="843.6584,-391.883 840.6507,-396.4674 841.55,-393.2264 839.4416,-394.5698 839.4416,-394.5698 839.4416,-394.5698 841.55,-393.2264 838.2325,-392.6723 843.6584,-391.883 843.6584,-391.883"/>
</g>
<!-- aeimno&#45;&gt;aeimn -->
<g id="edge107" class="edge">
<title>aeimno&#45;&gt;aeimn</title>
<path fill="none" stroke="#000000" d="M741.3116,-432.5708C734.9833,-422.6656 727.0048,-410.1775 720.2777,-399.6481"/>
<polygon fill="#000000" stroke="#000000" points="717.4797,-395.2687 722.0678,-398.2708 718.8257,-397.3754 720.1717,-399.4822 720.1717,-399.4822 720.1717,-399.4822 718.8257,-397.3754 718.2756,-400.6936 717.4797,-395.2687 717.4797,-395.2687"/>
</g>
<!-- deino&#45;&gt;eino -->
<g id="edge78" class="edge">
<title>deino&#45;&gt;eino</title>
<path fill="none" stroke="#000000" d="M926.0849,-432.0535C919.771,-406.0761 908.08,-357.9759 901.1084,-329.2928"/>
<polygon fill="#000000" stroke="#000000" points="899.8639,-324.1727 903.2312,-328.4998 900.4544,-326.602 901.0449,-329.0313 901.0449,-329.0313 901.0449,-329.0313 900.4544,-326.602 898.8585,-329.5627 899.8639,-324.1727 899.8639,-324.1727"/>
</g>
<!-- eimn&#45;&gt;ein -->
<g id="edge109" class="edge">
<title>eimn&#45;&gt;ein</title>
<path fill="none" stroke="#000000" d="M830.6457,-288.5708C835.8267,-278.7541 842.3468,-266.4003 847.8724,-255.9306"/>
<polygon fill="#000000" stroke="#000000" points="850.3329,-251.2687 849.9889,-256.7409 849.166,-253.4797 847.9991,-255.6906 847.9991,-255.6906 847.9991,-255.6906 849.166,-253.4797 846.0092,-254.6404 850.3329,-251.2687 850.3329,-251.2687"/>
</g>
<!-- einp&#45;&gt;enp -->
<g id="edge90" class="edge">
<title>einp&#45;&gt;enp</title>
<path fill="none" stroke="#000000" d="M1039.4469,-287.8314C1039.4469,-278.6078 1039.4469,-267.295 1039.4469,-257.4246"/>
<polygon fill="#000000" stroke="#000000" points="1039.4469,-252.4133 1041.697,-257.4132 1039.447,-254.9133 1039.447,-257.4133 1039.447,-257.4133 1039.447,-257.4133 1039.447,-254.9133 1037.197,-257.4133 1039.4469,-252.4133 1039.4469,-252.4133"/>
</g>
<!-- einp&#45;&gt;ein -->
<g id="edge91" class="edge">
<title>einp&#45;&gt;ein</title>
<path fill="none" stroke="#000000" d="M1017.9759,-294.643C1013.2477,-292.3177 1008.2242,-289.9788 1003.4469,-288 956.7019,-268.6376 942.192,-271.3624 895.4469,-252 892.3118,-250.7014 889.0707,-249.2477 885.8766,-247.7446"/>
<polygon fill="#000000" stroke="#000000" points="880.918,-245.357 886.3991,-245.499 883.1705,-246.4416 885.423,-247.5262 885.423,-247.5262 885.423,-247.5262 883.1705,-246.4416 884.4468,-249.5534 880.918,-245.357 880.918,-245.357"/>
</g>
<!-- einop&#45;&gt;enop -->
<g id="edge92" class="edge">
<title>einop&#45;&gt;enop</title>
<path fill="none" stroke="#000000" d="M1086.625,-362.7307C1099.2506,-351.5079 1116.4634,-336.2076 1129.8317,-324.3247"/>
<polygon fill="#000000" stroke="#000000" points="1133.8477,-320.7549 1131.6054,-325.7584 1131.9791,-322.4158 1130.1106,-324.0767 1130.1106,-324.0767 1130.1106,-324.0767 1131.9791,-322.4158 1128.6158,-322.3951 1133.8477,-320.7549 1133.8477,-320.7549"/>
</g>
<!-- einop&#45;&gt;eino -->
<g id="edge94" class="edge">
<title>einop&#45;&gt;eino</title>
<path fill="none" stroke="#000000" d="M1045.0269,-366.6812C1039.9085,-364.4018 1034.5235,-362.0716 1029.4469,-360 986.485,-342.4683 974.0423,-342.4043 931.4469,-324 928.1835,-322.59 924.7954,-321.0295 921.4611,-319.434"/>
<polygon fill="#000000" stroke="#000000" points="916.9643,-317.2476 922.4448,-317.4105 919.2126,-318.3408 921.4609,-319.434 921.4609,-319.434 921.4609,-319.434 919.2126,-318.3408 920.477,-321.4575 916.9643,-317.2476 916.9643,-317.2476"/>
</g>
<!-- einop&#45;&gt;einp -->
<g id="edge93" class="edge">
<title>einop&#45;&gt;einp</title>
<path fill="none" stroke="#000000" d="M1062.0312,-360.2022C1058.0052,-350.5397 1052.9899,-338.5031 1048.7089,-328.2287"/>
<polygon fill="#000000" stroke="#000000" points="1046.6739,-323.3446 1050.6739,-327.0946 1047.6354,-325.6523 1048.597,-327.96 1048.597,-327.96 1048.597,-327.96 1047.6354,-325.6523 1046.5201,-328.8254 1046.6739,-323.3446 1046.6739,-323.3446"/>
</g>
<!-- eimno&#45;&gt;eino -->
<g id="edge111" class="edge">
<title>eimno&#45;&gt;eino</title>
<path fill="none" stroke="#000000" d="M872.8627,-360.2022C876.8887,-350.5397 881.904,-338.5031 886.185,-328.2287"/>
<polygon fill="#000000" stroke="#000000" points="888.22,-323.3446 888.3738,-328.8254 887.2585,-325.6523 886.2969,-327.96 886.2969,-327.96 886.2969,-327.96 887.2585,-325.6523 884.22,-327.0946 888.22,-323.3446 888.22,-323.3446"/>
</g>
<!-- eimno&#45;&gt;eimn -->
<g id="edge110" class="edge">
<title>eimno&#45;&gt;eimn</title>
<path fill="none" stroke="#000000" d="M854.7958,-360.5708C848.7426,-350.6656 841.111,-338.1775 834.6764,-327.6481"/>
<polygon fill="#000000" stroke="#000000" points="832,-323.2687 836.5272,-326.3618 833.3037,-325.4019 834.6073,-327.5351 834.6073,-327.5351 834.6073,-327.5351 833.3037,-325.4019 832.6874,-328.7084 832,-323.2687 832,-323.2687"/>
</g>
<!-- aeimn&#45;&gt;an -->
<g id="edge105" class="edge">
<title>aeimn&#45;&gt;an</title>
<path fill="none" stroke="#000000" d="M682.0098,-365.9488C655.7656,-353.0064 614.1956,-332.5062 587.1184,-319.1531"/>
<polygon fill="#000000" stroke="#000000" points="582.5704,-316.9102 588.0499,-317.1037 584.8126,-318.0159 587.0547,-319.1217 587.0547,-319.1217 587.0547,-319.1217 584.8126,-318.0159 586.0596,-321.1397 582.5704,-316.9102 582.5704,-316.9102"/>
</g>
<!-- aeimn&#45;&gt;eimn -->
<g id="edge106" class="edge">
<title>aeimn&#45;&gt;eimn</title>
<path fill="none" stroke="#000000" d="M728.0776,-364.4574C747.555,-352.2628 776.1752,-334.3441 796.5882,-321.5637"/>
<polygon fill="#000000" stroke="#000000" points="801.0714,-318.7568 798.0275,-323.3173 798.9525,-320.0835 796.8335,-321.4102 796.8335,-321.4102 796.8335,-321.4102 798.9525,-320.0835 795.6395,-319.5031 801.0714,-318.7568 801.0714,-318.7568"/>
</g>
<!-- ehinorty&#45;&gt;enort -->
<g id="edge83" class="edge">
<title>ehinorty&#45;&gt;enort</title>
<path fill="none" stroke="#000000" d="M681.9048,-503.8314C679.5634,-494.4659 676.6835,-482.9464 674.1895,-472.9701"/>
<polygon fill="#000000" stroke="#000000" points="672.9253,-467.9134 676.3209,-472.2184 673.5317,-470.3388 674.138,-472.7641 674.138,-472.7641 674.138,-472.7641 673.5317,-470.3388 671.9552,-473.3099 672.9253,-467.9134 672.9253,-467.9134"/>
</g>
<!-- ehinorty&#45;&gt;ehint -->
<g id="edge85" class="edge">
<title>ehinorty&#45;&gt;ehint</title>
<path fill="none" stroke="#000000" d="M656.0428,-510.0855C629.3462,-499.4773 589.5597,-483.311 555.4469,-468 552.3676,-466.6179 549.1646,-465.1328 545.9883,-463.6298"/>
<polygon fill="#000000" stroke="#000000" points="541.0408,-461.2654 546.5224,-461.3913 543.2965,-462.3434 545.5522,-463.4214 545.5522,-463.4214 545.5522,-463.4214 543.2965,-462.3434 544.582,-465.4515 541.0408,-461.2654 541.0408,-461.2654"/>
</g>
<!-- ehinorty&#45;&gt;ehinor -->
<g id="edge82" class="edge">
<title>ehinorty&#45;&gt;ehinor</title>
<path fill="none" stroke="#000000" d="M723.633,-515.0336C743.9199,-511.3977 769.5065,-507.0784 792.4469,-504 953.5698,-482.3788 995.9549,-493.8915 1156.4469,-468 1171.2172,-465.6172 1187.3427,-462.1572 1201.2216,-458.9061"/>
<polygon fill="#000000" stroke="#000000" points="1206.2265,-457.7202 1201.88,-461.0625 1203.7939,-458.2966 1201.3612,-458.8731 1201.3612,-458.8731 1201.3612,-458.8731 1203.7939,-458.2966 1200.8424,-456.6837 1206.2265,-457.7202 1206.2265,-457.7202"/>
</g>
<!-- ehinorty&#45;&gt;einot -->
<g id="edge84" class="edge">
<title>ehinorty&#45;&gt;einot</title>
<path fill="none" stroke="#000000" d="M666.2673,-506.3771C651.4227,-494.8845 631.2419,-479.2606 615.8896,-467.375"/>
<polygon fill="#000000" stroke="#000000" points="611.6959,-464.1282 617.027,-465.41 613.6728,-465.6587 615.6496,-467.1892 615.6496,-467.1892 615.6496,-467.1892 613.6728,-465.6587 614.2722,-468.9683 611.6959,-464.1282 611.6959,-464.1282"/>
</g>
<!-- enot&#45;&gt;ent -->
<g id="edge118" class="edge">
<title>enot&#45;&gt;ent</title>
<path fill="none" stroke="#000000" d="M608.4056,-366.7154C603.564,-364.3342 598.3851,-361.954 593.4469,-360 542.0061,-339.645 479.7599,-322.6668 443.2893,-313.4545"/>
<polygon fill="#000000" stroke="#000000" points="438.0997,-312.1522 443.4971,-311.187 440.5246,-312.7608 442.9494,-313.3693 442.9494,-313.3693 442.9494,-313.3693 440.5246,-312.7608 442.4017,-315.5516 438.0997,-312.1522 438.0997,-312.1522"/>
</g>
<!-- enot&#45;&gt;eno -->
<g id="edge117" class="edge">
<title>enot&#45;&gt;eno</title>
<path fill="none" stroke="#000000" d="M648.6488,-364.9221C677.0912,-345.9881 732.5493,-310.7258 783.4469,-288 831.19,-266.6827 847.0341,-271.749 895.4469,-252 898.589,-250.7183 901.8344,-249.2751 905.0309,-247.7778"/>
<polygon fill="#000000" stroke="#000000" points="909.9919,-245.3959 906.4584,-249.5884 907.7382,-246.478 905.4845,-247.5601 905.4845,-247.5601 905.4845,-247.5601 907.7382,-246.478 904.5106,-245.5318 909.9919,-245.3959 909.9919,-245.3959"/>
</g>
<!-- einot&#45;&gt;eint -->
<g id="edge119" class="edge">
<title>einot&#45;&gt;eint</title>
<path fill="none" stroke="#000000" d="M572.0728,-437.7862C550.0877,-425.2233 515.8614,-405.6654 492.5894,-392.3671"/>
<polygon fill="#000000" stroke="#000000" points="488.088,-389.7949 493.5455,-390.3221 490.2586,-391.0352 492.4292,-392.2756 492.4292,-392.2756 492.4292,-392.2756 490.2586,-391.0352 491.3129,-394.2292 488.088,-389.7949 488.088,-389.7949"/>
</g>
<!-- einot&#45;&gt;eino -->
<g id="edge121" class="edge">
<title>einot&#45;&gt;eino</title>
<path fill="none" stroke="#000000" d="M615.8977,-438.3949C620.6423,-436.1362 625.6623,-433.8869 630.4469,-432 681.0593,-412.0403 697.8236,-418.3052 747.4469,-396 794.3117,-374.9348 844.546,-341.8979 872.7761,-322.253"/>
<polygon fill="#000000" stroke="#000000" points="877.1141,-319.219 874.3064,-323.9285 875.0654,-320.6518 873.0168,-322.0847 873.0168,-322.0847 873.0168,-322.0847 875.0654,-320.6518 871.7272,-320.2409 877.1141,-319.219 877.1141,-319.219"/>
</g>
<!-- einot&#45;&gt;enot -->
<g id="edge120" class="edge">
<title>einot&#45;&gt;enot</title>
<path fill="none" stroke="#000000" d="M602.1615,-432.5708C607.0699,-422.7541 613.2468,-410.4003 618.4816,-399.9306"/>
<polygon fill="#000000" stroke="#000000" points="620.8126,-395.2687 620.5889,-400.7471 619.6945,-397.5048 618.5765,-399.7408 618.5765,-399.7408 618.5765,-399.7408 619.6945,-397.5048 616.564,-398.7346 620.8126,-395.2687 620.8126,-395.2687"/>
</g>
<!-- ehinpr&#45;&gt;ehinp -->
<g id="edge127" class="edge">
<title>ehinpr&#45;&gt;ehinp</title>
<path fill="none" stroke="#000000" d="M1374.9006,-438.3938C1369.5194,-436.1352 1363.8384,-433.8862 1358.4469,-432 1301.4534,-412.0609 1284.2591,-416.4502 1227.4469,-396 1223.7188,-394.658 1219.8538,-393.118 1216.0615,-391.5158"/>
<polygon fill="#000000" stroke="#000000" points="1211.3127,-389.4635 1216.795,-389.3817 1213.6075,-390.4553 1215.9024,-391.4471 1215.9024,-391.4471 1215.9024,-391.4471 1213.6075,-390.4553 1215.0097,-393.5125 1211.3127,-389.4635 1211.3127,-389.4635"/>
</g>
<!-- ehinpr&#45;&gt;enpr -->
<g id="edge128" class="edge">
<title>ehinpr&#45;&gt;enpr</title>
<path fill="none" stroke="#000000" d="M1412.0593,-432.937C1419.0548,-422.6578 1428.0101,-409.499 1435.4023,-398.637"/>
<polygon fill="#000000" stroke="#000000" points="1438.2553,-394.4449 1437.3022,-399.8444 1436.8487,-396.5117 1435.4421,-398.5785 1435.4421,-398.5785 1435.4421,-398.5785 1436.8487,-396.5117 1433.582,-397.3126 1438.2553,-394.4449 1438.2553,-394.4449"/>
</g>
<!-- ehinpr&#45;&gt;ehinr -->
<g id="edge126" class="edge">
<title>ehinpr&#45;&gt;ehinr</title>
<path fill="none" stroke="#000000" d="M1394.2672,-432.2022C1390.937,-422.6113 1386.7946,-410.6813 1383.2446,-400.4573"/>
<polygon fill="#000000" stroke="#000000" points="1381.5556,-395.593 1385.3213,-399.5783 1382.3757,-397.9547 1383.1958,-400.3164 1383.1958,-400.3164 1383.1958,-400.3164 1382.3757,-397.9547 1381.0702,-401.0545 1381.5556,-395.593 1381.5556,-395.593"/>
</g>
</g>
</svg>
