<?xml version="1.0" encoding="UTF-8" standalone="no"?>
<!DOCTYPE svg PUBLIC "-//W3C//DTD SVG 1.1//EN"
 "http://www.w3.org/Graphics/SVG/1.1/DTD/svg11.dtd">
<!-- Generated by graphviz version 2.40.1 (20161225.0304)
 -->
<!-- Title: %3 Pages: 1 -->
<svg width="1394pt" height="404pt"
 viewBox="0.00 0.00 1393.60 404.00" xmlns="http://www.w3.org/2000/svg" xmlns:xlink="http://www.w3.org/1999/xlink">
<g id="graph0" class="graph" transform="scale(1 1) rotate(0) translate(4 400)">
<title>%3</title>
<polygon fill="#ffffff" stroke="transparent" points="-4,4 -4,-400 1389.6002,-400 1389.6002,4 -4,4"/>
<!-- epinephrine -->
<g id="node1" class="node">
<title>epinephrine</title>
<ellipse fill="#ffd700" stroke="#000000" cx="1243.4469" cy="-306" rx="51.9908" ry="18"/>
<text text-anchor="middle" x="1243.4469" y="-302.3" font-family="Times,serif" font-size="14.00" fill="#000000">epinephrine</text>
</g>
<!-- h -->
<g id="node16" class="node">
<title>h</title>
<ellipse fill="none" stroke="#000000" cx="758.4469" cy="-162" rx="27" ry="18"/>
<text text-anchor="middle" x="758.4469" y="-158.3" font-family="Times,serif" font-size="14.00" fill="#000000">h</text>
</g>
<!-- epinephrine&#45;&gt;h -->
<g id="edge82" class="edge">
<title>epinephrine&#45;&gt;h</title>
<path fill="none" stroke="#000000" d="M1234.4372,-287.8898C1222.8211,-266.6748 1200.4863,-232.3523 1170.4469,-216 1105.0741,-180.4136 910.8567,-192.2884 837.4469,-180 821.3837,-177.3111 803.691,-173.3726 789.1285,-169.8647"/>
<polygon fill="#000000" stroke="#000000" points="783.9137,-168.595 789.3041,-167.5918 786.3428,-169.1865 788.7718,-169.7779 788.7718,-169.7779 788.7718,-169.7779 786.3428,-169.1865 788.2395,-171.9641 783.9137,-168.595 783.9137,-168.595"/>
</g>
<!-- r -->
<g id="node35" class="node">
<title>r</title>
<ellipse fill="none" stroke="#000000" cx="1228.4469" cy="-90" rx="27" ry="18"/>
<text text-anchor="middle" x="1228.4469" y="-86.3" font-family="Times,serif" font-size="14.00" fill="#000000">r</text>
</g>
<!-- epinephrine&#45;&gt;r -->
<g id="edge83" class="edge">
<title>epinephrine&#45;&gt;r</title>
<path fill="none" stroke="#000000" d="M1272.3256,-290.9614C1322.1085,-263.0327 1415.1075,-200.821 1375.4469,-144 1361.8573,-124.5304 1298.3859,-106.4916 1259.4229,-96.994"/>
<polygon fill="#000000" stroke="#000000" points="1254.3297,-95.767 1259.7177,-94.7507 1256.7602,-96.3526 1259.1907,-96.9381 1259.1907,-96.9381 1259.1907,-96.9381 1256.7602,-96.3526 1258.6637,-99.1255 1254.3297,-95.767 1254.3297,-95.767"/>
</g>
<!-- ine -->
<g id="node36" class="node">
<title>ine</title>
<ellipse fill="none" stroke="#000000" cx="1116.4469" cy="-234" rx="27" ry="18"/>
<text text-anchor="middle" x="1116.4469" y="-230.3" font-family="Times,serif" font-size="14.00" fill="#000000">ine</text>
</g>
<!-- epinephrine&#45;&gt;ine -->
<g id="edge84" class="edge">
<title>epinephrine&#45;&gt;ine</title>
<path fill="none" stroke="#000000" d="M1216.2023,-290.5542C1194.1559,-278.0555 1163.3412,-260.5857 1141.8136,-248.3811"/>
<polygon fill="#000000" stroke="#000000" points="1137.3673,-245.8603 1142.8266,-246.369 1139.5421,-247.0933 1141.7169,-248.3263 1141.7169,-248.3263 1141.7169,-248.3263 1139.5421,-247.0933 1140.6072,-250.2837 1137.3673,-245.8603 1137.3673,-245.8603"/>
</g>
<!-- melatonin -->
<g id="node2" class="node">
<title>melatonin</title>
<ellipse fill="#ffd700" stroke="#000000" cx="454.4469" cy="-306" rx="46.2923" ry="18"/>
<text text-anchor="middle" x="454.4469" y="-302.3" font-family="Times,serif" font-size="14.00" fill="#000000">melatonin</text>
</g>
<!-- a -->
<g id="node21" class="node">
<title>a</title>
<ellipse fill="none" stroke="#000000" cx="401.4469" cy="-162" rx="27" ry="18"/>
<text text-anchor="middle" x="401.4469" y="-158.3" font-family="Times,serif" font-size="14.00" fill="#000000">a</text>
</g>
<!-- melatonin&#45;&gt;a -->
<g id="edge69" class="edge">
<title>melatonin&#45;&gt;a</title>
<path fill="none" stroke="#000000" d="M441.1041,-288.3757C434.0076,-278.2207 425.6892,-264.9372 420.4469,-252 411.6211,-230.219 406.6637,-203.7383 404.0437,-185.1591"/>
<polygon fill="#000000" stroke="#000000" points="403.3655,-180.1388 406.2647,-184.7925 403.7002,-182.6163 404.035,-185.0938 404.035,-185.0938 404.035,-185.0938 403.7002,-182.6163 401.8052,-185.3951 403.3655,-180.1388 403.3655,-180.1388"/>
</g>
<!-- to -->
<g id="node25" class="node">
<title>to</title>
<ellipse fill="none" stroke="#000000" cx="566.4469" cy="-234" rx="27" ry="18"/>
<text text-anchor="middle" x="566.4469" y="-230.3" font-family="Times,serif" font-size="14.00" fill="#000000">to</text>
</g>
<!-- melatonin&#45;&gt;to -->
<g id="edge68" class="edge">
<title>melatonin&#45;&gt;to</title>
<path fill="none" stroke="#000000" d="M478.4738,-290.5542C497.3166,-278.4409 523.4227,-261.6585 542.2971,-249.5249"/>
<polygon fill="#000000" stroke="#000000" points="546.931,-246.5459 543.9418,-251.1424 544.8281,-247.8979 542.7251,-249.2498 542.7251,-249.2498 542.7251,-249.2498 544.8281,-247.8979 541.5084,-247.3571 546.931,-246.5459 546.931,-246.5459"/>
</g>
<!-- me -->
<g id="node31" class="node">
<title>me</title>
<ellipse fill="none" stroke="#000000" cx="308.4469" cy="-234" rx="27" ry="18"/>
<text text-anchor="middle" x="308.4469" y="-230.3" font-family="Times,serif" font-size="14.00" fill="#000000">me</text>
</g>
<!-- melatonin&#45;&gt;me -->
<g id="edge66" class="edge">
<title>melatonin&#45;&gt;me</title>
<path fill="none" stroke="#000000" d="M425.602,-291.7751C399.3154,-278.8119 360.7934,-259.8147 335.1868,-247.1868"/>
<polygon fill="#000000" stroke="#000000" points="330.5617,-244.9059 336.0413,-245.0995 332.8039,-246.0117 335.0461,-247.1174 335.0461,-247.1174 335.0461,-247.1174 332.8039,-246.0117 334.0509,-249.1354 330.5617,-244.9059 330.5617,-244.9059"/>
</g>
<!-- onin -->
<g id="node40" class="node">
<title>onin</title>
<ellipse fill="none" stroke="#000000" cx="896.4469" cy="-234" rx="27" ry="18"/>
<text text-anchor="middle" x="896.4469" y="-230.3" font-family="Times,serif" font-size="14.00" fill="#000000">onin</text>
</g>
<!-- melatonin&#45;&gt;onin -->
<g id="edge67" class="edge">
<title>melatonin&#45;&gt;onin</title>
<path fill="none" stroke="#000000" d="M498.1042,-299.9303C523.5732,-296.4071 556.3232,-291.9071 585.4469,-288 707.6175,-271.6102 742.5753,-288.0631 860.4469,-252 863.9383,-250.9318 867.5041,-249.5498 870.9686,-248.0267"/>
<polygon fill="#000000" stroke="#000000" points="875.6135,-245.8783 872.02,-250.0194 873.3445,-246.9278 871.0754,-247.9773 871.0754,-247.9773 871.0754,-247.9773 873.3445,-246.9278 870.1308,-245.9351 875.6135,-245.8783 875.6135,-245.8783"/>
</g>
<!-- norepinephrine -->
<g id="node3" class="node">
<title>norepinephrine</title>
<ellipse fill="#ffd700" stroke="#000000" cx="1302.4469" cy="-378" rx="63.8893" ry="18"/>
<text text-anchor="middle" x="1302.4469" y="-374.3" font-family="Times,serif" font-size="14.00" fill="#000000">norepinephrine</text>
</g>
<!-- norepinephrine&#45;&gt;epinephrine -->
<g id="edge65" class="edge">
<title>norepinephrine&#45;&gt;epinephrine</title>
<path fill="none" stroke="#000000" d="M1287.8627,-360.2022C1279.7288,-350.2762 1269.542,-337.8448 1260.9766,-327.3921"/>
<polygon fill="#000000" stroke="#000000" points="1257.6599,-323.3446 1262.5693,-325.7859 1259.2444,-325.2783 1260.829,-327.212 1260.829,-327.212 1260.829,-327.212 1259.2444,-325.2783 1259.0887,-328.6381 1257.6599,-323.3446 1257.6599,-323.3446"/>
</g>
<!-- o -->
<g id="node34" class="node">
<title>o</title>
<ellipse fill="none" stroke="#000000" cx="1023.4469" cy="-90" rx="27" ry="18"/>
<text text-anchor="middle" x="1023.4469" y="-86.3" font-family="Times,serif" font-size="14.00" fill="#000000">o</text>
</g>
<!-- norepinephrine&#45;&gt;o -->
<g id="edge64" class="edge">
<title>norepinephrine&#45;&gt;o</title>
<path fill="none" stroke="#000000" d="M1313.0738,-360.2017C1318.5471,-349.9924 1324.647,-336.7123 1327.4469,-324 1337.8461,-276.7852 1339.9411,-257.0783 1314.4469,-216 1257.8316,-124.7768 1118.6008,-99.4187 1055.4804,-92.5139"/>
<polygon fill="#000000" stroke="#000000" points="1050.341,-91.9742 1055.5487,-90.2587 1052.8273,-92.2353 1055.3137,-92.4964 1055.3137,-92.4964 1055.3137,-92.4964 1052.8273,-92.2353 1055.0787,-94.7341 1050.341,-91.9742 1050.341,-91.9742"/>
</g>
<!-- triiodothyronine -->
<g id="node4" class="node">
<title>triiodothyronine</title>
<ellipse fill="#ffd700" stroke="#000000" cx="1061.4469" cy="-378" rx="67.6881" ry="18"/>
<text text-anchor="middle" x="1061.4469" y="-374.3" font-family="Times,serif" font-size="14.00" fill="#000000">triiodothyronine</text>
</g>
<!-- ron -->
<g id="node28" class="node">
<title>ron</title>
<ellipse fill="none" stroke="#000000" cx="968.4469" cy="-234" rx="27" ry="18"/>
<text text-anchor="middle" x="968.4469" y="-230.3" font-family="Times,serif" font-size="14.00" fill="#000000">ron</text>
</g>
<!-- triiodothyronine&#45;&gt;ron -->
<g id="edge56" class="edge">
<title>triiodothyronine&#45;&gt;ron</title>
<path fill="none" stroke="#000000" d="M1049.8565,-360.0535C1032.6629,-333.4311 1000.4633,-283.5738 982.134,-255.1929"/>
<polygon fill="#000000" stroke="#000000" points="979.3158,-250.8292 983.9186,-253.8087 980.6721,-252.9293 982.0285,-255.0294 982.0285,-255.0294 982.0285,-255.0294 980.6721,-252.9293 980.1384,-256.2501 979.3158,-250.8292 979.3158,-250.8292"/>
</g>
<!-- triiodothyronine&#45;&gt;ine -->
<g id="edge54" class="edge">
<title>triiodothyronine&#45;&gt;ine</title>
<path fill="none" stroke="#000000" d="M1061.3781,-359.6794C1061.92,-340.9558 1064.4964,-311.3886 1074.4469,-288 1079.8986,-275.1859 1089.1669,-262.7821 1097.6121,-253.1007"/>
<polygon fill="#000000" stroke="#000000" points="1101.1675,-249.125 1099.5116,-254.352 1099.501,-250.9886 1097.8344,-252.8521 1097.8344,-252.8521 1097.8344,-252.8521 1099.501,-250.9886 1096.1572,-251.3522 1101.1675,-249.125 1101.1675,-249.125"/>
</g>
<!-- thyro -->
<g id="node38" class="node">
<title>thyro</title>
<ellipse fill="none" stroke="#000000" cx="872.4469" cy="-306" rx="29.4969" ry="18"/>
<text text-anchor="middle" x="872.4469" y="-302.3" font-family="Times,serif" font-size="14.00" fill="#000000">thyro</text>
</g>
<!-- triiodothyronine&#45;&gt;thyro -->
<g id="edge55" class="edge">
<title>triiodothyronine&#45;&gt;thyro</title>
<path fill="none" stroke="#000000" d="M1022.286,-363.0816C986.6724,-349.5145 934.8684,-329.7796 902.4442,-317.4275"/>
<polygon fill="#000000" stroke="#000000" points="897.4121,-315.5105 902.8856,-315.188 899.7483,-316.4006 902.0846,-317.2906 902.0846,-317.2906 902.0846,-317.2906 899.7483,-316.4006 901.2836,-319.3932 897.4121,-315.5105 897.4121,-315.5105"/>
</g>
<!-- triiodothyronine&#45;&gt;onin -->
<g id="edge53" class="edge">
<title>triiodothyronine&#45;&gt;onin</title>
<path fill="none" stroke="#000000" d="M1041.6152,-360.7413C1029.4426,-350.1447 1013.5378,-336.2925 999.4469,-324 970.7599,-298.9741 937.61,-269.998 916.8364,-251.833"/>
<polygon fill="#000000" stroke="#000000" points="912.8517,-248.3485 918.0967,-249.9462 914.7337,-249.9942 916.6156,-251.6399 916.6156,-251.6399 916.6156,-251.6399 914.7337,-249.9942 915.1345,-253.3337 912.8517,-248.3485 912.8517,-248.3485"/>
</g>
<!-- thyroxine -->
<g id="node5" class="node">
<title>thyroxine</title>
<ellipse fill="#ffd700" stroke="#000000" cx="821.4469" cy="-378" rx="44.393" ry="18"/>
<text text-anchor="middle" x="821.4469" y="-374.3" font-family="Times,serif" font-size="14.00" fill="#000000">thyroxine</text>
</g>
<!-- thyroxine&#45;&gt;ine -->
<g id="edge46" class="edge">
<title>thyroxine&#45;&gt;ine</title>
<path fill="none" stroke="#000000" d="M850.0008,-364.0618C907.102,-336.1887 1034.6245,-273.9404 1089.9699,-246.9244"/>
<polygon fill="#000000" stroke="#000000" points="1094.4633,-244.731 1090.9571,-248.9463 1092.2167,-245.8277 1089.9701,-246.9244 1089.9701,-246.9244 1089.9701,-246.9244 1092.2167,-245.8277 1088.983,-244.9024 1094.4633,-244.731 1094.4633,-244.731"/>
</g>
<!-- thyroxine&#45;&gt;thyro -->
<g id="edge47" class="edge">
<title>thyroxine&#45;&gt;thyro</title>
<path fill="none" stroke="#000000" d="M833.7926,-360.5708C840.9755,-350.4302 850.076,-337.5825 857.6422,-326.9008"/>
<polygon fill="#000000" stroke="#000000" points="860.5661,-322.7729 859.5121,-328.1536 859.1211,-324.813 857.676,-326.8531 857.676,-326.8531 857.676,-326.8531 859.1211,-324.813 855.8399,-325.5525 860.5661,-322.7729 860.5661,-322.7729"/>
</g>
<!-- dopamine -->
<g id="node6" class="node">
<title>dopamine</title>
<ellipse fill="#ffd700" stroke="#000000" cx="929.4469" cy="-378" rx="46.2923" ry="18"/>
<text text-anchor="middle" x="929.4469" y="-374.3" font-family="Times,serif" font-size="14.00" fill="#000000">dopamine</text>
</g>
<!-- amine -->
<g id="node30" class="node">
<title>amine</title>
<ellipse fill="none" stroke="#000000" cx="717.4469" cy="-306" rx="32.4942" ry="18"/>
<text text-anchor="middle" x="717.4469" y="-302.3" font-family="Times,serif" font-size="14.00" fill="#000000">amine</text>
</g>
<!-- dopamine&#45;&gt;amine -->
<g id="edge41" class="edge">
<title>dopamine&#45;&gt;amine</title>
<path fill="none" stroke="#000000" d="M894.4395,-366.1107C854.4835,-352.5407 789.621,-330.5119 750.4996,-317.2254"/>
<polygon fill="#000000" stroke="#000000" points="745.3905,-315.4903 750.8485,-314.9677 747.7577,-316.2942 750.1249,-317.0982 750.1249,-317.0982 750.1249,-317.0982 747.7577,-316.2942 749.4013,-319.2287 745.3905,-315.4903 745.3905,-315.4903"/>
</g>
<!-- dopamine&#45;&gt;o -->
<g id="edge42" class="edge">
<title>dopamine&#45;&gt;o</title>
<path fill="none" stroke="#000000" d="M963.4757,-365.6685C970.3485,-363.5177 977.5747,-361.4947 984.4469,-360 1054.3719,-344.7918 1256.7588,-377.3539 1304.4469,-324 1394.3421,-223.4245 1141.4231,-128.5996 1052.8387,-99.2675"/>
<polygon fill="#000000" stroke="#000000" points="1047.9942,-97.6746 1053.4468,-97.099 1050.3691,-98.4555 1052.744,-99.2364 1052.744,-99.2364 1052.744,-99.2364 1050.3691,-98.4555 1052.0411,-101.3739 1047.9942,-97.6746 1047.9942,-97.6746"/>
</g>
<!-- morphine -->
<g id="node7" class="node">
<title>morphine</title>
<ellipse fill="#ffd700" stroke="#000000" cx="1128.4469" cy="-306" rx="44.6926" ry="18"/>
<text text-anchor="middle" x="1128.4469" y="-302.3" font-family="Times,serif" font-size="14.00" fill="#000000">morphine</text>
</g>
<!-- morphine&#45;&gt;h -->
<g id="edge35" class="edge">
<title>morphine&#45;&gt;h</title>
<path fill="none" stroke="#000000" d="M1141.4166,-288.5932C1154.5456,-268.6964 1170.5337,-236.2715 1152.4469,-216 1105.5409,-163.4279 906.8999,-191.844 837.4469,-180 821.392,-177.2621 803.7001,-173.3189 789.1359,-169.8206"/>
<polygon fill="#000000" stroke="#000000" points="783.9205,-168.555 789.3101,-167.5477 786.35,-169.1446 788.7795,-169.7342 788.7795,-169.7342 788.7795,-169.7342 786.35,-169.1446 788.2488,-171.9207 783.9205,-168.555 783.9205,-168.555"/>
</g>
<!-- m -->
<g id="node33" class="node">
<title>m</title>
<ellipse fill="none" stroke="#000000" cx="576.4469" cy="-162" rx="27" ry="18"/>
<text text-anchor="middle" x="576.4469" y="-158.3" font-family="Times,serif" font-size="14.00" fill="#000000">m</text>
</g>
<!-- morphine&#45;&gt;m -->
<g id="edge33" class="edge">
<title>morphine&#45;&gt;m</title>
<path fill="none" stroke="#000000" d="M1111.7647,-289.2283C1089.4854,-268.015 1047.7695,-232.2923 1004.4469,-216 840.6888,-154.4155 780.7037,-227.9485 612.4469,-180 608.8433,-178.973 605.1697,-177.5865 601.6136,-176.0361"/>
<polygon fill="#000000" stroke="#000000" points="596.8549,-173.8387 602.3376,-173.8921 599.1246,-174.8868 601.3943,-175.9349 601.3943,-175.9349 601.3943,-175.9349 599.1246,-174.8868 600.451,-177.9776 596.8549,-173.8387 596.8549,-173.8387"/>
</g>
<!-- morphine&#45;&gt;o -->
<g id="edge34" class="edge">
<title>morphine&#45;&gt;o</title>
<path fill="none" stroke="#000000" d="M1146.1819,-289.3177C1155.34,-279.4574 1165.5903,-266.1548 1170.4469,-252 1175.6395,-236.866 1177.1327,-230.5362 1170.4469,-216 1145.6467,-162.0788 1085.1246,-122.5977 1049.9563,-103.2892"/>
<polygon fill="#000000" stroke="#000000" points="1045.3782,-100.811 1050.8464,-101.2126 1047.5767,-102.0011 1049.7753,-103.1913 1049.7753,-103.1913 1049.7753,-103.1913 1047.5767,-102.0011 1048.7042,-105.17 1045.3782,-100.811 1045.3782,-100.811"/>
</g>
<!-- morphine&#45;&gt;r -->
<g id="edge36" class="edge">
<title>morphine&#45;&gt;r</title>
<path fill="none" stroke="#000000" d="M1162.7176,-294.3221C1200.1498,-281.225 1255.6014,-260.6824 1261.4469,-252 1288.2542,-212.1833 1274.4477,-190.2059 1261.4469,-144 1258.0406,-131.8934 1251.0825,-119.817 1244.4301,-110.1643"/>
<polygon fill="#000000" stroke="#000000" points="1241.409,-105.9084 1246.138,-108.6831 1242.8561,-107.947 1244.3033,-109.9856 1244.3033,-109.9856 1244.3033,-109.9856 1242.8561,-107.947 1242.4686,-111.288 1241.409,-105.9084 1241.409,-105.9084"/>
</g>
<!-- morphine&#45;&gt;ine -->
<g id="edge37" class="edge">
<title>morphine&#45;&gt;ine</title>
<path fill="none" stroke="#000000" d="M1125.4188,-287.8314C1123.8579,-278.4659 1121.938,-266.9464 1120.2753,-256.9701"/>
<polygon fill="#000000" stroke="#000000" points="1119.4325,-251.9134 1122.474,-256.4754 1119.8436,-254.3794 1120.2546,-256.8454 1120.2546,-256.8454 1120.2546,-256.8454 1119.8436,-254.3794 1118.0352,-257.2153 1119.4325,-251.9134 1119.4325,-251.9134"/>
</g>
<!-- methamphetamine -->
<g id="node8" class="node">
<title>methamphetamine</title>
<ellipse fill="#ffd700" stroke="#000000" cx="374.4469" cy="-378" rx="77.1866" ry="18"/>
<text text-anchor="middle" x="374.4469" y="-374.3" font-family="Times,serif" font-size="14.00" fill="#000000">methamphetamine</text>
</g>
<!-- et -->
<g id="node14" class="node">
<title>et</title>
<ellipse fill="none" stroke="#000000" cx="92.4469" cy="-234" rx="27" ry="18"/>
<text text-anchor="middle" x="92.4469" y="-230.3" font-family="Times,serif" font-size="14.00" fill="#000000">et</text>
</g>
<!-- methamphetamine&#45;&gt;et -->
<g id="edge24" class="edge">
<title>methamphetamine&#45;&gt;et</title>
<path fill="none" stroke="#000000" d="M302.1222,-371.4515C235.0634,-363.9102 141.7962,-349.1982 115.4469,-324 97.5032,-306.8401 92.8233,-277.7702 91.9436,-257.3213"/>
<polygon fill="#000000" stroke="#000000" points="91.796,-252.3206 94.1926,-257.252 91.8698,-254.8195 91.9436,-257.3184 91.9436,-257.3184 91.9436,-257.3184 91.8698,-254.8195 89.6946,-257.3848 91.796,-252.3206 91.796,-252.3206"/>
</g>
<!-- ta -->
<g id="node15" class="node">
<title>ta</title>
<ellipse fill="none" stroke="#000000" cx="236.4469" cy="-234" rx="27" ry="18"/>
<text text-anchor="middle" x="236.4469" y="-230.3" font-family="Times,serif" font-size="14.00" fill="#000000">ta</text>
</g>
<!-- methamphetamine&#45;&gt;ta -->
<g id="edge25" class="edge">
<title>methamphetamine&#45;&gt;ta</title>
<path fill="none" stroke="#000000" d="M312.4495,-367.2185C286.9919,-359.5215 259.7224,-346.3827 243.4469,-324 229.4866,-304.8012 229.5954,-276.8152 232.012,-257.1608"/>
<polygon fill="#000000" stroke="#000000" points="232.7067,-252.1036 234.2552,-257.3633 232.3664,-254.5803 232.0261,-257.0571 232.0261,-257.0571 232.0261,-257.0571 232.3664,-254.5803 229.7971,-256.7508 232.7067,-252.1036 232.7067,-252.1036"/>
</g>
<!-- methamphetamine&#45;&gt;amine -->
<g id="edge21" class="edge">
<title>methamphetamine&#45;&gt;amine</title>
<path fill="none" stroke="#000000" d="M431.282,-365.766C440.9986,-363.7714 451.0028,-361.7783 460.4469,-360 555.6596,-342.0722 582.4802,-351.2771 675.4469,-324 679.4957,-322.8121 683.675,-321.3408 687.7559,-319.7551"/>
<polygon fill="#000000" stroke="#000000" points="692.4876,-317.8513 688.6889,-321.8051 690.1683,-318.7845 687.849,-319.7178 687.849,-319.7178 687.849,-319.7178 690.1683,-318.7845 687.0091,-317.6304 692.4876,-317.8513 692.4876,-317.8513"/>
</g>
<!-- methamphetamine&#45;&gt;me -->
<g id="edge22" class="edge">
<title>methamphetamine&#45;&gt;me</title>
<path fill="none" stroke="#000000" d="M375.0661,-359.7785C374.9868,-340.8722 372.7953,-310.9195 361.4469,-288 354.283,-273.5314 341.7815,-260.5087 330.7188,-250.8786"/>
<polygon fill="#000000" stroke="#000000" points="326.7208,-247.4877 331.9894,-249.0059 328.6274,-249.1048 330.534,-250.7218 330.534,-250.7218 330.534,-250.7218 328.6274,-249.1048 329.0787,-252.4378 326.7208,-247.4877 326.7208,-247.4877"/>
</g>
<!-- th -->
<g id="node32" class="node">
<title>th</title>
<ellipse fill="none" stroke="#000000" cx="638.4469" cy="-234" rx="27" ry="18"/>
<text text-anchor="middle" x="638.4469" y="-230.3" font-family="Times,serif" font-size="14.00" fill="#000000">th</text>
</g>
<!-- methamphetamine&#45;&gt;th -->
<g id="edge23" class="edge">
<title>methamphetamine&#45;&gt;th</title>
<path fill="none" stroke="#000000" d="M418.7592,-363.1812C445.6768,-353.4758 480.3453,-339.7037 509.4469,-324 549.4304,-302.4243 591.9293,-270.8793 616.7861,-251.436"/>
<polygon fill="#000000" stroke="#000000" points="620.9191,-248.1874 618.3785,-253.0462 618.9536,-249.7323 616.9881,-251.2773 616.9881,-251.2773 616.9881,-251.2773 618.9536,-249.7323 615.5976,-249.5083 620.9191,-248.1874 620.9191,-248.1874"/>
</g>
<!-- progesterone -->
<g id="node9" class="node">
<title>progesterone</title>
<ellipse fill="#ffd700" stroke="#000000" cx="525.4469" cy="-378" rx="55.7903" ry="18"/>
<text text-anchor="middle" x="525.4469" y="-374.3" font-family="Times,serif" font-size="14.00" fill="#000000">progesterone</text>
</g>
<!-- sterone -->
<g id="node26" class="node">
<title>sterone</title>
<ellipse fill="none" stroke="#000000" cx="630.4469" cy="-306" rx="36.2938" ry="18"/>
<text text-anchor="middle" x="630.4469" y="-302.3" font-family="Times,serif" font-size="14.00" fill="#000000">sterone</text>
</g>
<!-- progesterone&#45;&gt;sterone -->
<g id="edge16" class="edge">
<title>progesterone&#45;&gt;sterone</title>
<path fill="none" stroke="#000000" d="M549.2731,-361.6621C565.7838,-350.3404 587.7525,-335.2762 604.6716,-323.6745"/>
<polygon fill="#000000" stroke="#000000" points="608.8579,-320.8039 606.0067,-325.4872 606.7961,-322.2177 604.7343,-323.6316 604.7343,-323.6316 604.7343,-323.6316 606.7961,-322.2177 603.4618,-321.7759 608.8579,-320.8039 608.8579,-320.8039"/>
</g>
<!-- dihydrotestosterone -->
<g id="node10" class="node">
<title>dihydrotestosterone</title>
<ellipse fill="#ffd700" stroke="#000000" cx="679.4469" cy="-378" rx="79.8859" ry="18"/>
<text text-anchor="middle" x="679.4469" y="-374.3" font-family="Times,serif" font-size="14.00" fill="#000000">dihydrotestosterone</text>
</g>
<!-- hy -->
<g id="node23" class="node">
<title>hy</title>
<ellipse fill="none" stroke="#000000" cx="824.4469" cy="-234" rx="27" ry="18"/>
<text text-anchor="middle" x="824.4469" y="-230.3" font-family="Times,serif" font-size="14.00" fill="#000000">hy</text>
</g>
<!-- dihydrotestosterone&#45;&gt;hy -->
<g id="edge10" class="edge">
<title>dihydrotestosterone&#45;&gt;hy</title>
<path fill="none" stroke="#000000" d="M728.4909,-363.7483C750.2663,-355.2665 774.7,-342.4707 791.4469,-324 808.481,-305.2126 816.9286,-276.9029 820.9764,-257.0638"/>
<polygon fill="#000000" stroke="#000000" points="821.9592,-251.961 823.2229,-257.2963 821.4864,-254.4159 821.0135,-256.8708 821.0135,-256.8708 821.0135,-256.8708 821.4864,-254.4159 818.8041,-256.4452 821.9592,-251.961 821.9592,-251.961"/>
</g>
<!-- i -->
<g id="node24" class="node">
<title>i</title>
<ellipse fill="none" stroke="#000000" cx="813.4469" cy="-90" rx="27" ry="18"/>
<text text-anchor="middle" x="813.4469" y="-86.3" font-family="Times,serif" font-size="14.00" fill="#000000">i</text>
</g>
<!-- dihydrotestosterone&#45;&gt;i -->
<g id="edge11" class="edge">
<title>dihydrotestosterone&#45;&gt;i</title>
<path fill="none" stroke="#000000" d="M714.2048,-361.6378C729.8867,-352.6035 747.3423,-339.9531 758.4469,-324 770.5726,-306.58 798.1595,-169.0726 808.9767,-113.3403"/>
<polygon fill="#000000" stroke="#000000" points="809.9701,-108.2089 811.2287,-113.5455 809.4949,-110.6634 809.0197,-113.1178 809.0197,-113.1178 809.0197,-113.1178 809.4949,-110.6634 806.8107,-112.6901 809.9701,-108.2089 809.9701,-108.2089"/>
</g>
<!-- dihydrotestosterone&#45;&gt;to -->
<g id="edge12" class="edge">
<title>dihydrotestosterone&#45;&gt;to</title>
<path fill="none" stroke="#000000" d="M636.4136,-362.6053C618.0855,-353.9593 598.0649,-341.3529 585.4469,-324 571.3683,-304.6383 567.2628,-277.0915 566.2779,-257.5845"/>
<polygon fill="#000000" stroke="#000000" points="566.0772,-252.3092 568.5158,-257.22 566.1723,-254.8074 566.2674,-257.3056 566.2674,-257.3056 566.2674,-257.3056 566.1723,-254.8074 564.019,-257.3912 566.0772,-252.3092 566.0772,-252.3092"/>
</g>
<!-- dihydrotestosterone&#45;&gt;sterone -->
<g id="edge13" class="edge">
<title>dihydrotestosterone&#45;&gt;sterone</title>
<path fill="none" stroke="#000000" d="M667.3346,-360.2022C660.5896,-350.2912 652.1446,-337.8823 645.0376,-327.4394"/>
<polygon fill="#000000" stroke="#000000" points="642.0826,-323.0972 646.7558,-325.9649 643.4891,-325.164 644.8957,-327.2308 644.8957,-327.2308 644.8957,-327.2308 643.4891,-325.164 643.0356,-328.4967 642.0826,-323.0972 642.0826,-323.0972"/>
</g>
<!-- banana -->
<g id="node11" class="node">
<title>banana</title>
<ellipse fill="#ffd700" stroke="#000000" cx="160.4469" cy="-306" rx="35.9954" ry="18"/>
<text text-anchor="middle" x="160.4469" y="-302.3" font-family="Times,serif" font-size="14.00" fill="#000000">banana</text>
</g>
<!-- an -->
<g id="node17" class="node">
<title>an</title>
<ellipse fill="none" stroke="#000000" cx="164.4469" cy="-234" rx="27" ry="18"/>
<text text-anchor="middle" x="164.4469" y="-230.3" font-family="Times,serif" font-size="14.00" fill="#000000">an</text>
</g>
<!-- banana&#45;&gt;an -->
<g id="edge7" class="edge">
<title>banana&#45;&gt;an</title>
<path fill="none" stroke="#000000" d="M161.4563,-287.8314C161.9687,-278.6078 162.5972,-267.295 163.1456,-257.4246"/>
<polygon fill="#000000" stroke="#000000" points="163.424,-252.4133 165.3931,-257.5304 163.2853,-254.9094 163.1465,-257.4056 163.1465,-257.4056 163.1465,-257.4056 163.2853,-254.9094 160.9,-257.2807 163.424,-252.4133 163.424,-252.4133"/>
</g>
<!-- kazakhstan -->
<g id="node12" class="node">
<title>kazakhstan</title>
<ellipse fill="#ffd700" stroke="#000000" cx="302.4469" cy="-306" rx="50.0912" ry="18"/>
<text text-anchor="middle" x="302.4469" y="-302.3" font-family="Times,serif" font-size="14.00" fill="#000000">kazakhstan</text>
</g>
<!-- kazakhstan&#45;&gt;ta -->
<g id="edge2" class="edge">
<title>kazakhstan&#45;&gt;ta</title>
<path fill="none" stroke="#000000" d="M286.4702,-288.5708C276.8206,-278.044 264.4968,-264.5998 254.496,-253.6898"/>
<polygon fill="#000000" stroke="#000000" points="250.9258,-249.7951 255.9631,-251.9605 252.6151,-251.638 254.3045,-253.4809 254.3045,-253.4809 254.3045,-253.4809 252.6151,-251.638 252.6459,-255.0013 250.9258,-249.7951 250.9258,-249.7951"/>
</g>
<!-- kazakhstan&#45;&gt;h -->
<g id="edge3" class="edge">
<title>kazakhstan&#45;&gt;h</title>
<path fill="none" stroke="#000000" d="M319.0038,-288.7782C340.3212,-267.7797 379.5195,-232.9939 420.4469,-216 529.8131,-170.589 568.0937,-202.0235 684.4469,-180 698.8976,-177.2648 714.7614,-173.5081 728.0821,-170.1341"/>
<polygon fill="#000000" stroke="#000000" points="733.2431,-168.814 728.9567,-172.2329 730.8211,-169.4336 728.3991,-170.0531 728.3991,-170.0531 728.3991,-170.0531 730.8211,-169.4336 727.8415,-167.8733 733.2431,-168.814 733.2431,-168.814"/>
</g>
<!-- kazakhstan&#45;&gt;an -->
<g id="edge4" class="edge">
<title>kazakhstan&#45;&gt;an</title>
<path fill="none" stroke="#000000" d="M273.8533,-291.0816C249.2809,-278.2612 214.1525,-259.9333 190.3831,-247.5319"/>
<polygon fill="#000000" stroke="#000000" points="185.7872,-245.134 191.2609,-245.4521 188.0037,-246.2905 190.2201,-247.4469 190.2201,-247.4469 190.2201,-247.4469 188.0037,-246.2905 189.1793,-249.4417 185.7872,-245.134 185.7872,-245.134"/>
</g>
<!-- st -->
<g id="node18" class="node">
<title>st</title>
<ellipse fill="none" stroke="#000000" cx="456.4469" cy="-234" rx="27" ry="18"/>
<text text-anchor="middle" x="456.4469" y="-230.3" font-family="Times,serif" font-size="14.00" fill="#000000">st</text>
</g>
<!-- kazakhstan&#45;&gt;st -->
<g id="edge5" class="edge">
<title>kazakhstan&#45;&gt;st</title>
<path fill="none" stroke="#000000" d="M333.241,-291.6028C361.3361,-278.4674 402.4546,-259.2432 429.3332,-246.6766"/>
<polygon fill="#000000" stroke="#000000" points="434.18,-244.4105 430.6035,-248.5665 431.9153,-245.4694 429.6506,-246.5282 429.6506,-246.5282 429.6506,-246.5282 431.9153,-245.4694 428.6976,-244.49 434.18,-244.4105 434.18,-244.4105"/>
</g>
<!-- lettuce -->
<g id="node13" class="node">
<title>lettuce</title>
<ellipse fill="#ffd700" stroke="#000000" cx="34.4469" cy="-306" rx="34.394" ry="18"/>
<text text-anchor="middle" x="34.4469" y="-302.3" font-family="Times,serif" font-size="14.00" fill="#000000">lettuce</text>
</g>
<!-- lettuce&#45;&gt;et -->
<g id="edge1" class="edge">
<title>lettuce&#45;&gt;et</title>
<path fill="none" stroke="#000000" d="M47.8991,-289.3008C56.3635,-278.7932 67.3369,-265.1711 76.2744,-254.0762"/>
<polygon fill="#000000" stroke="#000000" points="79.4667,-250.1134 78.0822,-255.4187 77.8984,-252.0603 76.33,-254.0072 76.33,-254.0072 76.33,-254.0072 77.8984,-252.0603 74.5778,-252.5957 79.4667,-250.1134 79.4667,-250.1134"/>
</g>
<!-- t -->
<g id="node19" class="node">
<title>t</title>
<ellipse fill="none" stroke="#000000" cx="494.4469" cy="-162" rx="27" ry="18"/>
<text text-anchor="middle" x="494.4469" y="-158.3" font-family="Times,serif" font-size="14.00" fill="#000000">t</text>
</g>
<!-- et&#45;&gt;t -->
<g id="edge31" class="edge">
<title>et&#45;&gt;t</title>
<path fill="none" stroke="#000000" d="M113.2642,-222.0683C118.1174,-219.7206 123.3578,-217.5177 128.4469,-216 260.9432,-176.4881 302.2491,-208.9479 437.4469,-180 446.7795,-178.0018 456.7631,-175.1161 465.7256,-172.2386"/>
<polygon fill="#000000" stroke="#000000" points="470.589,-170.6465 466.5372,-174.3405 468.2131,-171.4243 465.8371,-172.2022 465.8371,-172.2022 465.8371,-172.2022 468.2131,-171.4243 465.1371,-170.0638 470.589,-170.6465 470.589,-170.6465"/>
</g>
<!-- e -->
<g id="node29" class="node">
<title>e</title>
<ellipse fill="none" stroke="#000000" cx="382.4469" cy="-90" rx="27" ry="18"/>
<text text-anchor="middle" x="382.4469" y="-86.3" font-family="Times,serif" font-size="14.00" fill="#000000">e</text>
</g>
<!-- et&#45;&gt;e -->
<g id="edge32" class="edge">
<title>et&#45;&gt;e</title>
<path fill="none" stroke="#000000" d="M110.519,-220.3407C136.2906,-201.3279 185.5713,-166.6733 231.4469,-144 271.8414,-124.0357 321.5117,-107.7319 352.5851,-98.4394"/>
<polygon fill="#000000" stroke="#000000" points="357.4083,-97.0087 353.2546,-100.5878 355.0115,-97.7197 352.6147,-98.4307 352.6147,-98.4307 352.6147,-98.4307 355.0115,-97.7197 351.9748,-96.2736 357.4083,-97.0087 357.4083,-97.0087"/>
</g>
<!-- ta&#45;&gt;t -->
<g id="edge29" class="edge">
<title>ta&#45;&gt;t</title>
<path fill="none" stroke="#000000" d="M257.3846,-222.4384C262.2316,-220.0715 267.4389,-217.7672 272.4469,-216 343.2279,-191.0233 364.9179,-199.3213 437.4469,-180 446.5848,-177.5657 456.4395,-174.5838 465.3429,-171.7524"/>
<polygon fill="#000000" stroke="#000000" points="470.1807,-170.1994 466.1078,-173.8701 467.8004,-170.9636 465.42,-171.7277 465.42,-171.7277 465.42,-171.7277 467.8004,-170.9636 464.7323,-169.5854 470.1807,-170.1994 470.1807,-170.1994"/>
</g>
<!-- ta&#45;&gt;a -->
<g id="edge30" class="edge">
<title>ta&#45;&gt;a</title>
<path fill="none" stroke="#000000" d="M258.0351,-222.9114C262.756,-220.5693 267.7469,-218.1558 272.4469,-216 306.726,-200.2771 346.8996,-183.7535 373.1941,-173.1896"/>
<polygon fill="#000000" stroke="#000000" points="377.9379,-171.2879 374.1341,-175.2369 375.6174,-172.2182 373.2969,-173.1484 373.2969,-173.1484 373.2969,-173.1484 375.6174,-172.2182 372.4596,-171.06 377.9379,-171.2879 377.9379,-171.2879"/>
</g>
<g id="node20" class="node">
<title></title>
<ellipse fill="none" stroke="#000000" cx="682.4469" cy="-18" rx="27" ry="18"/>
</g>
<!-- h&#45;&gt; -->
<g id="edge40" class="edge">
<title>h&#45;&gt;</title>
<path fill="none" stroke="#000000" d="M739.6841,-149.0437C726.9407,-139.242 710.7673,-124.6533 701.4469,-108 689.8267,-87.2374 685.2967,-60.1573 683.5399,-41.146"/>
<polygon fill="#000000" stroke="#000000" points="683.1144,-36.0098 685.7696,-40.8069 683.3208,-38.5013 683.5273,-40.9927 683.5273,-40.9927 683.5273,-40.9927 683.3208,-38.5013 681.285,-41.1786 683.1144,-36.0098 683.1144,-36.0098"/>
</g>
<!-- an&#45;&gt;a -->
<g id="edge8" class="edge">
<title>an&#45;&gt;a</title>
<path fill="none" stroke="#000000" d="M185.4492,-222.6145C190.2928,-220.2386 195.4824,-217.886 200.4469,-216 258.958,-193.7721 330.3151,-176.901 370.344,-168.3145"/>
<polygon fill="#000000" stroke="#000000" points="375.5422,-167.2083 371.12,-170.4498 373.0969,-167.7287 370.6517,-168.2491 370.6517,-168.2491 370.6517,-168.2491 373.0969,-167.7287 370.1833,-166.0484 375.5422,-167.2083 375.5422,-167.2083"/>
</g>
<!-- n -->
<g id="node22" class="node">
<title>n</title>
<ellipse fill="none" stroke="#000000" cx="737.4469" cy="-90" rx="27" ry="18"/>
<text text-anchor="middle" x="737.4469" y="-86.3" font-family="Times,serif" font-size="14.00" fill="#000000">n</text>
</g>
<!-- an&#45;&gt;n -->
<g id="edge9" class="edge">
<title>an&#45;&gt;n</title>
<path fill="none" stroke="#000000" d="M185.111,-222.3399C220.7281,-202.8012 296.5063,-163.6605 365.4469,-144 487.8363,-109.097 639.6354,-96.0341 705.0113,-91.7911"/>
<polygon fill="#000000" stroke="#000000" points="710.3174,-91.4539 705.4702,-94.0166 707.8225,-91.6125 705.3275,-91.7711 705.3275,-91.7711 705.3275,-91.7711 707.8225,-91.6125 705.1847,-89.5256 710.3174,-91.4539 710.3174,-91.4539"/>
</g>
<!-- st&#45;&gt;t -->
<g id="edge15" class="edge">
<title>st&#45;&gt;t</title>
<path fill="none" stroke="#000000" d="M465.4524,-216.937C470.6293,-207.1282 477.19,-194.6974 482.7608,-184.1422"/>
<polygon fill="#000000" stroke="#000000" points="485.2421,-179.4407 484.8982,-184.9128 484.0752,-181.6516 482.9083,-183.8626 482.9083,-183.8626 482.9083,-183.8626 484.0752,-181.6516 480.9184,-182.8124 485.2421,-179.4407 485.2421,-179.4407"/>
</g>
<!-- t&#45;&gt; -->
<g id="edge6" class="edge">
<title>t&#45;&gt;</title>
<path fill="none" stroke="#000000" d="M512.4732,-148.1927C547.004,-121.7436 622.3892,-64.0016 660.072,-35.1382"/>
<polygon fill="#000000" stroke="#000000" points="664.4753,-31.7655 661.8741,-36.5922 662.4906,-33.2857 660.5059,-34.8059 660.5059,-34.8059 660.5059,-34.8059 662.4906,-33.2857 659.1377,-33.0197 664.4753,-31.7655 664.4753,-31.7655"/>
</g>
<!-- a&#45;&gt; -->
<g id="edge28" class="edge">
<title>a&#45;&gt;</title>
<path fill="none" stroke="#000000" d="M421.8285,-149.7296C451.9165,-131.8014 510.1984,-97.7799 561.4469,-72 592.8505,-56.2029 629.8774,-40.024 654.6247,-29.5478"/>
<polygon fill="#000000" stroke="#000000" points="659.4051,-27.5304 655.6733,-31.5475 657.1018,-28.5025 654.7985,-29.4745 654.7985,-29.4745 654.7985,-29.4745 657.1018,-28.5025 653.9237,-27.4016 659.4051,-27.5304 659.4051,-27.5304"/>
</g>
<!-- n&#45;&gt; -->
<g id="edge14" class="edge">
<title>n&#45;&gt;</title>
<path fill="none" stroke="#000000" d="M724.9666,-73.6621C716.95,-63.1676 706.477,-49.4575 697.9311,-38.2702"/>
<polygon fill="#000000" stroke="#000000" points="694.8779,-34.2733 699.7012,-36.8808 696.3955,-36.2599 697.9131,-38.2466 697.9131,-38.2466 697.9131,-38.2466 696.3955,-36.2599 696.1251,-39.6125 694.8779,-34.2733 694.8779,-34.2733"/>
</g>
<!-- hy&#45;&gt;h -->
<g id="edge52" class="edge">
<title>hy&#45;&gt;h</title>
<path fill="none" stroke="#000000" d="M810.1259,-218.3771C800.1799,-207.5268 786.8583,-192.9942 776.2317,-181.4016"/>
<polygon fill="#000000" stroke="#000000" points="772.74,-177.5924 777.7773,-179.7578 774.4293,-179.4353 776.1187,-181.2782 776.1187,-181.2782 776.1187,-181.2782 774.4293,-179.4353 774.4601,-182.7986 772.74,-177.5924 772.74,-177.5924"/>
</g>
<!-- i&#45;&gt; -->
<g id="edge74" class="edge">
<title>i&#45;&gt;</title>
<path fill="none" stroke="#000000" d="M792.3995,-78.432C769.3859,-65.7832 732.5099,-45.5155 707.8904,-31.9842"/>
<polygon fill="#000000" stroke="#000000" points="703.4421,-29.5393 708.9077,-29.9759 705.633,-30.7435 707.8239,-31.9477 707.8239,-31.9477 707.8239,-31.9477 705.633,-30.7435 706.7402,-33.9195 703.4421,-29.5393 703.4421,-29.5393"/>
</g>
<!-- to&#45;&gt;t -->
<g id="edge80" class="edge">
<title>to&#45;&gt;t</title>
<path fill="none" stroke="#000000" d="M551.1776,-218.7307C540.1045,-207.6575 525.0619,-192.6149 513.2488,-180.8018"/>
<polygon fill="#000000" stroke="#000000" points="509.6943,-177.2473 514.8208,-179.1919 511.4621,-179.0151 513.2298,-180.7829 513.2298,-180.7829 513.2298,-180.7829 511.4621,-179.0151 511.6388,-182.3739 509.6943,-177.2473 509.6943,-177.2473"/>
</g>
<!-- to&#45;&gt;o -->
<g id="edge81" class="edge">
<title>to&#45;&gt;o</title>
<path fill="none" stroke="#000000" d="M588.0635,-222.9728C592.7826,-220.6268 597.7656,-218.1963 602.4469,-216 638.4804,-199.0947 651.2863,-202.0129 684.4469,-180 703.8295,-167.1333 701.6835,-154.4935 722.4469,-144 769.4358,-120.2526 924.2826,-100.8894 991.6603,-93.3708"/>
<polygon fill="#000000" stroke="#000000" points="996.7448,-92.8074 992.023,-95.5945 994.26,-93.0828 991.7752,-93.3582 991.7752,-93.3582 991.7752,-93.3582 994.26,-93.0828 991.5273,-91.1219 996.7448,-92.8074 996.7448,-92.8074"/>
</g>
<!-- sterone&#45;&gt;st -->
<g id="edge19" class="edge">
<title>sterone&#45;&gt;st</title>
<path fill="none" stroke="#000000" d="M601.8129,-294.6431C574.8134,-283.871 533.2594,-267.128 497.4469,-252 493.0294,-250.1339 488.3602,-248.122 483.8171,-246.1429"/>
<polygon fill="#000000" stroke="#000000" points="478.9546,-244.0167 484.4373,-243.9585 481.2452,-245.0183 483.5358,-246.02 483.5358,-246.02 483.5358,-246.02 481.2452,-245.0183 482.6343,-248.0815 478.9546,-244.0167 478.9546,-244.0167"/>
</g>
<!-- ne -->
<g id="node27" class="node">
<title>ne</title>
<ellipse fill="none" stroke="#000000" cx="648.4469" cy="-162" rx="27" ry="18"/>
<text text-anchor="middle" x="648.4469" y="-158.3" font-family="Times,serif" font-size="14.00" fill="#000000">ne</text>
</g>
<!-- sterone&#45;&gt;ne -->
<g id="edge17" class="edge">
<title>sterone&#45;&gt;ne</title>
<path fill="none" stroke="#000000" d="M648.5551,-289.9376C658.2578,-280.0835 669.2578,-266.5835 674.4469,-252 682.6901,-228.8338 672.1285,-201.6402 662.0984,-183.2561"/>
<polygon fill="#000000" stroke="#000000" points="659.5716,-178.7798 663.9889,-182.0279 660.8006,-180.9569 662.0295,-183.134 662.0295,-183.134 662.0295,-183.134 660.8006,-180.9569 660.0702,-184.24 659.5716,-178.7798 659.5716,-178.7798"/>
</g>
<!-- sterone&#45;&gt;ron -->
<g id="edge18" class="edge">
<title>sterone&#45;&gt;ron</title>
<path fill="none" stroke="#000000" d="M657.8301,-294.0824C663.8749,-291.7919 670.3083,-289.609 676.4469,-288 787.5896,-258.8678 822.7385,-286.1386 932.4469,-252 935.9331,-250.9152 939.4959,-249.5234 942.9588,-247.995"/>
<polygon fill="#000000" stroke="#000000" points="947.6024,-245.8424 944.0125,-249.9867 945.3343,-246.8938 943.0662,-247.9453 943.0662,-247.9453 943.0662,-247.9453 945.3343,-246.8938 942.1198,-245.904 947.6024,-245.8424 947.6024,-245.8424"/>
</g>
<!-- ne&#45;&gt;n -->
<g id="edge27" class="edge">
<title>ne&#45;&gt;n</title>
<path fill="none" stroke="#000000" d="M666.0305,-147.7751C680.3851,-136.1624 700.7253,-119.7074 716.029,-107.3268"/>
<polygon fill="#000000" stroke="#000000" points="720.2028,-103.9503 717.7307,-108.8444 718.2591,-105.5227 716.3155,-107.0951 716.3155,-107.0951 716.3155,-107.0951 718.2591,-105.5227 714.9004,-105.3458 720.2028,-103.9503 720.2028,-103.9503"/>
</g>
<!-- ne&#45;&gt;e -->
<g id="edge26" class="edge">
<title>ne&#45;&gt;e</title>
<path fill="none" stroke="#000000" d="M627.4883,-150.4969C622.6425,-148.1271 617.4408,-145.8067 612.4469,-144 543.5549,-119.0765 458.8306,-102.6444 413.9045,-94.9875"/>
<polygon fill="#000000" stroke="#000000" points="408.8908,-94.1413 414.1955,-92.7548 411.3559,-94.5574 413.821,-94.9735 413.821,-94.9735 413.821,-94.9735 411.3559,-94.5574 413.4466,-97.1921 408.8908,-94.1413 408.8908,-94.1413"/>
</g>
<!-- ro -->
<g id="node39" class="node">
<title>ro</title>
<ellipse fill="none" stroke="#000000" cx="1023.4469" cy="-162" rx="27" ry="18"/>
<text text-anchor="middle" x="1023.4469" y="-158.3" font-family="Times,serif" font-size="14.00" fill="#000000">ro</text>
</g>
<!-- ron&#45;&gt;ro -->
<g id="edge63" class="edge">
<title>ron&#45;&gt;ro</title>
<path fill="none" stroke="#000000" d="M980.9273,-217.6621C988.9439,-207.1676 999.4169,-193.4575 1007.9628,-182.2702"/>
<polygon fill="#000000" stroke="#000000" points="1011.016,-178.2733 1009.7688,-183.6125 1009.4984,-180.2599 1007.9807,-182.2466 1007.9807,-182.2466 1007.9807,-182.2466 1009.4984,-180.2599 1006.1927,-180.8808 1011.016,-178.2733 1011.016,-178.2733"/>
</g>
<!-- on -->
<g id="node41" class="node">
<title>on</title>
<ellipse fill="none" stroke="#000000" cx="873.4469" cy="-162" rx="27" ry="18"/>
<text text-anchor="middle" x="873.4469" y="-158.3" font-family="Times,serif" font-size="14.00" fill="#000000">on</text>
</g>
<!-- ron&#45;&gt;on -->
<g id="edge62" class="edge">
<title>ron&#45;&gt;on</title>
<path fill="none" stroke="#000000" d="M950.5782,-220.4574C935.0197,-208.6657 912.3994,-191.5219 895.6755,-178.8469"/>
<polygon fill="#000000" stroke="#000000" points="891.5586,-175.7267 896.9025,-176.9537 893.551,-177.2368 895.5435,-178.7469 895.5435,-178.7469 895.5435,-178.7469 893.551,-177.2368 894.1844,-180.54 891.5586,-175.7267 891.5586,-175.7267"/>
</g>
<!-- e&#45;&gt; -->
<g id="edge20" class="edge">
<title>e&#45;&gt;</title>
<path fill="none" stroke="#000000" d="M408.0248,-83.8613C463.0427,-70.657 592.4373,-39.6023 651.7582,-25.3653"/>
<polygon fill="#000000" stroke="#000000" points="656.9339,-24.1231 652.597,-27.478 654.5029,-24.7066 652.0719,-25.2901 652.0719,-25.2901 652.0719,-25.2901 654.5029,-24.7066 651.5468,-23.1022 656.9339,-24.1231 656.9339,-24.1231"/>
</g>
<!-- amine&#45;&gt;a -->
<g id="edge44" class="edge">
<title>amine&#45;&gt;a</title>
<path fill="none" stroke="#000000" d="M692.3842,-294.4775C686.8688,-292.1624 681.0118,-289.8696 675.4469,-288 612.5035,-266.8528 588.6917,-283.8848 530.4469,-252 510.0401,-240.8287 511.01,-230.0231 492.4469,-216 471.7718,-200.3814 446.2551,-185.581 427.508,-175.4385"/>
<polygon fill="#000000" stroke="#000000" points="422.8947,-172.9626 428.3644,-173.3446 425.0976,-174.1448 427.3004,-175.3271 427.3004,-175.3271 427.3004,-175.3271 425.0976,-174.1448 426.2363,-177.3096 422.8947,-172.9626 422.8947,-172.9626"/>
</g>
<!-- amine&#45;&gt;m -->
<g id="edge43" class="edge">
<title>amine&#45;&gt;m</title>
<path fill="none" stroke="#000000" d="M712.5553,-288.2022C706.3994,-268.5422 694.1763,-236.9064 674.4469,-216 668.9329,-210.157 629.6218,-189.3159 602.4962,-175.3005"/>
<polygon fill="#000000" stroke="#000000" points="597.9197,-172.9408 603.3949,-173.2324 600.1417,-174.0866 602.3637,-175.2323 602.3637,-175.2323 602.3637,-175.2323 600.1417,-174.0866 601.3326,-177.2321 597.9197,-172.9408 597.9197,-172.9408"/>
</g>
<!-- amine&#45;&gt;ine -->
<g id="edge45" class="edge">
<title>amine&#45;&gt;ine</title>
<path fill="none" stroke="#000000" d="M748.4238,-300.4102C822.7184,-287.0036 1010.3968,-253.1369 1085.0833,-239.6596"/>
<polygon fill="#000000" stroke="#000000" points="1090.2623,-238.725 1085.7414,-241.8273 1087.8021,-239.169 1085.3418,-239.613 1085.3418,-239.613 1085.3418,-239.613 1087.8021,-239.169 1084.9422,-237.3988 1090.2623,-238.725 1090.2623,-238.725"/>
</g>
<!-- me&#45;&gt;e -->
<g id="edge76" class="edge">
<title>me&#45;&gt;e</title>
<path fill="none" stroke="#000000" d="M317.2263,-216.9158C330.6894,-190.7174 356.4256,-140.6362 371.2248,-111.8376"/>
<polygon fill="#000000" stroke="#000000" points="373.679,-107.0619 373.3948,-112.5375 372.5363,-109.2855 371.3936,-111.5091 371.3936,-111.5091 371.3936,-111.5091 372.5363,-109.2855 369.3924,-110.4807 373.679,-107.0619 373.679,-107.0619"/>
</g>
<!-- me&#45;&gt;m -->
<g id="edge75" class="edge">
<title>me&#45;&gt;m</title>
<path fill="none" stroke="#000000" d="M330.6658,-223.1978C336.6629,-220.5731 343.2183,-217.961 349.4469,-216 427.6814,-191.369 451.7275,-203.0338 530.4469,-180 536.3627,-178.269 542.5827,-176.0911 548.4697,-173.8537"/>
<polygon fill="#000000" stroke="#000000" points="553.3226,-171.9688 549.4764,-175.8765 550.9922,-172.874 548.6618,-173.7792 548.6618,-173.7792 548.6618,-173.7792 550.9922,-172.874 547.8471,-171.6818 553.3226,-171.9688 553.3226,-171.9688"/>
</g>
<!-- th&#45;&gt;h -->
<g id="edge61" class="edge">
<title>th&#45;&gt;h</title>
<path fill="none" stroke="#000000" d="M658.5322,-221.9488C679.2991,-209.4887 711.7411,-190.0235 733.989,-176.6748"/>
<polygon fill="#000000" stroke="#000000" points="738.2961,-174.0905 735.1663,-178.5924 736.1524,-175.3768 734.0086,-176.663 734.0086,-176.663 734.0086,-176.663 736.1524,-175.3768 732.851,-174.7337 738.2961,-174.0905 738.2961,-174.0905"/>
</g>
<!-- th&#45;&gt;t -->
<g id="edge60" class="edge">
<title>th&#45;&gt;t</title>
<path fill="none" stroke="#000000" d="M616.5764,-223.0647C590.8423,-210.1977 548.1467,-188.8499 520.6625,-175.1078"/>
<polygon fill="#000000" stroke="#000000" points="516.0514,-172.8022 521.5298,-173.0259 518.2875,-173.9203 520.5236,-175.0384 520.5236,-175.0384 520.5236,-175.0384 518.2875,-173.9203 519.5173,-177.0508 516.0514,-172.8022 516.0514,-172.8022"/>
</g>
<!-- m&#45;&gt; -->
<g id="edge77" class="edge">
<title>m&#45;&gt;</title>
<path fill="none" stroke="#000000" d="M588.4004,-145.7613C607.8043,-119.4014 646.121,-67.3485 667.3679,-38.4848"/>
<polygon fill="#000000" stroke="#000000" points="670.3745,-34.4003 669.2224,-39.7609 668.8924,-36.4137 667.4104,-38.427 667.4104,-38.427 667.4104,-38.427 668.8924,-36.4137 665.5984,-37.0932 670.3745,-34.4003 670.3745,-34.4003"/>
</g>
<!-- o&#45;&gt; -->
<g id="edge50" class="edge">
<title>o&#45;&gt;</title>
<path fill="none" stroke="#000000" d="M997.5366,-84.5292C935.7335,-71.4799 779.8747,-38.5713 713.3333,-24.5215"/>
<polygon fill="#000000" stroke="#000000" points="708.3178,-23.4625 713.6748,-22.294 710.7639,-23.979 713.21,-24.4955 713.21,-24.4955 713.21,-24.4955 710.7639,-23.979 712.7451,-26.697 708.3178,-23.4625 708.3178,-23.4625"/>
</g>
<!-- r&#45;&gt; -->
<g id="edge51" class="edge">
<title>r&#45;&gt;</title>
<path fill="none" stroke="#000000" d="M1201.7426,-86.4786C1110.6661,-74.4685 812.4642,-35.1451 714.1812,-22.1847"/>
<polygon fill="#000000" stroke="#000000" points="709.0999,-21.5147 714.3512,-19.9378 711.5784,-21.8416 714.057,-22.1684 714.057,-22.1684 714.057,-22.1684 711.5784,-21.8416 713.7628,-24.3991 709.0999,-21.5147 709.0999,-21.5147"/>
</g>
<!-- ine&#45;&gt;ne -->
<g id="edge39" class="edge">
<title>ine&#45;&gt;ne</title>
<path fill="none" stroke="#000000" d="M1094.7717,-222.983C1088.66,-220.294 1081.9117,-217.7036 1075.4469,-216 922.9503,-175.8144 877.8731,-206.6992 722.4469,-180 707.952,-177.5101 692.0824,-173.7855 678.7693,-170.3694"/>
<polygon fill="#000000" stroke="#000000" points="673.612,-169.0289 679.0172,-168.1092 676.0316,-169.6579 678.4512,-170.2868 678.4512,-170.2868 678.4512,-170.2868 676.0316,-169.6579 677.8851,-172.4645 673.612,-169.0289 673.612,-169.0289"/>
</g>
<!-- in -->
<g id="node37" class="node">
<title>in</title>
<ellipse fill="none" stroke="#000000" cx="945.4469" cy="-162" rx="27" ry="18"/>
<text text-anchor="middle" x="945.4469" y="-158.3" font-family="Times,serif" font-size="14.00" fill="#000000">in</text>
</g>
<!-- ine&#45;&gt;in -->
<g id="edge38" class="edge">
<title>ine&#45;&gt;in</title>
<path fill="none" stroke="#000000" d="M1093.9347,-223.9941C1087.9399,-221.3631 1081.4589,-218.5489 1075.4469,-216 1036.5419,-199.5052 1026.4241,-196.3235 987.4469,-180 982.837,-178.0694 977.9525,-175.9989 973.2076,-173.9742"/>
<polygon fill="#000000" stroke="#000000" points="968.5246,-171.9718 974.0066,-171.8689 970.8233,-172.9547 973.122,-173.9377 973.122,-173.9377 973.122,-173.9377 970.8233,-172.9547 972.2373,-176.0065 968.5246,-171.9718 968.5246,-171.9718"/>
</g>
<!-- in&#45;&gt;n -->
<g id="edge72" class="edge">
<title>in&#45;&gt;n</title>
<path fill="none" stroke="#000000" d="M924.4394,-150.6285C919.5961,-148.2518 914.4079,-145.8954 909.4469,-144 852.6424,-122.297 834.6823,-128.5399 777.4469,-108 773.1307,-106.451 768.6318,-104.6348 764.2749,-102.7628"/>
<polygon fill="#000000" stroke="#000000" points="759.6184,-100.7195 765.1011,-100.6682 761.9077,-101.724 764.197,-102.7286 764.197,-102.7286 764.197,-102.7286 761.9077,-101.724 763.2929,-104.789 759.6184,-100.7195 759.6184,-100.7195"/>
</g>
<!-- in&#45;&gt;i -->
<g id="edge73" class="edge">
<title>in&#45;&gt;i</title>
<path fill="none" stroke="#000000" d="M924.5312,-150.5914C901.3996,-137.9742 864.1152,-117.6372 839.2034,-104.049"/>
<polygon fill="#000000" stroke="#000000" points="834.702,-101.5937 840.1689,-102.0127 836.8967,-102.7908 839.0915,-103.988 839.0915,-103.988 839.0915,-103.988 836.8967,-102.7908 838.014,-105.9632 834.702,-101.5937 834.702,-101.5937"/>
</g>
<!-- thyro&#45;&gt;hy -->
<g id="edge57" class="edge">
<title>thyro&#45;&gt;hy</title>
<path fill="none" stroke="#000000" d="M861.3141,-289.3008C854.4683,-279.0321 845.6395,-265.7889 838.3381,-254.8367"/>
<polygon fill="#000000" stroke="#000000" points="835.5194,-250.6087 840.165,-253.5208 836.9062,-252.6888 838.2929,-254.7689 838.2929,-254.7689 838.2929,-254.7689 836.9062,-252.6888 836.4208,-256.017 835.5194,-250.6087 835.5194,-250.6087"/>
</g>
<!-- thyro&#45;&gt;th -->
<g id="edge58" class="edge">
<title>thyro&#45;&gt;th</title>
<path fill="none" stroke="#000000" d="M846.059,-297.8806C802.0056,-284.3257 713.7917,-257.183 667.825,-243.0394"/>
<polygon fill="#000000" stroke="#000000" points="662.9728,-241.5464 668.4134,-240.8664 665.3622,-242.2817 667.7517,-243.0169 667.7517,-243.0169 667.7517,-243.0169 665.3622,-242.2817 667.09,-245.1674 662.9728,-241.5464 662.9728,-241.5464"/>
</g>
<!-- thyro&#45;&gt;ro -->
<g id="edge59" class="edge">
<title>thyro&#45;&gt;ro</title>
<path fill="none" stroke="#000000" d="M897.3358,-296.5094C934.565,-282.2152 1000.8088,-256.3611 1004.4469,-252 1020.0355,-233.3139 1023.798,-204.9849 1024.29,-185.1136"/>
<polygon fill="#000000" stroke="#000000" points="1024.3497,-180.0019 1026.5411,-185.0279 1024.3205,-182.5017 1024.2912,-185.0016 1024.2912,-185.0016 1024.2912,-185.0016 1024.3205,-182.5017 1022.0414,-184.9753 1024.3497,-180.0019 1024.3497,-180.0019"/>
</g>
<!-- ro&#45;&gt;o -->
<g id="edge49" class="edge">
<title>ro&#45;&gt;o</title>
<path fill="none" stroke="#000000" d="M1023.4469,-143.8314C1023.4469,-134.6078 1023.4469,-123.295 1023.4469,-113.4246"/>
<polygon fill="#000000" stroke="#000000" points="1023.4469,-108.4133 1025.697,-113.4132 1023.447,-110.9133 1023.447,-113.4133 1023.447,-113.4133 1023.447,-113.4133 1023.447,-110.9133 1021.197,-113.4133 1023.4469,-108.4133 1023.4469,-108.4133"/>
</g>
<!-- ro&#45;&gt;r -->
<g id="edge48" class="edge">
<title>ro&#45;&gt;r</title>
<path fill="none" stroke="#000000" d="M1047.3643,-153.5998C1085.2211,-140.3037 1158.8192,-114.4546 1199.5637,-100.1444"/>
<polygon fill="#000000" stroke="#000000" points="1204.3651,-98.458 1200.3932,-102.2378 1202.0063,-99.2865 1199.6476,-100.115 1199.6476,-100.115 1199.6476,-100.115 1202.0063,-99.2865 1198.902,-97.9921 1204.3651,-98.458 1204.3651,-98.458"/>
</g>
<!-- onin&#45;&gt;in -->
<g id="edge71" class="edge">
<title>onin&#45;&gt;in</title>
<path fill="none" stroke="#000000" d="M907.8117,-217.3008C914.8001,-207.0321 923.8129,-193.7889 931.2664,-182.8367"/>
<polygon fill="#000000" stroke="#000000" points="934.1438,-178.6087 933.1908,-184.0082 932.7372,-180.6754 931.3307,-182.7422 931.3307,-182.7422 931.3307,-182.7422 932.7372,-180.6754 929.4706,-181.4763 934.1438,-178.6087 934.1438,-178.6087"/>
</g>
<!-- onin&#45;&gt;on -->
<g id="edge70" class="edge">
<title>onin&#45;&gt;on</title>
<path fill="none" stroke="#000000" d="M890.7615,-216.2022C887.7206,-206.6829 883.9437,-194.8593 880.694,-184.6865"/>
<polygon fill="#000000" stroke="#000000" points="879.1466,-179.8425 882.8115,-183.9207 879.9074,-182.224 880.6682,-184.6054 880.6682,-184.6054 880.6682,-184.6054 879.9074,-182.224 878.5249,-185.2901 879.1466,-179.8425 879.1466,-179.8425"/>
</g>
<!-- on&#45;&gt;n -->
<g id="edge79" class="edge">
<title>on&#45;&gt;n</title>
<path fill="none" stroke="#000000" d="M852.1969,-150.75C828.2849,-138.0907 789.4241,-117.5173 763.6502,-103.8723"/>
<polygon fill="#000000" stroke="#000000" points="758.9965,-101.4086 764.4683,-101.7596 761.206,-102.5784 763.4155,-103.7481 763.4155,-103.7481 763.4155,-103.7481 761.206,-102.5784 762.3627,-105.7366 758.9965,-101.4086 758.9965,-101.4086"/>
</g>
<!-- on&#45;&gt;o -->
<g id="edge78" class="edge">
<title>on&#45;&gt;o</title>
<path fill="none" stroke="#000000" d="M895.112,-151.0742C899.8281,-148.722 904.7976,-146.2632 909.4469,-144 939.044,-129.5929 973.1856,-113.4881 996.332,-102.6458"/>
<polygon fill="#000000" stroke="#000000" points="1001.0987,-100.4146 997.5242,-104.5721 998.8345,-101.4744 996.5703,-102.5343 996.5703,-102.5343 996.5703,-102.5343 998.8345,-101.4744 995.6164,-100.4965 1001.0987,-100.4146 1001.0987,-100.4146"/>
</g>
</g>
</svg>
