<?xml version="1.0" encoding="UTF-8" standalone="no"?>
<!DOCTYPE svg PUBLIC "-//W3C//DTD SVG 1.1//EN"
 "http://www.w3.org/Graphics/SVG/1.1/DTD/svg11.dtd">
<!-- Generated by graphviz version 2.40.1 (20161225.0304)
 -->
<!-- Title: %3 Pages: 1 -->
<svg width="2061pt" height="2754pt"
 viewBox="0.00 0.00 2060.50 2754.00" xmlns="http://www.w3.org/2000/svg" xmlns:xlink="http://www.w3.org/1999/xlink">
<g id="graph0" class="graph" transform="scale(1 1) rotate(0) translate(4 2750)">
<title>%3</title>
<polygon fill="#ffffff" stroke="transparent" points="-4,4 -4,-2750 2056.5,-2750 2056.5,4 -4,4"/>
<!-- CNC(Cc1ccccc1)C -->
<g id="node1" class="node">
<title>CNC(Cc1ccccc1)C</title>
<polygon fill="none" stroke="#000000" points="615,-1385 475,-1385 475,-1173 615,-1173 615,-1385"/>
<image xlink:href="CNCèCc1ccccc1ïC.svg" width="140px" height="212px" preserveAspectRatio="xMinYMin meet" x="475" y="-1385"/>
</g>
<!-- CCCc1ccccc1 -->
<g id="node11" class="node">
<title>CCCc1ccccc1</title>
<image xlink:href="CCCc1ccccc1.svg" width="140px" height="167px" preserveAspectRatio="xMinYMin meet" x="656" y="-1122"/>
</g>
<!-- CNC(Cc1ccccc1)C&#45;&gt;CCCc1ccccc1 -->
<g id="edge1" class="edge">
<title>CNC(Cc1ccccc1)C&#45;&gt;CCCc1ccccc1</title>
<path fill="none" stroke="#000000" d="M615.2384,-1185.6722C629.835,-1166.2772 645.1729,-1145.8973 659.6253,-1126.694"/>
<polygon fill="#000000" stroke="#000000" points="662.8885,-1122.358 661.6796,-1127.7061 661.3852,-1124.3555 659.8819,-1126.3531 659.8819,-1126.3531 659.8819,-1126.3531 661.3852,-1124.3555 658.0841,-1125.0001 662.8885,-1122.358 662.8885,-1122.358"/>
</g>
<!-- CNCCc1ccccc1 -->
<g id="node52" class="node">
<title>CNCCc1ccccc1</title>
<image xlink:href="CNCCc1ccccc1.svg" width="191px" height="167px" preserveAspectRatio="xMinYMin meet" x="446.5" y="-1122"/>
</g>
<!-- CNC(Cc1ccccc1)C&#45;&gt;CNCCc1ccccc1 -->
<g id="edge2" class="edge">
<title>CNC(Cc1ccccc1)C&#45;&gt;CNCCc1ccccc1</title>
<path fill="none" stroke="#000000" d="M543.6754,-1172.8131C543.485,-1157.5509 543.2908,-1141.9823 543.1053,-1127.109"/>
<polygon fill="#000000" stroke="#000000" points="543.0427,-1122.0931 545.355,-1127.0646 543.074,-1124.5929 543.1052,-1127.0927 543.1052,-1127.0927 543.1052,-1127.0927 543.074,-1124.5929 540.8554,-1127.1208 543.0427,-1122.0931 543.0427,-1122.0931"/>
</g>
<!-- O=C1CCC2(C(=C1)CCC1C2CCC2(C1CCC2C(=O)C)C)C -->
<g id="node2" class="node">
<title>O=C1CCC2(C(=C1)CCC1C2CCC2(C1CCC2C(=O)C)C)C</title>
<polygon fill="none" stroke="#000000" points="1658,-2746 1390,-2746 1390,-2530 1658,-2530 1658,-2746"/>
<image xlink:href="O=C1CCC2èCè=C1ïCCC1C2CCC2èC1CCC2Cè=OïCïCïC.svg" width="268px" height="216px" preserveAspectRatio="xMinYMin meet" x="1390" y="-2746"/>
</g>
<!-- CC(=O)CCC1(C)CCCC2C1CCC1(C2CCC1)C -->
<g id="node5" class="node">
<title>CC(=O)CCC1(C)CCCC2C1CCC1(C2CCC1)C</title>
<image xlink:href="CCè=OïCCC1èCïCCCC2C1CCC1èC2CCC1ïC.svg" width="275px" height="186px" preserveAspectRatio="xMinYMin meet" x="1386.5" y="-2482.5"/>
</g>
<!-- O=C1CCC2(C(=C1)CCC1C2CCC2(C1CCC2C(=O)C)C)C&#45;&gt;CC(=O)CCC1(C)CCCC2C1CCC1(C2CCC1)C -->
<g id="edge4" class="edge">
<title>O=C1CCC2(C(=C1)CCC1C2CCC2(C1CCC2C(=O)C)C)C&#45;&gt;CC(=O)CCC1(C)CCCC2C1CCC1(C2CCC1)C</title>
<path fill="none" stroke="#000000" d="M1524,-2529.7272C1524,-2515.7488 1524,-2501.496 1524,-2487.6925"/>
<polygon fill="#000000" stroke="#000000" points="1524,-2482.6287 1526.2501,-2487.6287 1524,-2485.1287 1524.0001,-2487.6287 1524.0001,-2487.6287 1524.0001,-2487.6287 1524,-2485.1287 1521.7501,-2487.6287 1524,-2482.6287 1524,-2482.6287"/>
</g>
<!-- CC=C1CCC2C(C1)CCC1(C2CCC1)C -->
<g id="node9" class="node">
<title>CC=C1CCC2C(C1)CCC1(C2CCC1)C</title>
<image xlink:href="CC=C1CCC2CèC1ïCCC1èC2CCC1ïC.svg" width="212px" height="209px" preserveAspectRatio="xMinYMin meet" x="1148" y="-2494"/>
</g>
<!-- O=C1CCC2(C(=C1)CCC1C2CCC2(C1CCC2C(=O)C)C)C&#45;&gt;CC=C1CCC2C(C1)CCC1(C2CCC1)C -->
<g id="edge3" class="edge">
<title>O=C1CCC2(C(=C1)CCC1C2CCC2(C1CCC2C(=O)C)C)C&#45;&gt;CC=C1CCC2C(C1)CCC1(C2CCC1)C</title>
<path fill="none" stroke="#000000" d="M1406.3595,-2529.7272C1392.3308,-2516.8155 1378.0477,-2503.6698 1364.1299,-2490.8603"/>
<polygon fill="#000000" stroke="#000000" points="1360.2146,-2487.2568 1365.4173,-2488.9873 1362.0541,-2488.9498 1363.8936,-2490.6428 1363.8936,-2490.6428 1363.8936,-2490.6428 1362.0541,-2488.9498 1362.3699,-2492.2984 1360.2146,-2487.2568 1360.2146,-2487.2568"/>
</g>
<!-- CCCCC -->
<g id="node3" class="node">
<title>CCCCC</title>
<image xlink:href="CCCCC.svg" width="152px" height="88px" preserveAspectRatio="xMinYMin meet" x="810" y="-558"/>
</g>
<!-- CCCC -->
<g id="node20" class="node">
<title>CCCC</title>
<image xlink:href="CCCC.svg" width="122px" height="88px" preserveAspectRatio="xMinYMin meet" x="585" y="-434"/>
</g>
<!-- CCCCC&#45;&gt;CCCC -->
<g id="edge5" class="edge">
<title>CCCCC&#45;&gt;CCCC</title>
<path fill="none" stroke="#000000" d="M809.7327,-474.5952C778.3336,-458.3724 742.3067,-439.7585 712.0557,-424.1288"/>
<polygon fill="#000000" stroke="#000000" points="707.2518,-421.6467 712.7267,-421.9429 709.4728,-422.7943 711.6939,-423.9419 711.6939,-423.9419 711.6939,-423.9419 709.4728,-422.7943 710.6611,-425.9409 707.2518,-421.6467 707.2518,-421.6467"/>
</g>
<!-- O=C1CCC2(C(C1)CCC1C2CCC2(C1CCC2O)C)C -->
<g id="node4" class="node">
<title>O=C1CCC2(C(C1)CCC1C2CCC2(C1CCC2O)C)C</title>
<polygon fill="none" stroke="#000000" points="1371.5,-2735 1108.5,-2735 1108.5,-2541 1371.5,-2541 1371.5,-2735"/>
<image xlink:href="O=C1CCC2èCèC1ïCCC1C2CCC2èC1CCC2OïCïC.svg" width="263px" height="194px" preserveAspectRatio="xMinYMin meet" x="1108.5" y="-2735"/>
</g>
<!-- O=C1CCC2(C(C1)CCC1C2CCC2(C1CCC2O)C)C&#45;&gt;CC(=O)CCC1(C)CCCC2C1CCC1(C2CCC1)C -->
<g id="edge7" class="edge">
<title>O=C1CCC2(C(C1)CCC1C2CCC2(C1CCC2O)C)C&#45;&gt;CC(=O)CCC1(C)CCCC2C1CCC1(C2CCC1)C</title>
<path fill="none" stroke="#000000" d="M1351.022,-2540.8558C1371.6726,-2522.7865 1393.242,-2503.9132 1413.8658,-2485.8674"/>
<polygon fill="#000000" stroke="#000000" points="1417.7053,-2482.5078 1415.4241,-2487.4937 1415.8239,-2484.1541 1413.9424,-2485.8004 1413.9424,-2485.8004 1413.9424,-2485.8004 1415.8239,-2484.1541 1412.4608,-2484.1071 1417.7053,-2482.5078 1417.7053,-2482.5078"/>
</g>
<!-- CCCCCCC(C(CC)O)CC -->
<g id="node24" class="node">
<title>CCCCCCC(C(CC)O)CC</title>
<image xlink:href="CCCCCCCèCèCCïOïCC.svg" width="243px" height="182px" preserveAspectRatio="xMinYMin meet" x="556.5" y="-2211.5"/>
</g>
<!-- O=C1CCC2(C(C1)CCC1C2CCC2(C1CCC2O)C)C&#45;&gt;CCCCCCC(C(CC)O)CC -->
<g id="edge6" class="edge">
<title>O=C1CCC2(C(C1)CCC1C2CCC2(C1CCC2O)C)C&#45;&gt;CCCCCCC(C(CC)O)CC</title>
<path fill="none" stroke="#000000" d="M1123.2305,-2540.9704C1115.6057,-2536.8475 1107.837,-2533.1377 1100,-2530 1028.8498,-2501.5137 813.9334,-2545.307 757,-2494 680.6066,-2425.1561 667.7955,-2302.5598 669.5563,-2216.6583"/>
<polygon fill="#000000" stroke="#000000" points="669.6784,-2211.5692 671.8077,-2216.6218 669.6184,-2214.0684 669.5583,-2216.5677 669.5583,-2216.5677 669.5583,-2216.5677 669.6184,-2214.0684 667.309,-2216.5137 669.6784,-2211.5692 669.6784,-2211.5692"/>
</g>
<!-- CC12CCCC2C2C(CC1)CCCC2 -->
<g id="node7" class="node">
<title>CC12CCCC2C2C(CC1)CCCC2</title>
<image xlink:href="CC12CCCC2C2CèCC1ïCCCC2.svg" width="185px" height="167px" preserveAspectRatio="xMinYMin meet" x="1447.5" y="-2204"/>
</g>
<!-- CC(=O)CCC1(C)CCCC2C1CCC1(C2CCC1)C&#45;&gt;CC12CCCC2C2C(CC1)CCCC2 -->
<g id="edge8" class="edge">
<title>CC(=O)CCC1(C)CCCC2C1CCC1(C2CCC1)C&#45;&gt;CC12CCCC2C2C(CC1)CCCC2</title>
<path fill="none" stroke="#000000" d="M1529.5511,-2296.1718C1531.225,-2268.0295 1533.0572,-2237.2259 1534.7134,-2209.3812"/>
<polygon fill="#000000" stroke="#000000" points="1535.0205,-2204.2178 1536.9696,-2209.3426 1534.872,-2206.7134 1534.7235,-2209.2089 1534.7235,-2209.2089 1534.7235,-2209.2089 1534.872,-2206.7134 1532.4775,-2209.0753 1535.0205,-2204.2178 1535.0205,-2204.2178"/>
</g>
<!-- Oc1ccc2c(c1)CCC1C2CCC2(C1CCC2=O)C -->
<g id="node6" class="node">
<title>Oc1ccc2c(c1)CCC1C2CCC2(C1CCC2=O)C</title>
<polygon fill="none" stroke="#000000" points="1090.5,-2735 827.5,-2735 827.5,-2541 1090.5,-2541 1090.5,-2735"/>
<image xlink:href="Oc1ccc2cèc1ïCCC1C2CCC2èC1CCC2=OïC.svg" width="263px" height="194px" preserveAspectRatio="xMinYMin meet" x="827.5" y="-2735"/>
</g>
<!-- Oc1ccc2c(c1)CCC1C2CCC2(C1CCC2=O)C&#45;&gt;CC=C1CCC2C(C1)CCC1(C2CCC1)C -->
<g id="edge9" class="edge">
<title>Oc1ccc2c(c1)CCC1C2CCC2(C1CCC2=O)C&#45;&gt;CC=C1CCC2C(C1)CCC1(C2CCC1)C</title>
<path fill="none" stroke="#000000" d="M1074.3221,-2540.8558C1097.2364,-2521.5534 1121.2399,-2501.3335 1143.9717,-2482.1849"/>
<polygon fill="#000000" stroke="#000000" points="1147.9036,-2478.8727 1145.5291,-2483.8149 1145.9916,-2480.4834 1144.0795,-2482.094 1144.0795,-2482.094 1144.0795,-2482.094 1145.9916,-2480.4834 1142.63,-2480.3732 1147.9036,-2478.8727 1147.9036,-2478.8727"/>
</g>
<!-- CCCC(C(CCc1cccc(c1)O)C)CC -->
<g id="node17" class="node">
<title>CCCC(C(CCc1cccc(c1)O)C)CC</title>
<image xlink:href="CCCCèCèCCc1ccccèc1ïOïCïCC.svg" width="218px" height="257px" preserveAspectRatio="xMinYMin meet" x="932" y="-2249"/>
</g>
<!-- Oc1ccc2c(c1)CCC1C2CCC2(C1CCC2=O)C&#45;&gt;CCCC(C(CCc1cccc(c1)O)C)CC -->
<g id="edge11" class="edge">
<title>Oc1ccc2c(c1)CCC1C2CCC2(C1CCC2=O)C&#45;&gt;CCCC(C(CCc1cccc(c1)O)C)CC</title>
<path fill="none" stroke="#000000" d="M974.3755,-2540.9659C987.1876,-2460.1088 1005.572,-2344.0855 1019.7845,-2254.3908"/>
<polygon fill="#000000" stroke="#000000" points="1020.586,-2249.3323 1022.0257,-2254.6228 1020.1947,-2251.8015 1019.8034,-2254.2707 1019.8034,-2254.2707 1019.8034,-2254.2707 1020.1947,-2251.8015 1017.5811,-2253.9185 1020.586,-2249.3323 1020.586,-2249.3323"/>
</g>
<!-- Oc1ccc2c(c1)CCCC2 -->
<g id="node42" class="node">
<title>Oc1ccc2c(c1)CCCC2</title>
<image xlink:href="Oc1ccc2cèc1ïCCCC2.svg" width="191px" height="122px" preserveAspectRatio="xMinYMin meet" x="684.5" y="-1633"/>
</g>
<!-- Oc1ccc2c(c1)CCC1C2CCC2(C1CCC2=O)C&#45;&gt;Oc1ccc2c(c1)CCCC2 -->
<g id="edge10" class="edge">
<title>Oc1ccc2c(c1)CCC1C2CCC2(C1CCC2=O)C&#45;&gt;Oc1ccc2c(c1)CCCC2</title>
<path fill="none" stroke="#000000" d="M827.4042,-2594.0237C773.2576,-2570.8762 713.046,-2537.9963 669,-2494 582.9374,-2408.0345 574.8509,-2367.411 547,-2249 520.8479,-2137.8119 472.5169,-2078.5967 547,-1992 616.7612,-1910.8932 715.2388,-2037.1068 785,-1956 824.5621,-1910.0037 805.3468,-1735.3337 790.9308,-1638.1879"/>
<polygon fill="#000000" stroke="#000000" points="790.1619,-1633.049 793.127,-1637.661 790.5319,-1635.5215 790.9018,-1637.994 790.9018,-1637.994 790.9018,-1637.994 790.5319,-1635.5215 788.6766,-1638.3269 790.1619,-1633.049 790.1619,-1633.049"/>
</g>
<!-- CC1CCC2C(C1C)CCCC2 -->
<g id="node8" class="node">
<title>CC1CCC2C(C1C)CCCC2</title>
<image xlink:href="CC1CCC2CèC1CïCCCC2.svg" width="191px" height="152px" preserveAspectRatio="xMinYMin meet" x="1530.5" y="-1926"/>
</g>
<!-- CC12CCCC2C2C(CC1)CCCC2&#45;&gt;CC1CCC2C(C1C)CCCC2 -->
<g id="edge12" class="edge">
<title>CC12CCCC2C2C(CC1)CCCC2&#45;&gt;CC1CCC2C(C1C)CCCC2</title>
<path fill="none" stroke="#000000" d="M1566.622,-2036.7646C1577.2951,-2003.1938 1589.551,-1964.6447 1600.1461,-1931.3195"/>
<polygon fill="#000000" stroke="#000000" points="1601.6969,-1926.4418 1602.3261,-1931.8885 1600.9394,-1928.8243 1600.1819,-1931.2068 1600.1819,-1931.2068 1600.1819,-1931.2068 1600.9394,-1928.8243 1598.0376,-1930.525 1601.6969,-1926.4418 1601.6969,-1926.4418"/>
</g>
<!-- CCCCCCC(CCC)CC -->
<g id="node13" class="node">
<title>CCCCCCC(CCC)CC</title>
<image xlink:href="CCCCCCCèCCCïCC.svg" width="218px" height="212px" preserveAspectRatio="xMinYMin meet" x="1740" y="-1956"/>
</g>
<!-- CC12CCCC2C2C(CC1)CCCC2&#45;&gt;CCCCCCC(CCC)CC -->
<g id="edge13" class="edge">
<title>CC12CCCC2C2C(CC1)CCCC2&#45;&gt;CCCCCCC(CCC)CC</title>
<path fill="none" stroke="#000000" d="M1632.6283,-2041.4003C1663.9848,-2014.444 1699.1261,-1984.0366 1731,-1956 1732.6283,-1954.5677 1734.2681,-1953.1232 1735.9172,-1951.6687"/>
<polygon fill="#000000" stroke="#000000" points="1739.7806,-1948.2574 1737.5218,-1953.2534 1737.9066,-1949.9121 1736.0326,-1951.5668 1736.0326,-1951.5668 1736.0326,-1951.5668 1737.9066,-1949.9121 1734.5433,-1949.8802 1739.7806,-1948.2574 1739.7806,-1948.2574"/>
</g>
<!-- CCC1CCCCC1C -->
<g id="node15" class="node">
<title>CCC1CCCCC1C</title>
<image xlink:href="CCC1CCCCC1C.svg" width="166px" height="152px" preserveAspectRatio="xMinYMin meet" x="1404" y="-1355"/>
</g>
<!-- CC1CCC2C(C1C)CCCC2&#45;&gt;CCC1CCCCC1C -->
<g id="edge15" class="edge">
<title>CC1CCC2C(C1C)CCCC2&#45;&gt;CCC1CCCCC1C</title>
<path fill="none" stroke="#000000" d="M1610.3959,-1773.7253C1592.9925,-1690.3934 1563.2858,-1553.1451 1533,-1436 1526.6016,-1411.2512 1519.0167,-1384.4993 1511.8703,-1360.2116"/>
<polygon fill="#000000" stroke="#000000" points="1510.4473,-1355.3882 1514.0202,-1359.5472 1511.1548,-1357.7861 1511.8622,-1360.1839 1511.8622,-1360.1839 1511.8622,-1360.1839 1511.1548,-1357.7861 1509.7041,-1360.8206 1510.4473,-1355.3882 1510.4473,-1355.3882"/>
</g>
<!-- CCCCC(C(CCC)CC)C -->
<g id="node26" class="node">
<title>CCCCC(C(CCC)CC)C</title>
<image xlink:href="CCCCCèCèCCCïCCïC.svg" width="218px" height="152px" preserveAspectRatio="xMinYMin meet" x="1306" y="-1648"/>
</g>
<!-- CC1CCC2C(C1C)CCCC2&#45;&gt;CCCCC(C(CCC)CC)C -->
<g id="edge14" class="edge">
<title>CC1CCC2C(C1C)CCCC2&#45;&gt;CCCCC(C(CCC)CC)C</title>
<path fill="none" stroke="#000000" d="M1568.0642,-1773.6676C1539.4603,-1735.9809 1504.9565,-1690.5209 1475.9543,-1652.3095"/>
<polygon fill="#000000" stroke="#000000" points="1472.8065,-1648.1622 1477.6217,-1650.7846 1474.318,-1650.1535 1475.8294,-1652.1449 1475.8294,-1652.1449 1475.8294,-1652.1449 1474.318,-1650.1535 1474.0372,-1653.5052 1472.8065,-1648.1622 1472.8065,-1648.1622"/>
</g>
<!-- CC=C1CCC2C(C1)CCC1(C2CCC1)C&#45;&gt;CC12CCCC2C2C(CC1)CCCC2 -->
<g id="edge16" class="edge">
<title>CC=C1CCC2C(C1)CCC1(C2CCC1)C&#45;&gt;CC12CCCC2C2C(CC1)CCCC2</title>
<path fill="none" stroke="#000000" d="M1360.0894,-2289.7166C1388.6916,-2262.8145 1419.4086,-2233.9234 1447.222,-2207.7632"/>
<polygon fill="#000000" stroke="#000000" points="1450.9503,-2204.2566 1448.8497,-2209.3212 1449.1292,-2205.9694 1447.3081,-2207.6822 1447.3081,-2207.6822 1447.3081,-2207.6822 1449.1292,-2205.9694 1445.7666,-2206.0433 1450.9503,-2204.2566 1450.9503,-2204.2566"/>
</g>
<!-- CCCC(C(CCC(=CC)C)C)CC -->
<g id="node22" class="node">
<title>CCCC(C(CCC(=CC)C)C)CC</title>
<image xlink:href="CCCCèCèCCCè=CCïCïCïCC.svg" width="243px" height="167px" preserveAspectRatio="xMinYMin meet" x="1008.5" y="-1933.5"/>
</g>
<!-- CC=C1CCC2C(C1)CCC1(C2CCC1)C&#45;&gt;CCCC(C(CCC(=CC)C)C)CC -->
<g id="edge19" class="edge">
<title>CC=C1CCC2C(C1)CCC1(C2CCC1)C&#45;&gt;CCCC(C(CCC(=CC)C)C)CC</title>
<path fill="none" stroke="#000000" d="M1245.1005,-2284.9568C1236.4313,-2203.8504 1220.2992,-2089.2408 1192,-1992 1186.8469,-1974.2932 1180.0076,-1955.8868 1172.7547,-1938.4251"/>
<polygon fill="#000000" stroke="#000000" points="1170.6991,-1933.5265 1174.7086,-1937.2664 1171.6665,-1935.8317 1172.6338,-1938.137 1172.6338,-1938.137 1172.6338,-1938.137 1171.6665,-1935.8317 1170.5591,-1939.0076 1170.6991,-1933.5265 1170.6991,-1933.5265"/>
</g>
<!-- CCCC(C(CCCC=CC)C)CC -->
<g id="node23" class="node">
<title>CCCC(C(CCCC=CC)C)CC</title>
<image xlink:href="CCCCèCèCCCC=CCïCïCC.svg" width="243px" height="212px" preserveAspectRatio="xMinYMin meet" x="1269.5" y="-1956"/>
</g>
<!-- CC=C1CCC2C(C1)CCC1(C2CCC1)C&#45;&gt;CCCC(C(CCCC=CC)C)CC -->
<g id="edge17" class="edge">
<title>CC=C1CCC2C(C1)CCC1(C2CCC1)C&#45;&gt;CCCC(C(CCCC=CC)C)CC</title>
<path fill="none" stroke="#000000" d="M1280.5774,-2284.8393C1304.199,-2191.8184 1338.6276,-2056.2401 1362.7442,-1961.2701"/>
<polygon fill="#000000" stroke="#000000" points="1364.0287,-1956.2118 1364.9788,-1961.6118 1363.4134,-1958.6349 1362.798,-1961.058 1362.798,-1961.058 1362.798,-1961.058 1363.4134,-1958.6349 1360.6172,-1960.5041 1364.0287,-1956.2118 1364.0287,-1956.2118"/>
</g>
<!-- CC=C1CCCCC1 -->
<g id="node44" class="node">
<title>CC=C1CCCCC1</title>
<image xlink:href="CC=C1CCCCC1.svg" width="113px" height="167px" preserveAspectRatio="xMinYMin meet" x="989.5" y="-1362.5"/>
</g>
<!-- CC=C1CCC2C(C1)CCC1(C2CCC1)C&#45;&gt;CC=C1CCCCC1 -->
<g id="edge18" class="edge">
<title>CC=C1CCC2C(C1)CCC1(C2CCC1)C&#45;&gt;CC=C1CCCCC1</title>
<path fill="none" stroke="#000000" d="M1203.9292,-2284.8297C1199.4007,-2272.9199 1195.2907,-2260.8147 1192,-2249 1176.5505,-2193.5314 1197.737,-2034.6017 1159,-1992 1110.2556,-1938.3925 1045.2244,-2012.6086 1000,-1956 929.3505,-1867.5661 990.6844,-1530.4352 1025.6662,-1367.7989"/>
<polygon fill="#000000" stroke="#000000" points="1026.7963,-1362.5631 1027.9407,-1367.9252 1026.2688,-1365.0068 1025.7414,-1367.4505 1025.7414,-1367.4505 1025.7414,-1367.4505 1026.2688,-1365.0068 1023.542,-1366.9758 1026.7963,-1362.5631 1026.7963,-1362.5631"/>
</g>
<!-- CCCCC=CC -->
<g id="node10" class="node">
<title>CCCCC=CC</title>
<image xlink:href="CCCCC=CC.svg" width="191px" height="107px" preserveAspectRatio="xMinYMin meet" x="821.5" y="-889"/>
</g>
<!-- CCCCC=CC&#45;&gt;CCCCC -->
<g id="edge20" class="edge">
<title>CCCCC=CC&#45;&gt;CCCCC</title>
<path fill="none" stroke="#000000" d="M911.8113,-781.6881C905.9386,-720.7829 896.4518,-622.3948 890.7616,-563.3821"/>
<polygon fill="#000000" stroke="#000000" points="890.2569,-558.1486 892.9765,-562.9095 890.4969,-560.6371 890.7369,-563.1255 890.7369,-563.1255 890.7369,-563.1255 890.4969,-560.6371 888.4973,-563.3415 890.2569,-558.1486 890.2569,-558.1486"/>
</g>
<!-- CCCC=CC -->
<g id="node35" class="node">
<title>CCCC=CC</title>
<image xlink:href="CCCC=CC.svg" width="166px" height="107px" preserveAspectRatio="xMinYMin meet" x="643" y="-708.5"/>
</g>
<!-- CCCCC=CC&#45;&gt;CCCC=CC -->
<g id="edge21" class="edge">
<title>CCCCC=CC&#45;&gt;CCCC=CC</title>
<path fill="none" stroke="#000000" d="M860.2108,-781.8328C837.0385,-759.9343 810.2059,-734.5768 786.6513,-712.3171"/>
<polygon fill="#000000" stroke="#000000" points="782.9002,-708.7721 788.0796,-710.5711 784.7172,-710.4893 786.5342,-712.2064 786.5342,-712.2064 786.5342,-712.2064 784.7172,-710.4893 784.9888,-713.8417 782.9002,-708.7721 782.9002,-708.7721"/>
</g>
<!-- CCCc1ccccc1&#45;&gt;CCCCC=CC -->
<g id="edge24" class="edge">
<title>CCCc1ccccc1&#45;&gt;CCCCC=CC</title>
<path fill="none" stroke="#000000" d="M796.0368,-964.063C818.078,-940.6369 842.0715,-915.1361 862.8348,-893.0682"/>
<polygon fill="#000000" stroke="#000000" points="866.405,-889.2738 864.6174,-894.4572 864.6918,-891.0946 862.9787,-892.9153 862.9787,-892.9153 862.9787,-892.9153 864.6918,-891.0946 861.34,-891.3735 866.405,-889.2738 866.405,-889.2738"/>
</g>
<!-- CCCC(=CC)C -->
<g id="node29" class="node">
<title>CCCC(=CC)C</title>
<image xlink:href="CCCCè=CCïC.svg" width="166px" height="107px" preserveAspectRatio="xMinYMin meet" x="637" y="-889"/>
</g>
<!-- CCCc1ccccc1&#45;&gt;CCCC(=CC)C -->
<g id="edge23" class="edge">
<title>CCCc1ccccc1&#45;&gt;CCCC(=CC)C</title>
<path fill="none" stroke="#000000" d="M723.5249,-954.7601C722.9259,-934.4946 722.2981,-913.2541 721.7411,-894.407"/>
<polygon fill="#000000" stroke="#000000" points="721.5859,-889.1575 723.9828,-894.0888 721.6598,-891.6564 721.7337,-894.1553 721.7337,-894.1553 721.7337,-894.1553 721.6598,-891.6564 719.4847,-894.2218 721.5859,-889.1575 721.5859,-889.1575"/>
</g>
<!-- CCc1ccccc1 -->
<g id="node50" class="node">
<title>CCc1ccccc1</title>
<image xlink:href="CCc1ccccc1.svg" width="113px" height="167px" preserveAspectRatio="xMinYMin meet" x="485.5" y="-919"/>
</g>
<!-- CCCc1ccccc1&#45;&gt;CCc1ccccc1 -->
<g id="edge22" class="edge">
<title>CCCc1ccccc1&#45;&gt;CCc1ccccc1</title>
<path fill="none" stroke="#000000" d="M655.9126,-961.1753C638.2032,-941.6372 619.3436,-920.8302 602.1715,-901.8849"/>
<polygon fill="#000000" stroke="#000000" points="598.7604,-898.1215 603.7855,-900.3151 600.4394,-899.9739 602.1184,-901.8262 602.1184,-901.8262 602.1184,-901.8262 600.4394,-899.9739 600.4513,-903.3373 598.7604,-898.1215 598.7604,-898.1215"/>
</g>
<!-- OC1C=CC2C34C1Oc1c4c(CC2N(CC3)C)ccc1O -->
<g id="node12" class="node">
<title>OC1C=CC2C34C1Oc1c4c(CC2N(CC3)C)ccc1O</title>
<polygon fill="none" stroke="#000000" points="966,-2492 766,-2492 766,-2287 966,-2287 966,-2492"/>
<image xlink:href="OC1C=CC2C34C1Oc1c4cèCC2NèCC3ïCïccc1O.svg" width="200px" height="205px" preserveAspectRatio="xMinYMin meet" x="766" y="-2492"/>
</g>
<!-- OC1C=CC2C34C1Oc1c4c(CC2N(CC3)C)ccc1O&#45;&gt;CCC1CCCCC1C -->
<g id="edge25" class="edge">
<title>OC1C=CC2C34C1Oc1c4c(CC2N(CC3)C)ccc1O&#45;&gt;CCC1CCCCC1C</title>
<path fill="none" stroke="#000000" d="M867.1927,-2286.8681C873.0347,-2153.036 898.3942,-1915.7817 1000,-1744 1103.1199,-1569.6585 1289.7508,-1418.2963 1399.604,-1338.6755"/>
<polygon fill="#000000" stroke="#000000" points="1403.8032,-1335.6398 1401.0693,-1340.3926 1401.7772,-1337.1044 1399.7511,-1338.5691 1399.7511,-1338.5691 1399.7511,-1338.5691 1401.7772,-1337.1044 1398.4329,-1336.7457 1403.8032,-1335.6398 1403.8032,-1335.6398"/>
</g>
<!-- OC1C=CC2C34C1Oc1c4c(CC2N(CC3)C)ccc1O&#45;&gt;CCCC(C(CCc1cccc(c1)O)C)CC -->
<g id="edge29" class="edge">
<title>OC1C=CC2C34C1Oc1c4c(CC2N(CC3)C)ccc1O&#45;&gt;CCCC(C(CCc1cccc(c1)O)C)CC</title>
<path fill="none" stroke="#000000" d="M932.9091,-2286.6512C939.9793,-2275.7833 947.2396,-2264.6231 954.4909,-2253.4768"/>
<polygon fill="#000000" stroke="#000000" points="957.3776,-2249.0395 956.537,-2254.4577 956.0143,-2251.1351 954.651,-2253.2307 954.651,-2253.2307 954.651,-2253.2307 956.0143,-2251.1351 952.765,-2252.0037 957.3776,-2249.0395 957.3776,-2249.0395"/>
</g>
<!-- OC1C=CC2C34C1Oc1c4c(CC2N(CC3)C)ccc1O&#45;&gt;CCCCCCC(C(CC)O)CC -->
<g id="edge26" class="edge">
<title>OC1C=CC2C34C1Oc1c4c(CC2N(CC3)C)ccc1O&#45;&gt;CCCCCCC(C(CC)O)CC</title>
<path fill="none" stroke="#000000" d="M794.1205,-2286.6512C777.9215,-2263.4728 760.7932,-2238.9648 744.8121,-2216.0981"/>
<polygon fill="#000000" stroke="#000000" points="741.8419,-2211.8482 746.5504,-2214.6576 743.274,-2213.8974 744.7062,-2215.9465 744.7062,-2215.9465 744.7062,-2215.9465 743.274,-2213.8974 742.8619,-2217.2355 741.8419,-2211.8482 741.8419,-2211.8482"/>
</g>
<!-- CCCCN(C(Cc1ccc(c(c1)O)O)CC=CC)C -->
<g id="node37" class="node">
<title>CCCCN(C(Cc1ccc(c(c1)O)O)CC=CC)C</title>
<image xlink:href="CCCCNèCèCc1cccècèc1ïOïOïCC=CCïC.svg" width="243px" height="272px" preserveAspectRatio="xMinYMin meet" x="423.5" y="-1708"/>
</g>
<!-- OC1C=CC2C34C1Oc1c4c(CC2N(CC3)C)ccc1O&#45;&gt;CCCCN(C(Cc1ccc(c(c1)O)O)CC=CC)C -->
<g id="edge28" class="edge">
<title>OC1C=CC2C34C1Oc1c4c(CC2N(CC3)C)ccc1O&#45;&gt;CCCCN(C(Cc1ccc(c(c1)O)O)CC=CC)C</title>
<path fill="none" stroke="#000000" d="M849.7082,-2286.7064C847.7541,-2274.0121 845.8112,-2261.2112 844,-2249 835.5391,-2191.9554 849.0527,-2032.5013 808,-1992 717.1131,-1902.3338 607.4324,-2051.7685 523,-1956 465.853,-1891.1803 472.1037,-1793.769 492.2595,-1713.28"/>
<polygon fill="#000000" stroke="#000000" points="493.6068,-1708.0033 494.5499,-1713.4045 492.9883,-1710.4256 492.3698,-1712.8479 492.3698,-1712.8479 492.3698,-1712.8479 492.9883,-1710.4256 490.1897,-1712.2913 493.6068,-1708.0033 493.6068,-1708.0033"/>
</g>
<!-- OC1C=CC2C34C1Oc1c4c(CC2N(CC3)C)ccc1O&#45;&gt;Oc1ccc2c(c1)CCCC2 -->
<g id="edge27" class="edge">
<title>OC1C=CC2C34C1Oc1c4c(CC2N(CC3)C)ccc1O&#45;&gt;Oc1ccc2c(c1)CCCC2</title>
<path fill="none" stroke="#000000" d="M863.6007,-2286.8817C859.4129,-2159.0333 848.1031,-1934.216 818,-1744 812.4416,-1708.8775 804.0928,-1670.1757 796.6352,-1638.3924"/>
<polygon fill="#000000" stroke="#000000" points="795.4465,-1633.3524 798.7843,-1637.7023 796.0204,-1635.7856 796.5943,-1638.2188 796.5943,-1638.2188 796.5943,-1638.2188 796.0204,-1635.7856 794.4044,-1638.7354 795.4465,-1633.3524 795.4465,-1633.3524"/>
</g>
<!-- CCCCCC(CCC)CC -->
<g id="node25" class="node">
<title>CCCCCC(CCC)CC</title>
<image xlink:href="CCCCCCèCCCïCC.svg" width="243px" height="122px" preserveAspectRatio="xMinYMin meet" x="1588.5" y="-1340"/>
</g>
<!-- CCCCCCC(CCC)CC&#45;&gt;CCCCCC(CCC)CC -->
<g id="edge30" class="edge">
<title>CCCCCCC(CCC)CC&#45;&gt;CCCCCC(CCC)CC</title>
<path fill="none" stroke="#000000" d="M1823.1809,-1743.9375C1794.7298,-1627.0629 1749.8549,-1442.7205 1726.0576,-1344.9631"/>
<polygon fill="#000000" stroke="#000000" points="1724.8705,-1340.0869 1728.2394,-1344.4128 1725.4619,-1342.516 1726.0532,-1344.945 1726.0532,-1344.945 1726.0532,-1344.945 1725.4619,-1342.516 1723.8671,-1345.4773 1724.8705,-1340.0869 1724.8705,-1340.0869"/>
</g>
<!-- CCCCCCCCC -->
<g id="node14" class="node">
<title>CCCCCCCCC</title>
<image xlink:href="CCCCCCCCC.svg" width="243px" height="107px" preserveAspectRatio="xMinYMin meet" x="1809.5" y="-1092"/>
</g>
<!-- CCCCCC -->
<g id="node21" class="node">
<title>CCCCCC</title>
<image xlink:href="CCCCCC.svg" width="166px" height="107px" preserveAspectRatio="xMinYMin meet" x="1165" y="-708.5"/>
</g>
<!-- CCCCCCCCC&#45;&gt;CCCCCC -->
<g id="edge31" class="edge">
<title>CCCCCCCCC&#45;&gt;CCCCCC</title>
<path fill="none" stroke="#000000" d="M1881.9164,-984.8796C1820.2058,-920.564 1708.2015,-813.7197 1592,-752 1510.789,-708.8653 1408.3257,-683.1653 1336.4291,-669.1694"/>
<polygon fill="#000000" stroke="#000000" points="1331.3061,-668.1818 1336.6416,-666.919 1333.7609,-668.655 1336.2157,-669.1283 1336.2157,-669.1283 1336.2157,-669.1283 1333.7609,-668.655 1335.7898,-671.3376 1331.3061,-668.1818 1331.3061,-668.1818"/>
</g>
<!-- CCC1CCCCC1C&#45;&gt;CCCCCCCCC -->
<g id="edge35" class="edge">
<title>CCC1CCCCC1C&#45;&gt;CCCCCCCCC</title>
<path fill="none" stroke="#000000" d="M1531.638,-1202.7325C1545.1041,-1185.5606 1561.3487,-1169.1419 1580,-1158 1665.4337,-1106.9638 1708.0821,-1157.6352 1801,-1122 1819.2401,-1115.0047 1837.6232,-1105.2317 1854.5918,-1094.8276"/>
<polygon fill="#000000" stroke="#000000" points="1858.8744,-1092.1702 1855.8122,-1096.7184 1856.7501,-1093.4884 1854.6258,-1094.8065 1854.6258,-1094.8065 1854.6258,-1094.8065 1856.7501,-1093.4884 1853.4395,-1092.8947 1858.8744,-1092.1702 1858.8744,-1092.1702"/>
</g>
<!-- CCCCC(CC)CC -->
<g id="node16" class="node">
<title>CCCCC(CC)CC</title>
<image xlink:href="CCCCCèCCïCC.svg" width="191px" height="167px" preserveAspectRatio="xMinYMin meet" x="1391.5" y="-1122"/>
</g>
<!-- CCC1CCCCC1C&#45;&gt;CCCCC(CC)CC -->
<g id="edge34" class="edge">
<title>CCC1CCCCC1C&#45;&gt;CCCCC(CC)CC</title>
<path fill="none" stroke="#000000" d="M1487,-1202.9043C1487,-1178.8792 1487,-1152.1233 1487,-1127.2923"/>
<polygon fill="#000000" stroke="#000000" points="1487,-1122.0246 1489.2501,-1127.0245 1487,-1124.5246 1487.0001,-1127.0246 1487.0001,-1127.0246 1487.0001,-1127.0246 1487,-1124.5246 1484.7501,-1127.0246 1487,-1122.0246 1487,-1122.0246"/>
</g>
<!-- CCCCC(CCC)C -->
<g id="node18" class="node">
<title>CCCCC(CCC)C</title>
<image xlink:href="CCCCCèCCCïC.svg" width="191px" height="152px" preserveAspectRatio="xMinYMin meet" x="1600.5" y="-1114.5"/>
</g>
<!-- CCC1CCCCC1C&#45;&gt;CCCCC(CCC)C -->
<g id="edge32" class="edge">
<title>CCC1CCCCC1C&#45;&gt;CCCCC(CCC)C</title>
<path fill="none" stroke="#000000" d="M1543.4817,-1202.7325C1555.2421,-1187.6538 1567.7832,-1172.1298 1580,-1158 1591.322,-1144.9051 1603.693,-1131.399 1616.003,-1118.3905"/>
<polygon fill="#000000" stroke="#000000" points="1619.4725,-1114.7353 1617.6621,-1119.9108 1617.7514,-1116.5485 1616.0302,-1118.3618 1616.0302,-1118.3618 1616.0302,-1118.3618 1617.7514,-1116.5485 1614.3983,-1116.8127 1619.4725,-1114.7353 1619.4725,-1114.7353"/>
</g>
<!-- C1CCCCC1 -->
<g id="node43" class="node">
<title>C1CCCCC1</title>
<image xlink:href="C1CCCCC1.svg" width="113px" height="122px" preserveAspectRatio="xMinYMin meet" x="1260.5" y="-1099.5"/>
</g>
<!-- CCC1CCCCC1C&#45;&gt;C1CCCCC1 -->
<g id="edge33" class="edge">
<title>CCC1CCCCC1C&#45;&gt;C1CCCCC1</title>
<path fill="none" stroke="#000000" d="M1433.2109,-1202.9043C1410.6819,-1171.0324 1384.756,-1134.3548 1363.1161,-1103.7407"/>
<polygon fill="#000000" stroke="#000000" points="1360.2279,-1099.6548 1364.9514,-1102.4391 1361.671,-1101.6963 1363.1141,-1103.7378 1363.1141,-1103.7378 1363.1141,-1103.7378 1361.671,-1101.6963 1361.2767,-1105.0366 1360.2279,-1099.6548 1360.2279,-1099.6548"/>
</g>
<!-- CCCCC(CC)C -->
<g id="node19" class="node">
<title>CCCCC(CC)C</title>
<image xlink:href="CCCCCèCCïC.svg" width="191px" height="152px" preserveAspectRatio="xMinYMin meet" x="1391.5" y="-911.5"/>
</g>
<!-- CCCCC(CC)CC&#45;&gt;CCCCC(CC)C -->
<g id="edge36" class="edge">
<title>CCCCC(CC)CC&#45;&gt;CCCCC(CC)C</title>
<path fill="none" stroke="#000000" d="M1487,-954.7601C1487,-942.2412 1487,-929.3503 1487,-916.8814"/>
<polygon fill="#000000" stroke="#000000" points="1487,-911.5657 1489.2501,-916.5656 1487,-914.0657 1487.0001,-916.5657 1487.0001,-916.5657 1487.0001,-916.5657 1487,-914.0657 1484.7501,-916.5657 1487,-911.5657 1487,-911.5657"/>
</g>
<!-- CCCC(C(CCc1cccc(c1)O)C)CC&#45;&gt;CCCC(C(CCC(=CC)C)C)CC -->
<g id="edge39" class="edge">
<title>CCCC(C(CCc1cccc(c1)O)C)CC&#45;&gt;CCCC(C(CCC(=CC)C)C)CC</title>
<path fill="none" stroke="#000000" d="M1083.2845,-1991.9836C1089.2289,-1973.9165 1095.2262,-1955.6888 1100.8507,-1938.5944"/>
<polygon fill="#000000" stroke="#000000" points="1102.4268,-1933.804 1103.0013,-1939.2568 1101.6454,-1936.1787 1100.864,-1938.5535 1100.864,-1938.5535 1100.864,-1938.5535 1101.6454,-1936.1787 1098.7267,-1937.8503 1102.4268,-1933.804 1102.4268,-1933.804"/>
</g>
<!-- CCCC(C(CCc1cccc(c1)O)C)CC&#45;&gt;CCCC(C(CCCC=CC)C)CC -->
<g id="edge38" class="edge">
<title>CCCC(C(CCc1cccc(c1)O)C)CC&#45;&gt;CCCC(C(CCCC=CC)C)CC</title>
<path fill="none" stroke="#000000" d="M1150.2278,-2040.2371C1185.7911,-2013.7302 1225.2931,-1983.8871 1261,-1956 1262.3771,-1954.9245 1263.761,-1953.8412 1265.1507,-1952.7511"/>
<polygon fill="#000000" stroke="#000000" points="1269.3361,-1949.461 1266.7957,-1954.3199 1267.3706,-1951.006 1265.4052,-1952.551 1265.4052,-1952.551 1265.4052,-1952.551 1267.3706,-1951.006 1264.0146,-1950.7821 1269.3361,-1949.461 1269.3361,-1949.461"/>
</g>
<!-- CCCCc1cccc(c1)O -->
<g id="node33" class="node">
<title>CCCCc1cccc(c1)O</title>
<image xlink:href="CCCCc1ccccèc1ïO.svg" width="140px" height="212px" preserveAspectRatio="xMinYMin meet" x="793" y="-1385"/>
</g>
<!-- CCCC(C(CCc1cccc(c1)O)C)CC&#45;&gt;CCCCc1cccc(c1)O -->
<g id="edge37" class="edge">
<title>CCCC(C(CCc1cccc(c1)O)C)CC&#45;&gt;CCCCc1cccc(c1)O</title>
<path fill="none" stroke="#000000" d="M978.2211,-1991.5794C973.6625,-1979.7073 969.4931,-1967.7321 966,-1956 950.1926,-1902.9078 902.807,-1568.2785 878.2027,-1390.1974"/>
<polygon fill="#000000" stroke="#000000" points="877.5175,-1385.2361 880.4305,-1389.8813 877.8596,-1387.7126 878.2016,-1390.1891 878.2016,-1390.1891 878.2016,-1390.1891 877.8596,-1387.7126 875.9728,-1390.497 877.5175,-1385.2361 877.5175,-1385.2361"/>
</g>
<!-- CCCCC(CCC)C&#45;&gt;CCCCC(CC)C -->
<g id="edge40" class="edge">
<title>CCCCC(CCC)C&#45;&gt;CCCCC(CC)C</title>
<path fill="none" stroke="#000000" d="M1617.5815,-962.3327C1601.7518,-946.9575 1585.0691,-930.7537 1569.1166,-915.2592"/>
<polygon fill="#000000" stroke="#000000" points="1565.5103,-911.7564 1570.6647,-913.6262 1567.3037,-913.4983 1569.097,-915.2402 1569.097,-915.2402 1569.097,-915.2402 1567.3037,-913.4983 1567.5293,-916.8542 1565.5103,-911.7564 1565.5103,-911.7564"/>
</g>
<!-- CCCCC(CC)C&#45;&gt;CCCCCC -->
<g id="edge41" class="edge">
<title>CCCCC(CC)C&#45;&gt;CCCCCC</title>
<path fill="none" stroke="#000000" d="M1391.1667,-763.1238C1368.5491,-746.0423 1344.7533,-728.071 1323.1977,-711.7916"/>
<polygon fill="#000000" stroke="#000000" points="1319.1997,-708.7721 1324.5457,-709.99 1321.1947,-710.2788 1323.1897,-711.7855 1323.1897,-711.7855 1323.1897,-711.7855 1321.1947,-710.2788 1321.8336,-713.581 1319.1997,-708.7721 1319.1997,-708.7721"/>
</g>
<!-- CC -->
<g id="node31" class="node">
<title>CC</title>
<image xlink:href="CC.svg" width="92px" height="62px" preserveAspectRatio="xMinYMin meet" x="391" y="-302.5"/>
</g>
<!-- CCCC&#45;&gt;CC -->
<g id="edge43" class="edge">
<title>CCCC&#45;&gt;CC</title>
<path fill="none" stroke="#000000" d="M584.6474,-360.4587C556.0122,-346.0836 521.7585,-328.0376 492,-310 489.5704,-308.5274 487.1049,-306.9861 484.6323,-305.4027"/>
<polygon fill="#000000" stroke="#000000" points="480.1801,-302.5126 485.5991,-303.3478 482.2771,-303.8738 484.374,-305.2351 484.374,-305.2351 484.374,-305.2351 482.2771,-303.8738 483.1489,-307.1223 480.1801,-302.5126 480.1801,-302.5126"/>
</g>
<!-- CCC -->
<g id="node36" class="node">
<title>CCC</title>
<image xlink:href="CCC.svg" width="113px" height="77px" preserveAspectRatio="xMinYMin meet" x="501.5" y="-310"/>
</g>
<!-- CCCC&#45;&gt;CCC -->
<g id="edge42" class="edge">
<title>CCCC&#45;&gt;CCC</title>
<path fill="none" stroke="#000000" d="M613.232,-345.875C605.5531,-335.5346 597.3851,-324.5356 589.7515,-314.2562"/>
<polygon fill="#000000" stroke="#000000" points="586.7422,-310.204 591.5296,-312.8767 588.2327,-312.2111 589.7232,-314.2182 589.7232,-314.2182 589.7232,-314.2182 588.2327,-312.2111 587.9168,-315.5596 586.7422,-310.204 586.7422,-310.204"/>
</g>
<!-- CCCCCC&#45;&gt;CCCCC -->
<g id="edge44" class="edge">
<title>CCCCCC&#45;&gt;CCCCC</title>
<path fill="none" stroke="#000000" d="M1164.9499,-622.6518C1105.563,-599.5204 1026.0444,-568.5477 967.1039,-545.5902"/>
<polygon fill="#000000" stroke="#000000" points="962.1827,-543.6734 967.6584,-543.3916 964.5123,-544.5808 966.8418,-545.4882 966.8418,-545.4882 966.8418,-545.4882 964.5123,-544.5808 966.0251,-547.5847 962.1827,-543.6734 962.1827,-543.6734"/>
</g>
<!-- CCCC(C(CCC(=CC)C)C)CC&#45;&gt;CCCCC(C(CCC)CC)C -->
<g id="edge45" class="edge">
<title>CCCC(C(CCC(=CC)C)C)CC&#45;&gt;CCCCC(C(CCC)CC)C</title>
<path fill="none" stroke="#000000" d="M1215.8959,-1766.2138C1253.058,-1729.9645 1296.353,-1687.7329 1333.0609,-1651.9265"/>
<polygon fill="#000000" stroke="#000000" points="1337.0467,-1648.0387 1335.0386,-1653.1406 1335.2571,-1649.7843 1333.4675,-1651.53 1333.4675,-1651.53 1333.4675,-1651.53 1335.2571,-1649.7843 1331.8964,-1649.9193 1337.0467,-1648.0387 1337.0467,-1648.0387"/>
</g>
<!-- CCCCC(=CC)C -->
<g id="node28" class="node">
<title>CCCCC(=CC)C</title>
<image xlink:href="CCCCCè=CCïC.svg" width="191px" height="152px" preserveAspectRatio="xMinYMin meet" x="814.5" y="-1114.5"/>
</g>
<!-- CCCC(C(CCC(=CC)C)C)CC&#45;&gt;CCCCC(=CC)C -->
<g id="edge46" class="edge">
<title>CCCC(C(CCC(=CC)C)C)CC&#45;&gt;CCCCC(=CC)C</title>
<path fill="none" stroke="#000000" d="M1097.7538,-1766.1636C1064.3928,-1676.6597 1012.8068,-1530.1057 981,-1400 955.1286,-1294.1732 964.7863,-1264.5337 942,-1158 939.3429,-1145.5774 936.2054,-1132.5159 932.9513,-1119.7739"/>
<polygon fill="#000000" stroke="#000000" points="931.6501,-1114.7188 935.0756,-1119.0001 932.2734,-1117.1399 932.8966,-1119.561 932.8966,-1119.561 932.8966,-1119.561 932.2734,-1117.1399 930.7176,-1120.1219 931.6501,-1114.7188 931.6501,-1114.7188"/>
</g>
<!-- CCCCCC=CC -->
<g id="node34" class="node">
<title>CCCCCC=CC</title>
<image xlink:href="CCCCCC=CC.svg" width="218px" height="107px" preserveAspectRatio="xMinYMin meet" x="1024" y="-1092"/>
</g>
<!-- CCCC(C(CCC(=CC)C)C)CC&#45;&gt;CCCCCC=CC -->
<g id="edge47" class="edge">
<title>CCCC(C(CCC(=CC)C)C)CC&#45;&gt;CCCCCC=CC</title>
<path fill="none" stroke="#000000" d="M1130.3098,-1766.2117C1130.9183,-1601.5884 1132.2565,-1239.6198 1132.782,-1097.4679"/>
<polygon fill="#000000" stroke="#000000" points="1132.8019,-1092.0942 1135.0333,-1097.1025 1132.7926,-1094.5942 1132.7833,-1097.0942 1132.7833,-1097.0942 1132.7833,-1097.0942 1132.7926,-1094.5942 1130.5333,-1097.0858 1132.8019,-1092.0942 1132.8019,-1092.0942"/>
</g>
<!-- CCCC(C(CCCC=CC)C)CC&#45;&gt;CCCCC(C(CCC)CC)C -->
<g id="edge48" class="edge">
<title>CCCC(C(CCCC=CC)C)CC&#45;&gt;CCCCC(C(CCC)CC)C</title>
<path fill="none" stroke="#000000" d="M1400.1761,-1743.7102C1402.7548,-1713.8399 1405.518,-1681.833 1407.9517,-1653.643"/>
<polygon fill="#000000" stroke="#000000" points="1408.4021,-1648.4252 1410.2137,-1653.6002 1408.1871,-1650.9159 1407.972,-1653.4066 1407.972,-1653.4066 1407.972,-1653.4066 1408.1871,-1650.9159 1405.7303,-1653.2131 1408.4021,-1648.4252 1408.4021,-1648.4252"/>
</g>
<!-- CCCC(C(CCCC=CC)C)CC&#45;&gt;CCCCCC=CC -->
<g id="edge49" class="edge">
<title>CCCC(C(CCCC=CC)C)CC&#45;&gt;CCCCCC=CC</title>
<path fill="none" stroke="#000000" d="M1315.1052,-1743.6612C1308.4142,-1731.9332 1302.215,-1719.9175 1297,-1708 1203.2847,-1493.8382 1157.0988,-1216.6836 1140.474,-1097.3733"/>
<polygon fill="#000000" stroke="#000000" points="1139.7521,-1092.1576 1142.6664,-1096.8018 1140.0949,-1094.634 1140.4377,-1097.1104 1140.4377,-1097.1104 1140.4377,-1097.1104 1140.0949,-1094.634 1138.2089,-1097.4189 1139.7521,-1092.1576 1139.7521,-1092.1576"/>
</g>
<!-- CCCCCCC(C(CC)O)CC&#45;&gt;CCCCCCC(CCC)CC -->
<g id="edge50" class="edge">
<title>CCCCCCC(C(CC)O)CC&#45;&gt;CCCCCCC(CCC)CC</title>
<path fill="none" stroke="#000000" d="M799.5491,-2043.3701C837.6495,-2022.9274 880.8044,-2003.3962 923,-1992 1096.5167,-1945.1367 1564.6401,-2024.0336 1731,-1956 1732.374,-1955.4381 1733.7425,-1954.8528 1735.105,-1954.2455"/>
<polygon fill="#000000" stroke="#000000" points="1739.7143,-1952.0971 1736.133,-1956.2488 1737.4484,-1953.1533 1735.1824,-1954.2095 1735.1824,-1954.2095 1735.1824,-1954.2095 1737.4484,-1953.1533 1734.2319,-1952.1701 1739.7143,-1952.0971 1739.7143,-1952.0971"/>
</g>
<!-- CCO -->
<g id="node40" class="node">
<title>CCO</title>
<image xlink:href="CCO.svg" width="113px" height="77px" preserveAspectRatio="xMinYMin meet" x="196.5" y="-693.5"/>
</g>
<!-- CCCCCCC(C(CC)O)CC&#45;&gt;CCO -->
<g id="edge51" class="edge">
<title>CCCCCCC(C(CC)O)CC&#45;&gt;CCO</title>
<path fill="none" stroke="#000000" d="M556.3959,-2084.0098C361.2869,-2017.0767 0,-1854.9363 0,-1572 0,-1572 0,-1572 0,-1038.5 0,-893.9238 126.8322,-761.824 200.8934,-697.0111"/>
<polygon fill="#000000" stroke="#000000" points="204.8171,-693.597 202.522,-698.5765 202.9311,-695.238 201.0451,-696.8791 201.0451,-696.8791 201.0451,-696.8791 202.9311,-695.238 199.5681,-695.1817 204.8171,-693.597 204.8171,-693.597"/>
</g>
<!-- CCCCCC(CCC)CC&#45;&gt;CCCCCCCCC -->
<g id="edge54" class="edge">
<title>CCCCCC(CCC)CC&#45;&gt;CCCCCCCCC</title>
<path fill="none" stroke="#000000" d="M1766.3395,-1217.6894C1800.6414,-1180.3608 1844.1943,-1132.965 1877.8912,-1096.2949"/>
<polygon fill="#000000" stroke="#000000" points="1881.5344,-1092.3302 1879.808,-1097.5343 1879.8429,-1094.171 1878.1513,-1096.0118 1878.1513,-1096.0118 1878.1513,-1096.0118 1879.8429,-1094.171 1876.4945,-1094.4894 1881.5344,-1092.3302 1881.5344,-1092.3302"/>
</g>
<!-- CCCCCC(CCC)CC&#45;&gt;CCCCC(CC)CC -->
<g id="edge53" class="edge">
<title>CCCCCC(CCC)CC&#45;&gt;CCCCC(CC)CC</title>
<path fill="none" stroke="#000000" d="M1653.1507,-1217.6894C1627.3585,-1189.8732 1596.3829,-1156.4668 1568.2017,-1126.074"/>
<polygon fill="#000000" stroke="#000000" points="1564.7793,-1122.3831 1569.8289,-1124.5197 1566.4792,-1124.2163 1568.179,-1126.0495 1568.179,-1126.0495 1568.179,-1126.0495 1566.4792,-1124.2163 1566.5291,-1127.5794 1564.7793,-1122.3831 1564.7793,-1122.3831"/>
</g>
<!-- CCCCCC(CCC)CC&#45;&gt;CCCCC(CCC)C -->
<g id="edge52" class="edge">
<title>CCCCCC(CCC)CC&#45;&gt;CCCCC(CCC)C</title>
<path fill="none" stroke="#000000" d="M1706.431,-1217.6894C1704.7008,-1187.9667 1702.599,-1151.8613 1700.7367,-1119.87"/>
<polygon fill="#000000" stroke="#000000" points="1700.44,-1114.7725 1702.9768,-1119.6333 1700.5853,-1117.2683 1700.7306,-1119.7641 1700.7306,-1119.7641 1700.7306,-1119.7641 1700.5853,-1117.2683 1698.4844,-1119.8948 1700.44,-1114.7725 1700.44,-1114.7725"/>
</g>
<!-- CCCCC(C(CCC)CC)C&#45;&gt;CCCCCC(CCC)CC -->
<g id="edge55" class="edge">
<title>CCCCC(C(CCC)CC)C&#45;&gt;CCCCCC(CCC)CC</title>
<path fill="none" stroke="#000000" d="M1491.7377,-1495.7826C1539.2277,-1448.6145 1599.5434,-1388.7077 1644.7291,-1343.8284"/>
<polygon fill="#000000" stroke="#000000" points="1648.5034,-1340.0797 1646.5414,-1345.1996 1646.7296,-1341.8414 1644.9558,-1343.6032 1644.9558,-1343.6032 1644.9558,-1343.6032 1646.7296,-1341.8414 1643.3703,-1342.0068 1648.5034,-1340.0797 1648.5034,-1340.0797"/>
</g>
<!-- CN1CCc2c3C1Cc1ccc(c(c1c3ccc2)O)O -->
<g id="node27" class="node">
<title>CN1CCc2c3C1Cc1ccc(c(c1c3ccc2)O)O</title>
<polygon fill="none" stroke="#000000" points="776,-1948 532,-1948 532,-1752 776,-1752 776,-1948"/>
<image xlink:href="CN1CCc2c3C1Cc1cccècèc1c3ccc2ïOïO.svg" width="244px" height="196px" preserveAspectRatio="xMinYMin meet" x="532" y="-1948"/>
</g>
<!-- CN1CCc2c3C1Cc1ccc(c(c1c3ccc2)O)O&#45;&gt;CCCCN(C(Cc1ccc(c(c1)O)O)CC=CC)C -->
<g id="edge57" class="edge">
<title>CN1CCc2c3C1Cc1ccc(c(c1c3ccc2)O)O&#45;&gt;CCCCN(C(Cc1ccc(c(c1)O)O)CC=CC)C</title>
<path fill="none" stroke="#000000" d="M615.5707,-1751.9876C610.6031,-1739.318 605.4399,-1726.1495 600.2675,-1712.9575"/>
<polygon fill="#000000" stroke="#000000" points="598.3618,-1708.0971 602.2818,-1711.9307 599.2744,-1710.4246 600.187,-1712.7521 600.187,-1712.7521 600.187,-1712.7521 599.2744,-1710.4246 598.0923,-1713.5734 598.3618,-1708.0971 598.3618,-1708.0971"/>
</g>
<!-- CN1CCc2c3C1Cc1ccc(c(c1c3ccc2)O)O&#45;&gt;Oc1ccc2c(c1)CCCC2 -->
<g id="edge56" class="edge">
<title>CN1CCc2c3C1Cc1ccc(c(c1c3ccc2)O)O&#45;&gt;Oc1ccc2c(c1)CCCC2</title>
<path fill="none" stroke="#000000" d="M698.4229,-1751.9876C715.5082,-1714.2915 734.5953,-1672.1786 750.0088,-1638.1711"/>
<polygon fill="#000000" stroke="#000000" points="752.2556,-1633.2139 752.2408,-1638.6968 751.2235,-1635.4909 750.1914,-1637.768 750.1914,-1637.768 750.1914,-1637.768 751.2235,-1635.4909 748.1421,-1636.8391 752.2556,-1633.2139 752.2556,-1633.2139"/>
</g>
<!-- CCCCC(=CC)C&#45;&gt;CCCCC=CC -->
<g id="edge60" class="edge">
<title>CCCCC(=CC)C&#45;&gt;CCCCC=CC</title>
<path fill="none" stroke="#000000" d="M912.6265,-962.3327C913.4022,-939.8354 914.2392,-915.5643 914.9711,-894.3367"/>
<polygon fill="#000000" stroke="#000000" points="915.1451,-889.2925 917.2213,-894.3671 915.0589,-891.791 914.9727,-894.2895 914.9727,-894.2895 914.9727,-894.2895 915.0589,-891.791 912.724,-894.2119 915.1451,-889.2925 915.1451,-889.2925"/>
</g>
<!-- CCCCC(=CC)C&#45;&gt;CCCCCC -->
<g id="edge59" class="edge">
<title>CCCCC(=CC)C&#45;&gt;CCCCCC</title>
<path fill="none" stroke="#000000" d="M982.2149,-962.4744C995.5588,-948.1375 1009.2883,-933.1898 1022,-919 1056.044,-880.9973 1143.7493,-777.9778 1199.3517,-712.4379"/>
<polygon fill="#000000" stroke="#000000" points="1202.6357,-708.5666 1201.1171,-713.8351 1201.0185,-710.4731 1199.4012,-712.3796 1199.4012,-712.3796 1199.4012,-712.3796 1201.0185,-710.4731 1197.6854,-710.9241 1202.6357,-708.5666 1202.6357,-708.5666"/>
</g>
<!-- CCCCC(=CC)C&#45;&gt;CCCC(=CC)C -->
<g id="edge58" class="edge">
<title>CCCCC(=CC)C&#45;&gt;CCCC(=CC)C</title>
<path fill="none" stroke="#000000" d="M838.7104,-962.3327C817.2096,-939.3608 793.9778,-914.5394 773.8152,-892.9973"/>
<polygon fill="#000000" stroke="#000000" points="770.3476,-889.2925 775.4071,-891.4055 772.056,-891.1177 773.7644,-892.943 773.7644,-892.943 773.7644,-892.943 772.056,-891.1177 772.1217,-894.4805 770.3476,-889.2925 770.3476,-889.2925"/>
</g>
<!-- CCCC(=CC)C&#45;&gt;CCCCC -->
<g id="edge61" class="edge">
<title>CCCC(=CC)C&#45;&gt;CCCCC</title>
<path fill="none" stroke="#000000" d="M771.0995,-781.7128C787.736,-762.1388 805.1954,-739.1192 818,-716 845.1337,-667.0087 863.9518,-605.3419 874.8029,-563.1106"/>
<polygon fill="#000000" stroke="#000000" points="876.0867,-558.059 877.0357,-563.4592 875.4709,-560.482 874.8551,-562.9049 874.8551,-562.9049 874.8551,-562.9049 875.4709,-560.482 872.6744,-562.3507 876.0867,-558.059 876.0867,-558.059"/>
</g>
<!-- CCCC(=CC)C&#45;&gt;CCCC=CC -->
<g id="edge63" class="edge">
<title>CCCC(=CC)C&#45;&gt;CCCC=CC</title>
<path fill="none" stroke="#000000" d="M721.784,-781.8328C722.4939,-760.475 723.3132,-735.8269 724.0397,-713.9715"/>
<polygon fill="#000000" stroke="#000000" points="724.2126,-708.7721 726.2951,-713.8442 724.1295,-711.2708 724.0464,-713.7694 724.0464,-713.7694 724.0464,-713.7694 724.1295,-711.2708 721.7976,-713.6946 724.2126,-708.7721 724.2126,-708.7721"/>
</g>
<!-- CCC(=CC)C -->
<g id="node46" class="node">
<title>CCC(=CC)C</title>
<image xlink:href="CCCè=CCïC.svg" width="166px" height="107px" preserveAspectRatio="xMinYMin meet" x="459" y="-708.5"/>
</g>
<!-- CCCC(=CC)C&#45;&gt;CCC(=CC)C -->
<g id="edge62" class="edge">
<title>CCCC(=CC)C&#45;&gt;CCC(=CC)C</title>
<path fill="none" stroke="#000000" d="M667.0761,-781.8328C645.5698,-760.0244 620.6804,-734.7855 598.7944,-712.5921"/>
<polygon fill="#000000" stroke="#000000" points="595.0274,-708.7721 600.1403,-710.7524 596.7828,-710.5522 598.5382,-712.3323 598.5382,-712.3323 598.5382,-712.3323 596.7828,-710.5522 596.9361,-713.9121 595.0274,-708.7721 595.0274,-708.7721"/>
</g>
<!-- CC=CC -->
<g id="node30" class="node">
<title>CC=CC</title>
<image xlink:href="CC=CC.svg" width="122px" height="88px" preserveAspectRatio="xMinYMin meet" x="376" y="-434"/>
</g>
<!-- CC=CC&#45;&gt;CC -->
<g id="edge64" class="edge">
<title>CC=CC&#45;&gt;CC</title>
<path fill="none" stroke="#000000" d="M437,-345.875C437,-333.323 437,-319.8005 437,-307.7728"/>
<polygon fill="#000000" stroke="#000000" points="437,-302.7168 439.2501,-307.7168 437,-305.2168 437.0001,-307.7168 437.0001,-307.7168 437.0001,-307.7168 437,-305.2168 434.7501,-307.7168 437,-302.7168 437,-302.7168"/>
</g>
<g id="node32" class="node">
<title></title>
<image xlink:href="EMPTY.svg" width="113px" height="197px" preserveAspectRatio="xMinYMin meet" x="380.5" y="-197"/>
</g>
<!-- CC&#45;&gt; -->
<g id="edge65" class="edge">
<title>CC&#45;&gt;</title>
<path fill="none" stroke="#000000" d="M437,-240.171C437,-229.0707 437,-215.8901 437,-202.1058"/>
<polygon fill="#000000" stroke="#000000" points="437,-197.0028 439.2501,-202.0028 437,-199.5028 437.0001,-202.0028 437.0001,-202.0028 437.0001,-202.0028 437,-199.5028 434.7501,-202.0029 437,-197.0028 437,-197.0028"/>
</g>
<!-- CCCCc1cccc(c1)O&#45;&gt;CCCc1ccccc1 -->
<g id="edge66" class="edge">
<title>CCCCc1cccc(c1)O&#45;&gt;CCCc1ccccc1</title>
<path fill="none" stroke="#000000" d="M802.511,-1172.8131C793.7414,-1157.4182 784.7941,-1141.7116 776.2549,-1126.7212"/>
<polygon fill="#000000" stroke="#000000" points="773.6185,-1122.0931 778.0485,-1125.3239 774.856,-1124.2654 776.0934,-1126.4377 776.0934,-1126.4377 776.0934,-1126.4377 774.856,-1124.2654 774.1384,-1127.5514 773.6185,-1122.0931 773.6185,-1122.0931"/>
</g>
<!-- CCCCc1cccc(c1)O&#45;&gt;CCCCC(=CC)C -->
<g id="edge68" class="edge">
<title>CCCCc1cccc(c1)O&#45;&gt;CCCCC(=CC)C</title>
<path fill="none" stroke="#000000" d="M883.7517,-1172.8131C887.2283,-1155.0235 890.7862,-1136.8175 894.1155,-1119.7815"/>
<polygon fill="#000000" stroke="#000000" points="895.141,-1114.5338 896.3902,-1119.8725 894.6615,-1116.9874 894.1819,-1119.441 894.1819,-1119.441 894.1819,-1119.441 894.6615,-1116.9874 891.9737,-1119.0094 895.141,-1114.5338 895.141,-1114.5338"/>
</g>
<!-- CCCCc1cccc(c1)O&#45;&gt;CCCCCC=CC -->
<g id="edge69" class="edge">
<title>CCCCc1cccc(c1)O&#45;&gt;CCCCCC=CC</title>
<path fill="none" stroke="#000000" d="M933.264,-1203.855C948.6279,-1188.3091 965.0685,-1172.3178 981,-1158 1004.7193,-1136.6831 1031.7674,-1114.7303 1056.407,-1095.5492"/>
<polygon fill="#000000" stroke="#000000" points="1060.658,-1092.2488 1058.0884,-1097.0924 1058.6833,-1093.782 1056.7086,-1095.3151 1056.7086,-1095.3151 1056.7086,-1095.3151 1058.6833,-1093.782 1055.3287,-1093.5379 1060.658,-1092.2488 1060.658,-1092.2488"/>
</g>
<!-- CCc1cccc(c1)O -->
<g id="node48" class="node">
<title>CCc1cccc(c1)O</title>
<image xlink:href="CCc1ccccèc1ïO.svg" width="191px" height="122px" preserveAspectRatio="xMinYMin meet" x="237.5" y="-1099.5"/>
</g>
<!-- CCCCc1cccc(c1)O&#45;&gt;CCc1cccc(c1)O -->
<g id="edge67" class="edge">
<title>CCCCc1cccc(c1)O&#45;&gt;CCc1cccc(c1)O</title>
<path fill="none" stroke="#000000" d="M802.2642,-1172.7973C796.3084,-1167.2034 789.8905,-1162.1787 783,-1158 650.8022,-1077.8292 579.9932,-1180.7923 437,-1122 424.9948,-1117.064 413.2604,-1110.2858 402.2538,-1102.7089"/>
<polygon fill="#000000" stroke="#000000" points="397.9102,-1099.6517 403.2941,-1100.6896 399.9546,-1101.0906 401.999,-1102.5296 401.999,-1102.5296 401.999,-1102.5296 399.9546,-1101.0906 400.704,-1104.3695 397.9102,-1099.6517 397.9102,-1099.6517"/>
</g>
<!-- CCCCCC=CC&#45;&gt;CCCCC=CC -->
<g id="edge71" class="edge">
<title>CCCCCC=CC&#45;&gt;CCCCC=CC</title>
<path fill="none" stroke="#000000" d="M1075.966,-984.8986C1045.6991,-956.4533 1008.5028,-921.4957 977.7023,-892.549"/>
<polygon fill="#000000" stroke="#000000" points="973.9788,-889.0495 979.1632,-890.8342 975.8005,-890.7616 977.6223,-892.4737 977.6223,-892.4737 977.6223,-892.4737 975.8005,-890.7616 976.0814,-894.1133 973.9788,-889.0495 973.9788,-889.0495"/>
</g>
<!-- CCCCCC=CC&#45;&gt;CCCCCC -->
<g id="edge70" class="edge">
<title>CCCCCC=CC&#45;&gt;CCCCCC</title>
<path fill="none" stroke="#000000" d="M1149.1113,-984.7722C1170.5114,-913.4076 1208.1824,-787.783 1230.3372,-713.9015"/>
<polygon fill="#000000" stroke="#000000" points="1231.9051,-708.673 1232.6241,-714.1086 1231.187,-711.0676 1230.4689,-713.4623 1230.4689,-713.4623 1230.4689,-713.4623 1231.187,-711.0676 1228.3137,-712.816 1231.9051,-708.673 1231.9051,-708.673"/>
</g>
<!-- CCCC=CC&#45;&gt;CCCC -->
<g id="edge72" class="edge">
<title>CCCC=CC&#45;&gt;CCCC</title>
<path fill="none" stroke="#000000" d="M709.8108,-601.3733C695.494,-553.949 674.7788,-485.3297 660.8727,-439.2658"/>
<polygon fill="#000000" stroke="#000000" points="659.3803,-434.3224 662.9794,-438.4587 660.1029,-436.7157 660.8254,-439.109 660.8254,-439.109 660.8254,-439.109 660.1029,-436.7157 658.6714,-439.7593 659.3803,-434.3224 659.3803,-434.3224"/>
</g>
<!-- CCC=CC -->
<g id="node47" class="node">
<title>CCC=CC</title>
<image xlink:href="CCC=CC.svg" width="152px" height="88px" preserveAspectRatio="xMinYMin meet" x="466" y="-558"/>
</g>
<!-- CCCC=CC&#45;&gt;CCC=CC -->
<g id="edge73" class="edge">
<title>CCCC=CC&#45;&gt;CCC=CC</title>
<path fill="none" stroke="#000000" d="M656.1751,-601.4929C638.9303,-588.2781 620.5801,-574.2163 603.7497,-561.3191"/>
<polygon fill="#000000" stroke="#000000" points="599.5052,-558.0665 604.8425,-559.3218 601.4896,-559.5871 603.4739,-561.1078 603.4739,-561.1078 603.4739,-561.1078 601.4896,-559.5871 602.1053,-562.8937 599.5052,-558.0665 599.5052,-558.0665"/>
</g>
<!-- CCC&#45;&gt; -->
<g id="edge74" class="edge">
<title>CCC&#45;&gt;</title>
<path fill="none" stroke="#000000" d="M530.8452,-232.6754C520.6321,-218.0731 508.5752,-200.8347 496.5673,-183.6664"/>
<polygon fill="#000000" stroke="#000000" points="493.5166,-179.3047 498.2261,-182.1124 494.9495,-181.3534 496.3824,-183.402 496.3824,-183.402 496.3824,-183.402 494.9495,-181.3534 494.5386,-184.6916 493.5166,-179.3047 493.5166,-179.3047"/>
</g>
<!-- CCCCN(C(Cc1ccc(c(c1)O)O)CC=CC)C&#45;&gt;CNC(Cc1ccccc1)C -->
<g id="edge77" class="edge">
<title>CCCCN(C(Cc1ccc(c(c1)O)O)CC=CC)C&#45;&gt;CNC(Cc1ccccc1)C</title>
<path fill="none" stroke="#000000" d="M545,-1435.7932C545,-1420.4869 545,-1405.0301 545,-1390.0954"/>
<polygon fill="#000000" stroke="#000000" points="545,-1385.0516 547.2501,-1390.0515 545,-1387.5516 545.0001,-1390.0516 545.0001,-1390.0516 545.0001,-1390.0516 545,-1387.5516 542.7501,-1390.0516 545,-1385.0516 545,-1385.0516"/>
</g>
<!-- CCCCN(C(Cc1ccc(c(c1)O)O)CC=CC)C&#45;&gt;CCCCc1cccc(c1)O -->
<g id="edge75" class="edge">
<title>CCCCN(C(Cc1ccc(c(c1)O)O)CC=CC)C&#45;&gt;CCCCc1cccc(c1)O</title>
<path fill="none" stroke="#000000" d="M666.7776,-1441.4498C669.4993,-1439.5677 672.2411,-1437.7484 675,-1436 717.7372,-1408.9162 742.8495,-1430.7885 783,-1400 787.3465,-1396.667 791.5319,-1393.0269 795.5523,-1389.1559"/>
<polygon fill="#000000" stroke="#000000" points="799.5174,-1385.2109 797.5598,-1390.3325 797.7451,-1386.9742 795.9729,-1388.7375 795.9729,-1388.7375 795.9729,-1388.7375 797.7451,-1386.9742 794.3859,-1387.1424 799.5174,-1385.2109 799.5174,-1385.2109"/>
</g>
<!-- CCCCc1ccc(cc1)O -->
<g id="node38" class="node">
<title>CCCCc1ccc(cc1)O</title>
<image xlink:href="CCCCc1cccècc1ïO.svg" width="113px" height="242px" preserveAspectRatio="xMinYMin meet" x="661.5" y="-1400"/>
</g>
<!-- CCCCN(C(Cc1ccc(c(c1)O)O)CC=CC)C&#45;&gt;CCCCc1ccc(cc1)O -->
<g id="edge78" class="edge">
<title>CCCCN(C(Cc1ccc(c(c1)O)O)CC=CC)C&#45;&gt;CCCCc1ccc(cc1)O</title>
<path fill="none" stroke="#000000" d="M625.4224,-1435.7932C636.648,-1416.7812 648.0107,-1397.5369 658.7493,-1379.3494"/>
<polygon fill="#000000" stroke="#000000" points="661.4656,-1374.7491 660.8608,-1380.1986 660.1945,-1376.9018 658.9234,-1379.0546 658.9234,-1379.0546 658.9234,-1379.0546 660.1945,-1376.9018 656.9859,-1377.9106 661.4656,-1374.7491 661.4656,-1374.7491"/>
</g>
<!-- CNCCc1ccc(c(c1)O)O -->
<g id="node49" class="node">
<title>CNCCc1ccc(c(c1)O)O</title>
<image xlink:href="CNCCc1cccècèc1ïOïO.svg" width="218px" height="167px" preserveAspectRatio="xMinYMin meet" x="225" y="-1362.5"/>
</g>
<!-- CCCCN(C(Cc1ccc(c(c1)O)O)CC=CC)C&#45;&gt;CNCCc1ccc(c(c1)O)O -->
<g id="edge76" class="edge">
<title>CCCCN(C(Cc1ccc(c(c1)O)O)CC=CC)C&#45;&gt;CNCCc1ccc(c(c1)O)O</title>
<path fill="none" stroke="#000000" d="M446.9125,-1435.7932C430.0633,-1412.396 412.9607,-1388.6469 397.3352,-1366.9488"/>
<polygon fill="#000000" stroke="#000000" points="394.2303,-1362.6373 398.978,-1365.3798 395.6912,-1364.666 397.1522,-1366.6947 397.1522,-1366.6947 397.1522,-1366.6947 395.6912,-1364.666 395.3263,-1368.0096 394.2303,-1362.6373 394.2303,-1362.6373"/>
</g>
<!-- CCCCc1ccc(cc1)O&#45;&gt;CCCc1ccccc1 -->
<g id="edge79" class="edge">
<title>CCCCc1ccc(cc1)O&#45;&gt;CCCc1ccccc1</title>
<path fill="none" stroke="#000000" d="M722.0352,-1157.6931C722.3758,-1147.4538 722.716,-1137.2247 723.0461,-1127.3028"/>
<polygon fill="#000000" stroke="#000000" points="723.2177,-1122.1438 725.3001,-1127.2159 723.1345,-1124.6424 723.0513,-1127.1411 723.0513,-1127.1411 723.0513,-1127.1411 723.1345,-1124.6424 720.8026,-1127.0662 723.2177,-1122.1438 723.2177,-1122.1438"/>
</g>
<!-- CCCCc1ccc(cc1)O&#45;&gt;CCCCC(=CC)C -->
<g id="edge81" class="edge">
<title>CCCCc1ccc(cc1)O&#45;&gt;CCCCC(=CC)C</title>
<path fill="none" stroke="#000000" d="M774.5772,-1170.9868C777.6455,-1166.5222 780.7907,-1162.1729 784,-1158 794.5002,-1144.3473 806.5887,-1130.8369 819.0339,-1118.0853"/>
<polygon fill="#000000" stroke="#000000" points="822.5525,-1114.5093 820.6494,-1119.6514 820.799,-1116.2913 819.0456,-1118.0733 819.0456,-1118.0733 819.0456,-1118.0733 820.799,-1116.2913 817.4418,-1116.4952 822.5525,-1114.5093 822.5525,-1114.5093"/>
</g>
<!-- CCCCc1ccc(cc1)O&#45;&gt;CCCCCC=CC -->
<g id="edge82" class="edge">
<title>CCCCc1ccc(cc1)O&#45;&gt;CCCCCC=CC</title>
<path fill="none" stroke="#000000" d="M774.7335,-1165.4078C777.6835,-1162.753 780.7707,-1160.2716 784,-1158 868.9858,-1098.2183 918.7085,-1161.0434 1015,-1122 1031.9006,-1115.1473 1048.7144,-1105.4569 1064.1289,-1095.092"/>
<polygon fill="#000000" stroke="#000000" points="1068.4384,-1092.1525 1065.5757,-1096.8288 1066.3731,-1093.5612 1064.3078,-1094.97 1064.3078,-1094.97 1064.3078,-1094.97 1066.3731,-1093.5612 1063.0399,-1093.1112 1068.4384,-1092.1525 1068.4384,-1092.1525"/>
</g>
<!-- CCc1ccc(cc1)O -->
<g id="node51" class="node">
<title>CCc1ccc(cc1)O</title>
<image xlink:href="CCc1cccècc1ïO.svg" width="191px" height="122px" preserveAspectRatio="xMinYMin meet" x="28.5" y="-1099.5"/>
</g>
<!-- CCCCc1ccc(cc1)O&#45;&gt;CCc1ccc(cc1)O -->
<g id="edge80" class="edge">
<title>CCCCc1ccc(cc1)O&#45;&gt;CCc1ccc(cc1)O</title>
<path fill="none" stroke="#000000" d="M661.4176,-1187.9952C650.3955,-1176.1959 637.8863,-1165.595 624,-1158 468.9503,-1073.1967 391.8833,-1188.1381 228,-1122 215.8681,-1117.104 204.0255,-1110.3018 192.9354,-1102.6734"/>
<polygon fill="#000000" stroke="#000000" points="188.5599,-1099.5943 193.9438,-1100.6317 190.6044,-1101.0331 192.649,-1102.4718 192.649,-1102.4718 192.649,-1102.4718 190.6044,-1101.0331 191.3541,-1104.3119 188.5599,-1099.5943 188.5599,-1099.5943"/>
</g>
<!-- Oc1ccccc1 -->
<g id="node39" class="node">
<title>Oc1ccccc1</title>
<image xlink:href="Oc1ccccc1.svg" width="113px" height="152px" preserveAspectRatio="xMinYMin meet" x="236.5" y="-911.5"/>
</g>
<!-- Oc1ccccc1&#45;&gt;CCO -->
<g id="edge84" class="edge">
<title>Oc1ccccc1&#45;&gt;CCO</title>
<path fill="none" stroke="#000000" d="M276.1523,-759.4749C271.5465,-738.6912 266.7119,-716.875 262.6589,-698.5858"/>
<polygon fill="#000000" stroke="#000000" points="261.5373,-693.5246 264.8159,-697.9193 262.0782,-695.9654 262.6192,-698.4062 262.6192,-698.4062 262.6192,-698.4062 262.0782,-695.9654 260.4225,-698.893 261.5373,-693.5246 261.5373,-693.5246"/>
</g>
<!-- c1ccccc1 -->
<g id="node41" class="node">
<title>c1ccccc1</title>
<image xlink:href="c1ccccc1.svg" width="113px" height="122px" preserveAspectRatio="xMinYMin meet" x="327.5" y="-716"/>
</g>
<!-- Oc1ccccc1&#45;&gt;c1ccccc1 -->
<g id="edge83" class="edge">
<title>Oc1ccccc1&#45;&gt;c1ccccc1</title>
<path fill="none" stroke="#000000" d="M331.3284,-759.4749C337.8176,-746.6036 344.5063,-733.3364 350.8487,-720.7561"/>
<polygon fill="#000000" stroke="#000000" points="353.1687,-716.1543 352.9269,-721.6319 352.0433,-718.3867 350.9178,-720.619 350.9178,-720.619 350.9178,-720.619 352.0433,-718.3867 348.9087,-719.6061 353.1687,-716.1543 353.1687,-716.1543"/>
</g>
<!-- CCO&#45;&gt; -->
<g id="edge85" class="edge">
<title>CCO&#45;&gt;</title>
<path fill="none" stroke="#000000" d="M263.5723,-616.2115C284.2445,-541.4032 332.354,-372.2744 382,-233 385.5993,-222.9026 389.5191,-212.4516 393.5538,-202.0426"/>
<polygon fill="#000000" stroke="#000000" points="395.4149,-197.2645 395.6967,-202.7402 394.5075,-199.594 393.6001,-201.9235 393.6001,-201.9235 393.6001,-201.9235 394.5075,-199.594 391.5035,-201.1069 395.4149,-197.2645 395.4149,-197.2645"/>
</g>
<!-- c1ccccc1&#45;&gt;CC=CC -->
<g id="edge86" class="edge">
<title>c1ccccc1&#45;&gt;CC=CC</title>
<path fill="none" stroke="#000000" d="M396.2258,-593.8709C405.616,-546.9202 418.4144,-482.9279 427.1521,-439.2396"/>
<polygon fill="#000000" stroke="#000000" points="428.1438,-434.281 429.3694,-439.6252 427.6535,-436.7325 427.1631,-439.1839 427.1631,-439.1839 427.1631,-439.1839 427.6535,-436.7325 424.9568,-438.7426 428.1438,-434.281 428.1438,-434.281"/>
</g>
<!-- Oc1ccc2c(c1)CCCC2&#45;&gt;CCCCc1cccc(c1)O -->
<g id="edge87" class="edge">
<title>Oc1ccc2c(c1)CCCC2&#45;&gt;CCCCc1cccc(c1)O</title>
<path fill="none" stroke="#000000" d="M797.2985,-1510.9343C807.2054,-1475.9618 819.9406,-1431.0049 831.5571,-1389.9972"/>
<polygon fill="#000000" stroke="#000000" points="832.9679,-1385.0168 833.7699,-1390.4407 832.2865,-1387.4221 831.6051,-1389.8275 831.6051,-1389.8275 831.6051,-1389.8275 832.2865,-1387.4221 829.4403,-1389.2142 832.9679,-1385.0168 832.9679,-1385.0168"/>
</g>
<!-- Oc1ccc2c(c1)CCCC2&#45;&gt;CCCCc1ccc(cc1)O -->
<g id="edge89" class="edge">
<title>Oc1ccc2c(c1)CCCC2&#45;&gt;CCCCc1ccc(cc1)O</title>
<path fill="none" stroke="#000000" d="M767.0782,-1510.9343C760.5741,-1480.1969 752.4379,-1441.7469 744.6715,-1405.0441"/>
<polygon fill="#000000" stroke="#000000" points="743.6278,-1400.1119 746.8642,-1404.5378 744.1454,-1402.5578 744.663,-1405.0036 744.663,-1405.0036 744.663,-1405.0036 744.1454,-1402.5578 742.4617,-1405.4694 743.6278,-1400.1119 743.6278,-1400.1119"/>
</g>
<!-- Oc1ccc2c(c1)CCCC2&#45;&gt;CC=C1CCCCC1 -->
<g id="edge88" class="edge">
<title>Oc1ccc2c(c1)CCCC2&#45;&gt;CC=C1CCCCC1</title>
<path fill="none" stroke="#000000" d="M838.7952,-1510.9351C869.849,-1478.3429 908.3876,-1437.3538 942,-1400 956.3481,-1384.0549 971.5318,-1366.6847 985.7329,-1350.2106"/>
<polygon fill="#000000" stroke="#000000" points="989.3211,-1346.043 987.7639,-1351.3002 987.6899,-1347.9375 986.0588,-1349.8321 986.0588,-1349.8321 986.0588,-1349.8321 987.6899,-1347.9375 984.3536,-1348.3641 989.3211,-1346.043 989.3211,-1346.043"/>
</g>
<!-- C1CCCCC1&#45;&gt;CCCCCC -->
<g id="edge90" class="edge">
<title>C1CCCCC1&#45;&gt;CCCCCC</title>
<path fill="none" stroke="#000000" d="M1305.9904,-977.3092C1292.9486,-904.823 1271.3778,-784.933 1258.5433,-713.5994"/>
<polygon fill="#000000" stroke="#000000" points="1257.6346,-708.5487 1260.7345,-713.0712 1258.0773,-711.0092 1258.52,-713.4696 1258.52,-713.4696 1258.52,-713.4696 1258.0773,-711.0092 1256.3056,-713.8681 1257.6346,-708.5487 1257.6346,-708.5487"/>
</g>
<!-- CC=C1CCCCC1&#45;&gt;CCCCC(=CC)C -->
<g id="edge92" class="edge">
<title>CC=C1CCCCC1&#45;&gt;CCCCC(=CC)C</title>
<path fill="none" stroke="#000000" d="M998.6247,-1195.2224C984.6964,-1170.5918 969.493,-1143.7063 955.6734,-1119.268"/>
<polygon fill="#000000" stroke="#000000" points="953.1097,-1114.7344 957.5295,-1117.9792 954.3403,-1116.9106 955.5709,-1119.0867 955.5709,-1119.0867 955.5709,-1119.0867 954.3403,-1116.9106 953.6124,-1120.1943 953.1097,-1114.7344 953.1097,-1114.7344"/>
</g>
<!-- CC=C1CCCCC1&#45;&gt;CCCCCC=CC -->
<g id="edge93" class="edge">
<title>CC=C1CCCCC1&#45;&gt;CCCCCC=CC</title>
<path fill="none" stroke="#000000" d="M1076.3062,-1195.2224C1087.9883,-1162.9288 1101.0726,-1126.759 1111.7254,-1097.3107"/>
<polygon fill="#000000" stroke="#000000" points="1113.5491,-1092.2694 1113.964,-1097.7366 1112.6987,-1094.6203 1111.8482,-1096.9712 1111.8482,-1096.9712 1111.8482,-1096.9712 1112.6987,-1094.6203 1109.7324,-1096.2058 1113.5491,-1092.2694 1113.5491,-1092.2694"/>
</g>
<!-- CC=C1CCCCC1&#45;&gt;C1CCCCC1 -->
<g id="edge91" class="edge">
<title>CC=C1CCCCC1&#45;&gt;C1CCCCC1</title>
<path fill="none" stroke="#000000" d="M1102.5243,-1241.462C1145.4814,-1211.615 1204.8464,-1167.4528 1251,-1122 1256.7785,-1116.3093 1262.5156,-1110.1154 1268.0556,-1103.7583"/>
<polygon fill="#000000" stroke="#000000" points="1271.4782,-1099.782 1269.9216,-1105.0394 1269.8473,-1101.6768 1268.2163,-1103.5716 1268.2163,-1103.5716 1268.2163,-1103.5716 1269.8473,-1101.6768 1266.511,-1102.1037 1271.4782,-1099.782 1271.4782,-1099.782"/>
</g>
<!-- CNCC(c1ccc(c(c1)O)O)O -->
<g id="node45" class="node">
<title>CNCC(c1ccc(c(c1)O)O)O</title>
<polygon fill="none" stroke="#000000" points="404,-1693 264,-1693 264,-1451 404,-1451 404,-1693"/>
<image xlink:href="CNCCèc1cccècèc1ïOïOïO.svg" width="140px" height="242px" preserveAspectRatio="xMinYMin meet" x="264" y="-1693"/>
</g>
<!-- CNCC(c1ccc(c(c1)O)O)O&#45;&gt;CNCCc1ccc(c(c1)O)O -->
<g id="edge94" class="edge">
<title>CNCC(c1ccc(c(c1)O)O)O&#45;&gt;CNCCc1ccc(c(c1)O)O</title>
<path fill="none" stroke="#000000" d="M334,-1450.7107C334,-1422.9629 334,-1393.9712 334,-1367.8799"/>
<polygon fill="#000000" stroke="#000000" points="334,-1362.7016 336.2501,-1367.7016 334,-1365.2016 334.0001,-1367.7016 334.0001,-1367.7016 334.0001,-1367.7016 334,-1365.2016 331.7501,-1367.7016 334,-1362.7016 334,-1362.7016"/>
</g>
<!-- CCC(=CC)C&#45;&gt;CCCC -->
<g id="edge95" class="edge">
<title>CCC(=CC)C&#45;&gt;CCCC</title>
<path fill="none" stroke="#000000" d="M598.9906,-601.3958C609.9714,-588.242 620.1671,-573.4629 627,-558 643.5659,-520.5112 647.713,-473.9373 648.0602,-439.3422"/>
<polygon fill="#000000" stroke="#000000" points="648.0849,-434.3274 650.3102,-439.3385 648.0726,-436.8274 648.0602,-439.3273 648.0602,-439.3273 648.0602,-439.3273 648.0726,-436.8274 645.8102,-439.3162 648.0849,-434.3274 648.0849,-434.3274"/>
</g>
<!-- CCC(=CC)C&#45;&gt;CCC=CC -->
<g id="edge96" class="edge">
<title>CCC(=CC)C&#45;&gt;CCC=CC</title>
<path fill="none" stroke="#000000" d="M542,-601.2917C542,-588.898 542,-575.7693 542,-563.5616"/>
<polygon fill="#000000" stroke="#000000" points="542,-558.391 544.2501,-563.391 542,-560.891 542.0001,-563.391 542.0001,-563.391 542.0001,-563.391 542,-560.891 539.7501,-563.3911 542,-558.391 542,-558.391"/>
</g>
<!-- CCC=CC&#45;&gt;CC=CC -->
<g id="edge97" class="edge">
<title>CCC=CC&#45;&gt;CC=CC</title>
<path fill="none" stroke="#000000" d="M504.6853,-469.9331C495.9706,-459.6414 486.6451,-448.6285 477.7882,-438.1689"/>
<polygon fill="#000000" stroke="#000000" points="474.5483,-434.3428 479.4966,-436.7046 476.1639,-436.2507 477.7795,-438.1586 477.7795,-438.1586 477.7795,-438.1586 476.1639,-436.2507 476.0624,-439.6126 474.5483,-434.3428 474.5483,-434.3428"/>
</g>
<!-- CCC=CC&#45;&gt;CCC -->
<g id="edge98" class="edge">
<title>CCC=CC&#45;&gt;CCC</title>
<path fill="none" stroke="#000000" d="M544.916,-469.8037C547.809,-425.9577 552.2164,-359.1579 555.1027,-315.4116"/>
<polygon fill="#000000" stroke="#000000" points="555.447,-310.194 557.3628,-315.3314 555.2824,-312.6886 555.1177,-315.1832 555.1177,-315.1832 555.1177,-315.1832 555.2824,-312.6886 552.8726,-315.035 555.447,-310.194 555.447,-310.194"/>
</g>
<!-- CCc1cccc(c1)O&#45;&gt;Oc1ccccc1 -->
<g id="edge100" class="edge">
<title>CCc1cccc(c1)O&#45;&gt;Oc1ccccc1</title>
<path fill="none" stroke="#000000" d="M320.9444,-977.318C317.1909,-958.269 312.9917,-936.9577 309.012,-916.7608"/>
<polygon fill="#000000" stroke="#000000" points="308.0053,-911.652 311.1796,-916.1227 308.4887,-914.1049 308.972,-916.5577 308.972,-916.5577 308.972,-916.5577 308.4887,-914.1049 306.7645,-916.9927 308.0053,-911.652 308.0053,-911.652"/>
</g>
<!-- CCc1cccc(c1)O&#45;&gt;CCc1ccccc1 -->
<g id="edge99" class="edge">
<title>CCc1cccc(c1)O&#45;&gt;CCc1ccccc1</title>
<path fill="none" stroke="#000000" d="M395.9903,-977.318C423.1369,-950.9507 454.7461,-920.249 481.5981,-894.1679"/>
<polygon fill="#000000" stroke="#000000" points="485.1853,-890.6837 483.1663,-895.7814 483.392,-892.4255 481.5986,-894.1674 481.5986,-894.1674 481.5986,-894.1674 483.392,-892.4255 480.031,-892.5534 485.1853,-890.6837 485.1853,-890.6837"/>
</g>
<!-- CNCCc1ccc(c(c1)O)O&#45;&gt;CCc1cccc(c1)O -->
<g id="edge102" class="edge">
<title>CNCCc1ccc(c(c1)O)O&#45;&gt;CCc1cccc(c1)O</title>
<path fill="none" stroke="#000000" d="M333.6517,-1195.2224C333.5285,-1165.6147 333.3919,-1132.7486 333.2756,-1104.7917"/>
<polygon fill="#000000" stroke="#000000" points="333.2542,-1099.6305 335.525,-1104.6211 333.2646,-1102.1305 333.2751,-1104.6305 333.2751,-1104.6305 333.2751,-1104.6305 333.2646,-1102.1305 331.0251,-1104.6399 333.2542,-1099.6305 333.2542,-1099.6305"/>
</g>
<!-- CNCCc1ccc(c(c1)O)O&#45;&gt;CCc1ccc(cc1)O -->
<g id="edge103" class="edge">
<title>CNCCc1ccc(c(c1)O)O&#45;&gt;CCc1ccc(cc1)O</title>
<path fill="none" stroke="#000000" d="M260.847,-1195.2224C234.565,-1165.1232 205.3427,-1131.6567 180.6727,-1103.4037"/>
<polygon fill="#000000" stroke="#000000" points="177.378,-1099.6305 182.3615,-1101.9169 179.0223,-1101.5137 180.6667,-1103.3968 180.6667,-1103.3968 180.6667,-1103.3968 179.0223,-1101.5137 178.9718,-1104.8767 177.378,-1099.6305 177.378,-1099.6305"/>
</g>
<!-- CNCCc1ccc(c(c1)O)O&#45;&gt;CNCCc1ccccc1 -->
<g id="edge101" class="edge">
<title>CNCCc1ccc(c(c1)O)O&#45;&gt;CNCCc1ccccc1</title>
<path fill="none" stroke="#000000" d="M406.4563,-1195.2224C425.741,-1172.9245 446.624,-1148.7785 466.0881,-1126.2731"/>
<polygon fill="#000000" stroke="#000000" points="469.4513,-1122.3844 467.8824,-1127.6381 467.8159,-1124.2753 466.1805,-1126.1662 466.1805,-1126.1662 466.1805,-1126.1662 467.8159,-1124.2753 464.4787,-1124.6944 469.4513,-1122.3844 469.4513,-1122.3844"/>
</g>
<!-- CCc1ccccc1&#45;&gt;CCCC=CC -->
<g id="edge106" class="edge">
<title>CCc1ccccc1&#45;&gt;CCCC=CC</title>
<path fill="none" stroke="#000000" d="M598.7074,-779.8712C620.5677,-758.4268 645.5613,-733.9086 667.5804,-712.3084"/>
<polygon fill="#000000" stroke="#000000" points="671.3708,-708.59 669.3771,-713.6977 669.5861,-710.3408 667.8015,-712.0915 667.8015,-712.0915 667.8015,-712.0915 669.5861,-710.3408 666.2258,-710.4853 671.3708,-708.59 671.3708,-708.59"/>
</g>
<!-- CCc1ccccc1&#45;&gt;c1ccccc1 -->
<g id="edge104" class="edge">
<title>CCc1ccccc1&#45;&gt;c1ccccc1</title>
<path fill="none" stroke="#000000" d="M485.4046,-770.8452C471.0378,-754.4324 455.5932,-736.7884 441.1967,-720.3418"/>
<polygon fill="#000000" stroke="#000000" points="437.5605,-716.1877 442.5468,-718.468 439.2071,-718.0689 440.8538,-719.95 440.8538,-719.95 440.8538,-719.95 439.2071,-718.0689 439.1607,-721.432 437.5605,-716.1877 437.5605,-716.1877"/>
</g>
<!-- CCc1ccccc1&#45;&gt;CCC(=CC)C -->
<g id="edge105" class="edge">
<title>CCc1ccccc1&#45;&gt;CCC(=CC)C</title>
<path fill="none" stroke="#000000" d="M542,-751.8549C542,-739.025 542,-726.0163 542,-713.8731"/>
<polygon fill="#000000" stroke="#000000" points="542,-708.7249 544.2501,-713.7249 542,-711.2249 542.0001,-713.7249 542.0001,-713.7249 542.0001,-713.7249 542,-711.2249 539.7501,-713.725 542,-708.7249 542,-708.7249"/>
</g>
<!-- CCc1ccc(cc1)O&#45;&gt;Oc1ccccc1 -->
<g id="edge108" class="edge">
<title>CCc1ccc(cc1)O&#45;&gt;Oc1ccccc1</title>
<path fill="none" stroke="#000000" d="M174.9348,-977.318C193.2177,-955.3568 214.0039,-930.3888 232.9858,-907.588"/>
<polygon fill="#000000" stroke="#000000" points="236.2613,-903.6536 234.7914,-908.9359 234.6617,-905.5749 233.0622,-907.4963 233.0622,-907.4963 233.0622,-907.4963 234.6617,-905.5749 231.333,-906.0567 236.2613,-903.6536 236.2613,-903.6536"/>
</g>
<!-- CCc1ccc(cc1)O&#45;&gt;CCc1ccccc1 -->
<g id="edge107" class="edge">
<title>CCc1ccc(cc1)O&#45;&gt;CCc1ccccc1</title>
<path fill="none" stroke="#000000" d="M192.3724,-977.3246C203.7618,-969.0197 215.8405,-961.2275 228,-955 281.3609,-927.6709 301.6432,-939.4495 358,-919 399.8158,-903.8268 445.352,-883.1978 480.6628,-866.2408"/>
<polygon fill="#000000" stroke="#000000" points="485.3559,-863.9798 481.828,-868.177 483.1036,-865.0649 480.8514,-866.15 480.8514,-866.15 480.8514,-866.15 483.1036,-865.0649 479.8748,-864.1229 485.3559,-863.9798 485.3559,-863.9798"/>
</g>
<!-- CNCCc1ccccc1&#45;&gt;CCc1ccccc1 -->
<g id="edge109" class="edge">
<title>CNCCc1ccccc1&#45;&gt;CCc1ccccc1</title>
<path fill="none" stroke="#000000" d="M542,-954.7601C542,-944.7157 542,-934.4317 542,-924.3183"/>
<polygon fill="#000000" stroke="#000000" points="542,-919.0474 544.2501,-924.0474 542,-921.5474 542.0001,-924.0474 542.0001,-924.0474 542.0001,-924.0474 542,-921.5474 539.7501,-924.0475 542,-919.0474 542,-919.0474"/>
</g>
</g>
</svg>
