<?xml version="1.0" encoding="UTF-8" standalone="no"?>
<!DOCTYPE svg PUBLIC "-//W3C//DTD SVG 1.1//EN"
 "http://www.w3.org/Graphics/SVG/1.1/DTD/svg11.dtd">
<!-- Generated by graphviz version 2.40.1 (20161225.0304)
 -->
<!-- Title: %3 Pages: 1 -->
<svg width="844pt" height="476pt"
 viewBox="0.00 0.00 844.14 476.00" xmlns="http://www.w3.org/2000/svg" xmlns:xlink="http://www.w3.org/1999/xlink">
<g id="graph0" class="graph" transform="scale(1 1) rotate(0) translate(4 472)">
<title>%3</title>
<polygon fill="#ffffff" stroke="transparent" points="-4,4 -4,-472 840.1413,-472 840.1413,4 -4,4"/>
<!-- epinephrine -->
<g id="node1" class="node">
<title>epinephrine</title>
<ellipse fill="#ffd700" stroke="#000000" cx="784.1459" cy="-306" rx="51.9908" ry="18"/>
<text text-anchor="middle" x="784.1459" y="-302.3" font-family="Times,serif" font-size="14.00" fill="#000000">epinephrine</text>
</g>
<!-- ehinpr -->
<g id="node16" class="node">
<title>ehinpr</title>
<ellipse fill="none" stroke="#000000" cx="724.1459" cy="-234" rx="33.2948" ry="18"/>
<text text-anchor="middle" x="724.1459" y="-230.3" font-family="Times,serif" font-size="14.00" fill="#000000">ehinpr</text>
</g>
<!-- epinephrine&#45;&gt;ehinpr -->
<g id="edge8" class="edge">
<title>epinephrine&#45;&gt;ehinpr</title>
<path fill="none" stroke="#000000" d="M769.6216,-288.5708C761.0963,-278.3405 750.275,-265.3549 741.3273,-254.6177"/>
<polygon fill="#000000" stroke="#000000" points="738.1233,-250.7729 743.0528,-253.1736 739.7238,-252.6935 741.3243,-254.614 741.3243,-254.614 741.3243,-254.614 739.7238,-252.6935 739.5958,-256.0545 738.1233,-250.7729 738.1233,-250.7729"/>
</g>
<!-- melatonin -->
<g id="node2" class="node">
<title>melatonin</title>
<ellipse fill="#ffd700" stroke="#000000" cx="46.1459" cy="-378" rx="46.2923" ry="18"/>
<text text-anchor="middle" x="46.1459" y="-374.3" font-family="Times,serif" font-size="14.00" fill="#000000">melatonin</text>
</g>
<!-- aeimno -->
<g id="node12" class="node">
<title>aeimno</title>
<ellipse fill="none" stroke="#000000" cx="156.1459" cy="-306" rx="37.0935" ry="18"/>
<text text-anchor="middle" x="156.1459" y="-302.3" font-family="Times,serif" font-size="14.00" fill="#000000">aeimno</text>
</g>
<!-- melatonin&#45;&gt;aeimno -->
<g id="edge9" class="edge">
<title>melatonin&#45;&gt;aeimno</title>
<path fill="none" stroke="#000000" d="M70.0143,-362.3771C87.4895,-350.9387 111.2168,-335.4081 129.3431,-323.5436"/>
<polygon fill="#000000" stroke="#000000" points="133.8236,-320.6109 130.8724,-325.2319 131.7319,-321.9801 129.6401,-323.3493 129.6401,-323.3493 129.6401,-323.3493 131.7319,-321.9801 128.4079,-321.4667 133.8236,-320.6109 133.8236,-320.6109"/>
</g>
<!-- einot -->
<g id="node17" class="node">
<title>einot</title>
<ellipse fill="none" stroke="#000000" cx="203.1459" cy="-234" rx="28.6953" ry="18"/>
<text text-anchor="middle" x="203.1459" y="-230.3" font-family="Times,serif" font-size="14.00" fill="#000000">einot</text>
</g>
<!-- melatonin&#45;&gt;einot -->
<g id="edge10" class="edge">
<title>melatonin&#45;&gt;einot</title>
<path fill="none" stroke="#000000" d="M55.7964,-360.0487C66.9407,-340.5424 86.7707,-309.3162 110.1459,-288 129.3496,-270.4878 155.1668,-256.054 174.7271,-246.5287"/>
<polygon fill="#000000" stroke="#000000" points="179.5574,-244.2139 176.0208,-248.4038 177.3029,-245.2943 175.0484,-246.3748 175.0484,-246.3748 175.0484,-246.3748 177.3029,-245.2943 174.076,-244.3457 179.5574,-244.2139 179.5574,-244.2139"/>
</g>
<!-- norepinephrine -->
<g id="node3" class="node">
<title>norepinephrine</title>
<ellipse fill="#ffd700" stroke="#000000" cx="642.1459" cy="-378" rx="63.8893" ry="18"/>
<text text-anchor="middle" x="642.1459" y="-374.3" font-family="Times,serif" font-size="14.00" fill="#000000">norepinephrine</text>
</g>
<!-- ehinopr -->
<g id="node15" class="node">
<title>ehinopr</title>
<ellipse fill="none" stroke="#000000" cx="638.1459" cy="-306" rx="37.8943" ry="18"/>
<text text-anchor="middle" x="638.1459" y="-302.3" font-family="Times,serif" font-size="14.00" fill="#000000">ehinopr</text>
</g>
<!-- norepinephrine&#45;&gt;ehinopr -->
<g id="edge20" class="edge">
<title>norepinephrine&#45;&gt;ehinopr</title>
<path fill="none" stroke="#000000" d="M641.1365,-359.8314C640.6241,-350.6078 639.9956,-339.295 639.4473,-329.4246"/>
<polygon fill="#000000" stroke="#000000" points="639.1689,-324.4133 641.6928,-329.2807 639.3076,-326.9094 639.4463,-329.4056 639.4463,-329.4056 639.4463,-329.4056 639.3076,-326.9094 637.1998,-329.5304 639.1689,-324.4133 639.1689,-324.4133"/>
</g>
<!-- triiodothyronine -->
<g id="node4" class="node">
<title>triiodothyronine</title>
<ellipse fill="#ffd700" stroke="#000000" cx="264.1459" cy="-450" rx="67.6881" ry="18"/>
<text text-anchor="middle" x="264.1459" y="-446.3" font-family="Times,serif" font-size="14.00" fill="#000000">triiodothyronine</text>
</g>
<!-- dehinorty -->
<g id="node11" class="node">
<title>dehinorty</title>
<ellipse fill="none" stroke="#000000" cx="264.1459" cy="-378" rx="44.393" ry="18"/>
<text text-anchor="middle" x="264.1459" y="-374.3" font-family="Times,serif" font-size="14.00" fill="#000000">dehinorty</text>
</g>
<!-- triiodothyronine&#45;&gt;dehinorty -->
<g id="edge29" class="edge">
<title>triiodothyronine&#45;&gt;dehinorty</title>
<path fill="none" stroke="#000000" d="M264.1459,-431.8314C264.1459,-422.6078 264.1459,-411.295 264.1459,-401.4246"/>
<polygon fill="#000000" stroke="#000000" points="264.1459,-396.4133 266.396,-401.4132 264.146,-398.9133 264.146,-401.4133 264.146,-401.4133 264.146,-401.4133 264.146,-398.9133 261.896,-401.4133 264.1459,-396.4133 264.1459,-396.4133"/>
</g>
<!-- thyroxine -->
<g id="node5" class="node">
<title>thyroxine</title>
<ellipse fill="#ffd700" stroke="#000000" cx="370.1459" cy="-378" rx="44.393" ry="18"/>
<text text-anchor="middle" x="370.1459" y="-374.3" font-family="Times,serif" font-size="14.00" fill="#000000">thyroxine</text>
</g>
<!-- ehinorty -->
<g id="node19" class="node">
<title>ehinorty</title>
<ellipse fill="none" stroke="#000000" cx="366.1459" cy="-306" rx="40.0939" ry="18"/>
<text text-anchor="middle" x="366.1459" y="-302.3" font-family="Times,serif" font-size="14.00" fill="#000000">ehinorty</text>
</g>
<!-- thyroxine&#45;&gt;ehinorty -->
<g id="edge12" class="edge">
<title>thyroxine&#45;&gt;ehinorty</title>
<path fill="none" stroke="#000000" d="M369.1365,-359.8314C368.6241,-350.6078 367.9956,-339.295 367.4473,-329.4246"/>
<polygon fill="#000000" stroke="#000000" points="367.1689,-324.4133 369.6928,-329.2807 367.3076,-326.9094 367.4463,-329.4056 367.4463,-329.4056 367.4463,-329.4056 367.3076,-326.9094 365.1998,-329.5304 367.1689,-324.4133 367.1689,-324.4133"/>
</g>
<!-- dopamine -->
<g id="node6" class="node">
<title>dopamine</title>
<ellipse fill="#ffd700" stroke="#000000" cx="156.1459" cy="-378" rx="46.2923" ry="18"/>
<text text-anchor="middle" x="156.1459" y="-374.3" font-family="Times,serif" font-size="14.00" fill="#000000">dopamine</text>
</g>
<!-- dopamine&#45;&gt;aeimno -->
<g id="edge3" class="edge">
<title>dopamine&#45;&gt;aeimno</title>
<path fill="none" stroke="#000000" d="M156.1459,-359.8314C156.1459,-350.6078 156.1459,-339.295 156.1459,-329.4246"/>
<polygon fill="#000000" stroke="#000000" points="156.1459,-324.4133 158.396,-329.4132 156.146,-326.9133 156.146,-329.4133 156.146,-329.4133 156.146,-329.4133 156.146,-326.9133 153.896,-329.4133 156.1459,-324.4133 156.1459,-324.4133"/>
</g>
<!-- deino -->
<g id="node13" class="node">
<title>deino</title>
<ellipse fill="none" stroke="#000000" cx="260.1459" cy="-306" rx="30.5947" ry="18"/>
<text text-anchor="middle" x="260.1459" y="-302.3" font-family="Times,serif" font-size="14.00" fill="#000000">deino</text>
</g>
<!-- dopamine&#45;&gt;deino -->
<g id="edge4" class="edge">
<title>dopamine&#45;&gt;deino</title>
<path fill="none" stroke="#000000" d="M178.9691,-362.1993C195.8364,-350.5219 218.7593,-334.6522 235.9447,-322.7547"/>
<polygon fill="#000000" stroke="#000000" points="240.1831,-319.8204 237.3529,-324.5164 238.1276,-321.2435 236.0721,-322.6665 236.0721,-322.6665 236.0721,-322.6665 238.1276,-321.2435 234.7914,-320.8166 240.1831,-319.8204 240.1831,-319.8204"/>
</g>
<!-- eimnop -->
<g id="node14" class="node">
<title>eimnop</title>
<ellipse fill="none" stroke="#000000" cx="462.1459" cy="-306" rx="37.8943" ry="18"/>
<text text-anchor="middle" x="462.1459" y="-302.3" font-family="Times,serif" font-size="14.00" fill="#000000">eimnop</text>
</g>
<!-- dopamine&#45;&gt;eimnop -->
<g id="edge5" class="edge">
<title>dopamine&#45;&gt;eimnop</title>
<path fill="none" stroke="#000000" d="M190.5486,-365.9149C197.3261,-363.7689 204.4213,-361.6847 211.1459,-360 300.4534,-337.6256 326.419,-348.5759 415.1459,-324 419.5983,-322.7668 424.2165,-321.2751 428.7421,-319.6843"/>
<polygon fill="#000000" stroke="#000000" points="433.6042,-317.9268 429.6668,-321.7426 431.2531,-318.7767 428.902,-319.6266 428.902,-319.6266 428.902,-319.6266 431.2531,-318.7767 428.1371,-317.5106 433.6042,-317.9268 433.6042,-317.9268"/>
</g>
<!-- morphine -->
<g id="node7" class="node">
<title>morphine</title>
<ellipse fill="#ffd700" stroke="#000000" cx="477.1459" cy="-378" rx="44.6926" ry="18"/>
<text text-anchor="middle" x="477.1459" y="-374.3" font-family="Times,serif" font-size="14.00" fill="#000000">morphine</text>
</g>
<!-- morphine&#45;&gt;eimnop -->
<g id="edge6" class="edge">
<title>morphine&#45;&gt;eimnop</title>
<path fill="none" stroke="#000000" d="M473.3608,-359.8314C471.4096,-350.4659 469.0097,-338.9464 466.9313,-328.9701"/>
<polygon fill="#000000" stroke="#000000" points="465.8779,-323.9134 469.1004,-328.3494 466.3878,-326.3609 466.8977,-328.8083 466.8977,-328.8083 466.8977,-328.8083 466.3878,-326.3609 464.695,-329.2672 465.8779,-323.9134 465.8779,-323.9134"/>
</g>
<!-- morphine&#45;&gt;ehinopr -->
<g id="edge7" class="edge">
<title>morphine&#45;&gt;ehinopr</title>
<path fill="none" stroke="#000000" d="M507.4288,-364.4574C535.4139,-351.9423 576.8802,-333.3983 605.5726,-320.5669"/>
<polygon fill="#000000" stroke="#000000" points="610.4189,-318.3996 606.7731,-322.4949 608.1367,-319.4203 605.8545,-320.4409 605.8545,-320.4409 605.8545,-320.4409 608.1367,-319.4203 604.936,-318.3869 610.4189,-318.3996 610.4189,-318.3996"/>
</g>
<!-- progesterone -->
<g id="node8" class="node">
<title>progesterone</title>
<ellipse fill="#ffd700" stroke="#000000" cx="780.1459" cy="-378" rx="55.7903" ry="18"/>
<text text-anchor="middle" x="780.1459" y="-374.3" font-family="Times,serif" font-size="14.00" fill="#000000">progesterone</text>
</g>
<!-- enorst -->
<g id="node10" class="node">
<title>enorst</title>
<ellipse fill="none" stroke="#000000" cx="550.1459" cy="-306" rx="32.4942" ry="18"/>
<text text-anchor="middle" x="550.1459" y="-302.3" font-family="Times,serif" font-size="14.00" fill="#000000">enorst</text>
</g>
<!-- progesterone&#45;&gt;enorst -->
<g id="edge23" class="edge">
<title>progesterone&#45;&gt;enorst</title>
<path fill="none" stroke="#000000" d="M737.8054,-366.2301C686.4618,-351.9064 605.0305,-329.0054 591.1459,-324 587.4436,-322.6653 583.6023,-321.1546 579.8216,-319.5897"/>
<polygon fill="#000000" stroke="#000000" points="575.0803,-317.5876 580.5617,-317.4599 577.3834,-318.5602 579.6865,-319.5327 579.6865,-319.5327 579.6865,-319.5327 577.3834,-318.5602 578.8112,-321.6055 575.0803,-317.5876 575.0803,-317.5876"/>
</g>
<!-- enopr -->
<g id="node28" class="node">
<title>enopr</title>
<ellipse fill="none" stroke="#000000" cx="642.1459" cy="-234" rx="30.5947" ry="18"/>
<text text-anchor="middle" x="642.1459" y="-230.3" font-family="Times,serif" font-size="14.00" fill="#000000">enopr</text>
</g>
<!-- progesterone&#45;&gt;enopr -->
<g id="edge24" class="edge">
<title>progesterone&#45;&gt;enopr</title>
<path fill="none" stroke="#000000" d="M761.3033,-360.855C750.0209,-350.4166 735.5153,-336.6897 723.1459,-324 700.5012,-300.7689 675.7218,-272.8394 659.6111,-254.3189"/>
<polygon fill="#000000" stroke="#000000" points="656.1092,-250.2844 661.0859,-252.5855 657.7479,-252.1724 659.3867,-254.0604 659.3867,-254.0604 659.3867,-254.0604 657.7479,-252.1724 657.6875,-255.5352 656.1092,-250.2844 656.1092,-250.2844"/>
</g>
<!-- dihydrotestosterone -->
<g id="node9" class="node">
<title>dihydrotestosterone</title>
<ellipse fill="#ffd700" stroke="#000000" cx="490.1459" cy="-450" rx="79.8859" ry="18"/>
<text text-anchor="middle" x="490.1459" y="-446.3" font-family="Times,serif" font-size="14.00" fill="#000000">dihydrotestosterone</text>
</g>
<!-- dihydrotestosterone&#45;&gt;enorst -->
<g id="edge1" class="edge">
<title>dihydrotestosterone&#45;&gt;enorst</title>
<path fill="none" stroke="#000000" d="M506.7668,-432.3231C515.2691,-422.3593 525.0781,-409.2751 531.1459,-396 540.9157,-374.6258 545.7318,-348.0842 548.061,-329.3796"/>
<polygon fill="#000000" stroke="#000000" points="548.654,-324.3226 550.3062,-329.5507 548.3628,-326.8056 548.0716,-329.2886 548.0716,-329.2886 548.0716,-329.2886 548.3628,-326.8056 545.8369,-329.0265 548.654,-324.3226 548.654,-324.3226"/>
</g>
<!-- dihydrotestosterone&#45;&gt;dehinorty -->
<g id="edge2" class="edge">
<title>dihydrotestosterone&#45;&gt;dehinorty</title>
<path fill="none" stroke="#000000" d="M442.3147,-435.4195C407.5246,-424.7294 359.3274,-409.7438 317.1459,-396 312.5031,-394.4872 307.6408,-392.8748 302.8242,-391.2602"/>
<polygon fill="#000000" stroke="#000000" points="298.0327,-389.6484 303.4891,-389.11 300.4022,-390.4455 302.7717,-391.2426 302.7717,-391.2426 302.7717,-391.2426 300.4022,-390.4455 302.0543,-393.3752 298.0327,-389.6484 298.0327,-389.6484"/>
</g>
<!-- enort -->
<g id="node23" class="node">
<title>enort</title>
<ellipse fill="none" stroke="#000000" cx="401.1459" cy="-234" rx="28.6953" ry="18"/>
<text text-anchor="middle" x="401.1459" y="-230.3" font-family="Times,serif" font-size="14.00" fill="#000000">enort</text>
</g>
<!-- enorst&#45;&gt;enort -->
<g id="edge30" class="edge">
<title>enorst&#45;&gt;enort</title>
<path fill="none" stroke="#000000" d="M525.5416,-294.1107C498.819,-281.1977 456.2453,-260.6252 428.4932,-247.2148"/>
<polygon fill="#000000" stroke="#000000" points="423.8315,-244.9622 429.3124,-245.1118 426.0825,-246.0499 428.3335,-247.1377 428.3335,-247.1377 428.3335,-247.1377 426.0825,-246.0499 427.3545,-249.1635 423.8315,-244.9622 423.8315,-244.9622"/>
</g>
<!-- dehinorty&#45;&gt;deino -->
<g id="edge52" class="edge">
<title>dehinorty&#45;&gt;deino</title>
<path fill="none" stroke="#000000" d="M263.1365,-359.8314C262.6241,-350.6078 261.9956,-339.295 261.4473,-329.4246"/>
<polygon fill="#000000" stroke="#000000" points="261.1689,-324.4133 263.6928,-329.2807 261.3076,-326.9094 261.4463,-329.4056 261.4463,-329.4056 261.4463,-329.4056 261.3076,-326.9094 259.1998,-329.5304 261.1689,-324.4133 261.1689,-324.4133"/>
</g>
<!-- dehinorty&#45;&gt;ehinorty -->
<g id="edge53" class="edge">
<title>dehinorty&#45;&gt;ehinorty</title>
<path fill="none" stroke="#000000" d="M286.2784,-362.3771C302.1586,-351.1675 323.6066,-336.0277 340.2778,-324.2598"/>
<polygon fill="#000000" stroke="#000000" points="344.407,-321.3451 341.6197,-326.0667 342.3646,-322.7868 340.3222,-324.2285 340.3222,-324.2285 340.3222,-324.2285 342.3646,-322.7868 339.0246,-322.3904 344.407,-321.3451 344.407,-321.3451"/>
</g>
<!-- eimno -->
<g id="node21" class="node">
<title>eimno</title>
<ellipse fill="none" stroke="#000000" cx="321.1459" cy="-234" rx="33.2948" ry="18"/>
<text text-anchor="middle" x="321.1459" y="-230.3" font-family="Times,serif" font-size="14.00" fill="#000000">eimno</text>
</g>
<!-- aeimno&#45;&gt;eimno -->
<g id="edge36" class="edge">
<title>aeimno&#45;&gt;eimno</title>
<path fill="none" stroke="#000000" d="M183.7632,-293.9488C213.1971,-281.105 259.6883,-260.8178 290.3018,-247.4592"/>
<polygon fill="#000000" stroke="#000000" points="295.0737,-245.3769 291.3909,-249.4389 292.7824,-246.3768 290.491,-247.3767 290.491,-247.3767 290.491,-247.3767 292.7824,-246.3768 289.5911,-245.3145 295.0737,-245.3769 295.0737,-245.3769"/>
</g>
<!-- eino -->
<g id="node18" class="node">
<title>eino</title>
<ellipse fill="none" stroke="#000000" cx="383.1459" cy="-162" rx="27" ry="18"/>
<text text-anchor="middle" x="383.1459" y="-158.3" font-family="Times,serif" font-size="14.00" fill="#000000">eino</text>
</g>
<!-- deino&#45;&gt;eino -->
<g id="edge11" class="edge">
<title>deino&#45;&gt;eino</title>
<path fill="none" stroke="#000000" d="M259.5969,-287.9201C259.9165,-268.3011 263.2002,-236.9769 279.1459,-216 280.4606,-214.2705 326.3471,-190.7953 356.7235,-175.3719"/>
<polygon fill="#000000" stroke="#000000" points="361.4564,-172.9702 358.0158,-177.2393 359.227,-174.1016 356.9976,-175.2329 356.9976,-175.2329 356.9976,-175.2329 359.227,-174.1016 355.9794,-173.2264 361.4564,-172.9702 361.4564,-172.9702"/>
</g>
<!-- einop -->
<g id="node20" class="node">
<title>einop</title>
<ellipse fill="none" stroke="#000000" cx="563.1459" cy="-234" rx="30.5947" ry="18"/>
<text text-anchor="middle" x="563.1459" y="-230.3" font-family="Times,serif" font-size="14.00" fill="#000000">einop</text>
</g>
<!-- eimnop&#45;&gt;einop -->
<g id="edge13" class="edge">
<title>eimnop&#45;&gt;einop</title>
<path fill="none" stroke="#000000" d="M483.5654,-290.7307C499.9002,-279.086 522.3928,-263.0517 539.2991,-250.9997"/>
<polygon fill="#000000" stroke="#000000" points="543.4699,-248.0265 540.7045,-252.761 541.4341,-249.4777 539.3984,-250.9289 539.3984,-250.9289 539.3984,-250.9289 541.4341,-249.4777 538.0924,-249.0968 543.4699,-248.0265 543.4699,-248.0265"/>
</g>
<!-- eimnop&#45;&gt;eimno -->
<g id="edge14" class="edge">
<title>eimnop&#45;&gt;eimno</title>
<path fill="none" stroke="#000000" d="M436.2843,-292.7941C411.885,-280.3349 375.3676,-261.6877 350.0261,-248.7473"/>
<polygon fill="#000000" stroke="#000000" points="345.4298,-246.4003 350.9061,-246.6704 347.6563,-247.5373 349.8828,-248.6742 349.8828,-248.6742 349.8828,-248.6742 347.6563,-247.5373 348.8596,-250.6781 345.4298,-246.4003 345.4298,-246.4003"/>
</g>
<!-- ehinopr&#45;&gt;ehinpr -->
<g id="edge27" class="edge">
<title>ehinopr&#45;&gt;ehinpr</title>
<path fill="none" stroke="#000000" d="M657.2321,-290.0209C670.4167,-278.9826 687.9995,-264.2621 701.8326,-252.6809"/>
<polygon fill="#000000" stroke="#000000" points="705.9962,-249.1951 703.6068,-254.13 704.0793,-250.8 702.1624,-252.4048 702.1624,-252.4048 702.1624,-252.4048 704.0793,-250.8 700.718,-250.6796 705.9962,-249.1951 705.9962,-249.1951"/>
</g>
<!-- ehinopr&#45;&gt;einop -->
<g id="edge25" class="edge">
<title>ehinopr&#45;&gt;einop</title>
<path fill="none" stroke="#000000" d="M621.1272,-289.6621C609.8667,-278.8519 595.0518,-264.6297 583.2162,-253.2675"/>
<polygon fill="#000000" stroke="#000000" points="579.326,-249.5329 584.4912,-251.3725 581.1295,-251.2642 582.933,-252.9956 582.933,-252.9956 582.933,-252.9956 581.1295,-251.2642 581.3748,-254.6187 579.326,-249.5329 579.326,-249.5329"/>
</g>
<!-- ehinor -->
<g id="node22" class="node">
<title>ehinor</title>
<ellipse fill="none" stroke="#000000" cx="481.1459" cy="-234" rx="33.2948" ry="18"/>
<text text-anchor="middle" x="481.1459" y="-230.3" font-family="Times,serif" font-size="14.00" fill="#000000">ehinor</text>
</g>
<!-- ehinopr&#45;&gt;ehinor -->
<g id="edge26" class="edge">
<title>ehinopr&#45;&gt;ehinor</title>
<path fill="none" stroke="#000000" d="M610.7986,-293.4586C583.0599,-280.7376 540.228,-261.095 511.4664,-247.9049"/>
<polygon fill="#000000" stroke="#000000" points="506.6216,-245.6831 512.1045,-245.7223 508.8941,-246.7253 511.1665,-247.7675 511.1665,-247.7675 511.1665,-247.7675 508.8941,-246.7253 510.2286,-249.8127 506.6216,-245.6831 506.6216,-245.6831"/>
</g>
<!-- ehinopr&#45;&gt;enopr -->
<g id="edge28" class="edge">
<title>ehinopr&#45;&gt;enopr</title>
<path fill="none" stroke="#000000" d="M639.1553,-287.8314C639.6677,-278.6078 640.2962,-267.295 640.8445,-257.4246"/>
<polygon fill="#000000" stroke="#000000" points="641.1229,-252.4133 643.092,-257.5304 640.9842,-254.9094 640.8455,-257.4056 640.8455,-257.4056 640.8455,-257.4056 640.9842,-254.9094 638.599,-257.2807 641.1229,-252.4133 641.1229,-252.4133"/>
</g>
<!-- einp -->
<g id="node24" class="node">
<title>einp</title>
<ellipse fill="none" stroke="#000000" cx="677.1459" cy="-162" rx="27" ry="18"/>
<text text-anchor="middle" x="677.1459" y="-158.3" font-family="Times,serif" font-size="14.00" fill="#000000">einp</text>
</g>
<!-- ehinpr&#45;&gt;einp -->
<g id="edge38" class="edge">
<title>ehinpr&#45;&gt;einp</title>
<path fill="none" stroke="#000000" d="M713.0076,-216.937C706.4519,-206.8943 698.102,-194.103 691.109,-183.3903"/>
<polygon fill="#000000" stroke="#000000" points="688.2043,-178.9405 692.8216,-181.8975 689.5709,-181.034 690.9375,-183.1274 690.9375,-183.1274 690.9375,-183.1274 689.5709,-181.034 689.0533,-184.3573 688.2043,-178.9405 688.2043,-178.9405"/>
</g>
<!-- enpr -->
<g id="node31" class="node">
<title>enpr</title>
<ellipse fill="none" stroke="#000000" cx="749.1459" cy="-162" rx="27" ry="18"/>
<text text-anchor="middle" x="749.1459" y="-158.3" font-family="Times,serif" font-size="14.00" fill="#000000">enpr</text>
</g>
<!-- ehinpr&#45;&gt;enpr -->
<g id="edge37" class="edge">
<title>ehinpr&#45;&gt;enpr</title>
<path fill="none" stroke="#000000" d="M730.3257,-216.2022C733.6559,-206.6113 737.7982,-194.6813 741.3482,-184.4573"/>
<polygon fill="#000000" stroke="#000000" points="743.0372,-179.593 743.5226,-185.0545 742.2172,-181.9547 741.3971,-184.3164 741.3971,-184.3164 741.3971,-184.3164 742.2172,-181.9547 739.2716,-183.5783 743.0372,-179.593 743.0372,-179.593"/>
</g>
<!-- ehinr -->
<g id="node32" class="node">
<title>ehinr</title>
<ellipse fill="none" stroke="#000000" cx="603.1459" cy="-162" rx="28.6953" ry="18"/>
<text text-anchor="middle" x="603.1459" y="-158.3" font-family="Times,serif" font-size="14.00" fill="#000000">ehinr</text>
</g>
<!-- ehinpr&#45;&gt;ehinr -->
<g id="edge39" class="edge">
<title>ehinpr&#45;&gt;ehinr</title>
<path fill="none" stroke="#000000" d="M701.6703,-220.6261C680.9972,-208.3247 650.3628,-190.096 628.7527,-177.2371"/>
<polygon fill="#000000" stroke="#000000" points="624.2852,-174.5788 629.7326,-175.202 626.4336,-175.8572 628.582,-177.1356 628.582,-177.1356 628.582,-177.1356 626.4336,-175.8572 627.4315,-179.0692 624.2852,-174.5788 624.2852,-174.5788"/>
</g>
<!-- einot&#45;&gt;eino -->
<g id="edge21" class="edge">
<title>einot&#45;&gt;eino</title>
<path fill="none" stroke="#000000" d="M227.16,-223.6782C233.3216,-221.1041 239.9574,-218.3962 246.1459,-216 290.5861,-198.793 303.3089,-198.6904 347.1459,-180 350.2674,-178.6691 353.5001,-177.1954 356.6895,-175.681"/>
<polygon fill="#000000" stroke="#000000" points="361.6435,-173.2823 358.1238,-177.4865 359.3934,-174.3718 357.1432,-175.4613 357.1432,-175.4613 357.1432,-175.4613 359.3934,-174.3718 356.1627,-173.4362 361.6435,-173.2823 361.6435,-173.2823"/>
</g>
<!-- enot -->
<g id="node27" class="node">
<title>enot</title>
<ellipse fill="none" stroke="#000000" cx="311.1459" cy="-162" rx="27" ry="18"/>
<text text-anchor="middle" x="311.1459" y="-158.3" font-family="Times,serif" font-size="14.00" fill="#000000">enot</text>
</g>
<!-- einot&#45;&gt;enot -->
<g id="edge22" class="edge">
<title>einot&#45;&gt;enot</title>
<path fill="none" stroke="#000000" d="M222.9548,-220.7941C241.1845,-208.6409 268.2457,-190.6001 287.5792,-177.7111"/>
<polygon fill="#000000" stroke="#000000" points="291.826,-174.8799 288.9138,-179.5256 289.7459,-176.2667 287.6657,-177.6535 287.6657,-177.6535 287.6657,-177.6535 289.7459,-176.2667 286.4176,-175.7814 291.826,-174.8799 291.826,-174.8799"/>
</g>
<!-- ein -->
<g id="node25" class="node">
<title>ein</title>
<ellipse fill="none" stroke="#000000" cx="531.1459" cy="-90" rx="27" ry="18"/>
<text text-anchor="middle" x="531.1459" y="-86.3" font-family="Times,serif" font-size="14.00" fill="#000000">ein</text>
</g>
<!-- eino&#45;&gt;ein -->
<g id="edge34" class="edge">
<title>eino&#45;&gt;ein</title>
<path fill="none" stroke="#000000" d="M404.8229,-151.0985C409.5382,-148.7447 414.5044,-146.2792 419.1459,-144 448.0896,-129.7875 481.3886,-113.7756 504.1059,-102.9031"/>
<polygon fill="#000000" stroke="#000000" points="508.7875,-100.6636 505.248,-104.851 506.5323,-101.7424 504.2771,-102.8213 504.2771,-102.8213 504.2771,-102.8213 506.5323,-101.7424 503.3061,-100.7916 508.7875,-100.6636 508.7875,-100.6636"/>
</g>
<!-- eno -->
<g id="node30" class="node">
<title>eno</title>
<ellipse fill="none" stroke="#000000" cx="455.1459" cy="-90" rx="27" ry="18"/>
<text text-anchor="middle" x="455.1459" y="-86.3" font-family="Times,serif" font-size="14.00" fill="#000000">eno</text>
</g>
<!-- eino&#45;&gt;eno -->
<g id="edge35" class="edge">
<title>eino&#45;&gt;eno</title>
<path fill="none" stroke="#000000" d="M398.4153,-146.7307C409.4884,-135.6575 424.531,-120.6149 436.3441,-108.8018"/>
<polygon fill="#000000" stroke="#000000" points="439.8986,-105.2473 437.954,-110.3739 438.1308,-107.0151 436.363,-108.7829 436.363,-108.7829 436.363,-108.7829 438.1308,-107.0151 434.772,-107.1919 439.8986,-105.2473 439.8986,-105.2473"/>
</g>
<!-- ehinorty&#45;&gt;einot -->
<g id="edge17" class="edge">
<title>ehinorty&#45;&gt;einot</title>
<path fill="none" stroke="#000000" d="M337.38,-293.2936C307.45,-280.073 260.8917,-259.5074 231.2208,-246.4012"/>
<polygon fill="#000000" stroke="#000000" points="226.6089,-244.364 232.0918,-244.3262 228.8958,-245.3742 231.1826,-246.3844 231.1826,-246.3844 231.1826,-246.3844 228.8958,-245.3742 230.2735,-248.4425 226.6089,-244.364 226.6089,-244.364"/>
</g>
<!-- ehinorty&#45;&gt;ehinor -->
<g id="edge15" class="edge">
<title>ehinorty&#45;&gt;ehinor</title>
<path fill="none" stroke="#000000" d="M389.6954,-291.256C408.6339,-279.3988 435.2279,-262.7487 454.8582,-250.4584"/>
<polygon fill="#000000" stroke="#000000" points="459.1863,-247.7486 456.1424,-252.3091 457.0673,-249.0753 454.9484,-250.402 454.9484,-250.402 454.9484,-250.402 457.0673,-249.0753 453.7543,-248.4949 459.1863,-247.7486 459.1863,-247.7486"/>
</g>
<!-- ehinorty&#45;&gt;enort -->
<g id="edge16" class="edge">
<title>ehinorty&#45;&gt;enort</title>
<path fill="none" stroke="#000000" d="M374.7976,-288.2022C379.5373,-278.4519 385.4522,-266.2841 390.4763,-255.9489"/>
<polygon fill="#000000" stroke="#000000" points="392.7145,-251.3446 392.5521,-256.8251 391.6215,-253.593 390.5285,-255.8414 390.5285,-255.8414 390.5285,-255.8414 391.6215,-253.593 388.5049,-254.8577 392.7145,-251.3446 392.7145,-251.3446"/>
</g>
<!-- einop&#45;&gt;eino -->
<g id="edge31" class="edge">
<title>einop&#45;&gt;eino</title>
<path fill="none" stroke="#000000" d="M539.1818,-222.7965C533.935,-220.4615 528.3832,-218.08 523.1459,-216 477.6867,-197.9458 464.2274,-198.9776 419.1459,-180 416.0183,-178.6834 412.7819,-177.2186 409.5904,-175.7092"/>
<polygon fill="#000000" stroke="#000000" points="404.6343,-173.3154 410.1153,-173.464 406.8855,-174.4027 409.1367,-175.4901 409.1367,-175.4901 409.1367,-175.4901 406.8855,-174.4027 408.1581,-177.5161 404.6343,-173.3154 404.6343,-173.3154"/>
</g>
<!-- einop&#45;&gt;einp -->
<g id="edge32" class="edge">
<title>einop&#45;&gt;einp</title>
<path fill="none" stroke="#000000" d="M584.0553,-220.7941C603.6187,-208.4383 632.8177,-189.9968 653.284,-177.0707"/>
<polygon fill="#000000" stroke="#000000" points="657.5121,-174.4003 654.4862,-178.9727 655.3984,-175.7353 653.2847,-177.0703 653.2847,-177.0703 653.2847,-177.0703 655.3984,-175.7353 652.0832,-175.1679 657.5121,-174.4003 657.5121,-174.4003"/>
</g>
<!-- enop -->
<g id="node29" class="node">
<title>enop</title>
<ellipse fill="none" stroke="#000000" cx="528.1459" cy="-162" rx="27.8951" ry="18"/>
<text text-anchor="middle" x="528.1459" y="-158.3" font-family="Times,serif" font-size="14.00" fill="#000000">enop</text>
</g>
<!-- einop&#45;&gt;enop -->
<g id="edge33" class="edge">
<title>einop&#45;&gt;enop</title>
<path fill="none" stroke="#000000" d="M554.6734,-216.5708C549.9014,-206.7541 543.8961,-194.4003 538.8066,-183.9306"/>
<polygon fill="#000000" stroke="#000000" points="536.5404,-179.2687 540.75,-182.7818 537.6334,-181.5171 538.7264,-183.7655 538.7264,-183.7655 538.7264,-183.7655 537.6334,-181.5171 536.7028,-184.7492 536.5404,-179.2687 536.5404,-179.2687"/>
</g>
<!-- eimno&#45;&gt;eino -->
<g id="edge44" class="edge">
<title>eimno&#45;&gt;eino</title>
<path fill="none" stroke="#000000" d="M335.2147,-217.6621C344.3788,-207.0198 356.3906,-193.0707 366.0968,-181.799"/>
<polygon fill="#000000" stroke="#000000" points="369.5589,-177.7784 368.0013,-183.0355 367.9276,-179.6729 366.2963,-181.5673 366.2963,-181.5673 366.2963,-181.5673 367.9276,-179.6729 364.5913,-180.0991 369.5589,-177.7784 369.5589,-177.7784"/>
</g>
<!-- ehinor&#45;&gt;eino -->
<g id="edge48" class="edge">
<title>ehinor&#45;&gt;eino</title>
<path fill="none" stroke="#000000" d="M461.3141,-219.4297C445.1243,-207.5352 422.2551,-190.7333 405.4341,-178.375"/>
<polygon fill="#000000" stroke="#000000" points="401.2956,-175.3345 406.6572,-176.4816 403.3103,-176.8147 405.325,-178.2949 405.325,-178.2949 405.325,-178.2949 403.3103,-176.8147 403.9928,-180.1081 401.2956,-175.3345 401.2956,-175.3345"/>
</g>
<!-- ehinor&#45;&gt;ehinr -->
<g id="edge50" class="edge">
<title>ehinor&#45;&gt;ehinr</title>
<path fill="none" stroke="#000000" d="M503.8073,-220.6261C524.7799,-208.2488 555.9205,-189.8707 577.7299,-176.9996"/>
<polygon fill="#000000" stroke="#000000" points="582.2351,-174.3408 579.0727,-178.8198 580.0821,-175.6114 577.9291,-176.8821 577.9291,-176.8821 577.9291,-176.8821 580.0821,-175.6114 576.7855,-174.9444 582.2351,-174.3408 582.2351,-174.3408"/>
</g>
<!-- enor -->
<g id="node34" class="node">
<title>enor</title>
<ellipse fill="none" stroke="#000000" cx="455.1459" cy="-162" rx="27" ry="18"/>
<text text-anchor="middle" x="455.1459" y="-158.3" font-family="Times,serif" font-size="14.00" fill="#000000">enor</text>
</g>
<!-- ehinor&#45;&gt;enor -->
<g id="edge49" class="edge">
<title>ehinor&#45;&gt;enor</title>
<path fill="none" stroke="#000000" d="M474.7189,-216.2022C471.2555,-206.6113 466.9475,-194.6813 463.2555,-184.4573"/>
<polygon fill="#000000" stroke="#000000" points="461.4989,-179.593 465.3135,-183.5316 462.3481,-181.9444 463.1972,-184.2958 463.1972,-184.2958 463.1972,-184.2958 462.3481,-181.9444 461.081,-185.06 461.4989,-179.593 461.4989,-179.593"/>
</g>
<!-- enort&#45;&gt;enot -->
<g id="edge42" class="edge">
<title>enort&#45;&gt;enot</title>
<path fill="none" stroke="#000000" d="M383.3648,-219.7751C368.8489,-208.1624 348.2802,-191.7074 332.8045,-179.3268"/>
<polygon fill="#000000" stroke="#000000" points="328.5838,-175.9503 333.8938,-177.3169 330.536,-177.5121 332.4882,-179.0738 332.4882,-179.0738 332.4882,-179.0738 330.536,-177.5121 331.0826,-180.8308 328.5838,-175.9503 328.5838,-175.9503"/>
</g>
<!-- enort&#45;&gt;enor -->
<g id="edge41" class="edge">
<title>enort&#45;&gt;enor</title>
<path fill="none" stroke="#000000" d="M413.3993,-217.6621C421.2011,-207.2597 431.3726,-193.6978 439.7221,-182.5651"/>
<polygon fill="#000000" stroke="#000000" points="442.941,-178.2733 441.7409,-183.6233 441.4409,-180.2733 439.9409,-182.2733 439.9409,-182.2733 439.9409,-182.2733 441.4409,-180.2733 438.1409,-180.9233 442.941,-178.2733 442.941,-178.2733"/>
</g>
<!-- einp&#45;&gt;ein -->
<g id="edge18" class="edge">
<title>einp&#45;&gt;ein</title>
<path fill="none" stroke="#000000" d="M655.4629,-151.1108C650.7479,-148.7563 645.7834,-146.2873 641.1459,-144 608.3445,-127.8215 599.9474,-124.1785 567.1459,-108 563.9576,-106.4275 560.6148,-104.7691 557.3047,-103.121"/>
<polygon fill="#000000" stroke="#000000" points="552.8289,-100.8892 558.3076,-101.1069 555.0662,-102.0048 557.3035,-103.1205 557.3035,-103.1205 557.3035,-103.1205 555.0662,-102.0048 556.2994,-105.134 552.8289,-100.8892 552.8289,-100.8892"/>
</g>
<!-- enp -->
<g id="node26" class="node">
<title>enp</title>
<ellipse fill="none" stroke="#000000" cx="676.1459" cy="-90" rx="27" ry="18"/>
<text text-anchor="middle" x="676.1459" y="-86.3" font-family="Times,serif" font-size="14.00" fill="#000000">enp</text>
</g>
<!-- einp&#45;&gt;enp -->
<g id="edge19" class="edge">
<title>einp&#45;&gt;enp</title>
<path fill="none" stroke="#000000" d="M676.8936,-143.8314C676.7655,-134.6078 676.6083,-123.295 676.4712,-113.4246"/>
<polygon fill="#000000" stroke="#000000" points="676.4016,-108.4133 678.721,-113.3815 676.4364,-110.913 676.4712,-113.4128 676.4712,-113.4128 676.4712,-113.4128 676.4364,-110.913 674.2214,-113.4441 676.4016,-108.4133 676.4016,-108.4133"/>
</g>
<!-- en -->
<g id="node33" class="node">
<title>en</title>
<ellipse fill="none" stroke="#000000" cx="567.1459" cy="-18" rx="27" ry="18"/>
<text text-anchor="middle" x="567.1459" y="-14.3" font-family="Times,serif" font-size="14.00" fill="#000000">en</text>
</g>
<!-- ein&#45;&gt;en -->
<g id="edge59" class="edge">
<title>ein&#45;&gt;en</title>
<path fill="none" stroke="#000000" d="M539.8605,-72.5708C544.7689,-62.7541 550.9457,-50.4003 556.1806,-39.9306"/>
<polygon fill="#000000" stroke="#000000" points="558.5116,-35.2687 558.2879,-40.7471 557.3935,-37.5048 556.2754,-39.7408 556.2754,-39.7408 556.2754,-39.7408 557.3935,-37.5048 554.263,-38.7346 558.5116,-35.2687 558.5116,-35.2687"/>
</g>
<!-- enp&#45;&gt;en -->
<g id="edge40" class="edge">
<title>enp&#45;&gt;en</title>
<path fill="none" stroke="#000000" d="M656.9098,-77.2936C638.5003,-65.1332 610.6832,-46.7586 590.8997,-33.6905"/>
<polygon fill="#000000" stroke="#000000" points="586.5563,-30.8216 591.9685,-31.7 588.6424,-32.1995 590.7284,-33.5774 590.7284,-33.5774 590.7284,-33.5774 588.6424,-32.1995 589.4882,-35.4548 586.5563,-30.8216 586.5563,-30.8216"/>
</g>
<!-- enot&#45;&gt;eno -->
<g id="edge43" class="edge">
<title>enot&#45;&gt;eno</title>
<path fill="none" stroke="#000000" d="M333.0164,-151.0647C358.7505,-138.1977 401.4461,-116.8499 428.9304,-103.1078"/>
<polygon fill="#000000" stroke="#000000" points="433.5414,-100.8022 430.0755,-105.0508 431.3053,-101.9203 429.0693,-103.0384 429.0693,-103.0384 429.0693,-103.0384 431.3053,-101.9203 428.063,-101.0259 433.5414,-100.8022 433.5414,-100.8022"/>
</g>
<!-- enopr&#45;&gt;enop -->
<g id="edge58" class="edge">
<title>enopr&#45;&gt;enop</title>
<path fill="none" stroke="#000000" d="M621.2365,-220.7941C601.8745,-208.5654 573.0742,-190.3758 552.6426,-177.4716"/>
<polygon fill="#000000" stroke="#000000" points="548.1581,-174.6393 553.5871,-175.407 550.2719,-175.9743 552.3856,-177.3093 552.3856,-177.3093 552.3856,-177.3093 550.2719,-175.9743 551.1841,-179.2117 548.1581,-174.6393 548.1581,-174.6393"/>
</g>
<!-- enopr&#45;&gt;enpr -->
<g id="edge57" class="edge">
<title>enopr&#45;&gt;enpr</title>
<path fill="none" stroke="#000000" d="M662.2718,-220.4574C680.2817,-208.3385 706.693,-190.5664 725.6617,-177.8024"/>
<polygon fill="#000000" stroke="#000000" points="729.831,-174.997 726.9388,-179.6551 727.7568,-176.3927 725.6827,-177.7884 725.6827,-177.7884 725.6827,-177.7884 727.7568,-176.3927 724.4265,-175.9216 729.831,-174.997 729.831,-174.997"/>
</g>
<!-- enopr&#45;&gt;enor -->
<g id="edge56" class="edge">
<title>enopr&#45;&gt;enor</title>
<path fill="none" stroke="#000000" d="M618.4184,-222.4929C613.422,-220.2271 608.1484,-217.9501 603.1459,-216 554.4305,-197.0096 539.5588,-199.749 491.1459,-180 488.0039,-178.7183 484.7584,-177.2751 481.5619,-175.7778"/>
<polygon fill="#000000" stroke="#000000" points="476.6009,-173.3959 482.0822,-173.5318 478.8546,-174.478 481.1083,-175.5601 481.1083,-175.5601 481.1083,-175.5601 478.8546,-174.478 480.1345,-177.5884 476.6009,-173.3959 476.6009,-173.3959"/>
</g>
<!-- enop&#45;&gt;enp -->
<g id="edge62" class="edge">
<title>enop&#45;&gt;enp</title>
<path fill="none" stroke="#000000" d="M550.6239,-151.0647C577.0729,-138.1977 620.9545,-116.8499 649.2022,-103.1078"/>
<polygon fill="#000000" stroke="#000000" points="653.9413,-100.8022 650.4294,-105.0129 651.6932,-101.8959 649.4451,-102.9896 649.4451,-102.9896 649.4451,-102.9896 651.6932,-101.8959 648.4608,-100.9663 653.9413,-100.8022 653.9413,-100.8022"/>
</g>
<!-- enop&#45;&gt;eno -->
<g id="edge63" class="edge">
<title>enop&#45;&gt;eno</title>
<path fill="none" stroke="#000000" d="M512.6645,-146.7307C501.4375,-135.6575 486.186,-120.6149 474.2089,-108.8018"/>
<polygon fill="#000000" stroke="#000000" points="470.605,-105.2473 475.7449,-107.1565 472.3849,-107.0029 474.1649,-108.7584 474.1649,-108.7584 474.1649,-108.7584 472.3849,-107.0029 472.5849,-110.3604 470.605,-105.2473 470.605,-105.2473"/>
</g>
<!-- eno&#45;&gt;en -->
<g id="edge51" class="edge">
<title>eno&#45;&gt;en</title>
<path fill="none" stroke="#000000" d="M474.6548,-77.4586C493.7295,-65.1962 522.809,-46.5023 543.2587,-33.3561"/>
<polygon fill="#000000" stroke="#000000" points="547.4848,-30.6393 544.4956,-35.2358 545.3818,-31.9912 543.2789,-33.3431 543.2789,-33.3431 543.2789,-33.3431 545.3818,-31.9912 542.0621,-31.4505 547.4848,-30.6393 547.4848,-30.6393"/>
</g>
<!-- enpr&#45;&gt;enp -->
<g id="edge60" class="edge">
<title>enpr&#45;&gt;enp</title>
<path fill="none" stroke="#000000" d="M734.0203,-147.0816C722.7419,-135.9577 707.2596,-120.6875 695.1461,-108.74"/>
<polygon fill="#000000" stroke="#000000" points="691.5033,-105.147 696.6432,-107.0562 693.2833,-106.9026 695.0632,-108.6581 695.0632,-108.6581 695.0632,-108.6581 693.2833,-106.9026 693.4832,-110.2601 691.5033,-105.147 691.5033,-105.147"/>
</g>
<!-- enr -->
<g id="node35" class="node">
<title>enr</title>
<ellipse fill="none" stroke="#000000" cx="603.1459" cy="-90" rx="27" ry="18"/>
<text text-anchor="middle" x="603.1459" y="-86.3" font-family="Times,serif" font-size="14.00" fill="#000000">enr</text>
</g>
<!-- enpr&#45;&gt;enr -->
<g id="edge61" class="edge">
<title>enpr&#45;&gt;enr</title>
<path fill="none" stroke="#000000" d="M727.4567,-151.1234C722.7421,-148.7681 717.7793,-146.2956 713.1459,-144 684.6707,-129.8921 651.9744,-113.8627 629.6779,-102.9575"/>
<polygon fill="#000000" stroke="#000000" points="625.0831,-100.7108 630.5633,-100.886 627.329,-101.809 629.5749,-102.9073 629.5749,-102.9073 629.5749,-102.9073 627.329,-101.809 628.5865,-104.9285 625.0831,-100.7108 625.0831,-100.7108"/>
</g>
<!-- ehinr&#45;&gt;ein -->
<g id="edge46" class="edge">
<title>ehinr&#45;&gt;ein</title>
<path fill="none" stroke="#000000" d="M587.8766,-146.7307C576.8034,-135.6575 561.7608,-120.6149 549.9477,-108.8018"/>
<polygon fill="#000000" stroke="#000000" points="546.3932,-105.2473 551.5198,-107.1919 548.161,-107.0151 549.9288,-108.7829 549.9288,-108.7829 549.9288,-108.7829 548.161,-107.0151 548.3378,-110.3739 546.3932,-105.2473 546.3932,-105.2473"/>
</g>
<!-- ehinr&#45;&gt;enr -->
<g id="edge47" class="edge">
<title>ehinr&#45;&gt;enr</title>
<path fill="none" stroke="#000000" d="M603.1459,-143.8314C603.1459,-134.6078 603.1459,-123.295 603.1459,-113.4246"/>
<polygon fill="#000000" stroke="#000000" points="603.1459,-108.4133 605.396,-113.4132 603.146,-110.9133 603.146,-113.4133 603.146,-113.4133 603.146,-113.4133 603.146,-110.9133 600.896,-113.4133 603.1459,-108.4133 603.1459,-108.4133"/>
</g>
<!-- enor&#45;&gt;eno -->
<g id="edge54" class="edge">
<title>enor&#45;&gt;eno</title>
<path fill="none" stroke="#000000" d="M455.1459,-143.8314C455.1459,-134.6078 455.1459,-123.295 455.1459,-113.4246"/>
<polygon fill="#000000" stroke="#000000" points="455.1459,-108.4133 457.396,-113.4132 455.146,-110.9133 455.146,-113.4133 455.146,-113.4133 455.146,-113.4133 455.146,-110.9133 452.896,-113.4133 455.1459,-108.4133 455.1459,-108.4133"/>
</g>
<!-- enor&#45;&gt;enr -->
<g id="edge55" class="edge">
<title>enor&#45;&gt;enr</title>
<path fill="none" stroke="#000000" d="M476.811,-151.0742C481.5271,-148.722 486.4966,-146.2632 491.1459,-144 524.7516,-127.6416 533.5402,-124.3584 567.1459,-108 570.3423,-106.4441 573.6901,-104.7957 577.0028,-103.153"/>
<polygon fill="#000000" stroke="#000000" points="581.4808,-100.9258 578.006,-105.167 579.2424,-102.0391 577.004,-103.1525 577.004,-103.1525 577.004,-103.1525 579.2424,-102.0391 576.002,-101.1379 581.4808,-100.9258 581.4808,-100.9258"/>
</g>
<!-- enr&#45;&gt;en -->
<g id="edge45" class="edge">
<title>enr&#45;&gt;en</title>
<path fill="none" stroke="#000000" d="M594.4313,-72.5708C589.5229,-62.7541 583.3461,-50.4003 578.1112,-39.9306"/>
<polygon fill="#000000" stroke="#000000" points="575.7802,-35.2687 580.0288,-38.7346 576.8983,-37.5048 578.0164,-39.7408 578.0164,-39.7408 578.0164,-39.7408 576.8983,-37.5048 576.0039,-40.7471 575.7802,-35.2687 575.7802,-35.2687"/>
</g>
</g>
</svg>
