<?xml version="1.0" encoding="UTF-8" standalone="no"?>
<!DOCTYPE svg PUBLIC "-//W3C//DTD SVG 1.1//EN"
 "http://www.w3.org/Graphics/SVG/1.1/DTD/svg11.dtd">
<!-- Generated by graphviz version 2.40.1 (20161225.0304)
 -->
<!-- Title: %3 Pages: 1 -->
<svg width="1071pt" height="2397pt"
 viewBox="0.00 0.00 1070.95 2397.00" xmlns="http://www.w3.org/2000/svg" xmlns:xlink="http://www.w3.org/1999/xlink">
<g id="graph0" class="graph" transform="scale(1 1) rotate(0) translate(4 2393)">
<title>%3</title>
<polygon fill="#ffffff" stroke="transparent" points="-4,4 -4,-2393 1066.95,-2393 1066.95,4 -4,4"/>
<!-- CNCC(c1ccc(c(c1)O)O)O -->
<g id="node1" class="node">
<title>CNCC(c1ccc(c(c1)O)O)O</title>
<polygon fill="none" stroke="#000000" points="612,-2133 472,-2133 472,-1891 612,-1891 612,-2133"/>
<image xlink:href="molecules/CNCCèc1cccècèc1ïOïOïO.svg" width="140px" height="242px" preserveAspectRatio="xMinYMin meet" x="472" y="-2133"/>
</g>
<!-- CNCCc1ccc(c(c1)O)O -->
<g id="node4" class="node">
<title>CNCCc1ccc(c(c1)O)O</title>
<image xlink:href="molecules/CNCCc1cccècèc1ïOïO.svg" width="218px" height="167px" preserveAspectRatio="xMinYMin meet" x="372" y="-1825"/>
</g>
<!-- CNCC(c1ccc(c(c1)O)O)O&#45;&gt;CNCCc1ccc(c(c1)O)O -->
<g id="edge1" class="edge">
<title>CNCC(c1ccc(c(c1)O)O)O&#45;&gt;CNCCc1ccc(c(c1)O)O</title>
<path fill="none" stroke="#000000" d="M514.7115,-1890.9911C510.091,-1870.502 505.3711,-1849.5719 500.9823,-1830.1101"/>
<polygon fill="#000000" stroke="#000000" points="499.8739,-1825.195 503.1688,-1829.5775 500.4239,-1827.6338 500.9739,-1830.0725 500.9739,-1830.0725 500.9739,-1830.0725 500.4239,-1827.6338 498.779,-1830.5675 499.8739,-1825.195 499.8739,-1825.195"/>
</g>
<!-- COc1cc(CCN2CCN(CC2)c2ccccc2Cl)ccc1OC -->
<g id="node2" class="node">
<title>COc1cc(CCN2CCN(CC2)c2ccccc2Cl)ccc1OC</title>
<polygon fill="none" stroke="#000000" points="1014.5,-2133 667.5,-2133 667.5,-1891 1014.5,-1891 1014.5,-2133"/>
<image xlink:href="molecules/COc1ccèCCN2CCNèCC2ïc2ccccc2Clïccc1OC.svg" width="347px" height="242px" preserveAspectRatio="xMinYMin meet" x="667.5" y="-2133"/>
</g>
<!-- COc1cc(CCN2CCN(CC2)c2ccccc2Cl)ccc1OC&#45;&gt;CNCCc1ccc(c(c1)O)O -->
<g id="edge2" class="edge">
<title>COc1cc(CCN2CCN(CC2)c2ccccc2Cl)ccc1OC&#45;&gt;CNCCc1ccc(c(c1)O)O</title>
<path fill="none" stroke="#000000" d="M667.2867,-1891C644.1211,-1874.1476 620.8402,-1856.8364 599,-1840 594.1291,-1836.2451 589.1789,-1832.368 584.2031,-1828.421"/>
<polygon fill="#000000" stroke="#000000" points="580.0186,-1825.0903 585.3319,-1826.4438 581.9746,-1826.6473 583.9307,-1828.2042 583.9307,-1828.2042 583.9307,-1828.2042 581.9746,-1826.6473 582.5294,-1829.9646 580.0186,-1825.0903 580.0186,-1825.0903"/>
</g>
<!-- COc1cc(C)ccc1O -->
<g id="node9" class="node">
<title>COc1cc(C)ccc1O</title>
<image xlink:href="molecules/COc1ccèCïccc1O.svg" width="166px" height="167px" preserveAspectRatio="xMinYMin meet" x="608" y="-1825"/>
</g>
<!-- COc1cc(CCN2CCN(CC2)c2ccccc2Cl)ccc1OC&#45;&gt;COc1cc(C)ccc1O -->
<g id="edge3" class="edge">
<title>COc1cc(CCN2CCN(CC2)c2ccccc2Cl)ccc1OC&#45;&gt;COc1cc(C)ccc1O</title>
<path fill="none" stroke="#000000" d="M773.8971,-1890.9911C762.439,-1870.3283 750.7323,-1849.2172 739.8627,-1829.6157"/>
<polygon fill="#000000" stroke="#000000" points="737.4113,-1825.195 741.8038,-1828.4765 738.6237,-1827.3814 739.8361,-1829.5677 739.8361,-1829.5677 739.8361,-1829.5677 738.6237,-1827.3814 737.8684,-1830.6589 737.4113,-1825.195 737.4113,-1825.195"/>
</g>
<!-- OCC(=CC=CC)O -->
<g id="node10" class="node">
<title>OCC(=CC=CC)O</title>
<image xlink:href="molecules/OCCè=CC=CCïO.svg" width="191px" height="122px" preserveAspectRatio="xMinYMin meet" x="792.5" y="-1802.5"/>
</g>
<!-- COc1cc(CCN2CCN(CC2)c2ccccc2Cl)ccc1OC&#45;&gt;OCC(=CC=CC)O -->
<g id="edge4" class="edge">
<title>COc1cc(CCN2CCN(CC2)c2ccccc2Cl)ccc1OC&#45;&gt;OCC(=CC=CC)O</title>
<path fill="none" stroke="#000000" d="M862.0256,-1890.9911C866.9979,-1862.374 872.1196,-1832.8969 876.487,-1807.7612"/>
<polygon fill="#000000" stroke="#000000" points="877.3501,-1802.7935 878.7109,-1808.1049 876.9221,-1805.2566 876.4941,-1807.7197 876.4941,-1807.7197 876.4941,-1807.7197 876.9221,-1805.2566 874.2773,-1807.3345 877.3501,-1802.7935 877.3501,-1802.7935"/>
</g>
<!-- OC1C=CC2C34C1Oc1c4c(CC2N(CC3)C)ccc1O -->
<g id="node3" class="node">
<title>OC1C=CC2C34C1Oc1c4c(CC2N(CC3)C)ccc1O</title>
<polygon fill="none" stroke="#000000" points="461,-2389 261,-2389 261,-2184 461,-2184 461,-2389"/>
<image xlink:href="molecules/OC1C=CC2C34C1Oc1c4cèCC2NèCC3ïCïccc1O.svg" width="200px" height="205px" preserveAspectRatio="xMinYMin meet" x="261" y="-2389"/>
</g>
<!-- CCN(C(Cc1ccc(c(c1)O)O)C)C -->
<g id="node8" class="node">
<title>CCN(C(Cc1ccc(c(c1)O)O)C)C</title>
<image xlink:href="molecules/CCNèCèCc1cccècèc1ïOïOïCïC.svg" width="166px" height="272px" preserveAspectRatio="xMinYMin meet" x="0" y="-2148"/>
</g>
<!-- OC1C=CC2C34C1Oc1c4c(CC2N(CC3)C)ccc1O&#45;&gt;CCN(C(Cc1ccc(c(c1)O)O)C)C -->
<g id="edge5" class="edge">
<title>OC1C=CC2C34C1Oc1c4c(CC2N(CC3)C)ccc1O&#45;&gt;CCN(C(Cc1ccc(c(c1)O)O)C)C</title>
<path fill="none" stroke="#000000" d="M260.8271,-2221.4217C231.4717,-2199.9196 200.4522,-2174.6319 175,-2148 173.2459,-2146.1646 171.5025,-2144.2923 169.7712,-2142.3879"/>
<polygon fill="#000000" stroke="#000000" points="166.2348,-2138.4352 171.2455,-2140.6613 167.9017,-2140.2984 169.5687,-2142.1615 169.5687,-2142.1615 169.5687,-2142.1615 167.9017,-2140.2984 167.8918,-2143.6618 166.2348,-2138.4352 166.2348,-2138.4352"/>
</g>
<!-- OC1C=CC2C34C1Oc1c4c(CC2N(CC3)C)ccc1O&#45;&gt;COc1cc(C)ccc1O -->
<g id="edge6" class="edge">
<title>OC1C=CC2C34C1Oc1c4c(CC2N(CC3)C)ccc1O&#45;&gt;COc1cc(C)ccc1O</title>
<path fill="none" stroke="#000000" d="M461.2435,-2258.1087C517.2217,-2236.9542 583.1276,-2202.1787 621,-2148 690.9332,-2047.9565 636.404,-1995.9532 659,-1876 661.7944,-1861.1656 665.1471,-1845.5025 668.6151,-1830.3131"/>
<polygon fill="#000000" stroke="#000000" points="669.795,-1825.182 670.8672,-1830.559 669.2347,-1827.6184 668.6744,-1830.0548 668.6744,-1830.0548 668.6744,-1830.0548 669.2347,-1827.6184 666.4817,-1829.5505 669.795,-1825.182 669.795,-1825.182"/>
</g>
<!-- CCc1ccc(c(c1)O)O -->
<g id="node20" class="node">
<title>CCc1ccc(c(c1)O)O</title>
<image xlink:href="molecules/CCc1cccècèc1ïOïO.svg" width="140px" height="197px" preserveAspectRatio="xMinYMin meet" x="411" y="-1607"/>
</g>
<!-- CNCCc1ccc(c(c1)O)O&#45;&gt;CCc1ccc(c(c1)O)O -->
<g id="edge7" class="edge">
<title>CNCCc1ccc(c(c1)O)O&#45;&gt;CCc1ccc(c(c1)O)O</title>
<path fill="none" stroke="#000000" d="M481,-1657.7108C481,-1642.9416 481,-1627.4092 481,-1612.173"/>
<polygon fill="#000000" stroke="#000000" points="481,-1607.0188 483.2501,-1612.0187 481,-1609.5188 481.0001,-1612.0188 481.0001,-1612.0188 481.0001,-1612.0188 481,-1609.5188 478.7501,-1612.0188 481,-1607.0188 481,-1607.0188"/>
</g>
<!-- Oc1ccc(cc1)C1CNCCc2c1cc(O)c(c2Cl)O -->
<g id="node5" class="node">
<title>Oc1ccc(cc1)C1CNCCc2c1cc(O)c(c2Cl)O</title>
<polygon fill="none" stroke="#000000" points="453.5,-2116 184.5,-2116 184.5,-1908 453.5,-1908 453.5,-2116"/>
<image xlink:href="molecules/Oc1cccècc1ïC1CNCCc2c1ccèOïcèc2ClïO.svg" width="269px" height="208px" preserveAspectRatio="xMinYMin meet" x="184.5" y="-2116"/>
</g>
<!-- Oc1ccc(cc1)C1CNCCc2c1cc(O)c(c2Cl)O&#45;&gt;CNCCc1ccc(c(c1)O)O -->
<g id="edge8" class="edge">
<title>Oc1ccc(cc1)C1CNCCc2c1cc(O)c(c2Cl)O&#45;&gt;CNCCc1ccc(c(c1)O)O</title>
<path fill="none" stroke="#000000" d="M381.4017,-1907.8046C396.9053,-1881.9175 413.3697,-1854.4258 428.353,-1829.4075"/>
<polygon fill="#000000" stroke="#000000" points="430.938,-1825.0911 430.2993,-1830.5367 429.6535,-1827.2359 428.369,-1829.3807 428.369,-1829.3807 428.369,-1829.3807 429.6535,-1827.2359 426.4387,-1828.2246 430.938,-1825.0911 430.938,-1825.0911"/>
</g>
<!-- CCCc1ccc(c(c1)O)O -->
<g id="node16" class="node">
<title>CCCc1ccc(c(c1)O)O</title>
<image xlink:href="molecules/CCCc1cccècèc1ïOïO.svg" width="166px" height="197px" preserveAspectRatio="xMinYMin meet" x="188" y="-1840"/>
</g>
<!-- Oc1ccc(cc1)C1CNCCc2c1cc(O)c(c2Cl)O&#45;&gt;CCCc1ccc(c(c1)O)O -->
<g id="edge9" class="edge">
<title>Oc1ccc(cc1)C1CNCCc2c1cc(O)c(c2Cl)O&#45;&gt;CCCc1ccc(c(c1)O)O</title>
<path fill="none" stroke="#000000" d="M300.5106,-1907.8046C296.883,-1887.3614 293.0778,-1865.9176 289.4514,-1845.4814"/>
<polygon fill="#000000" stroke="#000000" points="288.5335,-1840.3087 291.6226,-1844.8386 288.9704,-1842.7702 289.4072,-1845.2318 289.4072,-1845.2318 289.4072,-1845.2318 288.9704,-1842.7702 287.1918,-1845.6249 288.5335,-1840.3087 288.5335,-1840.3087"/>
</g>
<!-- CN1CCc2c3C1Cc1ccc(c(c1c3ccc2)O)O -->
<g id="node6" class="node">
<title>CN1CCc2c3C1Cc1ccc(c(c1c3ccc2)O)O</title>
<polygon fill="none" stroke="#000000" points="943,-2384.5 699,-2384.5 699,-2188.5 943,-2188.5 943,-2384.5"/>
<image xlink:href="molecules/CN1CCc2c3C1Cc1cccècèc1c3ccc2ïOïO.svg" width="244px" height="196px" preserveAspectRatio="xMinYMin meet" x="699" y="-2384.5"/>
</g>
<!-- CN1CCc2c3C1Cc1ccc(c(c1c3ccc2)O)O&#45;&gt;CCN(C(Cc1ccc(c(c1)O)O)C)C -->
<g id="edge10" class="edge">
<title>CN1CCc2c3C1Cc1ccc(c(c1c3ccc2)O)O&#45;&gt;CCN(C(Cc1ccc(c(c1)O)O)C)C</title>
<path fill="none" stroke="#000000" d="M698.7761,-2245.4931C631.8665,-2224.3971 547.1056,-2199.8532 470,-2184 340.6225,-2157.3995 287.6919,-2216.896 175,-2148 173.3849,-2147.0126 171.7918,-2145.9849 170.2204,-2144.9197"/>
<polygon fill="#000000" stroke="#000000" points="166.1119,-2142.0143 171.4934,-2143.0642 168.1531,-2143.4578 170.1943,-2144.9013 170.1943,-2144.9013 170.1943,-2144.9013 168.1531,-2143.4578 168.8951,-2146.7383 166.1119,-2142.0143 166.1119,-2142.0143"/>
</g>
<!-- CN1CCc2c3C1Cc1ccc(c(c1c3ccc2)O)O&#45;&gt;OCC(=CC=CC)O -->
<g id="edge11" class="edge">
<title>CN1CCc2c3C1Cc1ccc(c(c1c3ccc2)O)O&#45;&gt;OCC(=CC=CC)O</title>
<path fill="none" stroke="#000000" d="M943.214,-2230.4938C975.3101,-2209.4503 1005.9638,-2182.1397 1024,-2148 1080.4702,-2041.1111 1070.5717,-1987.5581 1024,-1876 1013.1007,-1849.8918 994.3931,-1826.2645 974.2815,-1806.3585"/>
<polygon fill="#000000" stroke="#000000" points="970.5115,-1802.6851 975.6629,-1804.5629 972.3021,-1804.4298 974.0927,-1806.1745 974.0927,-1806.1745 974.0927,-1806.1745 972.3021,-1804.4298 972.5225,-1807.786 970.5115,-1802.6851 970.5115,-1802.6851"/>
</g>
<!-- Oc1ccccc1O -->
<g id="node7" class="node">
<title>Oc1ccccc1O</title>
<image xlink:href="molecules/Oc1ccccc1O.svg" width="140px" height="152px" preserveAspectRatio="xMinYMin meet" x="489" y="-1201"/>
</g>
<!-- Oc1ccccc1 -->
<g id="node15" class="node">
<title>Oc1ccccc1</title>
<image xlink:href="molecules/Oc1ccccc1.svg" width="113px" height="152px" preserveAspectRatio="xMinYMin meet" x="650.5" y="-998"/>
</g>
<!-- Oc1ccccc1O&#45;&gt;Oc1ccccc1 -->
<g id="edge12" class="edge">
<title>Oc1ccccc1O&#45;&gt;Oc1ccccc1</title>
<path fill="none" stroke="#000000" d="M614.5308,-1048.8327C625.552,-1033.7159 637.157,-1017.7981 648.2804,-1002.541"/>
<polygon fill="#000000" stroke="#000000" points="651.4042,-998.2564 650.2767,-1003.6222 649.9314,-1000.2766 648.4585,-1002.2967 648.4585,-1002.2967 648.4585,-1002.2967 649.9314,-1000.2766 646.6404,-1000.9712 651.4042,-998.2564 651.4042,-998.2564"/>
</g>
<!-- OC(=CC=C)CO -->
<g id="node17" class="node">
<title>OC(=CC=C)CO</title>
<image xlink:href="molecules/OCè=CC=CïCO.svg" width="166px" height="152px" preserveAspectRatio="xMinYMin meet" x="466" y="-998"/>
</g>
<!-- Oc1ccccc1O&#45;&gt;OC(=CC=C)CO -->
<g id="edge13" class="edge">
<title>Oc1ccccc1O&#45;&gt;OC(=CC=C)CO</title>
<path fill="none" stroke="#000000" d="M555.2479,-1048.8327C554.516,-1033.9743 553.7459,-1018.3421 553.0061,-1003.324"/>
<polygon fill="#000000" stroke="#000000" points="552.7565,-998.2564 555.2499,-1003.1396 552.8795,-1000.7534 553.0026,-1003.2504 553.0026,-1003.2504 553.0026,-1003.2504 552.8795,-1000.7534 550.7553,-1003.3611 552.7565,-998.2564 552.7565,-998.2564"/>
</g>
<!-- CCN(C(Cc1ccc(c(c1)O)O)C)C&#45;&gt;CNCCc1ccc(c(c1)O)O -->
<g id="edge14" class="edge">
<title>CCN(C(Cc1ccc(c(c1)O)O)C)C&#45;&gt;CNCCc1ccc(c(c1)O)O</title>
<path fill="none" stroke="#000000" d="M166.2876,-1882.2624C169.1204,-1880.0539 172.0246,-1877.9605 175,-1876 246.0387,-1829.1914 286.1161,-1876.4197 363,-1840 370.3895,-1836.4996 377.7005,-1832.4261 384.8459,-1827.9668"/>
<polygon fill="#000000" stroke="#000000" points="389.2728,-1825.142 386.2681,-1829.7284 387.1653,-1826.4868 385.0578,-1827.8316 385.0578,-1827.8316 385.0578,-1827.8316 387.1653,-1826.4868 383.8475,-1825.9348 389.2728,-1825.142 389.2728,-1825.142"/>
</g>
<!-- CCN(C(Cc1ccc(c(c1)O)O)C)C&#45;&gt;CCCc1ccc(c(c1)O)O -->
<g id="edge15" class="edge">
<title>CCN(C(Cc1ccc(c(c1)O)O)C)C&#45;&gt;CCCc1ccc(c(c1)O)O</title>
<path fill="none" stroke="#000000" d="M166.1068,-1888.848C169.1006,-1884.5069 172.0718,-1880.2135 175,-1876 182.1544,-1865.7052 189.6635,-1855.0059 197.1979,-1844.3402"/>
<polygon fill="#000000" stroke="#000000" points="200.1989,-1840.0956 199.1496,-1845.4772 198.7556,-1842.1369 197.3124,-1844.1783 197.3124,-1844.1783 197.3124,-1844.1783 198.7556,-1842.1369 195.4751,-1842.8793 200.1989,-1840.0956 200.1989,-1840.0956"/>
</g>
<!-- Cc1ccc(c(c1)O)O -->
<g id="node13" class="node">
<title>Cc1ccc(c(c1)O)O</title>
<image xlink:href="molecules/Cc1cccècèc1ïOïO.svg" width="166px" height="122px" preserveAspectRatio="xMinYMin meet" x="608" y="-1374"/>
</g>
<!-- COc1cc(C)ccc1O&#45;&gt;Cc1ccc(c(c1)O)O -->
<g id="edge16" class="edge">
<title>COc1cc(C)ccc1O&#45;&gt;Cc1ccc(c(c1)O)O</title>
<path fill="none" stroke="#000000" d="M691,-1657.8637C691,-1576.5193 691,-1454.5552 691,-1379.5779"/>
<polygon fill="#000000" stroke="#000000" points="691,-1374.2619 693.2501,-1379.2619 691,-1376.7619 691.0001,-1379.2619 691.0001,-1379.2619 691.0001,-1379.2619 691,-1376.7619 688.7501,-1379.262 691,-1374.2619 691,-1374.2619"/>
</g>
<!-- CC=CC=C(CO)O -->
<g id="node14" class="node">
<title>CC=CC=C(CO)O</title>
<image xlink:href="molecules/CC=CC=CèCOïO.svg" width="191px" height="152px" preserveAspectRatio="xMinYMin meet" x="778.5" y="-1201"/>
</g>
<!-- OCC(=CC=CC)O&#45;&gt;CC=CC=C(CO)O -->
<g id="edge17" class="edge">
<title>OCC(=CC=CC)O&#45;&gt;CC=CC=C(CO)O</title>
<path fill="none" stroke="#000000" d="M886.6129,-1680.4173C884.0785,-1568.8128 878.6991,-1331.9278 875.8539,-1206.6369"/>
<polygon fill="#000000" stroke="#000000" points="875.737,-1201.4917 878.1001,-1206.4393 875.7938,-1203.9911 875.8506,-1206.4904 875.8506,-1206.4904 875.8506,-1206.4904 875.7938,-1203.9911 873.6012,-1206.5416 875.737,-1201.4917 875.737,-1201.4917"/>
</g>
<!-- Cc1ccc(cc1)O -->
<g id="node11" class="node">
<title>Cc1ccc(cc1)O</title>
<image xlink:href="molecules/Cc1cccècc1ïO.svg" width="113px" height="182px" preserveAspectRatio="xMinYMin meet" x="647.5" y="-1216"/>
</g>
<!-- Cc1ccc(cc1)O&#45;&gt;Oc1ccccc1 -->
<g id="edge18" class="edge">
<title>Cc1ccc(cc1)O&#45;&gt;Oc1ccccc1</title>
<path fill="none" stroke="#000000" d="M705.3464,-1033.8915C705.4963,-1023.749 705.6483,-1013.4667 705.7962,-1003.4553"/>
<polygon fill="#000000" stroke="#000000" points="705.8732,-998.2468 708.049,-1003.2796 705.8362,-1000.7466 705.7992,-1003.2463 705.7992,-1003.2463 705.7992,-1003.2463 705.8362,-1000.7466 703.5495,-1003.213 705.8732,-998.2468 705.8732,-998.2468"/>
</g>
<!-- CC=CC=C(O)C -->
<g id="node19" class="node">
<title>CC=CC=C(O)C</title>
<image xlink:href="molecules/CC=CC=CèOïC.svg" width="166px" height="152px" preserveAspectRatio="xMinYMin meet" x="788" y="-998"/>
</g>
<!-- Cc1ccc(cc1)O&#45;&gt;CC=CC=C(O)C -->
<g id="edge19" class="edge">
<title>Cc1ccc(cc1)O&#45;&gt;CC=CC=C(O)C</title>
<path fill="none" stroke="#000000" d="M760.7347,-1045.6963C763.8295,-1041.711 766.9296,-1037.7919 770,-1034 778.5113,-1023.4887 787.7001,-1012.6591 796.9464,-1002.0678"/>
<polygon fill="#000000" stroke="#000000" points="800.3544,-998.1775 798.7521,-1003.4212 798.707,-1000.058 797.0596,-1001.9385 797.0596,-1001.9385 797.0596,-1001.9385 798.707,-1000.058 795.3672,-1000.4559 800.3544,-998.1775 800.3544,-998.1775"/>
</g>
<!-- CC=CC=CO -->
<g id="node12" class="node">
<title>CC=CC=CO</title>
<image xlink:href="molecules/CC=CC=CO.svg" width="166px" height="107px" preserveAspectRatio="xMinYMin meet" x="808" y="-810"/>
</g>
<!-- OC=CC=C -->
<g id="node18" class="node">
<title>OC=CC=C</title>
<image xlink:href="molecules/OC=CC=C.svg" width="152px" height="88px" preserveAspectRatio="xMinYMin meet" x="801" y="-667"/>
</g>
<!-- CC=CC=CO&#45;&gt;OC=CC=C -->
<g id="edge20" class="edge">
<title>CC=CC=CO&#45;&gt;OC=CC=C</title>
<path fill="none" stroke="#000000" d="M885.3863,-702.9697C884.3239,-692.8389 883.2172,-682.285 882.1692,-672.2925"/>
<polygon fill="#000000" stroke="#000000" points="881.6272,-667.1234 884.3865,-671.8614 881.888,-669.6098 882.1487,-672.0961 882.1487,-672.0961 882.1487,-672.0961 881.888,-669.6098 879.911,-672.3308 881.6272,-667.1234 881.6272,-667.1234"/>
</g>
<!-- CC=CC=C -->
<g id="node21" class="node">
<title>CC=CC=C</title>
<image xlink:href="molecules/CC=CC=C.svg" width="152px" height="88px" preserveAspectRatio="xMinYMin meet" x="631" y="-667"/>
</g>
<!-- CC=CC=CO&#45;&gt;CC=CC=C -->
<g id="edge21" class="edge">
<title>CC=CC=CO&#45;&gt;CC=CC=C</title>
<path fill="none" stroke="#000000" d="M817.2204,-702.9697C802.2326,-692.0954 786.5728,-680.7335 771.9192,-670.1017"/>
<polygon fill="#000000" stroke="#000000" points="767.8143,-667.1234 773.1826,-668.2385 769.8378,-668.5915 771.8613,-670.0597 771.8613,-670.0597 771.8613,-670.0597 769.8378,-668.5915 770.5399,-671.8809 767.8143,-667.1234 767.8143,-667.1234"/>
</g>
<!-- Cc1ccc(c(c1)O)O&#45;&gt;Oc1ccccc1O -->
<g id="edge22" class="edge">
<title>Cc1ccc(c(c1)O)O&#45;&gt;Oc1ccccc1O</title>
<path fill="none" stroke="#000000" d="M648.1434,-1251.9618C637.753,-1237.1634 626.4865,-1221.1171 615.5712,-1205.5711"/>
<polygon fill="#000000" stroke="#000000" points="612.5029,-1201.2011 617.2175,-1204.0002 613.9395,-1203.2471 615.3761,-1205.2932 615.3761,-1205.2932 615.3761,-1205.2932 613.9395,-1203.2471 613.5346,-1206.5861 612.5029,-1201.2011 612.5029,-1201.2011"/>
</g>
<!-- Cc1ccc(c(c1)O)O&#45;&gt;Cc1ccc(cc1)O -->
<g id="edge24" class="edge">
<title>Cc1ccc(c(c1)O)O&#45;&gt;Cc1ccc(cc1)O</title>
<path fill="none" stroke="#000000" d="M695.2207,-1251.9618C695.9025,-1242.1029 696.6225,-1231.6901 697.3451,-1221.2404"/>
<polygon fill="#000000" stroke="#000000" points="697.6998,-1216.1099 699.5995,-1221.2532 697.5273,-1218.6039 697.3548,-1221.098 697.3548,-1221.098 697.3548,-1221.098 697.5273,-1218.6039 695.1102,-1220.9427 697.6998,-1216.1099 697.6998,-1216.1099"/>
</g>
<!-- Cc1ccc(c(c1)O)O&#45;&gt;CC=CC=C(CO)O -->
<g id="edge23" class="edge">
<title>Cc1ccc(c(c1)O)O&#45;&gt;CC=CC=C(CO)O</title>
<path fill="none" stroke="#000000" d="M750.4149,-1251.9618C764.9428,-1237.0369 780.7063,-1220.8427 795.9596,-1205.1726"/>
<polygon fill="#000000" stroke="#000000" points="799.8256,-1201.2011 797.9503,-1206.3534 798.0818,-1202.9925 796.338,-1204.784 796.338,-1204.784 796.338,-1204.784 798.0818,-1202.9925 794.7257,-1203.2145 799.8256,-1201.2011 799.8256,-1201.2011"/>
</g>
<!-- CC=CC=C(CO)O&#45;&gt;OC(=CC=C)CO -->
<g id="edge25" class="edge">
<title>CC=CC=C(CO)O&#45;&gt;OC(=CC=C)CO</title>
<path fill="none" stroke="#000000" d="M793.6329,-1048.8676C785.9438,-1043.4014 778.016,-1038.3428 770,-1034 718.0394,-1005.8496 694.4273,-1025.2713 642,-998 640.127,-997.0257 638.2567,-996.0097 636.3919,-994.9566"/>
<polygon fill="#000000" stroke="#000000" points="632.0515,-992.4346 637.5051,-993.0012 634.2131,-993.6906 636.3747,-994.9466 636.3747,-994.9466 636.3747,-994.9466 634.2131,-993.6906 635.2443,-996.8921 632.0515,-992.4346 632.0515,-992.4346"/>
</g>
<!-- CC=CC=C(CO)O&#45;&gt;CC=CC=C(O)C -->
<g id="edge26" class="edge">
<title>CC=CC=C(CO)O&#45;&gt;CC=CC=C(O)C</title>
<path fill="none" stroke="#000000" d="M872.8744,-1048.8327C872.6548,-1033.9743 872.4238,-1018.3421 872.2018,-1003.324"/>
<polygon fill="#000000" stroke="#000000" points="872.1269,-998.2564 874.4507,-1003.2226 872.1639,-1000.7562 872.2009,-1003.2559 872.2009,-1003.2559 872.2009,-1003.2559 872.1639,-1000.7562 869.9512,-1003.2892 872.1269,-998.2564 872.1269,-998.2564"/>
</g>
<!-- Oc1ccccc1&#45;&gt;CC=CC=CO -->
<g id="edge28" class="edge">
<title>Oc1ccccc1&#45;&gt;CC=CC=CO</title>
<path fill="none" stroke="#000000" d="M763.6496,-860.6945C768.7534,-855.6348 773.9151,-850.6739 779,-846 790.874,-835.0857 803.9125,-823.9626 816.7653,-813.4356"/>
<polygon fill="#000000" stroke="#000000" points="820.7466,-810.1886 818.2939,-815.0924 818.8092,-811.7687 816.8718,-813.3487 816.8718,-813.3487 816.8718,-813.3487 818.8092,-811.7687 815.4498,-811.6051 820.7466,-810.1886 820.7466,-810.1886"/>
</g>
<!-- CC(=CC=C)O -->
<g id="node22" class="node">
<title>CC(=CC=C)O</title>
<image xlink:href="molecules/CCè=CC=CïO.svg" width="166px" height="107px" preserveAspectRatio="xMinYMin meet" x="624" y="-810"/>
</g>
<!-- Oc1ccccc1&#45;&gt;CC(=CC=C)O -->
<g id="edge27" class="edge">
<title>Oc1ccccc1&#45;&gt;CC(=CC=C)O</title>
<path fill="none" stroke="#000000" d="M707,-845.5478C707,-835.4505 707,-825.2275 707,-815.4847"/>
<polygon fill="#000000" stroke="#000000" points="707,-810.4369 709.2501,-815.4368 707,-812.9369 707.0001,-815.4369 707.0001,-815.4369 707.0001,-815.4369 707,-812.9369 704.7501,-815.4369 707,-810.4369 707,-810.4369"/>
</g>
<!-- OCC=CC=C -->
<g id="node23" class="node">
<title>OCC=CC=C</title>
<image xlink:href="molecules/OCC=CC=C.svg" width="166px" height="107px" preserveAspectRatio="xMinYMin meet" x="440" y="-810"/>
</g>
<!-- Oc1ccccc1&#45;&gt;OCC=CC=C -->
<g id="edge29" class="edge">
<title>Oc1ccccc1&#45;&gt;OCC=CC=C</title>
<path fill="none" stroke="#000000" d="M650.1762,-854.9399C647.1303,-851.8624 644.0622,-848.8659 641,-846 629.0909,-834.8542 615.8382,-823.7365 602.6389,-813.3173"/>
<polygon fill="#000000" stroke="#000000" points="598.5458,-810.107 603.8687,-811.4224 600.5129,-811.6499 602.48,-813.1928 602.48,-813.1928 602.48,-813.1928 600.5129,-811.6499 601.0914,-814.9632 598.5458,-810.107 598.5458,-810.107"/>
</g>
<!-- CCCc1ccc(c(c1)O)O&#45;&gt;CCc1ccc(c(c1)O)O -->
<g id="edge30" class="edge">
<title>CCCc1ccc(c(c1)O)O&#45;&gt;CCc1ccc(c(c1)O)O</title>
<path fill="none" stroke="#000000" d="M354.2992,-1649.0776C371.9056,-1629.5429 390.3632,-1609.0637 407.5731,-1589.9689"/>
<polygon fill="#000000" stroke="#000000" points="410.9978,-1586.1691 409.3217,-1591.3896 409.324,-1588.0262 407.6503,-1589.8832 407.6503,-1589.8832 407.6503,-1589.8832 409.324,-1588.0262 405.9789,-1588.3769 410.9978,-1586.1691 410.9978,-1586.1691"/>
</g>
<!-- OC(=CC=C)CO&#45;&gt;CC(=CC=C)O -->
<g id="edge31" class="edge">
<title>OC(=CC=C)CO&#45;&gt;CC(=CC=C)O</title>
<path fill="none" stroke="#000000" d="M621.9876,-845.5478C632.0695,-834.9874 642.2827,-824.2893 651.9653,-814.1471"/>
<polygon fill="#000000" stroke="#000000" points="655.5074,-810.4369 653.6822,-815.6071 653.7811,-812.2451 652.0547,-814.0534 652.0547,-814.0534 652.0547,-814.0534 653.7811,-812.2451 650.4273,-812.4997 655.5074,-810.4369 655.5074,-810.4369"/>
</g>
<!-- OC(=CC=C)CO&#45;&gt;OCC=CC=C -->
<g id="edge32" class="edge">
<title>OC(=CC=C)CO&#45;&gt;OCC=CC=C</title>
<path fill="none" stroke="#000000" d="M536.9894,-845.5478C535.4031,-835.4505 533.7971,-825.2275 532.2665,-815.4847"/>
<polygon fill="#000000" stroke="#000000" points="531.4735,-810.4369 534.4723,-815.027 531.8615,-812.9066 532.2495,-815.3763 532.2495,-815.3763 532.2495,-815.3763 531.8615,-812.9066 530.0268,-815.7255 531.4735,-810.4369 531.4735,-810.4369"/>
</g>
<!-- C=CC=C -->
<g id="node24" class="node">
<title>C=CC=C</title>
<image xlink:href="molecules/C=CC=C.svg" width="122px" height="88px" preserveAspectRatio="xMinYMin meet" x="749" y="-543"/>
</g>
<!-- OC=CC=C&#45;&gt;C=CC=C -->
<g id="edge33" class="edge">
<title>OC=CC=C&#45;&gt;C=CC=C</title>
<path fill="none" stroke="#000000" d="M853.1897,-578.9331C847.7752,-568.9123 841.9912,-558.2076 836.4735,-547.9958"/>
<polygon fill="#000000" stroke="#000000" points="833.9594,-543.3428 838.3158,-546.6721 835.1479,-545.5423 836.3363,-547.7417 836.3363,-547.7417 836.3363,-547.7417 835.1479,-545.5423 834.3568,-548.8113 833.9594,-543.3428 833.9594,-543.3428"/>
</g>
<!-- CO -->
<g id="node29" class="node">
<title>CO</title>
<image xlink:href="molecules/CO.svg" width="92px" height="62px" preserveAspectRatio="xMinYMin meet" x="639" y="-530"/>
</g>
<!-- OC=CC=C&#45;&gt;CO -->
<g id="edge34" class="edge">
<title>OC=CC=C&#45;&gt;CO</title>
<path fill="none" stroke="#000000" d="M800.7587,-581.13C780.6342,-569.3656 759.1872,-556.1728 740,-543 735.5234,-539.9266 730.9449,-536.5956 726.4346,-533.1887"/>
<polygon fill="#000000" stroke="#000000" points="722.3166,-530.0438 727.656,-531.2903 724.3035,-531.5612 726.2903,-533.0785 726.2903,-533.0785 726.2903,-533.0785 724.3035,-531.5612 724.9247,-534.8667 722.3166,-530.0438 722.3166,-530.0438"/>
</g>
<!-- CC=CC=C(O)C&#45;&gt;CC=CC=CO -->
<g id="edge36" class="edge">
<title>CC=CC=C(O)C&#45;&gt;CC=CC=CO</title>
<path fill="none" stroke="#000000" d="M880.2389,-845.5478C881.4591,-835.4505 882.6946,-825.2275 883.8719,-815.4847"/>
<polygon fill="#000000" stroke="#000000" points="884.482,-810.4369 886.1157,-815.6707 884.182,-812.9188 883.882,-815.4007 883.882,-815.4007 883.882,-815.4007 884.182,-812.9188 881.6483,-815.1308 884.482,-810.4369 884.482,-810.4369"/>
</g>
<!-- CC=CC=C(O)C&#45;&gt;CC(=CC=C)O -->
<g id="edge35" class="edge">
<title>CC=CC=C(O)C&#45;&gt;CC(=CC=C)O</title>
<path fill="none" stroke="#000000" d="M795.2407,-845.5478C784.776,-834.9874 774.1749,-824.2893 764.1246,-814.1471"/>
<polygon fill="#000000" stroke="#000000" points="760.448,-810.4369 765.5657,-812.4047 762.2077,-812.2127 763.9674,-813.9885 763.9674,-813.9885 763.9674,-813.9885 762.2077,-812.2127 762.3692,-815.5722 760.448,-810.4369 760.448,-810.4369"/>
</g>
<!-- CCc1ccc(c(c1)O)O&#45;&gt;Cc1ccc(c(c1)O)O -->
<g id="edge37" class="edge">
<title>CCc1ccc(c(c1)O)O&#45;&gt;Cc1ccc(c(c1)O)O</title>
<path fill="none" stroke="#000000" d="M551.2189,-1443.1295C573.8746,-1422.0382 598.9657,-1398.6795 621.5645,-1377.6412"/>
<polygon fill="#000000" stroke="#000000" points="625.4606,-1374.0141 623.3341,-1379.0679 623.6308,-1375.7175 621.801,-1377.421 621.801,-1377.421 621.801,-1377.421 623.6308,-1375.7175 620.2678,-1375.7742 625.4606,-1374.0141 625.4606,-1374.0141"/>
</g>
<!-- CC=CC=C&#45;&gt;C=CC=C -->
<g id="edge38" class="edge">
<title>CC=CC=C&#45;&gt;C=CC=C</title>
<path fill="none" stroke="#000000" d="M743.604,-578.9331C752.0777,-568.7317 761.1401,-557.8216 769.76,-547.4443"/>
<polygon fill="#000000" stroke="#000000" points="773.1669,-543.3428 771.7028,-548.6267 771.5694,-545.2659 769.972,-547.189 769.972,-547.189 769.972,-547.189 771.5694,-545.2659 768.2412,-545.7513 773.1669,-543.3428 773.1669,-543.3428"/>
</g>
<!-- CC(=CC=C)O&#45;&gt;OC=CC=C -->
<g id="edge40" class="edge">
<title>CC(=CC=C)O&#45;&gt;OC=CC=C</title>
<path fill="none" stroke="#000000" d="M775.166,-702.9697C788.895,-692.1883 803.2344,-680.9277 816.6729,-670.3745"/>
<polygon fill="#000000" stroke="#000000" points="820.8129,-667.1234 818.2702,-671.9811 818.8467,-668.6674 816.8805,-670.2115 816.8805,-670.2115 816.8805,-670.2115 818.8467,-668.6674 815.4908,-668.4419 820.8129,-667.1234 820.8129,-667.1234"/>
</g>
<!-- CC(=CC=C)O&#45;&gt;CC=CC=C -->
<g id="edge41" class="edge">
<title>CC(=CC=C)O&#45;&gt;CC=CC=C</title>
<path fill="none" stroke="#000000" d="M707,-702.9697C707,-692.8389 707,-682.285 707,-672.2925"/>
<polygon fill="#000000" stroke="#000000" points="707,-667.1234 709.2501,-672.1233 707,-669.6234 707.0001,-672.1234 707.0001,-672.1234 707.0001,-672.1234 707,-669.6234 704.7501,-672.1234 707,-667.1234 707,-667.1234"/>
</g>
<!-- CCO -->
<g id="node26" class="node">
<title>CCO</title>
<image xlink:href="molecules/CCO.svg" width="113px" height="77px" preserveAspectRatio="xMinYMin meet" x="499.5" y="-661.5"/>
</g>
<!-- CC(=CC=C)O&#45;&gt;CCO -->
<g id="edge39" class="edge">
<title>CC(=CC=C)O&#45;&gt;CCO</title>
<path fill="none" stroke="#000000" d="M646.4526,-702.9697C632.2029,-690.3714 617.2129,-677.1187 603.6244,-665.105"/>
<polygon fill="#000000" stroke="#000000" points="599.8307,-661.751 605.067,-663.3772 601.7037,-663.4069 603.5767,-665.0628 603.5767,-665.0628 603.5767,-665.0628 601.7037,-663.4069 602.0864,-666.7485 599.8307,-661.751 599.8307,-661.751"/>
</g>
<!-- OCC=CC=C&#45;&gt;CC=CC=C -->
<g id="edge43" class="edge">
<title>OCC=CC=C&#45;&gt;CC=CC=C</title>
<path fill="none" stroke="#000000" d="M596.7796,-702.9697C611.7674,-692.0954 627.4272,-680.7335 642.0808,-670.1017"/>
<polygon fill="#000000" stroke="#000000" points="646.1857,-667.1234 643.4601,-671.8809 644.1622,-668.5915 642.1387,-670.0597 642.1387,-670.0597 642.1387,-670.0597 644.1622,-668.5915 640.8174,-668.2385 646.1857,-667.1234 646.1857,-667.1234"/>
</g>
<!-- OCC=CC=C&#45;&gt;CCO -->
<g id="edge42" class="edge">
<title>OCC=CC=C&#45;&gt;CCO</title>
<path fill="none" stroke="#000000" d="M536.2322,-702.9697C539.2133,-690.9098 542.3426,-678.2502 545.2096,-666.6519"/>
<polygon fill="#000000" stroke="#000000" points="546.4211,-661.751 547.4054,-667.1449 545.8211,-664.178 545.2212,-666.6049 545.2212,-666.6049 545.2212,-666.6049 545.8211,-664.178 543.0369,-666.065 546.4211,-661.751 546.4211,-661.751"/>
</g>
<!-- CC=C -->
<g id="node27" class="node">
<title>CC=C</title>
<image xlink:href="molecules/CC=C.svg" width="113px" height="77px" preserveAspectRatio="xMinYMin meet" x="598.5" y="-419"/>
</g>
<!-- C=CC=C&#45;&gt;CC=C -->
<g id="edge44" class="edge">
<title>C=CC=C&#45;&gt;CC=C</title>
<path fill="none" stroke="#000000" d="M752.2837,-454.875C738.3213,-444.2005 723.4407,-432.824 709.6254,-422.262"/>
<polygon fill="#000000" stroke="#000000" points="705.3743,-419.0119 710.713,-420.2613 707.3603,-420.5303 709.3464,-422.0487 709.3464,-422.0487 709.3464,-422.0487 707.3603,-420.5303 707.9799,-423.8362 705.3743,-419.0119 705.3743,-419.0119"/>
</g>
<!-- C=C -->
<g id="node25" class="node">
<title>C=C</title>
<image xlink:href="molecules/C=C.svg" width="92px" height="62px" preserveAspectRatio="xMinYMin meet" x="620" y="-306"/>
</g>
<g id="node30" class="node">
<title></title>
<image xlink:href="molecules/_empty.svg" width="269px" height="208px" preserveAspectRatio="xMinYMin meet" x="531.5" y="-208"/>
</g>
<!-- C=C&#45;&gt; -->
<g id="edge45" class="edge">
<title>C=C&#45;&gt;</title>
<path fill="none" stroke="#000000" d="M666,-243.636C666,-234.6058 666,-224.2069 666,-213.2423"/>
<polygon fill="#000000" stroke="#000000" points="666,-208.1676 668.2501,-213.1675 666,-210.6676 666.0001,-213.1676 666.0001,-213.1676 666.0001,-213.1676 666,-210.6676 663.7501,-213.1676 666,-208.1676 666,-208.1676"/>
</g>
<!-- CC -->
<g id="node28" class="node">
<title>CC</title>
<image xlink:href="molecules/CC.svg" width="92px" height="62px" preserveAspectRatio="xMinYMin meet" x="510" y="-306"/>
</g>
<!-- CCO&#45;&gt;CC -->
<g id="edge46" class="edge">
<title>CCO&#45;&gt;CC</title>
<path fill="none" stroke="#000000" d="M556,-584.4283C556,-516.6469 556,-377.111 556,-311.1111"/>
<polygon fill="#000000" stroke="#000000" points="556,-306.1051 558.2501,-311.105 556,-308.6051 556.0001,-311.1051 556.0001,-311.1051 556.0001,-311.1051 556,-308.6051 553.7501,-311.1051 556,-306.1051 556,-306.1051"/>
</g>
<!-- CCO&#45;&gt;CO -->
<g id="edge47" class="edge">
<title>CCO&#45;&gt;CO</title>
<path fill="none" stroke="#000000" d="M596.1093,-584.4453C613.0245,-568.1858 632.5643,-549.4033 649.009,-533.596"/>
<polygon fill="#000000" stroke="#000000" points="652.6845,-530.0629 650.6391,-535.1501 650.8822,-531.7954 649.0798,-533.5279 649.0798,-533.5279 649.0798,-533.5279 650.8822,-531.7954 647.5205,-531.9058 652.6845,-530.0629 652.6845,-530.0629"/>
</g>
<!-- CC=C&#45;&gt;C=C -->
<g id="edge48" class="edge">
<title>CC=C&#45;&gt;C=C</title>
<path fill="none" stroke="#000000" d="M659.0335,-341.8148C660.0778,-331.799 661.1982,-321.0535 662.2285,-311.172"/>
<polygon fill="#000000" stroke="#000000" points="662.7582,-306.0918 664.4775,-311.2982 662.4989,-308.5783 662.2396,-311.0648 662.2396,-311.0648 662.2396,-311.0648 662.4989,-308.5783 660.0017,-310.8314 662.7582,-306.0918 662.7582,-306.0918"/>
</g>
<!-- CC=C&#45;&gt;CC -->
<g id="edge49" class="edge">
<title>CC=C&#45;&gt;CC</title>
<path fill="none" stroke="#000000" d="M618.6982,-341.8148C608.8684,-331.3396 598.2896,-320.0662 588.6726,-309.8177"/>
<polygon fill="#000000" stroke="#000000" points="585.1762,-306.0918 590.2384,-308.1982 586.8869,-307.9148 588.5976,-309.7379 588.5976,-309.7379 588.5976,-309.7379 586.8869,-307.9148 586.9569,-311.2775 585.1762,-306.0918 585.1762,-306.0918"/>
</g>
<!-- CC&#45;&gt; -->
<g id="edge50" class="edge">
<title>CC&#45;&gt;</title>
<path fill="none" stroke="#000000" d="M576.1757,-243.636C582.0893,-234.4431 588.9152,-223.8318 596.1088,-212.6491"/>
<polygon fill="#000000" stroke="#000000" points="598.9916,-208.1676 598.1788,-213.59 597.6391,-210.2701 596.2865,-212.3727 596.2865,-212.3727 596.2865,-212.3727 597.6391,-210.2701 594.3943,-211.1554 598.9916,-208.1676 598.9916,-208.1676"/>
</g>
<!-- CO&#45;&gt; -->
<g id="edge51" class="edge">
<title>CO&#45;&gt;</title>
<path fill="none" stroke="#000000" d="M702.7688,-467.7524C709.9509,-453.3862 717.3883,-435.8271 721,-419 737.3221,-342.9541 735.4726,-320.4194 721,-244 719.0791,-233.8571 716.44,-223.5084 713.3502,-213.2594"/>
<polygon fill="#000000" stroke="#000000" points="711.7984,-208.2373 715.4243,-212.3502 712.5365,-210.6259 713.2746,-213.0145 713.2746,-213.0145 713.2746,-213.0145 712.5365,-210.6259 711.1249,-213.6787 711.7984,-208.2373 711.7984,-208.2373"/>
</g>
</g>
</svg>
