<?xml version="1.0" encoding="UTF-8" standalone="no"?>
<!DOCTYPE svg PUBLIC "-//W3C//DTD SVG 1.1//EN"
 "http://www.w3.org/Graphics/SVG/1.1/DTD/svg11.dtd">
<!-- Generated by graphviz version 2.40.1 (20161225.0304)
 -->
<!-- Title: %3 Pages: 1 -->
<svg width="868pt" height="1644pt"
 viewBox="0.00 0.00 868.08 1644.00" xmlns="http://www.w3.org/2000/svg" xmlns:xlink="http://www.w3.org/1999/xlink">
<g id="graph0" class="graph" transform="scale(1 1) rotate(0) translate(4 1640)">
<title>%3</title>
<polygon fill="#ffffff" stroke="transparent" points="-4,4 -4,-1640 864.085,-1640 864.085,4 -4,4"/>
<!-- Oc1ccc(cc1O)CCNCCc1ccccc1 -->
<g id="node1" class="node">
<title>Oc1ccc(cc1O)CCNCCc1ccccc1</title>
<image xlink:href="molecules/Oc1ccc⚪cc1O⚫CCNCCc1ccccc1.svg" width="296px" height="212px" preserveAspectRatio="xMinYMin meet" x="41.585" y="-1362"/>
</g>
<!-- CCCCNCCc1ccc(c(c1)O)O -->
<g id="node7" class="node">
<title>CCCCNCCc1ccc(c(c1)O)O</title>
<image xlink:href="molecules/CCCCNCCc1ccc⚪c⚪c1⚫O⚫O.svg" width="296px" height="122px" preserveAspectRatio="xMinYMin meet" x="256.585" y="-1024"/>
</g>
<!-- Oc1ccc(cc1O)CCNCCc1ccccc1&#45;&gt;CCCCNCCc1ccc(c(c1)O)O -->
<g id="edge9" class="edge">
<title>Oc1ccc(cc1O)CCNCCc1ccccc1&#45;&gt;CCCCNCCc1ccc(c(c1)O)O</title>
<path fill="none" stroke="#000000" d="M267.5089,-1149.806C297.3028,-1109.2032 330.3833,-1064.1213 356.5818,-1028.4183"/>
<polygon fill="#000000" stroke="#000000" points="359.7419,-1024.1117 358.5979,-1029.474 358.2629,-1026.1273 356.7839,-1028.1429 356.7839,-1028.1429 356.7839,-1028.1429 358.2629,-1026.1273 354.9699,-1026.8117 359.7419,-1024.1117 359.7419,-1024.1117"/>
</g>
<!-- CNCCc1ccc(c(c1)O)O -->
<g id="node2" class="node">
<title>CNCCc1ccc(c(c1)O)O</title>
<image xlink:href="molecules/CNCCc1ccc⚪c⚪c1⚫O⚫O.svg" width="218px" height="167px" preserveAspectRatio="xMinYMin meet" x="393.585" y="-806"/>
</g>
<!-- NCCc1ccc(cc1)O -->
<g id="node10" class="node">
<title>NCCc1ccc(cc1)O</title>
<image xlink:href="molecules/NCCc1ccc⚪cc1⚫O.svg" width="140px" height="197px" preserveAspectRatio="xMinYMin meet" x="432.585" y="-603"/>
</g>
<!-- CNCCc1ccc(c(c1)O)O&#45;&gt;NCCc1ccc(cc1)O -->
<g id="edge11" class="edge">
<title>CNCCc1ccc(c(c1)O)O&#45;&gt;NCCc1ccc(cc1)O</title>
<path fill="none" stroke="#000000" d="M502.585,-638.839C502.585,-628.8298 502.585,-618.5188 502.585,-608.2697"/>
<polygon fill="#000000" stroke="#000000" points="502.585,-603.2449 504.8351,-608.2448 502.585,-605.7449 502.5851,-608.2449 502.5851,-608.2449 502.5851,-608.2449 502.585,-605.7449 500.3351,-608.2449 502.585,-603.2449 502.585,-603.2449"/>
</g>
<!-- CCc1ccccc1 -->
<g id="node3" class="node">
<title>CCc1ccccc1</title>
<image xlink:href="molecules/CCc1ccccc1.svg" width="113px" height="167px" preserveAspectRatio="xMinYMin meet" x="315.085" y="-167"/>
</g>
<!-- OC1C=CC2C34C1Oc1c4c(CC2N(CC3)C)ccc1O -->
<g id="node4" class="node">
<title>OC1C=CC2C34C1Oc1c4c(CC2N(CC3)C)ccc1O</title>
<polygon fill="none" stroke="#000000" points="832.585,-1634.5 632.585,-1634.5 632.585,-1429.5 832.585,-1429.5 832.585,-1634.5"/>
<image xlink:href="molecules/OC1C=CC2C34C1Oc1c4c⚪CC2N⚪CC3⚫C⚫ccc1O.svg" width="200px" height="205px" preserveAspectRatio="xMinYMin meet" x="632.585" y="-1634.5"/>
</g>
<!-- NCCc1ccc(cc1C(CC=CCO)C)O -->
<g id="node5" class="node">
<title>NCCc1ccc(cc1C(CC=CCO)C)O</title>
<image xlink:href="molecules/NCCc1ccc⚪cc1C⚪CC=CCO⚫C⚫O.svg" width="243px" height="227px" preserveAspectRatio="xMinYMin meet" x="617.085" y="-1369.5"/>
</g>
<!-- OC1C=CC2C34C1Oc1c4c(CC2N(CC3)C)ccc1O&#45;&gt;NCCc1ccc(cc1C(CC=CCO)C)O -->
<g id="edge7" class="edge">
<title>OC1C=CC2C34C1Oc1c4c(CC2N(CC3)C)ccc1O&#45;&gt;NCCc1ccc(cc1C(CC=CCO)C)O</title>
<path fill="none" stroke="#000000" d="M734.8192,-1429.2278C735.2059,-1411.4361 735.6109,-1392.8072 736.006,-1374.6353"/>
<polygon fill="#000000" stroke="#000000" points="736.1171,-1369.5231 738.2578,-1374.5708 736.0627,-1372.0225 736.0083,-1374.5219 736.0083,-1374.5219 736.0083,-1374.5219 736.0627,-1372.0225 733.7589,-1374.473 736.1171,-1369.5231 736.1171,-1369.5231"/>
</g>
<!-- CCCCN(C(Cc1ccc(c(c1)O)O)CC=CC)C -->
<g id="node13" class="node">
<title>CCCCN(C(Cc1ccc(c(c1)O)O)CC=CC)C</title>
<image xlink:href="molecules/CCCCN⚪C⚪Cc1ccc⚪c⚪c1⚫O⚫O⚫CC=CC⚫C.svg" width="243px" height="272px" preserveAspectRatio="xMinYMin meet" x="356.085" y="-1392"/>
</g>
<!-- OC1C=CC2C34C1Oc1c4c(CC2N(CC3)C)ccc1O&#45;&gt;CCCCN(C(Cc1ccc(c(c1)O)O)CC=CC)C -->
<g id="edge8" class="edge">
<title>OC1C=CC2C34C1Oc1c4c(CC2N(CC3)C)ccc1O&#45;&gt;CCCCN(C(Cc1ccc(c(c1)O)O)CC=CC)C</title>
<path fill="none" stroke="#000000" d="M637.6324,-1429.2278C626.3397,-1417.0051 614.6818,-1404.3872 603.0467,-1391.7938"/>
<polygon fill="#000000" stroke="#000000" points="599.4369,-1387.8868 604.4826,-1390.0324 601.1335,-1389.723 602.83,-1391.5593 602.83,-1391.5593 602.83,-1391.5593 601.1335,-1389.723 601.1774,-1393.0862 599.4369,-1387.8868 599.4369,-1387.8868"/>
</g>
<!-- NCCc1ccc(cc1C(CC=CCO)C)O&#45;&gt;NCCc1ccc(cc1)O -->
<g id="edge13" class="edge">
<title>NCCc1ccc(cc1C(CC=CCO)C)O&#45;&gt;NCCc1ccc(cc1)O</title>
<path fill="none" stroke="#000000" d="M745.6515,-1142.165C747.9369,-1057.9599 744.8873,-941.173 719.585,-842 694.7697,-744.7362 676.1772,-722.5796 620.585,-639 607.5499,-619.4026 591.8941,-599.6235 576.3106,-581.487"/>
<polygon fill="#000000" stroke="#000000" points="572.7773,-577.401 577.7497,-579.7114 574.4126,-579.2921 576.0478,-581.1831 576.0478,-581.1831 576.0478,-581.1831 574.4126,-579.2921 574.3459,-582.6548 572.7773,-577.401 572.7773,-577.401"/>
</g>
<!-- NCCc1ccccc1CC -->
<g id="node11" class="node">
<title>NCCc1ccccc1CC</title>
<image xlink:href="molecules/NCCc1ccccc1CC.svg" width="191px" height="167px" preserveAspectRatio="xMinYMin meet" x="47.085" y="-1046.5"/>
</g>
<!-- NCCc1ccc(cc1C(CC=CCO)C)O&#45;&gt;NCCc1ccccc1CC -->
<g id="edge12" class="edge">
<title>NCCc1ccc(cc1C(CC=CCO)C)O&#45;&gt;NCCc1ccccc1CC</title>
<path fill="none" stroke="#000000" d="M642.9735,-1142.3852C631.8202,-1133.7128 619.9718,-1126.0125 607.585,-1120 462.9277,-1049.7841 390.3696,-1157.9496 247.585,-1084 231.4437,-1075.6402 216.7005,-1063.6627 203.6936,-1050.4593"/>
<polygon fill="#000000" stroke="#000000" points="200.0714,-1046.7048 205.1622,-1048.7409 201.8072,-1048.504 203.543,-1050.3032 203.543,-1050.3032 203.543,-1050.3032 201.8072,-1048.504 201.9237,-1051.8654 200.0714,-1046.7048 200.0714,-1046.7048"/>
</g>
<!-- CN1CCc2c3C1Cc1ccc(c(c1c3ccc2)O)O -->
<g id="node6" class="node">
<title>CN1CCc2c3C1Cc1ccc(c(c1c3ccc2)O)O</title>
<polygon fill="none" stroke="#000000" points="311.585,-1630 67.585,-1630 67.585,-1434 311.585,-1434 311.585,-1630"/>
<image xlink:href="molecules/CN1CCc2c3C1Cc1ccc⚪c⚪c1c3ccc2⚫O⚫O.svg" width="244px" height="196px" preserveAspectRatio="xMinYMin meet" x="67.585" y="-1630"/>
</g>
<!-- CN1CCc2c3C1Cc1ccc(c(c1c3ccc2)O)O&#45;&gt;Oc1ccc(cc1O)CCNCCc1ccccc1 -->
<g id="edge3" class="edge">
<title>CN1CCc2c3C1Cc1ccc(c(c1c3ccc2)O)O&#45;&gt;Oc1ccc(cc1O)CCNCCc1ccccc1</title>
<path fill="none" stroke="#000000" d="M189.585,-1433.9156C189.585,-1412.3992 189.585,-1389.4664 189.585,-1367.4683"/>
<polygon fill="#000000" stroke="#000000" points="189.585,-1362.1969 191.8351,-1367.1968 189.585,-1364.6969 189.5851,-1367.1969 189.5851,-1367.1969 189.5851,-1367.1969 189.585,-1364.6969 187.3351,-1367.1969 189.585,-1362.1969 189.585,-1362.1969"/>
</g>
<!-- CN1CCc2c3C1Cc1ccc(c(c1c3ccc2)O)O&#45;&gt;NCCc1ccccc1CC -->
<g id="edge4" class="edge">
<title>CN1CCc2c3C1Cc1ccc(c(c1c3ccc2)O)O&#45;&gt;NCCc1ccccc1CC</title>
<path fill="none" stroke="#000000" d="M67.5247,-1443.7538C53.3836,-1428.167 41.0229,-1410.8296 32.585,-1392 -16.8508,-1281.6812 -3.7836,-1235.2885 32.585,-1120 40.1882,-1095.8978 52.9596,-1072.2801 67.1641,-1050.9803"/>
<polygon fill="#000000" stroke="#000000" points="70.023,-1046.7517 69.0864,-1052.1541 68.6227,-1048.8228 67.2225,-1050.8939 67.2225,-1050.8939 67.2225,-1050.8939 68.6227,-1048.8228 65.3585,-1049.6336 70.023,-1046.7517 70.023,-1046.7517"/>
</g>
<!-- CN1CCc2c3C1Cc1ccc(c(c1c3ccc2)O)O&#45;&gt;CCCCN(C(Cc1ccc(c(c1)O)O)CC=CC)C -->
<g id="edge5" class="edge">
<title>CN1CCc2c3C1Cc1ccc(c(c1c3ccc2)O)O&#45;&gt;CCCCN(C(Cc1ccc(c(c1)O)O)CC=CC)C</title>
<path fill="none" stroke="#000000" d="M301.6119,-1433.9839C316.8923,-1420.0703 332.2432,-1405.8006 346.585,-1392 348.4084,-1390.2454 350.2409,-1388.473 352.0803,-1386.6855"/>
<polygon fill="#000000" stroke="#000000" points="355.865,-1382.9958 353.8554,-1388.0973 354.0749,-1384.741 352.2848,-1386.4861 352.2848,-1386.4861 352.2848,-1386.4861 354.0749,-1384.741 350.7141,-1384.875 355.865,-1382.9958 355.865,-1382.9958"/>
</g>
<!-- CCCCNCCc1ccc(c(c1)O)O&#45;&gt;CNCCc1ccc(c(c1)O)O -->
<g id="edge15" class="edge">
<title>CCCCNCCc1ccc(c(c1)O)O&#45;&gt;CNCCc1ccc(c(c1)O)O</title>
<path fill="none" stroke="#000000" d="M429.5681,-901.6894C440.7646,-874.2124 454.1837,-841.2808 466.4463,-811.1873"/>
<polygon fill="#000000" stroke="#000000" points="468.4039,-806.3831 468.6007,-811.8625 467.4605,-808.6983 466.5171,-811.0134 466.5171,-811.0134 466.5171,-811.0134 467.4605,-808.6983 464.4334,-810.1643 468.4039,-806.3831 468.4039,-806.3831"/>
</g>
<!-- CNCC(c1ccc(c(c1)O)O)O -->
<g id="node8" class="node">
<title>CNCC(c1ccc(c(c1)O)O)O</title>
<polygon fill="none" stroke="#000000" points="710.585,-1084 570.585,-1084 570.585,-842 710.585,-842 710.585,-1084"/>
<image xlink:href="molecules/CNCC⚪c1ccc⚪c⚪c1⚫O⚫O⚫O.svg" width="140px" height="242px" preserveAspectRatio="xMinYMin meet" x="570.585" y="-1084"/>
</g>
<!-- CNCC(c1ccc(c(c1)O)O)O&#45;&gt;CNCCc1ccc(c(c1)O)O -->
<g id="edge6" class="edge">
<title>CNCC(c1ccc(c(c1)O)O)O&#45;&gt;CNCCc1ccc(c(c1)O)O</title>
<path fill="none" stroke="#000000" d="M570.9786,-841.6931C564.9415,-831.172 558.9106,-820.6616 553.0707,-810.4842"/>
<polygon fill="#000000" stroke="#000000" points="550.5802,-806.1438 555.0203,-809.3608 551.8245,-808.3122 553.0687,-810.4806 553.0687,-810.4806 553.0687,-810.4806 551.8245,-808.3122 551.1172,-811.6004 550.5802,-806.1438 550.5802,-806.1438"/>
</g>
<!-- Oc1ccc(cc1)C1CNCCc2c1cc(O)c(c2Cl)O -->
<g id="node9" class="node">
<title>Oc1ccc(cc1)C1CNCCc2c1cc(O)c(c2Cl)O</title>
<polygon fill="none" stroke="#000000" points="609.085,-1636 340.085,-1636 340.085,-1428 609.085,-1428 609.085,-1636"/>
<image xlink:href="molecules/Oc1ccc⚪cc1⚫C1CNCCc2c1cc⚪O⚫c⚪c2Cl⚫O.svg" width="269px" height="208px" preserveAspectRatio="xMinYMin meet" x="340.085" y="-1636"/>
</g>
<!-- Oc1ccc(cc1)C1CNCCc2c1cc(O)c(c2Cl)O&#45;&gt;Oc1ccc(cc1O)CCNCCc1ccccc1 -->
<g id="edge2" class="edge">
<title>Oc1ccc(cc1)C1CNCCc2c1cc(O)c(c2Cl)O&#45;&gt;Oc1ccc(cc1O)CCNCCc1ccccc1</title>
<path fill="none" stroke="#000000" d="M366.8387,-1427.6562C345.9772,-1407.4536 324.0575,-1386.226 303.0203,-1365.8532"/>
<polygon fill="#000000" stroke="#000000" points="299.3785,-1362.3263 304.5356,-1364.1884 301.1744,-1364.0655 302.9703,-1365.8047 302.9703,-1365.8047 302.9703,-1365.8047 301.1744,-1364.0655 301.405,-1367.4211 299.3785,-1362.3263 299.3785,-1362.3263"/>
</g>
<!-- Oc1ccc(cc1)C1CNCCc2c1cc(O)c(c2Cl)O&#45;&gt;NCCc1ccc(cc1C(CC=CCO)C)O -->
<g id="edge1" class="edge">
<title>Oc1ccc(cc1)C1CNCCc2c1cc(O)c(c2Cl)O&#45;&gt;NCCc1ccc(cc1C(CC=CCO)C)O</title>
<path fill="none" stroke="#000000" d="M574.3921,-1427.6562C591.225,-1410.0582 608.8017,-1391.6825 625.934,-1373.7715"/>
<polygon fill="#000000" stroke="#000000" points="629.813,-1369.7162 627.9828,-1374.8847 628.0849,-1371.5228 626.3569,-1373.3294 626.3569,-1373.3294 626.3569,-1373.3294 628.0849,-1371.5228 624.7309,-1371.7741 629.813,-1369.7162 629.813,-1369.7162"/>
</g>
<!-- NCCc1ccccc1 -->
<g id="node12" class="node">
<title>NCCc1ccccc1</title>
<image xlink:href="molecules/NCCc1ccccc1.svg" width="140px" height="167px" preserveAspectRatio="xMinYMin meet" x="301.585" y="-370"/>
</g>
<!-- NCCc1ccc(cc1)O&#45;&gt;NCCc1ccccc1 -->
<g id="edge14" class="edge">
<title>NCCc1ccc(cc1)O&#45;&gt;NCCc1ccccc1</title>
<path fill="none" stroke="#000000" d="M443.2176,-405.7054C436.9979,-395.3551 430.7039,-384.881 424.5623,-374.6608"/>
<polygon fill="#000000" stroke="#000000" points="421.9403,-370.2973 426.4443,-373.4241 423.228,-372.4402 424.5157,-374.5831 424.5157,-374.5831 424.5157,-374.5831 423.228,-372.4402 422.5871,-375.742 421.9403,-370.2973 421.9403,-370.2973"/>
</g>
<!-- NCCc1ccccc1CC&#45;&gt;NCCc1ccccc1 -->
<g id="edge17" class="edge">
<title>NCCc1ccccc1CC&#45;&gt;NCCc1ccccc1</title>
<path fill="none" stroke="#000000" d="M170.8946,-879.3693C214.3431,-751.0158 297.0932,-506.5598 341.5544,-375.2148"/>
<polygon fill="#000000" stroke="#000000" points="343.2504,-370.2047 343.7783,-375.6622 342.4487,-372.5727 341.6471,-374.9407 341.6471,-374.9407 341.6471,-374.9407 342.4487,-372.5727 339.5159,-374.2193 343.2504,-370.2047 343.2504,-370.2047"/>
</g>
<!-- NCCc1ccccc1&#45;&gt;CCc1ccccc1 -->
<g id="edge16" class="edge">
<title>NCCc1ccccc1&#45;&gt;CCc1ccccc1</title>
<path fill="none" stroke="#000000" d="M371.585,-202.7601C371.585,-192.7157 371.585,-182.4317 371.585,-172.3183"/>
<polygon fill="#000000" stroke="#000000" points="371.585,-167.0474 373.8351,-172.0474 371.585,-169.5474 371.5851,-172.0474 371.5851,-172.0474 371.5851,-172.0474 371.585,-169.5474 369.3351,-172.0475 371.585,-167.0474 371.585,-167.0474"/>
</g>
<!-- CCCCN(C(Cc1ccc(c(c1)O)O)CC=CC)C&#45;&gt;CCCCNCCc1ccc(c(c1)O)O -->
<g id="edge10" class="edge">
<title>CCCCN(C(Cc1ccc(c(c1)O)O)CC=CC)C&#45;&gt;CCCCNCCc1ccc(c(c1)O)O</title>
<path fill="none" stroke="#000000" d="M443.6495,-1119.7932C435.7979,-1088.2793 427.7873,-1056.1271 421.0805,-1029.2081"/>
<polygon fill="#000000" stroke="#000000" points="419.8437,-1024.244 423.2358,-1028.5517 420.4482,-1026.6698 421.0526,-1029.0957 421.0526,-1029.0957 421.0526,-1029.0957 420.4482,-1026.6698 418.8693,-1029.6397 419.8437,-1024.244 419.8437,-1024.244"/>
</g>
</g>
</svg>
