<?xml version="1.0" encoding="UTF-8" standalone="no"?>
<!DOCTYPE svg PUBLIC "-//W3C//DTD SVG 1.1//EN"
 "http://www.w3.org/Graphics/SVG/1.1/DTD/svg11.dtd">
<!-- Generated by graphviz version 2.40.1 (20161225.0304)
 -->
<!-- Title: %3 Pages: 1 -->
<svg width="278pt" height="260pt"
 viewBox="0.00 0.00 278.00 260.00" xmlns="http://www.w3.org/2000/svg" xmlns:xlink="http://www.w3.org/1999/xlink">
<g id="graph0" class="graph" transform="scale(1 1) rotate(0) translate(4 256)">
<title>%3</title>
<polygon fill="#ffffff" stroke="transparent" points="-4,4 -4,-256 274,-256 274,4 -4,4"/>
<!-- 1 -->
<g id="node1" class="node">
<title>1</title>
<ellipse fill="#ffd700" stroke="#000000" cx="135" cy="-18" rx="27" ry="18"/>
<text text-anchor="middle" x="135" y="-14.3" font-family="Times,serif" font-size="14.00" fill="#000000">1</text>
</g>
<!-- 2 -->
<g id="node2" class="node">
<title>2</title>
<ellipse fill="#ffd700" stroke="#000000" cx="99" cy="-90" rx="27" ry="18"/>
<text text-anchor="middle" x="99" y="-86.3" font-family="Times,serif" font-size="14.00" fill="#000000">2</text>
</g>
<!-- 2&#45;&gt;1 -->
<g id="edge1" class="edge">
<title>2&#45;&gt;1</title>
<path fill="none" stroke="#000000" d="M107.7146,-72.5708C112.623,-62.7541 118.7998,-50.4003 124.0347,-39.9306"/>
<polygon fill="#000000" stroke="#000000" points="126.3657,-35.2687 126.142,-40.7471 125.2476,-37.5048 124.1295,-39.7408 124.1295,-39.7408 124.1295,-39.7408 125.2476,-37.5048 122.1171,-38.7346 126.3657,-35.2687 126.3657,-35.2687"/>
</g>
<!-- 3 -->
<g id="node3" class="node">
<title>3</title>
<ellipse fill="#ffd700" stroke="#000000" cx="171" cy="-90" rx="27" ry="18"/>
<text text-anchor="middle" x="171" y="-86.3" font-family="Times,serif" font-size="14.00" fill="#000000">3</text>
</g>
<!-- 3&#45;&gt;1 -->
<g id="edge2" class="edge">
<title>3&#45;&gt;1</title>
<path fill="none" stroke="#000000" d="M162.2854,-72.5708C157.377,-62.7541 151.2002,-50.4003 145.9653,-39.9306"/>
<polygon fill="#000000" stroke="#000000" points="143.6343,-35.2687 147.8829,-38.7346 144.7524,-37.5048 145.8705,-39.7408 145.8705,-39.7408 145.8705,-39.7408 144.7524,-37.5048 143.858,-40.7471 143.6343,-35.2687 143.6343,-35.2687"/>
</g>
<!-- 4 -->
<g id="node4" class="node">
<title>4</title>
<ellipse fill="#ffd700" stroke="#000000" cx="99" cy="-162" rx="27" ry="18"/>
<text text-anchor="middle" x="99" y="-158.3" font-family="Times,serif" font-size="14.00" fill="#000000">4</text>
</g>
<!-- 4&#45;&gt;2 -->
<g id="edge3" class="edge">
<title>4&#45;&gt;2</title>
<path fill="none" stroke="#000000" d="M99,-143.8314C99,-134.6078 99,-123.295 99,-113.4246"/>
<polygon fill="#000000" stroke="#000000" points="99,-108.4133 101.2501,-113.4132 99,-110.9133 99.0001,-113.4133 99.0001,-113.4133 99.0001,-113.4133 99,-110.9133 96.7501,-113.4133 99,-108.4133 99,-108.4133"/>
</g>
<!-- 5 -->
<g id="node5" class="node">
<title>5</title>
<ellipse fill="#ffd700" stroke="#000000" cx="27" cy="-90" rx="27" ry="18"/>
<text text-anchor="middle" x="27" y="-86.3" font-family="Times,serif" font-size="14.00" fill="#000000">5</text>
</g>
<!-- 5&#45;&gt;1 -->
<g id="edge4" class="edge">
<title>5&#45;&gt;1</title>
<path fill="none" stroke="#000000" d="M46.3082,-77.1278C64.5841,-64.9439 92.0537,-46.6308 111.5738,-33.6174"/>
<polygon fill="#000000" stroke="#000000" points="115.8589,-30.7607 112.9468,-35.4064 113.7788,-32.1475 111.6987,-33.5343 111.6987,-33.5343 111.6987,-33.5343 113.7788,-32.1475 110.4506,-31.6621 115.8589,-30.7607 115.8589,-30.7607"/>
</g>
<!-- 6 -->
<g id="node6" class="node">
<title>6</title>
<ellipse fill="#ffd700" stroke="#000000" cx="171" cy="-162" rx="27" ry="18"/>
<text text-anchor="middle" x="171" y="-158.3" font-family="Times,serif" font-size="14.00" fill="#000000">6</text>
</g>
<!-- 6&#45;&gt;2 -->
<g id="edge5" class="edge">
<title>6&#45;&gt;2</title>
<path fill="none" stroke="#000000" d="M155.7307,-146.7307C144.6575,-135.6575 129.6149,-120.6149 117.8018,-108.8018"/>
<polygon fill="#000000" stroke="#000000" points="114.2473,-105.2473 119.3739,-107.1919 116.0151,-107.0151 117.7829,-108.7829 117.7829,-108.7829 117.7829,-108.7829 116.0151,-107.0151 116.1919,-110.3739 114.2473,-105.2473 114.2473,-105.2473"/>
</g>
<!-- 6&#45;&gt;3 -->
<g id="edge6" class="edge">
<title>6&#45;&gt;3</title>
<path fill="none" stroke="#000000" d="M171,-143.8314C171,-134.6078 171,-123.295 171,-113.4246"/>
<polygon fill="#000000" stroke="#000000" points="171,-108.4133 173.2501,-113.4132 171,-110.9133 171.0001,-113.4133 171.0001,-113.4133 171.0001,-113.4133 171,-110.9133 168.7501,-113.4133 171,-108.4133 171,-108.4133"/>
</g>
<!-- 7 -->
<g id="node7" class="node">
<title>7</title>
<ellipse fill="#ffd700" stroke="#000000" cx="243" cy="-90" rx="27" ry="18"/>
<text text-anchor="middle" x="243" y="-86.3" font-family="Times,serif" font-size="14.00" fill="#000000">7</text>
</g>
<!-- 7&#45;&gt;1 -->
<g id="edge7" class="edge">
<title>7&#45;&gt;1</title>
<path fill="none" stroke="#000000" d="M223.6918,-77.1278C205.4159,-64.9439 177.9463,-46.6308 158.4262,-33.6174"/>
<polygon fill="#000000" stroke="#000000" points="154.1411,-30.7607 159.5494,-31.6621 156.2212,-32.1475 158.3013,-33.5343 158.3013,-33.5343 158.3013,-33.5343 156.2212,-32.1475 157.0532,-35.4064 154.1411,-30.7607 154.1411,-30.7607"/>
</g>
<!-- 8 -->
<g id="node8" class="node">
<title>8</title>
<ellipse fill="#ffd700" stroke="#000000" cx="99" cy="-234" rx="27" ry="18"/>
<text text-anchor="middle" x="99" y="-230.3" font-family="Times,serif" font-size="14.00" fill="#000000">8</text>
</g>
<!-- 8&#45;&gt;4 -->
<g id="edge8" class="edge">
<title>8&#45;&gt;4</title>
<path fill="none" stroke="#000000" d="M99,-215.8314C99,-206.6078 99,-195.295 99,-185.4246"/>
<polygon fill="#000000" stroke="#000000" points="99,-180.4133 101.2501,-185.4132 99,-182.9133 99.0001,-185.4133 99.0001,-185.4133 99.0001,-185.4133 99,-182.9133 96.7501,-185.4133 99,-180.4133 99,-180.4133"/>
</g>
<!-- 9 -->
<g id="node9" class="node">
<title>9</title>
<ellipse fill="#ffd700" stroke="#000000" cx="243" cy="-162" rx="27" ry="18"/>
<text text-anchor="middle" x="243" y="-158.3" font-family="Times,serif" font-size="14.00" fill="#000000">9</text>
</g>
<!-- 9&#45;&gt;3 -->
<g id="edge9" class="edge">
<title>9&#45;&gt;3</title>
<path fill="none" stroke="#000000" d="M227.7307,-146.7307C216.6575,-135.6575 201.6149,-120.6149 189.8018,-108.8018"/>
<polygon fill="#000000" stroke="#000000" points="186.2473,-105.2473 191.3739,-107.1919 188.0151,-107.0151 189.7829,-108.7829 189.7829,-108.7829 189.7829,-108.7829 188.0151,-107.0151 188.1919,-110.3739 186.2473,-105.2473 186.2473,-105.2473"/>
</g>
<!-- 10 -->
<g id="node10" class="node">
<title>10</title>
<ellipse fill="#ffd700" stroke="#000000" cx="27" cy="-162" rx="27" ry="18"/>
<text text-anchor="middle" x="27" y="-158.3" font-family="Times,serif" font-size="14.00" fill="#000000">10</text>
</g>
<!-- 10&#45;&gt;2 -->
<g id="edge10" class="edge">
<title>10&#45;&gt;2</title>
<path fill="none" stroke="#000000" d="M42.2693,-146.7307C53.3425,-135.6575 68.3851,-120.6149 80.1982,-108.8018"/>
<polygon fill="#000000" stroke="#000000" points="83.7527,-105.2473 81.8081,-110.3739 81.9849,-107.0151 80.2171,-108.7829 80.2171,-108.7829 80.2171,-108.7829 81.9849,-107.0151 78.6261,-107.1919 83.7527,-105.2473 83.7527,-105.2473"/>
</g>
<!-- 10&#45;&gt;5 -->
<g id="edge11" class="edge">
<title>10&#45;&gt;5</title>
<path fill="none" stroke="#000000" d="M27,-143.8314C27,-134.6078 27,-123.295 27,-113.4246"/>
<polygon fill="#000000" stroke="#000000" points="27,-108.4133 29.2501,-113.4132 27,-110.9133 27.0001,-113.4133 27.0001,-113.4133 27.0001,-113.4133 27,-110.9133 24.7501,-113.4133 27,-108.4133 27,-108.4133"/>
</g>
</g>
</svg>
