<?xml version="1.0" encoding="UTF-8" standalone="no"?>
<!DOCTYPE svg PUBLIC "-//W3C//DTD SVG 1.1//EN"
 "http://www.w3.org/Graphics/SVG/1.1/DTD/svg11.dtd">
<!-- Generated by graphviz version 2.40.1 (20161225.0304)
 -->
<!-- Title: %3 Pages: 1 -->
<svg width="758pt" height="1163pt"
 viewBox="0.00 0.00 757.50 1163.00" xmlns="http://www.w3.org/2000/svg" xmlns:xlink="http://www.w3.org/1999/xlink">
<g id="graph0" class="graph" transform="scale(1 1) rotate(0) translate(4 1159)">
<title>%3</title>
<polygon fill="#ffffff" stroke="transparent" points="-4,4 -4,-1159 753.5,-1159 753.5,4 -4,4"/>
<!-- Oc1ccc(cc1)C1CNCCc2c1cc(O)c(c2Cl)O -->
<g id="node1" class="node">
<title>Oc1ccc(cc1)C1CNCCc2c1cc(O)c(c2Cl)O</title>
<polygon fill="none" stroke="#000000" points="269,-1155 0,-1155 0,-947 269,-947 269,-1155"/>
<image xlink:href="molecules/Oc1cccècc1ïC1CNCCc2c1ccèOïcèc2ClïO.svg" width="269px" height="208px" preserveAspectRatio="xMinYMin meet" x="0" y="-1155"/>
</g>
<!-- Oc1ccc(cc1O)CCNCCc1ccccc1 -->
<g id="node5" class="node">
<title>Oc1ccc(cc1O)CCNCCc1ccccc1</title>
<image xlink:href="molecules/Oc1cccècc1OïCCNCCc1ccccc1.svg" width="296px" height="212px" preserveAspectRatio="xMinYMin meet" x="99.5" y="-881"/>
</g>
<!-- Oc1ccc(cc1)C1CNCCc2c1cc(O)c(c2Cl)O&#45;&gt;Oc1ccc(cc1O)CCNCCc1ccccc1 -->
<g id="edge1" class="edge">
<title>Oc1ccc(cc1)C1CNCCc2c1cc(O)c(c2Cl)O&#45;&gt;Oc1ccc(cc1O)CCNCCc1ccccc1</title>
<path fill="none" stroke="#000000" d="M177.2205,-946.6562C185.3209,-926.871 193.8239,-906.1027 202.0064,-886.117"/>
<polygon fill="#000000" stroke="#000000" points="203.9678,-881.3263 204.1555,-886.8061 203.0206,-883.64 202.0733,-885.9536 202.0733,-885.9536 202.0733,-885.9536 203.0206,-883.64 199.9911,-885.101 203.9678,-881.3263 203.9678,-881.3263"/>
</g>
<!-- OC1C=CC2C34C1Oc1c4c(CC2N(CC3)C)ccc1O -->
<g id="node2" class="node">
<title>OC1C=CC2C34C1Oc1c4c(CC2N(CC3)C)ccc1O</title>
<polygon fill="none" stroke="#000000" points="749.5,-1153.5 549.5,-1153.5 549.5,-948.5 749.5,-948.5 749.5,-1153.5"/>
<image xlink:href="molecules/OC1C=CC2C34C1Oc1c4cèCC2NèCC3ïCïccc1O.svg" width="200px" height="205px" preserveAspectRatio="xMinYMin meet" x="549.5" y="-1153.5"/>
</g>
<!-- CCCCN(C(Cc1ccc(c(c1)O)O)CC=CC)C -->
<g id="node7" class="node">
<title>CCCCN(C(Cc1ccc(c(c1)O)O)CC=CC)C</title>
<image xlink:href="molecules/CCCCNèCèCc1cccècèc1ïOïOïCC=CCïC.svg" width="243px" height="272px" preserveAspectRatio="xMinYMin meet" x="414" y="-911"/>
</g>
<!-- OC1C=CC2C34C1Oc1c4c(CC2N(CC3)C)ccc1O&#45;&gt;CCCCN(C(Cc1ccc(c(c1)O)O)CC=CC)C -->
<g id="edge2" class="edge">
<title>OC1C=CC2C34C1Oc1c4c(CC2N(CC3)C)ccc1O&#45;&gt;CCCCN(C(Cc1ccc(c(c1)O)O)CC=CC)C</title>
<path fill="none" stroke="#000000" d="M607.0506,-948.2278C602.6747,-937.6335 598.1762,-926.7423 593.6679,-915.8275"/>
<polygon fill="#000000" stroke="#000000" points="591.7355,-911.1491 595.724,-914.9115 592.6899,-913.4598 593.6444,-915.7704 593.6444,-915.7704 593.6444,-915.7704 592.6899,-913.4598 591.5648,-916.6294 591.7355,-911.1491 591.7355,-911.1491"/>
</g>
<!-- CN1CCc2c3C1Cc1ccc(c(c1c3ccc2)O)O -->
<g id="node3" class="node">
<title>CN1CCc2c3C1Cc1ccc(c(c1c3ccc2)O)O</title>
<polygon fill="none" stroke="#000000" points="531.5,-1149 287.5,-1149 287.5,-953 531.5,-953 531.5,-1149"/>
<image xlink:href="molecules/CN1CCc2c3C1Cc1cccècèc1c3ccc2ïOïO.svg" width="244px" height="196px" preserveAspectRatio="xMinYMin meet" x="287.5" y="-1149"/>
</g>
<!-- CN1CCc2c3C1Cc1ccc(c(c1c3ccc2)O)O&#45;&gt;Oc1ccc(cc1O)CCNCCc1ccccc1 -->
<g id="edge4" class="edge">
<title>CN1CCc2c3C1Cc1ccc(c(c1c3ccc2)O)O&#45;&gt;Oc1ccc(cc1O)CCNCCc1ccccc1</title>
<path fill="none" stroke="#000000" d="M351.9287,-952.9156C339.1397,-931.1269 325.4981,-907.8856 312.437,-885.6334"/>
<polygon fill="#000000" stroke="#000000" points="309.8329,-881.1969 314.3044,-884.37 311.0985,-883.3529 312.364,-885.5089 312.364,-885.5089 312.364,-885.5089 311.0985,-883.3529 310.4235,-886.6479 309.8329,-881.1969 309.8329,-881.1969"/>
</g>
<!-- CN1CCc2c3C1Cc1ccc(c(c1c3ccc2)O)O&#45;&gt;CCCCN(C(Cc1ccc(c(c1)O)O)CC=CC)C -->
<g id="edge3" class="edge">
<title>CN1CCc2c3C1Cc1ccc(c(c1c3ccc2)O)O&#45;&gt;CCCCN(C(Cc1ccc(c(c1)O)O)CC=CC)C</title>
<path fill="none" stroke="#000000" d="M454.2777,-952.9156C459.7585,-940.91 465.4406,-928.4634 471.1376,-915.9843"/>
<polygon fill="#000000" stroke="#000000" points="473.2368,-911.386 473.2071,-916.8689 472.1986,-913.6602 471.1603,-915.9345 471.1603,-915.9345 471.1603,-915.9345 472.1986,-913.6602 469.1135,-915 473.2368,-911.386 473.2368,-911.386"/>
</g>
<!-- CCNCCc1ccc(c(c1)O)O -->
<g id="node4" class="node">
<title>CCNCCc1ccc(c(c1)O)O</title>
<image xlink:href="molecules/CCNCCc1cccècèc1ïOïO.svg" width="243px" height="122px" preserveAspectRatio="xMinYMin meet" x="270" y="-385"/>
</g>
<!-- CNCCc1ccc(c(c1)O)O -->
<g id="node9" class="node">
<title>CNCCc1ccc(c(c1)O)O</title>
<image xlink:href="molecules/CNCCc1cccècèc1ïOïO.svg" width="218px" height="167px" preserveAspectRatio="xMinYMin meet" x="387.5" y="-167"/>
</g>
<!-- CCNCCc1ccc(c(c1)O)O&#45;&gt;CNCCc1ccc(c(c1)O)O -->
<g id="edge5" class="edge">
<title>CCNCCc1ccc(c(c1)O)O&#45;&gt;CNCCc1ccc(c(c1)O)O</title>
<path fill="none" stroke="#000000" d="M418.2676,-262.6894C430.2638,-235.2124 444.6415,-202.2808 457.78,-172.1873"/>
<polygon fill="#000000" stroke="#000000" points="459.8774,-167.3831 459.9388,-172.8657 458.8771,-169.6742 457.8768,-171.9654 457.8768,-171.9654 457.8768,-171.9654 458.8771,-169.6742 455.8147,-171.0651 459.8774,-167.3831 459.8774,-167.3831"/>
</g>
<!-- CCCCNCCc1ccc(c(c1)O)O -->
<g id="node8" class="node">
<title>CCCCNCCc1ccc(c(c1)O)O</title>
<image xlink:href="molecules/CCCCNCCc1cccècèc1ïOïO.svg" width="296px" height="122px" preserveAspectRatio="xMinYMin meet" x="243.5" y="-603"/>
</g>
<!-- Oc1ccc(cc1O)CCNCCc1ccccc1&#45;&gt;CCCCNCCc1ccc(c(c1)O)O -->
<g id="edge6" class="edge">
<title>Oc1ccc(cc1O)CCNCCc1ccccc1&#45;&gt;CCCCNCCc1ccc(c(c1)O)O</title>
<path fill="none" stroke="#000000" d="M313.1791,-668.7275C326.0749,-647.8615 339.2432,-626.5545 351.0121,-607.5117"/>
<polygon fill="#000000" stroke="#000000" points="353.6576,-603.2311 352.9429,-608.6673 352.3433,-605.3577 351.0289,-607.4844 351.0289,-607.4844 351.0289,-607.4844 352.3433,-605.3577 349.115,-606.3015 353.6576,-603.2311 353.6576,-603.2311"/>
</g>
<!-- CNCC(c1ccc(c(c1)O)O)O -->
<g id="node6" class="node">
<title>CNCC(c1ccc(c(c1)O)O)O</title>
<polygon fill="none" stroke="#000000" points="671.5,-445 531.5,-445 531.5,-203 671.5,-203 671.5,-445"/>
<image xlink:href="molecules/CNCCèc1cccècèc1ïOïOïO.svg" width="140px" height="242px" preserveAspectRatio="xMinYMin meet" x="531.5" y="-445"/>
</g>
<!-- CNCC(c1ccc(c(c1)O)O)O&#45;&gt;CNCCc1ccc(c(c1)O)O -->
<g id="edge7" class="edge">
<title>CNCC(c1ccc(c(c1)O)O)O&#45;&gt;CNCCc1ccc(c(c1)O)O</title>
<path fill="none" stroke="#000000" d="M548.5386,-202.6931C543.9862,-192.2659 539.4384,-181.8493 535.0321,-171.7569"/>
<polygon fill="#000000" stroke="#000000" points="533.0181,-167.1438 537.0808,-170.8259 534.0184,-169.435 535.0187,-171.7262 535.0187,-171.7262 535.0187,-171.7262 534.0184,-169.435 532.9567,-172.6264 533.0181,-167.1438 533.0181,-167.1438"/>
</g>
<!-- CCCCN(C(Cc1ccc(c(c1)O)O)CC=CC)C&#45;&gt;CCCCNCCc1ccc(c(c1)O)O -->
<g id="edge8" class="edge">
<title>CCCCN(C(Cc1ccc(c(c1)O)O)CC=CC)C&#45;&gt;CCCCNCCc1ccc(c(c1)O)O</title>
<path fill="none" stroke="#000000" d="M451.318,-638.7888C444.6997,-628.0801 438.2229,-617.6002 432.12,-607.7254"/>
<polygon fill="#000000" stroke="#000000" points="429.3431,-603.2323 433.8858,-606.3027 430.6575,-605.3589 431.9718,-607.4856 431.9718,-607.4856 431.9718,-607.4856 430.6575,-605.3589 430.0578,-608.6685 429.3431,-603.2323 429.3431,-603.2323"/>
</g>
<!-- CCCCNCCc1ccc(c(c1)O)O&#45;&gt;CCNCCc1ccc(c(c1)O)O -->
<g id="edge9" class="edge">
<title>CCCCNCCc1ccc(c(c1)O)O&#45;&gt;CCNCCc1ccc(c(c1)O)O</title>
<path fill="none" stroke="#000000" d="M391.5,-480.985C391.5,-452.7628 391.5,-419.1785 391.5,-390.3296"/>
<polygon fill="#000000" stroke="#000000" points="391.5,-385.0003 393.7501,-390.0003 391.5,-387.5003 391.5001,-390.0003 391.5001,-390.0003 391.5001,-390.0003 391.5,-387.5003 389.2501,-390.0003 391.5,-385.0003 391.5,-385.0003"/>
</g>
</g>
</svg>
