<?xml version="1.0" encoding="UTF-8" standalone="no"?>
<!DOCTYPE svg PUBLIC "-//W3C//DTD SVG 1.1//EN"
 "http://www.w3.org/Graphics/SVG/1.1/DTD/svg11.dtd">
<!-- Generated by graphviz version 2.40.1 (20161225.0304)
 -->
<!-- Title: %3 Pages: 1 -->
<svg width="866pt" height="1802pt"
 viewBox="0.00 0.00 866.37 1802.00" xmlns="http://www.w3.org/2000/svg" xmlns:xlink="http://www.w3.org/1999/xlink">
<g id="graph0" class="graph" transform="scale(1 1) rotate(0) translate(4 1798)">
<title>%3</title>
<polygon fill="#ffffff" stroke="transparent" points="-4,4 -4,-1798 862.3727,-1798 862.3727,4 -4,4"/>
<!-- OC1C=CC2C34C1Oc1c4c(CC2N(CC3)C)ccc1O -->
<g id="node1" class="node">
<title>OC1C=CC2C34C1Oc1c4c(CC2N(CC3)C)ccc1O</title>
<polygon fill="none" stroke="#000000" points="227.5,-1792.5 27.5,-1792.5 27.5,-1587.5 227.5,-1587.5 227.5,-1792.5"/>
<image xlink:href="molecules/OC1C=CC2C34C1Oc1c4cèCC2NèCC3ïCïccc1O.svg" width="200px" height="205px" preserveAspectRatio="xMinYMin meet" x="27.5" y="-1792.5"/>
</g>
<!-- CCCCN(C(Cc1ccc(c(c1)O)O)CC=CC)C -->
<g id="node5" class="node">
<title>CCCCN(C(Cc1ccc(c(c1)O)O)CC=CC)C</title>
<image xlink:href="molecules/CCCCNèCèCc1cccècèc1ïOïOïCC=CCïC.svg" width="243px" height="272px" preserveAspectRatio="xMinYMin meet" x="261" y="-1550"/>
</g>
<!-- OC1C=CC2C34C1Oc1c4c(CC2N(CC3)C)ccc1O&#45;&gt;CCCCN(C(Cc1ccc(c(c1)O)O)CC=CC)C -->
<g id="edge1" class="edge">
<title>OC1C=CC2C34C1Oc1c4c(CC2N(CC3)C)ccc1O&#45;&gt;CCCCN(C(Cc1ccc(c(c1)O)O)CC=CC)C</title>
<path fill="none" stroke="#000000" d="M222.4526,-1587.2278C233.7453,-1575.0051 245.4031,-1562.3872 257.0383,-1549.7938"/>
<polygon fill="#000000" stroke="#000000" points="260.6481,-1545.8868 258.9076,-1551.0862 258.9515,-1547.723 257.255,-1549.5593 257.255,-1549.5593 257.255,-1549.5593 258.9515,-1547.723 255.6024,-1548.0324 260.6481,-1545.8868 260.6481,-1545.8868"/>
</g>
<!-- NCCc1ccc(cc1C(CC=CCO)C)O -->
<g id="node6" class="node">
<title>NCCc1ccc(cc1C(CC=CCO)C)O</title>
<image xlink:href="molecules/NCCc1cccècc1CèCC=CCOïCïO.svg" width="243px" height="227px" preserveAspectRatio="xMinYMin meet" x="0" y="-1527.5"/>
</g>
<!-- OC1C=CC2C34C1Oc1c4c(CC2N(CC3)C)ccc1O&#45;&gt;NCCc1ccc(cc1C(CC=CCO)C)O -->
<g id="edge2" class="edge">
<title>OC1C=CC2C34C1Oc1c4c(CC2N(CC3)C)ccc1O&#45;&gt;NCCc1ccc(cc1C(CC=CCO)C)O</title>
<path fill="none" stroke="#000000" d="M125.2658,-1587.2278C124.879,-1569.4361 124.4741,-1550.8072 124.079,-1532.6353"/>
<polygon fill="#000000" stroke="#000000" points="123.9679,-1527.5231 126.3261,-1532.473 124.0223,-1530.0225 124.0767,-1532.5219 124.0767,-1532.5219 124.0767,-1532.5219 124.0223,-1530.0225 121.8272,-1532.5708 123.9679,-1527.5231 123.9679,-1527.5231"/>
</g>
<!-- Oc1ccc(cc1)C1CNCCc2c1cc(O)c(c2Cl)O -->
<g id="node2" class="node">
<title>Oc1ccc(cc1)C1CNCCc2c1cc(O)c(c2Cl)O</title>
<polygon fill="none" stroke="#000000" points="525,-1794 256,-1794 256,-1586 525,-1586 525,-1794"/>
<image xlink:href="molecules/Oc1cccècc1ïC1CNCCc2c1ccèOïcèc2ClïO.svg" width="269px" height="208px" preserveAspectRatio="xMinYMin meet" x="256" y="-1794"/>
</g>
<!-- Oc1ccc(cc1O)CCNCCc1ccccc1 -->
<g id="node4" class="node">
<title>Oc1ccc(cc1O)CCNCCc1ccccc1</title>
<image xlink:href="molecules/Oc1cccècc1OïCCNCCc1ccccc1.svg" width="296px" height="212px" preserveAspectRatio="xMinYMin meet" x="522.5" y="-1520"/>
</g>
<!-- Oc1ccc(cc1)C1CNCCc2c1cc(O)c(c2Cl)O&#45;&gt;Oc1ccc(cc1O)CCNCCc1ccccc1 -->
<g id="edge4" class="edge">
<title>Oc1ccc(cc1)C1CNCCc2c1cc(O)c(c2Cl)O&#45;&gt;Oc1ccc(cc1O)CCNCCc1ccccc1</title>
<path fill="none" stroke="#000000" d="M496.356,-1585.6562C516.8515,-1565.4536 538.3867,-1544.226 559.0547,-1523.8532"/>
<polygon fill="#000000" stroke="#000000" points="562.6327,-1520.3263 560.6513,-1525.4388 560.8522,-1522.0814 559.0718,-1523.8364 559.0718,-1523.8364 559.0718,-1523.8364 560.8522,-1522.0814 557.4923,-1522.234 562.6327,-1520.3263 562.6327,-1520.3263"/>
</g>
<!-- Oc1ccc(cc1)C1CNCCc2c1cc(O)c(c2Cl)O&#45;&gt;NCCc1ccc(cc1C(CC=CCO)C)O -->
<g id="edge3" class="edge">
<title>Oc1ccc(cc1)C1CNCCc2c1cc(O)c(c2Cl)O&#45;&gt;NCCc1ccc(cc1C(CC=CCO)C)O</title>
<path fill="none" stroke="#000000" d="M287.5038,-1585.776C275.6796,-1573.7324 263.8135,-1561.6106 252.5,-1550 246.6266,-1543.9723 240.6138,-1537.786 234.5486,-1531.5333"/>
<polygon fill="#000000" stroke="#000000" points="230.7662,-1527.6324 235.8622,-1529.6558 232.5065,-1529.4272 234.2468,-1531.222 234.2468,-1531.222 234.2468,-1531.222 232.5065,-1529.4272 232.6315,-1532.7883 230.7662,-1527.6324 230.7662,-1527.6324"/>
</g>
<!-- CN1CCc2c3C1Cc1ccc(c(c1c3ccc2)O)O -->
<g id="node3" class="node">
<title>CN1CCc2c3C1Cc1ccc(c(c1c3ccc2)O)O</title>
<polygon fill="none" stroke="#000000" points="792.5,-1788 548.5,-1788 548.5,-1592 792.5,-1592 792.5,-1788"/>
<image xlink:href="molecules/CN1CCc2c3C1Cc1cccècèc1c3ccc2ïOïO.svg" width="244px" height="196px" preserveAspectRatio="xMinYMin meet" x="548.5" y="-1788"/>
</g>
<!-- CN1CCc2c3C1Cc1ccc(c(c1c3ccc2)O)O&#45;&gt;Oc1ccc(cc1O)CCNCCc1ccccc1 -->
<g id="edge7" class="edge">
<title>CN1CCc2c3C1Cc1ccc(c(c1c3ccc2)O)O&#45;&gt;Oc1ccc(cc1O)CCNCCc1ccccc1</title>
<path fill="none" stroke="#000000" d="M670.5,-1591.9156C670.5,-1570.3992 670.5,-1547.4664 670.5,-1525.4683"/>
<polygon fill="#000000" stroke="#000000" points="670.5,-1520.1969 672.7501,-1525.1968 670.5,-1522.6969 670.5001,-1525.1969 670.5001,-1525.1969 670.5001,-1525.1969 670.5,-1522.6969 668.2501,-1525.1969 670.5,-1520.1969 670.5,-1520.1969"/>
</g>
<!-- CN1CCc2c3C1Cc1ccc(c(c1c3ccc2)O)O&#45;&gt;CCCCN(C(Cc1ccc(c(c1)O)O)CC=CC)C -->
<g id="edge5" class="edge">
<title>CN1CCc2c3C1Cc1ccc(c(c1c3ccc2)O)O&#45;&gt;CCCCN(C(Cc1ccc(c(c1)O)O)CC=CC)C</title>
<path fill="none" stroke="#000000" d="M558.4731,-1591.9839C543.1927,-1578.0703 527.8417,-1563.8006 513.5,-1550 511.6766,-1548.2454 509.8441,-1546.473 508.0047,-1544.6855"/>
<polygon fill="#000000" stroke="#000000" points="504.22,-1540.9958 509.3709,-1542.875 506.0101,-1542.741 507.8002,-1544.4861 507.8002,-1544.4861 507.8002,-1544.4861 506.0101,-1542.741 506.2296,-1546.0973 504.22,-1540.9958 504.22,-1540.9958"/>
</g>
<!-- NCCc1ccccc1CC -->
<g id="node8" class="node">
<title>NCCc1ccccc1CC</title>
<image xlink:href="molecules/NCCc1ccccc1CC.svg" width="191px" height="167px" preserveAspectRatio="xMinYMin meet" x="641" y="-1204.5"/>
</g>
<!-- CN1CCc2c3C1Cc1ccc(c(c1c3ccc2)O)O&#45;&gt;NCCc1ccccc1CC -->
<g id="edge6" class="edge">
<title>CN1CCc2c3C1Cc1ccc(c(c1c3ccc2)O)O&#45;&gt;NCCc1ccccc1CC</title>
<path fill="none" stroke="#000000" d="M792.5602,-1601.7538C806.7013,-1586.167 819.0621,-1568.8296 827.5,-1550 876.9358,-1439.6812 858.8875,-1394.7431 827.5,-1278 821.1616,-1254.4249 810.3229,-1230.7372 798.2889,-1209.165"/>
<polygon fill="#000000" stroke="#000000" points="795.7041,-1204.5947 800.124,-1207.8392 796.9348,-1206.7708 798.1656,-1208.9469 798.1656,-1208.9469 798.1656,-1208.9469 796.9348,-1206.7708 796.2071,-1210.0545 795.7041,-1204.5947 795.7041,-1204.5947"/>
</g>
<!-- CCCCNCCc1ccc(c(c1)O)O -->
<g id="node12" class="node">
<title>CCCCNCCc1ccc(c(c1)O)O</title>
<image xlink:href="molecules/CCCCNCCc1cccècèc1ïOïO.svg" width="296px" height="122px" preserveAspectRatio="xMinYMin meet" x="326.5" y="-1182"/>
</g>
<!-- Oc1ccc(cc1O)CCNCCc1ccccc1&#45;&gt;CCCCNCCc1ccc(c(c1)O)O -->
<g id="edge8" class="edge">
<title>Oc1ccc(cc1O)CCNCCc1ccccc1&#45;&gt;CCCCNCCc1ccc(c(c1)O)O</title>
<path fill="none" stroke="#000000" d="M599.4624,-1307.806C572.3015,-1267.2032 542.1443,-1222.1213 518.261,-1186.4183"/>
<polygon fill="#000000" stroke="#000000" points="515.3802,-1182.1117 520.0304,-1185.0165 516.7702,-1184.1896 518.1603,-1186.2676 518.1603,-1186.2676 518.1603,-1186.2676 516.7702,-1184.1896 516.2901,-1187.5186 515.3802,-1182.1117 515.3802,-1182.1117"/>
</g>
<!-- CCCCN(C(Cc1ccc(c(c1)O)O)CC=CC)C&#45;&gt;CCCCNCCc1ccc(c(c1)O)O -->
<g id="edge9" class="edge">
<title>CCCCN(C(Cc1ccc(c(c1)O)O)CC=CC)C&#45;&gt;CCCCNCCc1ccc(c(c1)O)O</title>
<path fill="none" stroke="#000000" d="M425.268,-1277.7932C435.1631,-1246.2793 445.2587,-1214.1271 453.7111,-1187.2081"/>
<polygon fill="#000000" stroke="#000000" points="455.2698,-1182.244 455.9185,-1187.6884 454.5208,-1184.6292 453.7719,-1187.0144 453.7719,-1187.0144 453.7719,-1187.0144 454.5208,-1184.6292 451.6252,-1186.3403 455.2698,-1182.244 455.2698,-1182.244"/>
</g>
<!-- NCCc1ccc(cc1C(CC=CCO)C)O&#45;&gt;NCCc1ccccc1CC -->
<g id="edge11" class="edge">
<title>NCCc1ccc(cc1C(CC=CCO)C)O&#45;&gt;NCCc1ccccc1CC</title>
<path fill="none" stroke="#000000" d="M217.0802,-1300.3207C228.2399,-1291.6613 240.0983,-1283.9817 252.5,-1278 404.9012,-1204.4922 481.0595,-1319.4415 631.5,-1242 647.662,-1233.6803 662.4153,-1221.7224 675.4258,-1208.5261"/>
<polygon fill="#000000" stroke="#000000" points="679.0489,-1204.7732 677.1948,-1209.9331 677.3125,-1206.5718 675.5761,-1208.3704 675.5761,-1208.3704 675.5761,-1208.3704 677.3125,-1206.5718 673.9574,-1206.8076 679.0489,-1204.7732 679.0489,-1204.7732"/>
</g>
<!-- NCCc1ccc(cc1)O -->
<g id="node10" class="node">
<title>NCCc1ccc(cc1)O</title>
<image xlink:href="molecules/NCCc1cccècc1ïO.svg" width="140px" height="197px" preserveAspectRatio="xMinYMin meet" x="216.5" y="-761"/>
</g>
<!-- NCCc1ccc(cc1C(CC=CCO)C)O&#45;&gt;NCCc1ccc(cc1)O -->
<g id="edge12" class="edge">
<title>NCCc1ccc(cc1C(CC=CCO)C)O&#45;&gt;NCCc1ccc(cc1)O</title>
<path fill="none" stroke="#000000" d="M126.9101,-1300.2434C135.4314,-1128.0862 152.1731,-818.9432 163.5,-797 175.0896,-774.5478 189.7209,-778.9533 207.5,-761 209.2401,-759.2428 210.9803,-757.4492 212.7171,-755.6259"/>
<polygon fill="#000000" stroke="#000000" points="216.2764,-751.8434 214.4885,-757.0267 214.5632,-753.6641 212.8499,-755.4847 212.8499,-755.4847 212.8499,-755.4847 214.5632,-753.6641 211.2113,-753.9428 216.2764,-751.8434 216.2764,-751.8434"/>
</g>
<!-- CCc1cccc(c1)O -->
<g id="node15" class="node">
<title>CCc1cccc(c1)O</title>
<image xlink:href="molecules/CCc1ccccèc1ïO.svg" width="191px" height="122px" preserveAspectRatio="xMinYMin meet" x="7" y="-723.5"/>
</g>
<!-- NCCc1ccc(cc1C(CC=CCO)C)O&#45;&gt;CCc1cccc(c1)O -->
<g id="edge10" class="edge">
<title>NCCc1ccc(cc1C(CC=CCO)C)O&#45;&gt;CCc1cccc(c1)O</title>
<path fill="none" stroke="#000000" d="M118.6246,-1300.2715C114.6034,-1141.2199 107.4287,-857.4438 104.1803,-728.9616"/>
<polygon fill="#000000" stroke="#000000" points="104.0475,-723.709 106.4233,-728.6505 104.1108,-726.2082 104.174,-728.7074 104.174,-728.7074 104.174,-728.7074 104.1108,-726.2082 101.9247,-728.7643 104.0475,-723.709 104.0475,-723.709"/>
</g>
<!-- CNCC(c1ccc(c(c1)O)O)O -->
<g id="node7" class="node">
<title>CNCC(c1ccc(c(c1)O)O)O</title>
<polygon fill="none" stroke="#000000" points="308.5,-1242 168.5,-1242 168.5,-1000 308.5,-1000 308.5,-1242"/>
<image xlink:href="molecules/CNCCèc1cccècèc1ïOïOïO.svg" width="140px" height="242px" preserveAspectRatio="xMinYMin meet" x="168.5" y="-1242"/>
</g>
<!-- CNCCc1ccc(c(c1)O)O -->
<g id="node9" class="node">
<title>CNCCc1ccc(c(c1)O)O</title>
<image xlink:href="molecules/CNCCc1cccècèc1ïOïO.svg" width="218px" height="167px" preserveAspectRatio="xMinYMin meet" x="172.5" y="-964"/>
</g>
<!-- CNCC(c1ccc(c(c1)O)O)O&#45;&gt;CNCCc1ccc(c(c1)O)O -->
<g id="edge13" class="edge">
<title>CNCC(c1ccc(c(c1)O)O)O&#45;&gt;CNCCc1ccc(c(c1)O)O</title>
<path fill="none" stroke="#000000" d="M260.189,-999.6931C262.0197,-989.4538 263.8486,-979.2247 265.6226,-969.3028"/>
<polygon fill="#000000" stroke="#000000" points="266.545,-964.1438 267.8798,-969.4618 266.1049,-966.6048 265.6649,-969.0658 265.6649,-969.0658 265.6649,-969.0658 266.1049,-966.6048 263.45,-968.6697 266.545,-964.1438 266.545,-964.1438"/>
</g>
<!-- NCCc1ccccc1 -->
<g id="node13" class="node">
<title>NCCc1ccccc1</title>
<image xlink:href="molecules/NCCc1ccccc1.svg" width="140px" height="167px" preserveAspectRatio="xMinYMin meet" x="262.5" y="-528"/>
</g>
<!-- NCCc1ccccc1CC&#45;&gt;NCCc1ccccc1 -->
<g id="edge14" class="edge">
<title>NCCc1ccccc1CC&#45;&gt;NCCc1ccccc1</title>
<path fill="none" stroke="#000000" d="M686.5565,-1037.3693C609.829,-908.8888 463.629,-664.0761 385.2472,-532.8254"/>
<polygon fill="#000000" stroke="#000000" points="382.4877,-528.2047 386.9831,-531.3438 383.7696,-530.3511 385.0514,-532.4975 385.0514,-532.4975 385.0514,-532.4975 383.7696,-530.3511 383.1196,-533.6511 382.4877,-528.2047 382.4877,-528.2047"/>
</g>
<!-- CNCCc1ccc(c(c1)O)O&#45;&gt;NCCc1ccc(cc1)O -->
<g id="edge16" class="edge">
<title>CNCCc1ccc(c(c1)O)O&#45;&gt;NCCc1ccc(cc1)O</title>
<path fill="none" stroke="#000000" d="M283.4188,-796.839C283.6484,-786.8298 283.8849,-776.5188 284.12,-766.2697"/>
<polygon fill="#000000" stroke="#000000" points="284.2352,-761.2449 286.3699,-766.2952 284.1778,-763.7442 284.1205,-766.2435 284.1205,-766.2435 284.1205,-766.2435 284.1778,-763.7442 281.8711,-766.1919 284.2352,-761.2449 284.2352,-761.2449"/>
</g>
<!-- CNCCc1ccc(c(c1)O)O&#45;&gt;CCc1cccc(c1)O -->
<g id="edge15" class="edge">
<title>CNCCc1ccc(c(c1)O)O&#45;&gt;CCc1cccc(c1)O</title>
<path fill="none" stroke="#000000" d="M212.8059,-796.839C193.9644,-773.8924 173.8207,-749.3598 155.9718,-727.622"/>
<polygon fill="#000000" stroke="#000000" points="152.6665,-723.5966 157.5784,-726.0331 154.253,-725.5288 155.8395,-727.4609 155.8395,-727.4609 155.8395,-727.4609 154.253,-725.5288 154.1006,-728.8887 152.6665,-723.5966 152.6665,-723.5966"/>
</g>
<!-- NCCc1ccc(cc1)O&#45;&gt;NCCc1ccccc1 -->
<g id="edge18" class="edge">
<title>NCCc1ccc(cc1)O&#45;&gt;NCCc1ccccc1</title>
<path fill="none" stroke="#000000" d="M307.3466,-563.7054C309.4916,-553.54 311.6618,-543.2551 313.7817,-533.2085"/>
<polygon fill="#000000" stroke="#000000" points="314.818,-528.2973 315.9871,-533.6542 314.3018,-530.7435 313.7856,-533.1896 313.7856,-533.1896 313.7856,-533.1896 314.3018,-530.7435 311.5841,-532.725 314.818,-528.2973 314.818,-528.2973"/>
</g>
<!-- Oc1ccccc1 -->
<g id="node14" class="node">
<title>Oc1ccccc1</title>
<image xlink:href="molecules/Oc1ccccc1.svg" width="113px" height="152px" preserveAspectRatio="xMinYMin meet" x="131" y="-520.5"/>
</g>
<!-- NCCc1ccc(cc1)O&#45;&gt;Oc1ccccc1 -->
<g id="edge17" class="edge">
<title>NCCc1ccc(cc1)O&#45;&gt;Oc1ccccc1</title>
<path fill="none" stroke="#000000" d="M241.6346,-563.7054C235.8023,-550.8626 229.8834,-537.8292 224.2057,-525.3266"/>
<polygon fill="#000000" stroke="#000000" points="222.1254,-520.7458 226.2415,-524.368 223.1591,-523.0221 224.1929,-525.2984 224.1929,-525.2984 224.1929,-525.2984 223.1591,-523.0221 222.1442,-526.2288 222.1254,-520.7458 222.1254,-520.7458"/>
</g>
<!-- CCc1ccccc1 -->
<g id="node11" class="node">
<title>CCc1ccccc1</title>
<image xlink:href="molecules/CCc1ccccc1.svg" width="113px" height="167px" preserveAspectRatio="xMinYMin meet" x="46" y="-325"/>
</g>
<!-- c1ccccc1 -->
<g id="node16" class="node">
<title>c1ccccc1</title>
<image xlink:href="molecules/c1ccccc1.svg" width="113px" height="122px" preserveAspectRatio="xMinYMin meet" x="88" y="-122"/>
</g>
<!-- CCc1ccccc1&#45;&gt;c1ccccc1 -->
<g id="edge19" class="edge">
<title>CCc1ccccc1&#45;&gt;c1ccccc1</title>
<path fill="none" stroke="#000000" d="M121.9631,-157.8549C124.3788,-147.4731 126.8218,-136.9743 129.1632,-126.9116"/>
<polygon fill="#000000" stroke="#000000" points="130.3039,-122.0093 131.3622,-127.3891 129.7373,-124.4442 129.1707,-126.8792 129.1707,-126.8792 129.1707,-126.8792 129.7373,-124.4442 126.9792,-126.3692 130.3039,-122.0093 130.3039,-122.0093"/>
</g>
<!-- CCCCNCCc1ccc(c(c1)O)O&#45;&gt;CNCCc1ccc(c(c1)O)O -->
<g id="edge20" class="edge">
<title>CCCCNCCc1ccc(c(c1)O)O&#45;&gt;CNCCc1ccc(c(c1)O)O</title>
<path fill="none" stroke="#000000" d="M425.2986,-1059.6894C403.0669,-1031.9862 376.3856,-998.7383 352.0752,-968.4448"/>
<polygon fill="#000000" stroke="#000000" points="348.8157,-964.3831 353.7,-966.8745 350.3805,-966.3329 351.9452,-968.2827 351.9452,-968.2827 351.9452,-968.2827 350.3805,-966.3329 350.1904,-969.6909 348.8157,-964.3831 348.8157,-964.3831"/>
</g>
<!-- NCCc1ccccc1&#45;&gt;CCc1ccccc1 -->
<g id="edge21" class="edge">
<title>NCCc1ccccc1&#45;&gt;CCc1ccccc1</title>
<path fill="none" stroke="#000000" d="M262.3771,-369.3204C259.4102,-366.4786 256.444,-363.695 253.5,-361 225.0609,-334.966 191.6,-308.136 163.4135,-286.5109"/>
<polygon fill="#000000" stroke="#000000" points="159.2944,-283.3588 164.6325,-284.6105 161.2798,-284.8781 163.2652,-286.3974 163.2652,-286.3974 163.2652,-286.3974 161.2798,-284.8781 161.8978,-288.1842 159.2944,-283.3588 159.2944,-283.3588"/>
</g>
<!-- Oc1ccccc1&#45;&gt;c1ccccc1 -->
<g id="edge22" class="edge">
<title>Oc1ccccc1&#45;&gt;c1ccccc1</title>
<path fill="none" stroke="#000000" d="M186.1002,-368.3958C184.1541,-310.4289 179.5191,-228.8054 168.5,-158 166.9411,-147.9828 164.8433,-137.4844 162.5339,-127.2465"/>
<polygon fill="#000000" stroke="#000000" points="161.3846,-122.2448 164.6972,-126.6139 161.9445,-124.6813 162.5044,-127.1178 162.5044,-127.1178 162.5044,-127.1178 161.9445,-124.6813 160.3115,-127.6217 161.3846,-122.2448 161.3846,-122.2448"/>
</g>
<!-- CCc1cccc(c1)O&#45;&gt;CCc1ccccc1 -->
<g id="edge24" class="edge">
<title>CCc1cccc(c1)O&#45;&gt;CCc1ccccc1</title>
<path fill="none" stroke="#000000" d="M102.5,-601.283C102.5,-530.0969 102.5,-411.9831 102.5,-330.6204"/>
<polygon fill="#000000" stroke="#000000" points="102.5,-325.3153 104.7501,-330.3152 102.5,-327.8153 102.5001,-330.3153 102.5001,-330.3153 102.5001,-330.3153 102.5,-327.8153 100.2501,-330.3153 102.5,-325.3153 102.5,-325.3153"/>
</g>
<!-- CCc1cccc(c1)O&#45;&gt;Oc1ccccc1 -->
<g id="edge23" class="edge">
<title>CCc1cccc(c1)O&#45;&gt;Oc1ccccc1</title>
<path fill="none" stroke="#000000" d="M126.2903,-601.485C135.4911,-577.8874 146.1537,-550.5411 155.9765,-525.3486"/>
<polygon fill="#000000" stroke="#000000" points="157.8003,-520.6711 158.0801,-526.1469 156.8921,-523.0003 155.9838,-525.3295 155.9838,-525.3295 155.9838,-525.3295 156.8921,-523.0003 153.8876,-524.5121 157.8003,-520.6711 157.8003,-520.6711"/>
</g>
</g>
</svg>
