<?xml version="1.0" encoding="UTF-8" standalone="no"?>
<!DOCTYPE svg PUBLIC "-//W3C//DTD SVG 1.1//EN"
 "http://www.w3.org/Graphics/SVG/1.1/DTD/svg11.dtd">
<!-- Generated by graphviz version 2.40.1 (20161225.0304)
 -->
<!-- Title: %3 Pages: 1 -->
<svg width="868pt" height="1644pt"
 viewBox="0.00 0.00 868.08 1644.00" xmlns="http://www.w3.org/2000/svg" xmlns:xlink="http://www.w3.org/1999/xlink">
<g id="graph0" class="graph" transform="scale(1 1) rotate(0) translate(4 1640)">
<title>%3</title>
<polygon fill="#ffffff" stroke="transparent" points="-4,4 -4,-1640 864.085,-1640 864.085,4 -4,4"/>
<!-- Oc1ccc(cc1)C1CNCCc2c1cc(O)c(c2Cl)O -->
<g id="node1" class="node">
<title>Oc1ccc(cc1)C1CNCCc2c1cc(O)c(c2Cl)O</title>
<polygon fill="none" stroke="#000000" points="525,-1636 256,-1636 256,-1428 525,-1428 525,-1636"/>
<image xlink:href="molecules/Oc1cccècc1ïC1CNCCc2c1ccèOïcèc2ClïO.svg" width="269px" height="208px" preserveAspectRatio="xMinYMin meet" x="256" y="-1636"/>
</g>
<!-- Oc1ccc(cc1O)CCNCCc1ccccc1 -->
<g id="node5" class="node">
<title>Oc1ccc(cc1O)CCNCCc1ccccc1</title>
<image xlink:href="molecules/Oc1cccècc1OïCCNCCc1ccccc1.svg" width="296px" height="212px" preserveAspectRatio="xMinYMin meet" x="522.5" y="-1362"/>
</g>
<!-- Oc1ccc(cc1)C1CNCCc2c1cc(O)c(c2Cl)O&#45;&gt;Oc1ccc(cc1O)CCNCCc1ccccc1 -->
<g id="edge2" class="edge">
<title>Oc1ccc(cc1)C1CNCCc2c1cc(O)c(c2Cl)O&#45;&gt;Oc1ccc(cc1O)CCNCCc1ccccc1</title>
<path fill="none" stroke="#000000" d="M496.356,-1427.6562C516.8515,-1407.4536 538.3867,-1386.226 559.0547,-1365.8532"/>
<polygon fill="#000000" stroke="#000000" points="562.6327,-1362.3263 560.6513,-1367.4388 560.8522,-1364.0814 559.0718,-1365.8364 559.0718,-1365.8364 559.0718,-1365.8364 560.8522,-1364.0814 557.4923,-1364.234 562.6327,-1362.3263 562.6327,-1362.3263"/>
</g>
<!-- NCCc1ccc(cc1C(CC=CCO)C)O -->
<g id="node6" class="node">
<title>NCCc1ccc(cc1C(CC=CCO)C)O</title>
<image xlink:href="molecules/NCCc1cccècc1CèCC=CCOïCïO.svg" width="243px" height="227px" preserveAspectRatio="xMinYMin meet" x="0" y="-1369.5"/>
</g>
<!-- Oc1ccc(cc1)C1CNCCc2c1cc(O)c(c2Cl)O&#45;&gt;NCCc1ccc(cc1C(CC=CCO)C)O -->
<g id="edge1" class="edge">
<title>Oc1ccc(cc1)C1CNCCc2c1cc(O)c(c2Cl)O&#45;&gt;NCCc1ccc(cc1C(CC=CCO)C)O</title>
<path fill="none" stroke="#000000" d="M287.5038,-1427.776C275.6796,-1415.7324 263.8135,-1403.6106 252.5,-1392 246.6266,-1385.9723 240.6138,-1379.786 234.5486,-1373.5333"/>
<polygon fill="#000000" stroke="#000000" points="230.7662,-1369.6324 235.8622,-1371.6558 232.5065,-1371.4272 234.2468,-1373.222 234.2468,-1373.222 234.2468,-1373.222 232.5065,-1371.4272 232.6315,-1374.7883 230.7662,-1369.6324 230.7662,-1369.6324"/>
</g>
<!-- CNCC(c1ccc(c(c1)O)O)O -->
<g id="node2" class="node">
<title>CNCC(c1ccc(c(c1)O)O)O</title>
<polygon fill="none" stroke="#000000" points="289.5,-1084 149.5,-1084 149.5,-842 289.5,-842 289.5,-1084"/>
<image xlink:href="molecules/CNCCèc1cccècèc1ïOïOïO.svg" width="140px" height="242px" preserveAspectRatio="xMinYMin meet" x="149.5" y="-1084"/>
</g>
<!-- CNCCc1ccc(c(c1)O)O -->
<g id="node7" class="node">
<title>CNCCc1ccc(c(c1)O)O</title>
<image xlink:href="molecules/CNCCc1cccècèc1ïOïO.svg" width="218px" height="167px" preserveAspectRatio="xMinYMin meet" x="247.5" y="-806"/>
</g>
<!-- CNCC(c1ccc(c(c1)O)O)O&#45;&gt;CNCCc1ccc(c(c1)O)O -->
<g id="edge3" class="edge">
<title>CNCC(c1ccc(c(c1)O)O)O&#45;&gt;CNCCc1ccc(c(c1)O)O</title>
<path fill="none" stroke="#000000" d="M288.602,-841.6931C294.5419,-831.2659 300.4757,-820.8493 306.2247,-810.7569"/>
<polygon fill="#000000" stroke="#000000" points="308.8526,-806.1438 308.3327,-811.6021 307.6151,-808.3161 306.3777,-810.4884 306.3777,-810.4884 306.3777,-810.4884 307.6151,-808.3161 304.4226,-809.3747 308.8526,-806.1438 308.8526,-806.1438"/>
</g>
<!-- OC1C=CC2C34C1Oc1c4c(CC2N(CC3)C)ccc1O -->
<g id="node3" class="node">
<title>OC1C=CC2C34C1Oc1c4c(CC2N(CC3)C)ccc1O</title>
<polygon fill="none" stroke="#000000" points="227.5,-1634.5 27.5,-1634.5 27.5,-1429.5 227.5,-1429.5 227.5,-1634.5"/>
<image xlink:href="molecules/OC1C=CC2C34C1Oc1c4cèCC2NèCC3ïCïccc1O.svg" width="200px" height="205px" preserveAspectRatio="xMinYMin meet" x="27.5" y="-1634.5"/>
</g>
<!-- OC1C=CC2C34C1Oc1c4c(CC2N(CC3)C)ccc1O&#45;&gt;NCCc1ccc(cc1C(CC=CCO)C)O -->
<g id="edge5" class="edge">
<title>OC1C=CC2C34C1Oc1c4c(CC2N(CC3)C)ccc1O&#45;&gt;NCCc1ccc(cc1C(CC=CCO)C)O</title>
<path fill="none" stroke="#000000" d="M125.2658,-1429.2278C124.879,-1411.4361 124.4741,-1392.8072 124.079,-1374.6353"/>
<polygon fill="#000000" stroke="#000000" points="123.9679,-1369.5231 126.3261,-1374.473 124.0223,-1372.0225 124.0767,-1374.5219 124.0767,-1374.5219 124.0767,-1374.5219 124.0223,-1372.0225 121.8272,-1374.5708 123.9679,-1369.5231 123.9679,-1369.5231"/>
</g>
<!-- CCCCN(C(Cc1ccc(c(c1)O)O)CC=CC)C -->
<g id="node9" class="node">
<title>CCCCN(C(Cc1ccc(c(c1)O)O)CC=CC)C</title>
<image xlink:href="molecules/CCCCNèCèCc1cccècèc1ïOïOïCC=CCïC.svg" width="243px" height="272px" preserveAspectRatio="xMinYMin meet" x="261" y="-1392"/>
</g>
<!-- OC1C=CC2C34C1Oc1c4c(CC2N(CC3)C)ccc1O&#45;&gt;CCCCN(C(Cc1ccc(c(c1)O)O)CC=CC)C -->
<g id="edge4" class="edge">
<title>OC1C=CC2C34C1Oc1c4c(CC2N(CC3)C)ccc1O&#45;&gt;CCCCN(C(Cc1ccc(c(c1)O)O)CC=CC)C</title>
<path fill="none" stroke="#000000" d="M222.4526,-1429.2278C233.7453,-1417.0051 245.4031,-1404.3872 257.0383,-1391.7938"/>
<polygon fill="#000000" stroke="#000000" points="260.6481,-1387.8868 258.9076,-1393.0862 258.9515,-1389.723 257.255,-1391.5593 257.255,-1391.5593 257.255,-1391.5593 258.9515,-1389.723 255.6024,-1390.0324 260.6481,-1387.8868 260.6481,-1387.8868"/>
</g>
<!-- CN1CCc2c3C1Cc1ccc(c(c1c3ccc2)O)O -->
<g id="node4" class="node">
<title>CN1CCc2c3C1Cc1ccc(c(c1c3ccc2)O)O</title>
<polygon fill="none" stroke="#000000" points="792.5,-1630 548.5,-1630 548.5,-1434 792.5,-1434 792.5,-1630"/>
<image xlink:href="molecules/CN1CCc2c3C1Cc1cccècèc1c3ccc2ïOïO.svg" width="244px" height="196px" preserveAspectRatio="xMinYMin meet" x="548.5" y="-1630"/>
</g>
<!-- CN1CCc2c3C1Cc1ccc(c(c1c3ccc2)O)O&#45;&gt;Oc1ccc(cc1O)CCNCCc1ccccc1 -->
<g id="edge8" class="edge">
<title>CN1CCc2c3C1Cc1ccc(c(c1c3ccc2)O)O&#45;&gt;Oc1ccc(cc1O)CCNCCc1ccccc1</title>
<path fill="none" stroke="#000000" d="M670.5,-1433.9156C670.5,-1412.3992 670.5,-1389.4664 670.5,-1367.4683"/>
<polygon fill="#000000" stroke="#000000" points="670.5,-1362.1969 672.7501,-1367.1968 670.5,-1364.6969 670.5001,-1367.1969 670.5001,-1367.1969 670.5001,-1367.1969 670.5,-1364.6969 668.2501,-1367.1969 670.5,-1362.1969 670.5,-1362.1969"/>
</g>
<!-- CN1CCc2c3C1Cc1ccc(c(c1c3ccc2)O)O&#45;&gt;CCCCN(C(Cc1ccc(c(c1)O)O)CC=CC)C -->
<g id="edge6" class="edge">
<title>CN1CCc2c3C1Cc1ccc(c(c1c3ccc2)O)O&#45;&gt;CCCCN(C(Cc1ccc(c(c1)O)O)CC=CC)C</title>
<path fill="none" stroke="#000000" d="M558.4731,-1433.9839C543.1927,-1420.0703 527.8417,-1405.8006 513.5,-1392 511.6766,-1390.2454 509.8441,-1388.473 508.0047,-1386.6855"/>
<polygon fill="#000000" stroke="#000000" points="504.22,-1382.9958 509.3709,-1384.875 506.0101,-1384.741 507.8002,-1386.4861 507.8002,-1386.4861 507.8002,-1386.4861 506.0101,-1384.741 506.2296,-1388.0973 504.22,-1382.9958 504.22,-1382.9958"/>
</g>
<!-- NCCc1ccccc1CC -->
<g id="node11" class="node">
<title>NCCc1ccccc1CC</title>
<image xlink:href="molecules/NCCc1ccccc1CC.svg" width="191px" height="167px" preserveAspectRatio="xMinYMin meet" x="622" y="-1046.5"/>
</g>
<!-- CN1CCc2c3C1Cc1ccc(c(c1c3ccc2)O)O&#45;&gt;NCCc1ccccc1CC -->
<g id="edge7" class="edge">
<title>CN1CCc2c3C1Cc1ccc(c(c1c3ccc2)O)O&#45;&gt;NCCc1ccccc1CC</title>
<path fill="none" stroke="#000000" d="M792.5602,-1443.7538C806.7013,-1428.167 819.0621,-1410.8296 827.5,-1392 876.9358,-1281.6812 863.8686,-1235.2885 827.5,-1120 819.8968,-1095.8978 807.1254,-1072.2801 792.9209,-1050.9803"/>
<polygon fill="#000000" stroke="#000000" points="790.062,-1046.7517 794.7265,-1049.6336 791.4623,-1048.8228 792.8625,-1050.8939 792.8625,-1050.8939 792.8625,-1050.8939 791.4623,-1048.8228 790.9986,-1052.1541 790.062,-1046.7517 790.062,-1046.7517"/>
</g>
<!-- CCCCNCCc1ccc(c(c1)O)O -->
<g id="node10" class="node">
<title>CCCCNCCc1ccc(c(c1)O)O</title>
<image xlink:href="molecules/CCCCNCCc1cccècèc1ïOïO.svg" width="296px" height="122px" preserveAspectRatio="xMinYMin meet" x="307.5" y="-1024"/>
</g>
<!-- Oc1ccc(cc1O)CCNCCc1ccccc1&#45;&gt;CCCCNCCc1ccc(c(c1)O)O -->
<g id="edge9" class="edge">
<title>Oc1ccc(cc1O)CCNCCc1ccccc1&#45;&gt;CCCCNCCc1ccc(c(c1)O)O</title>
<path fill="none" stroke="#000000" d="M592.5761,-1149.806C562.7822,-1109.2032 529.7016,-1064.1213 503.5032,-1028.4183"/>
<polygon fill="#000000" stroke="#000000" points="500.343,-1024.1117 505.1151,-1026.8117 501.8221,-1026.1273 503.3011,-1028.1429 503.3011,-1028.1429 503.3011,-1028.1429 501.8221,-1026.1273 501.4871,-1029.474 500.343,-1024.1117 500.343,-1024.1117"/>
</g>
<!-- NCCc1ccc(cc1C(CC=CCO)C)O&#45;&gt;NCCc1ccccc1CC -->
<g id="edge10" class="edge">
<title>NCCc1ccc(cc1C(CC=CCO)C)O&#45;&gt;NCCc1ccccc1CC</title>
<path fill="none" stroke="#000000" d="M217.1115,-1142.3852C228.2648,-1133.7128 240.1132,-1126.0125 252.5,-1120 397.1573,-1049.7841 469.7153,-1157.9496 612.5,-1084 628.6413,-1075.6402 643.3845,-1063.6627 656.3913,-1050.4593"/>
<polygon fill="#000000" stroke="#000000" points="660.0136,-1046.7048 658.1613,-1051.8654 658.2778,-1048.504 656.542,-1050.3032 656.542,-1050.3032 656.542,-1050.3032 658.2778,-1048.504 654.9227,-1048.7409 660.0136,-1046.7048 660.0136,-1046.7048"/>
</g>
<!-- NCCc1ccc(cc1)O -->
<g id="node12" class="node">
<title>NCCc1ccc(cc1)O</title>
<image xlink:href="molecules/NCCc1cccècc1ïO.svg" width="140px" height="197px" preserveAspectRatio="xMinYMin meet" x="286.5" y="-603"/>
</g>
<!-- NCCc1ccc(cc1C(CC=CCO)C)O&#45;&gt;NCCc1ccc(cc1)O -->
<g id="edge11" class="edge">
<title>NCCc1ccc(cc1C(CC=CCO)C)O&#45;&gt;NCCc1ccc(cc1)O</title>
<path fill="none" stroke="#000000" d="M114.5506,-1142.1948C112.3238,-1058.0046 115.3954,-941.2232 140.5,-842 165.0737,-744.875 183.1816,-722.5285 238.5,-639 251.496,-619.3766 267.1359,-599.587 282.7162,-581.4485"/>
<polygon fill="#000000" stroke="#000000" points="286.2491,-577.3621 284.6811,-582.6161 284.614,-579.2533 282.979,-581.1446 282.979,-581.1446 282.979,-581.1446 284.614,-579.2533 281.2769,-579.673 286.2491,-577.3621 286.2491,-577.3621"/>
</g>
<!-- CNCCc1ccc(c(c1)O)O&#45;&gt;NCCc1ccc(cc1)O -->
<g id="edge12" class="edge">
<title>CNCCc1ccc(c(c1)O)O&#45;&gt;NCCc1ccc(cc1)O</title>
<path fill="none" stroke="#000000" d="M356.5,-638.839C356.5,-628.8298 356.5,-618.5188 356.5,-608.2697"/>
<polygon fill="#000000" stroke="#000000" points="356.5,-603.2449 358.7501,-608.2448 356.5,-605.7449 356.5001,-608.2449 356.5001,-608.2449 356.5001,-608.2449 356.5,-605.7449 354.2501,-608.2449 356.5,-603.2449 356.5,-603.2449"/>
</g>
<!-- NCCc1ccccc1 -->
<g id="node8" class="node">
<title>NCCc1ccccc1</title>
<image xlink:href="molecules/NCCc1ccccc1.svg" width="140px" height="167px" preserveAspectRatio="xMinYMin meet" x="410.5" y="-370"/>
</g>
<!-- CCc1ccccc1 -->
<g id="node13" class="node">
<title>CCc1ccccc1</title>
<image xlink:href="molecules/CCc1ccccc1.svg" width="113px" height="167px" preserveAspectRatio="xMinYMin meet" x="424" y="-167"/>
</g>
<!-- NCCc1ccccc1&#45;&gt;CCc1ccccc1 -->
<g id="edge13" class="edge">
<title>NCCc1ccccc1&#45;&gt;CCc1ccccc1</title>
<path fill="none" stroke="#000000" d="M480.5,-202.7601C480.5,-192.7157 480.5,-182.4317 480.5,-172.3183"/>
<polygon fill="#000000" stroke="#000000" points="480.5,-167.0474 482.7501,-172.0474 480.5,-169.5474 480.5001,-172.0474 480.5001,-172.0474 480.5001,-172.0474 480.5,-169.5474 478.2501,-172.0475 480.5,-167.0474 480.5,-167.0474"/>
</g>
<!-- CCCCN(C(Cc1ccc(c(c1)O)O)CC=CC)C&#45;&gt;CCCCNCCc1ccc(c(c1)O)O -->
<g id="edge14" class="edge">
<title>CCCCN(C(Cc1ccc(c(c1)O)O)CC=CC)C&#45;&gt;CCCCNCCc1ccc(c(c1)O)O</title>
<path fill="none" stroke="#000000" d="M416.4355,-1119.7932C424.2871,-1088.2793 432.2977,-1056.1271 439.0045,-1029.2081"/>
<polygon fill="#000000" stroke="#000000" points="440.2413,-1024.244 441.2157,-1029.6397 439.6368,-1026.6698 439.0324,-1029.0957 439.0324,-1029.0957 439.0324,-1029.0957 439.6368,-1026.6698 436.8491,-1028.5517 440.2413,-1024.244 440.2413,-1024.244"/>
</g>
<!-- CCCCNCCc1ccc(c(c1)O)O&#45;&gt;CNCCc1ccc(c(c1)O)O -->
<g id="edge15" class="edge">
<title>CCCCNCCc1ccc(c(c1)O)O&#45;&gt;CNCCc1ccc(c(c1)O)O</title>
<path fill="none" stroke="#000000" d="M430.262,-901.6894C418.9513,-874.2124 405.3952,-841.2808 393.0074,-811.1873"/>
<polygon fill="#000000" stroke="#000000" points="391.0298,-806.3831 395.0138,-810.1502 391.9815,-808.6949 392.9332,-811.0067 392.9332,-811.0067 392.9332,-811.0067 391.9815,-808.6949 390.8525,-811.8632 391.0298,-806.3831 391.0298,-806.3831"/>
</g>
<!-- NCCc1ccccc1CC&#45;&gt;NCCc1ccccc1 -->
<g id="edge16" class="edge">
<title>NCCc1ccccc1CC&#45;&gt;NCCc1ccccc1</title>
<path fill="none" stroke="#000000" d="M688.2014,-879.3693C643.235,-751.0158 557.5941,-506.5598 511.5797,-375.2148"/>
<polygon fill="#000000" stroke="#000000" points="509.8245,-370.2047 513.6012,-374.1796 510.6511,-372.5641 511.4777,-374.9235 511.4777,-374.9235 511.4777,-374.9235 510.6511,-372.5641 509.3542,-375.6675 509.8245,-370.2047 509.8245,-370.2047"/>
</g>
<!-- NCCc1ccc(cc1)O&#45;&gt;NCCc1ccccc1 -->
<g id="edge17" class="edge">
<title>NCCc1ccc(cc1)O&#45;&gt;NCCc1ccccc1</title>
<path fill="none" stroke="#000000" d="M412.6951,-405.7054C418.5824,-395.3551 424.5402,-384.881 430.3535,-374.6608"/>
<polygon fill="#000000" stroke="#000000" points="432.8355,-370.2973 432.3191,-375.7559 431.5994,-372.4704 430.3633,-374.6435 430.3633,-374.6435 430.3633,-374.6435 431.5994,-372.4704 428.4075,-373.531 432.8355,-370.2973 432.8355,-370.2973"/>
</g>
</g>
</svg>
