<?xml version="1.0" encoding="UTF-8" standalone="no"?>
<!DOCTYPE svg PUBLIC "-//W3C//DTD SVG 1.1//EN"
 "http://www.w3.org/Graphics/SVG/1.1/DTD/svg11.dtd">
<!-- Generated by graphviz version 2.40.1 (20161225.0304)
 -->
<!-- Title: %3 Pages: 1 -->
<svg width="881pt" height="1644pt"
 viewBox="0.00 0.00 880.60 1644.00" xmlns="http://www.w3.org/2000/svg" xmlns:xlink="http://www.w3.org/1999/xlink">
<g id="graph0" class="graph" transform="scale(1 1) rotate(0) translate(4 1640)">
<title>%3</title>
<polygon fill="#ffffff" stroke="transparent" points="-4,4 -4,-1640 876.6022,-1640 876.6022,4 -4,4"/>
<!-- CNCC(c1ccc(c(c1)O)O)O -->
<g id="node1" class="node">
<title>CNCC(c1ccc(c(c1)O)O)O</title>
<polygon fill="none" stroke="#000000" points="769.1022,-1084 629.1022,-1084 629.1022,-842 769.1022,-842 769.1022,-1084"/>
<image xlink:href="molecules/CNCCèc1cccècèc1ïOïOïO.svg" width="140px" height="242px" preserveAspectRatio="xMinYMin meet" x="629.102" y="-1084"/>
</g>
<!-- CNCCc1ccc(c(c1)O)O -->
<g id="node6" class="node">
<title>CNCCc1ccc(c(c1)O)O</title>
<image xlink:href="molecules/CNCCc1cccècèc1ïOïO.svg" width="218px" height="167px" preserveAspectRatio="xMinYMin meet" x="354.102" y="-806"/>
</g>
<!-- CNCC(c1ccc(c(c1)O)O)O&#45;&gt;CNCCc1ccc(c(c1)O)O -->
<g id="edge1" class="edge">
<title>CNCC(c1ccc(c(c1)O)O)O&#45;&gt;CNCCc1ccc(c(c1)O)O</title>
<path fill="none" stroke="#000000" d="M628.9459,-851.989C626.0434,-848.5549 623.0926,-845.2145 620.1022,-842 606.8743,-827.7809 591.805,-813.9988 576.3588,-801.1575"/>
<polygon fill="#000000" stroke="#000000" points="572.4246,-797.9133 577.7137,-799.3584 574.3534,-799.5038 576.2822,-801.0944 576.2822,-801.0944 576.2822,-801.0944 574.3534,-799.5038 574.8508,-802.8303 572.4246,-797.9133 572.4246,-797.9133"/>
</g>
<!-- CN1CCc2c3C1Cc1ccc(c(c1c3ccc2)O)O -->
<g id="node2" class="node">
<title>CN1CCc2c3C1Cc1ccc(c(c1c3ccc2)O)O</title>
<polygon fill="none" stroke="#000000" points="585.1022,-1630 341.1022,-1630 341.1022,-1434 585.1022,-1434 585.1022,-1630"/>
<image xlink:href="molecules/CN1CCc2c3C1Cc1cccècèc1c3ccc2ïOïO.svg" width="244px" height="196px" preserveAspectRatio="xMinYMin meet" x="341.102" y="-1630"/>
</g>
<!-- Oc1ccc(cc1O)CCNCCc1ccccc1 -->
<g id="node7" class="node">
<title>Oc1ccc(cc1O)CCNCCc1ccccc1</title>
<image xlink:href="molecules/Oc1cccècc1OïCCNCCc1ccccc1.svg" width="296px" height="212px" preserveAspectRatio="xMinYMin meet" x="315.102" y="-1362"/>
</g>
<!-- CN1CCc2c3C1Cc1ccc(c(c1c3ccc2)O)O&#45;&gt;Oc1ccc(cc1O)CCNCCc1ccccc1 -->
<g id="edge2" class="edge">
<title>CN1CCc2c3C1Cc1ccc(c(c1c3ccc2)O)O&#45;&gt;Oc1ccc(cc1O)CCNCCc1ccccc1</title>
<path fill="none" stroke="#000000" d="M463.1022,-1433.9156C463.1022,-1412.3992 463.1022,-1389.4664 463.1022,-1367.4683"/>
<polygon fill="#000000" stroke="#000000" points="463.1022,-1362.1969 465.3523,-1367.1968 463.1023,-1364.6969 463.1023,-1367.1969 463.1023,-1367.1969 463.1023,-1367.1969 463.1023,-1364.6969 460.8523,-1367.1969 463.1022,-1362.1969 463.1022,-1362.1969"/>
</g>
<!-- CCCCN(C(Cc1ccc(c(c1)O)O)CC=CC)C -->
<g id="node8" class="node">
<title>CCCCN(C(Cc1ccc(c(c1)O)O)CC=CC)C</title>
<image xlink:href="molecules/CCCCNèCèCc1cccècèc1ïOïOïCC=CCïC.svg" width="243px" height="272px" preserveAspectRatio="xMinYMin meet" x="629.602" y="-1392"/>
</g>
<!-- CN1CCc2c3C1Cc1ccc(c(c1c3ccc2)O)O&#45;&gt;CCCCN(C(Cc1ccc(c(c1)O)O)CC=CC)C -->
<g id="edge3" class="edge">
<title>CN1CCc2c3C1Cc1ccc(c(c1c3ccc2)O)O&#45;&gt;CCCCN(C(Cc1ccc(c(c1)O)O)CC=CC)C</title>
<path fill="none" stroke="#000000" d="M575.1292,-1433.9839C590.4096,-1420.0703 605.7605,-1405.8006 620.1022,-1392 621.9256,-1390.2454 623.7581,-1388.473 625.5975,-1386.6855"/>
<polygon fill="#000000" stroke="#000000" points="629.3822,-1382.9958 627.3726,-1388.0973 627.5921,-1384.741 625.802,-1386.4861 625.802,-1386.4861 625.802,-1386.4861 627.5921,-1384.741 624.2313,-1384.875 629.3822,-1382.9958 629.3822,-1382.9958"/>
</g>
<!-- NCCc1ccccc1CC -->
<g id="node9" class="node">
<title>NCCc1ccccc1CC</title>
<image xlink:href="molecules/NCCc1ccccc1CC.svg" width="191px" height="167px" preserveAspectRatio="xMinYMin meet" x="11.6022" y="-1046.5"/>
</g>
<!-- CN1CCc2c3C1Cc1ccc(c(c1c3ccc2)O)O&#45;&gt;NCCc1ccccc1CC -->
<g id="edge4" class="edge">
<title>CN1CCc2c3C1Cc1ccc(c(c1c3ccc2)O)O&#45;&gt;NCCc1ccccc1CC</title>
<path fill="none" stroke="#000000" d="M340.9395,-1434.7451C336.0304,-1432.2967 331.0775,-1430.0343 326.1022,-1428 267.6264,-1404.09 85.8497,-1439.4158 44.1022,-1392 -38.164,-1298.5641 12.1477,-1146.8202 58.0783,-1051.0937"/>
<polygon fill="#000000" stroke="#000000" points="60.2616,-1046.5781 60.1107,-1052.059 59.1733,-1048.8288 58.085,-1051.0795 58.085,-1051.0795 58.085,-1051.0795 59.1733,-1048.8288 56.0594,-1050.1001 60.2616,-1046.5781 60.2616,-1046.5781"/>
</g>
<!-- Oc1ccc(cc1)C1CNCCc2c1cc(O)c(c2Cl)O -->
<g id="node3" class="node">
<title>Oc1ccc(cc1)C1CNCCc2c1cc(O)c(c2Cl)O</title>
<polygon fill="none" stroke="#000000" points="316.6022,-1636 47.6022,-1636 47.6022,-1428 316.6022,-1428 316.6022,-1636"/>
<image xlink:href="molecules/Oc1cccècc1ïC1CNCCc2c1ccèOïcèc2ClïO.svg" width="269px" height="208px" preserveAspectRatio="xMinYMin meet" x="47.6022" y="-1636"/>
</g>
<!-- NCCc1ccc(cc1C(CC=CCO)C)O -->
<g id="node5" class="node">
<title>NCCc1ccc(cc1C(CC=CCO)C)O</title>
<image xlink:href="molecules/NCCc1cccècc1CèCC=CCOïCïO.svg" width="243px" height="227px" preserveAspectRatio="xMinYMin meet" x="53.6022" y="-1369.5"/>
</g>
<!-- Oc1ccc(cc1)C1CNCCc2c1cc(O)c(c2Cl)O&#45;&gt;NCCc1ccc(cc1C(CC=CCO)C)O -->
<g id="edge5" class="edge">
<title>Oc1ccc(cc1)C1CNCCc2c1cc(O)c(c2Cl)O&#45;&gt;NCCc1ccc(cc1C(CC=CCO)C)O</title>
<path fill="none" stroke="#000000" d="M179.4558,-1427.6562C179.0207,-1410.5018 178.5669,-1392.6085 178.1236,-1375.127"/>
<polygon fill="#000000" stroke="#000000" points="177.9863,-1369.7162 180.3625,-1374.6575 178.0498,-1372.2154 178.1132,-1374.7146 178.1132,-1374.7146 178.1132,-1374.7146 178.0498,-1372.2154 175.8639,-1374.7717 177.9863,-1369.7162 177.9863,-1369.7162"/>
</g>
<!-- Oc1ccc(cc1)C1CNCCc2c1cc(O)c(c2Cl)O&#45;&gt;Oc1ccc(cc1O)CCNCCc1ccccc1 -->
<g id="edge6" class="edge">
<title>Oc1ccc(cc1)C1CNCCc2c1cc(O)c(c2Cl)O&#45;&gt;Oc1ccc(cc1O)CCNCCc1ccccc1</title>
<path fill="none" stroke="#000000" d="M288.3363,-1427.6562C308.9049,-1407.4536 330.5171,-1386.226 351.259,-1365.8532"/>
<polygon fill="#000000" stroke="#000000" points="354.8497,-1362.3263 352.8592,-1367.4353 353.0661,-1364.0782 351.2825,-1365.83 351.2825,-1365.83 351.2825,-1365.83 353.0661,-1364.0782 349.7059,-1364.2248 354.8497,-1362.3263 354.8497,-1362.3263"/>
</g>
<!-- OC1C=CC2C34C1Oc1c4c(CC2N(CC3)C)ccc1O -->
<g id="node4" class="node">
<title>OC1C=CC2C34C1Oc1c4c(CC2N(CC3)C)ccc1O</title>
<polygon fill="none" stroke="#000000" points="827.1022,-1634.5 627.1022,-1634.5 627.1022,-1429.5 827.1022,-1429.5 827.1022,-1634.5"/>
<image xlink:href="molecules/OC1C=CC2C34C1Oc1c4cèCC2NèCC3ïCïccc1O.svg" width="200px" height="205px" preserveAspectRatio="xMinYMin meet" x="627.102" y="-1634.5"/>
</g>
<!-- OC1C=CC2C34C1Oc1c4c(CC2N(CC3)C)ccc1O&#45;&gt;NCCc1ccc(cc1C(CC=CCO)C)O -->
<g id="edge7" class="edge">
<title>OC1C=CC2C34C1Oc1c4c(CC2N(CC3)C)ccc1O&#45;&gt;NCCc1ccc(cc1C(CC=CCO)C)O</title>
<path fill="none" stroke="#000000" d="M626.7251,-1444.9103C616.1531,-1438.4167 605.1992,-1432.6134 594.1022,-1428 474.9896,-1378.4806 421.4457,-1449.757 306.1022,-1392 295.4578,-1386.6699 285.1973,-1380.1156 275.4261,-1372.7916"/>
<polygon fill="#000000" stroke="#000000" points="271.2687,-1369.6069 276.6063,-1370.8613 273.2533,-1371.1272 275.238,-1372.6475 275.238,-1372.6475 275.238,-1372.6475 273.2533,-1371.1272 273.8697,-1374.4336 271.2687,-1369.6069 271.2687,-1369.6069"/>
</g>
<!-- OC1C=CC2C34C1Oc1c4c(CC2N(CC3)C)ccc1O&#45;&gt;CCCCN(C(Cc1ccc(c(c1)O)O)CC=CC)C -->
<g id="edge8" class="edge">
<title>OC1C=CC2C34C1Oc1c4c(CC2N(CC3)C)ccc1O&#45;&gt;CCCCN(C(Cc1ccc(c(c1)O)O)CC=CC)C</title>
<path fill="none" stroke="#000000" d="M736.0389,-1429.2278C736.9437,-1418.8227 737.8734,-1408.1312 738.8055,-1397.4122"/>
<polygon fill="#000000" stroke="#000000" points="739.2632,-1392.1491 741.0715,-1397.3253 739.0465,-1394.6397 738.8299,-1397.1303 738.8299,-1397.1303 738.8299,-1397.1303 739.0465,-1394.6397 736.5884,-1396.9354 739.2632,-1392.1491 739.2632,-1392.1491"/>
</g>
<!-- NCCc1ccc(cc1C(CC=CCO)C)O&#45;&gt;NCCc1ccccc1CC -->
<g id="edge9" class="edge">
<title>NCCc1ccc(cc1C(CC=CCO)C)O&#45;&gt;NCCc1ccccc1CC</title>
<path fill="none" stroke="#000000" d="M148.7143,-1142.2992C141.7267,-1112.1907 134.2869,-1080.134 127.6594,-1051.5771"/>
<polygon fill="#000000" stroke="#000000" points="126.5175,-1046.6572 129.8397,-1051.019 127.0828,-1049.0925 127.648,-1051.5277 127.648,-1051.5277 127.648,-1051.5277 127.0828,-1049.0925 125.4562,-1052.0364 126.5175,-1046.6572 126.5175,-1046.6572"/>
</g>
<!-- NCCc1ccc(cc1)O -->
<g id="node12" class="node">
<title>NCCc1ccc(cc1)O</title>
<image xlink:href="molecules/NCCc1cccècc1ïO.svg" width="140px" height="197px" preserveAspectRatio="xMinYMin meet" x="161.102" y="-603"/>
</g>
<!-- NCCc1ccc(cc1C(CC=CCO)C)O&#45;&gt;NCCc1ccc(cc1)O -->
<g id="edge10" class="edge">
<title>NCCc1ccc(cc1C(CC=CCO)C)O&#45;&gt;NCCc1ccc(cc1)O</title>
<path fill="none" stroke="#000000" d="M202.5703,-1142.2255C206.3753,-1122.8952 209.7727,-1102.9475 212.1022,-1084 232.4511,-918.4878 234.4202,-724.515 233.276,-608.2265"/>
<polygon fill="#000000" stroke="#000000" points="233.2229,-603.0921 235.5246,-608.0685 233.2488,-605.5919 233.2747,-608.0918 233.2747,-608.0918 233.2747,-608.0918 233.2488,-605.5919 231.0248,-608.1151 233.2229,-603.0921 233.2229,-603.0921"/>
</g>
<!-- CNCCc1ccc(c(c1)O)O&#45;&gt;NCCc1ccc(cc1)O -->
<g id="edge11" class="edge">
<title>CNCCc1ccc(c(c1)O)O&#45;&gt;NCCc1ccc(cc1)O</title>
<path fill="none" stroke="#000000" d="M374.0685,-638.839C351.2381,-617.3863 326.9325,-594.5474 304.9611,-573.9019"/>
<polygon fill="#000000" stroke="#000000" points="301.1721,-570.3415 306.3566,-572.1257 302.994,-572.0535 304.8159,-573.7654 304.8159,-573.7654 304.8159,-573.7654 302.994,-572.0535 303.2751,-575.4051 301.1721,-570.3415 301.1721,-570.3415"/>
</g>
<!-- CCCCNCCc1ccc(c(c1)O)O -->
<g id="node13" class="node">
<title>CCCCNCCc1ccc(c(c1)O)O</title>
<image xlink:href="molecules/CCCCNCCc1cccècèc1ïOïO.svg" width="296px" height="122px" preserveAspectRatio="xMinYMin meet" x="315.102" y="-1024"/>
</g>
<!-- Oc1ccc(cc1O)CCNCCc1ccccc1&#45;&gt;CCCCNCCc1ccc(c(c1)O)O -->
<g id="edge12" class="edge">
<title>Oc1ccc(cc1O)CCNCCc1ccccc1&#45;&gt;CCCCNCCc1ccc(c(c1)O)O</title>
<path fill="none" stroke="#000000" d="M463.1022,-1149.806C463.1022,-1109.5333 463.1022,-1064.8541 463.1022,-1029.2909"/>
<polygon fill="#000000" stroke="#000000" points="463.1022,-1024.1117 465.3523,-1029.1116 463.1023,-1026.6117 463.1023,-1029.1117 463.1023,-1029.1117 463.1023,-1029.1117 463.1023,-1026.6117 460.8523,-1029.1117 463.1022,-1024.1117 463.1022,-1024.1117"/>
</g>
<!-- CCCCN(C(Cc1ccc(c(c1)O)O)CC=CC)C&#45;&gt;CCCCNCCc1ccc(c(c1)O)O -->
<g id="edge13" class="edge">
<title>CCCCN(C(Cc1ccc(c(c1)O)O)CC=CC)C&#45;&gt;CCCCNCCc1ccc(c(c1)O)O</title>
<path fill="none" stroke="#000000" d="M629.5018,-1129.5975C626.3396,-1126.3623 623.2022,-1123.1586 620.1022,-1120 590.2566,-1089.5902 556.9139,-1056.1705 528.6585,-1028.0098"/>
<polygon fill="#000000" stroke="#000000" points="524.8842,-1024.2493 530.0143,-1026.1845 526.6552,-1026.0138 528.4262,-1027.7784 528.4262,-1027.7784 528.4262,-1027.7784 526.6552,-1026.0138 526.8381,-1029.3723 524.8842,-1024.2493 524.8842,-1024.2493"/>
</g>
<!-- NCCc1ccccc1 -->
<g id="node11" class="node">
<title>NCCc1ccccc1</title>
<image xlink:href="molecules/NCCc1ccccc1.svg" width="140px" height="167px" preserveAspectRatio="xMinYMin meet" x="99.1022" y="-370"/>
</g>
<!-- NCCc1ccccc1CC&#45;&gt;NCCc1ccccc1 -->
<g id="edge14" class="edge">
<title>NCCc1ccccc1CC&#45;&gt;NCCc1ccccc1</title>
<path fill="none" stroke="#000000" d="M112.2724,-879.3352C119.3785,-770.232 133.436,-573.5294 152.1022,-406 153.209,-396.0667 154.4935,-385.6868 155.851,-375.3714"/>
<polygon fill="#000000" stroke="#000000" points="156.5228,-370.3149 158.0946,-375.5677 156.1935,-372.7931 155.8642,-375.2713 155.8642,-375.2713 155.8642,-375.2713 156.1935,-372.7931 153.6338,-374.975 156.5228,-370.3149 156.5228,-370.3149"/>
</g>
<!-- CCc1ccccc1 -->
<g id="node10" class="node">
<title>CCc1ccccc1</title>
<image xlink:href="molecules/CCc1ccccc1.svg" width="113px" height="167px" preserveAspectRatio="xMinYMin meet" x="112.602" y="-167"/>
</g>
<!-- NCCc1ccccc1&#45;&gt;CCc1ccccc1 -->
<g id="edge15" class="edge">
<title>NCCc1ccccc1&#45;&gt;CCc1ccccc1</title>
<path fill="none" stroke="#000000" d="M169.1022,-202.7601C169.1022,-192.7157 169.1022,-182.4317 169.1022,-172.3183"/>
<polygon fill="#000000" stroke="#000000" points="169.1022,-167.0474 171.3523,-172.0474 169.1023,-169.5474 169.1023,-172.0474 169.1023,-172.0474 169.1023,-172.0474 169.1023,-169.5474 166.8523,-172.0475 169.1022,-167.0474 169.1022,-167.0474"/>
</g>
<!-- NCCc1ccc(cc1)O&#45;&gt;NCCc1ccccc1 -->
<g id="edge16" class="edge">
<title>NCCc1ccc(cc1)O&#45;&gt;NCCc1ccccc1</title>
<path fill="none" stroke="#000000" d="M203.0047,-405.7054C200.1136,-395.54 197.1885,-385.2551 194.3313,-375.2085"/>
<polygon fill="#000000" stroke="#000000" points="192.9345,-370.2973 196.4665,-374.4911 193.6184,-372.702 194.3023,-375.1066 194.3023,-375.1066 194.3023,-375.1066 193.6184,-372.702 192.1382,-375.7222 192.9345,-370.2973 192.9345,-370.2973"/>
</g>
<!-- CCCCNCCc1ccc(c(c1)O)O&#45;&gt;CNCCc1ccc(c(c1)O)O -->
<g id="edge17" class="edge">
<title>CCCCNCCc1ccc(c(c1)O)O&#45;&gt;CNCCc1ccc(c(c1)O)O</title>
<path fill="none" stroke="#000000" d="M463.1022,-901.6894C463.1022,-874.3255 463.1022,-841.5517 463.1022,-811.5589"/>
<polygon fill="#000000" stroke="#000000" points="463.1022,-806.3831 465.3523,-811.383 463.1023,-808.8831 463.1023,-811.3831 463.1023,-811.3831 463.1023,-811.3831 463.1023,-808.8831 460.8523,-811.3831 463.1022,-806.3831 463.1022,-806.3831"/>
</g>
</g>
</svg>
