<?xml version="1.0" encoding="UTF-8" standalone="no"?>
<!DOCTYPE svg PUBLIC "-//W3C//DTD SVG 1.1//EN"
 "http://www.w3.org/Graphics/SVG/1.1/DTD/svg11.dtd">
<!-- Generated by graphviz version 2.40.1 (20161225.0304)
 -->
<!-- Title: %3 Pages: 1 -->
<svg width="916pt" height="596pt"
 viewBox="0.00 0.00 915.50 596.00" xmlns="http://www.w3.org/2000/svg" xmlns:xlink="http://www.w3.org/1999/xlink">
<g id="graph0" class="graph" transform="scale(1 1) rotate(0) translate(4 592)">
<title>%3</title>
<polygon fill="#ffffff" stroke="transparent" points="-4,4 -4,-592 911.5,-592 911.5,4 -4,4"/>
<!-- CNCCC=CC=C(CO)O -->
<g id="node1" class="node">
<title>CNCCC=CC=C(CO)O</title>
<image xlink:href="molecules/CNCCC=CC=C⚪CO⚫O.svg" width="269px" height="107px" preserveAspectRatio="xMinYMin meet" x="201.5" y="-107"/>
</g>
<!-- CN(C(CC=CC)CC=CC=C(CO)O)CC -->
<g id="node2" class="node">
<title>CN(C(CC=CC)CC=CC=C(CO)O)CC</title>
<image xlink:href="molecules/CN⚪C⚪CC=CC⚫CC=CC=C⚪CO⚫O⚫CC.svg" width="269px" height="152px" preserveAspectRatio="xMinYMin meet" x="70.5" y="-302.5"/>
</g>
<!-- CN(C(CC=CC)CC=CC=C(CO)O)CC&#45;&gt;CNCCC=CC=C(CO)O -->
<g id="edge7" class="edge">
<title>CN(C(CC=CC)CC=CC=C(CO)O)CC&#45;&gt;CNCCC=CC=C(CO)O</title>
<path fill="none" stroke="#000000" d="M262.6491,-150.3679C272.5784,-137.2553 282.7518,-123.8201 292.239,-111.2913"/>
<polygon fill="#000000" stroke="#000000" points="295.4287,-107.0789 294.204,-112.4234 293.9195,-109.072 292.4103,-111.0651 292.4103,-111.0651 292.4103,-111.0651 293.9195,-109.072 290.6165,-109.7068 295.4287,-107.0789 295.4287,-107.0789"/>
</g>
<!-- CNCCc1ccc(c(c1)O)O -->
<g id="node3" class="node">
<title>CNCCc1ccc(c(c1)O)O</title>
<image xlink:href="molecules/CNCCc1ccc⚪c⚪c1⚫O⚫O.svg" width="218px" height="167px" preserveAspectRatio="xMinYMin meet" x="358" y="-310"/>
</g>
<!-- CNCCc1ccc(c(c1)O)O&#45;&gt;CNCCC=CC=C(CO)O -->
<g id="edge8" class="edge">
<title>CNCCc1ccc(c(c1)O)O&#45;&gt;CNCCC=CC=C(CO)O</title>
<path fill="none" stroke="#000000" d="M403.6105,-142.7872C395.5387,-132.1275 387.4242,-121.4113 379.7579,-111.2871"/>
<polygon fill="#000000" stroke="#000000" points="376.7297,-107.2881 381.5419,-109.916 378.2389,-109.2812 379.7482,-111.2743 379.7482,-111.2743 379.7482,-111.2743 378.2389,-109.2812 377.9544,-112.6326 376.7297,-107.2881 376.7297,-107.2881"/>
</g>
<!-- CNCC(c1ccc(c(c1)O)O)O -->
<g id="node4" class="node">
<title>CNCC(c1ccc(c(c1)O)O)O</title>
<polygon fill="none" stroke="#000000" points="620,-588 480,-588 480,-346 620,-346 620,-588"/>
<image xlink:href="molecules/CNCC⚪c1ccc⚪c⚪c1⚫O⚫O⚫O.svg" width="140px" height="242px" preserveAspectRatio="xMinYMin meet" x="480" y="-588"/>
</g>
<!-- CNCC(c1ccc(c(c1)O)O)O&#45;&gt;CNCCc1ccc(c(c1)O)O -->
<g id="edge3" class="edge">
<title>CNCC(c1ccc(c(c1)O)O)O&#45;&gt;CNCCc1ccc(c(c1)O)O</title>
<path fill="none" stroke="#000000" d="M508.1353,-345.6931C504.5691,-335.3599 501.0065,-325.037 497.5529,-315.0298"/>
<polygon fill="#000000" stroke="#000000" points="495.8667,-310.1438 499.6248,-314.1362 496.6823,-312.5071 497.4979,-314.8703 497.4979,-314.8703 497.4979,-314.8703 496.6823,-312.5071 495.371,-315.6043 495.8667,-310.1438 495.8667,-310.1438"/>
</g>
<!-- CN1CCc2c3C1Cc1ccc(c(c1c3ccc2)O)O -->
<g id="node5" class="node">
<title>CN1CCc2c3C1Cc1ccc(c(c1c3ccc2)O)O</title>
<polygon fill="none" stroke="#000000" points="244,-565 0,-565 0,-369 244,-369 244,-565"/>
<image xlink:href="molecules/CN1CCc2c3C1Cc1ccc⚪c⚪c1c3ccc2⚫O⚫O.svg" width="244px" height="196px" preserveAspectRatio="xMinYMin meet" x="0" y="-565"/>
</g>
<!-- CN1CCc2c3C1Cc1ccc(c(c1c3ccc2)O)O&#45;&gt;CN(C(CC=CC)CC=CC=C(CO)O)CC -->
<g id="edge1" class="edge">
<title>CN1CCc2c3C1Cc1ccc(c(c1c3ccc2)O)O&#45;&gt;CN(C(CC=CC)CC=CC=C(CO)O)CC</title>
<path fill="none" stroke="#000000" d="M155.879,-368.8326C162.9039,-348.4772 170.2305,-327.2477 177.016,-307.5862"/>
<polygon fill="#000000" stroke="#000000" points="178.7289,-302.6228 179.2246,-308.0833 177.9133,-304.986 177.0977,-307.3492 177.0977,-307.3492 177.0977,-307.3492 177.9133,-304.986 174.9708,-306.6152 178.7289,-302.6228 178.7289,-302.6228"/>
</g>
<!-- CN1CCc2c3C1Cc1ccc(c(c1c3ccc2)O)O&#45;&gt;CNCCc1ccc(c(c1)O)O -->
<g id="edge2" class="edge">
<title>CN1CCc2c3C1Cc1ccc(c(c1c3ccc2)O)O&#45;&gt;CNCCc1ccc(c(c1)O)O</title>
<path fill="none" stroke="#000000" d="M220.7744,-368.7448C231.2464,-360.5069 242.0732,-352.7593 253,-346 291.399,-322.2465 308.0981,-331.1317 348,-310 349.7181,-309.0901 351.4405,-308.1594 353.1655,-307.2099"/>
<polygon fill="#000000" stroke="#000000" points="357.7362,-304.6541 354.4702,-309.0582 355.5542,-305.8743 353.3721,-307.0944 353.3721,-307.0944 353.3721,-307.0944 355.5542,-305.8743 352.274,-305.1305 357.7362,-304.6541 357.7362,-304.6541"/>
</g>
<!-- OC1C=CC2C34C1Oc1c4c(CC2N(CC3)C)ccc1O -->
<g id="node6" class="node">
<title>OC1C=CC2C34C1Oc1c4c(CC2N(CC3)C)ccc1O</title>
<polygon fill="none" stroke="#000000" points="462,-569.5 262,-569.5 262,-364.5 462,-364.5 462,-569.5"/>
<image xlink:href="molecules/OC1C=CC2C34C1Oc1c4c⚪CC2N⚪CC3⚫C⚫ccc1O.svg" width="200px" height="205px" preserveAspectRatio="xMinYMin meet" x="262" y="-569.5"/>
</g>
<!-- OC1C=CC2C34C1Oc1c4c(CC2N(CC3)C)ccc1O&#45;&gt;CN(C(CC=CC)CC=CC=C(CO)O)CC -->
<g id="edge5" class="edge">
<title>OC1C=CC2C34C1Oc1c4c(CC2N(CC3)C)ccc1O&#45;&gt;CN(C(CC=CC)CC=CC=C(CO)O)CC</title>
<path fill="none" stroke="#000000" d="M294.9625,-364.3088C282.5156,-345.242 269.6757,-325.5733 257.7312,-307.2761"/>
<polygon fill="#000000" stroke="#000000" points="254.7145,-302.6551 259.3318,-305.612 256.0811,-304.7485 257.4478,-306.8419 257.4478,-306.8419 257.4478,-306.8419 256.0811,-304.7485 255.5637,-308.0719 254.7145,-302.6551 254.7145,-302.6551"/>
</g>
<!-- OC1C=CC2C34C1Oc1c4c(CC2N(CC3)C)ccc1O&#45;&gt;CNCCc1ccc(c(c1)O)O -->
<g id="edge6" class="edge">
<title>OC1C=CC2C34C1Oc1c4c(CC2N(CC3)C)ccc1O&#45;&gt;CNCCc1ccc(c(c1)O)O</title>
<path fill="none" stroke="#000000" d="M406.834,-364.3088C413.9565,-347.9949 421.2714,-331.2404 428.2389,-315.2813"/>
<polygon fill="#000000" stroke="#000000" points="430.3895,-310.3554 430.4509,-315.838 429.3892,-312.6466 428.3889,-314.9377 428.3889,-314.9377 428.3889,-314.9377 429.3892,-312.6466 426.3268,-314.0374 430.3895,-310.3554 430.3895,-310.3554"/>
</g>
<!-- Oc1ccc(cc1)C1CNCCc2c1cc(O)c(c2Cl)O -->
<g id="node7" class="node">
<title>Oc1ccc(cc1)C1CNCCc2c1cc(O)c(c2Cl)O</title>
<polygon fill="none" stroke="#000000" points="907.5,-571 638.5,-571 638.5,-363 907.5,-363 907.5,-571"/>
<image xlink:href="molecules/Oc1ccc⚪cc1⚫C1CNCCc2c1cc⚪O⚫c⚪c2Cl⚫O.svg" width="269px" height="208px" preserveAspectRatio="xMinYMin meet" x="638.5" y="-571"/>
</g>
<!-- Oc1ccc(cc1)C1CNCCc2c1cc(O)c(c2Cl)O&#45;&gt;CNCCc1ccc(c(c1)O)O -->
<g id="edge4" class="edge">
<title>Oc1ccc(cc1)C1CNCCc2c1cc(O)c(c2Cl)O&#45;&gt;CNCCc1ccc(c(c1)O)O</title>
<path fill="none" stroke="#000000" d="M650.0939,-362.8503C642.9929,-357.1063 635.926,-351.4555 629,-346 613.4345,-333.7392 596.8177,-321.048 580.3789,-308.7183"/>
<polygon fill="#000000" stroke="#000000" points="576.2041,-305.592 581.555,-306.7881 578.2052,-307.0905 580.2063,-308.5891 580.2063,-308.5891 580.2063,-308.5891 578.2052,-307.0905 578.8576,-310.3901 576.2041,-305.592 576.2041,-305.592"/>
</g>
</g>
</svg>
