<?xml version="1.0" encoding="UTF-8" standalone="no"?>
<!DOCTYPE svg PUBLIC "-//W3C//DTD SVG 1.1//EN"
 "http://www.w3.org/Graphics/SVG/1.1/DTD/svg11.dtd">
<!-- Generated by graphviz version 2.40.1 (20161225.0304)
 -->
<!-- Title: %3 Pages: 1 -->
<svg width="758pt" height="1032pt"
 viewBox="0.00 0.00 757.50 1032.00" xmlns="http://www.w3.org/2000/svg" xmlns:xlink="http://www.w3.org/1999/xlink">
<g id="graph0" class="graph" transform="scale(1 1) rotate(0) translate(4 1028)">
<title>%3</title>
<polygon fill="#ffffff" stroke="transparent" points="-4,4 -4,-1028 753.5,-1028 753.5,4 -4,4"/>
<!-- OC1C=CC2C34C1Oc1c4c(CC2N(CC3)C)ccc1O -->
<g id="node1" class="node">
<title>OC1C=CC2C34C1Oc1c4c(CC2N(CC3)C)ccc1O</title>
<polygon fill="none" stroke="#000000" points="200,-1022.5 0,-1022.5 0,-817.5 200,-817.5 200,-1022.5"/>
<image xlink:href="molecules/OC1C=CC2C34C1Oc1c4cèCC2NèCC3ïCïccc1O.svg" width="200px" height="205px" preserveAspectRatio="xMinYMin meet" x="0" y="-1022.5"/>
</g>
<!-- CCCCN(C(Cc1ccc(c(c1)O)O)CC=CC)C -->
<g id="node6" class="node">
<title>CCCCN(C(Cc1ccc(c(c1)O)O)CC=CC)C</title>
<image xlink:href="molecules/CCCCNèCèCc1cccècèc1ïOïOïCC=CCïC.svg" width="243px" height="272px" preserveAspectRatio="xMinYMin meet" x="91.5" y="-780"/>
</g>
<!-- OC1C=CC2C34C1Oc1c4c(CC2N(CC3)C)ccc1O&#45;&gt;CCCCN(C(Cc1ccc(c(c1)O)O)CC=CC)C -->
<g id="edge1" class="edge">
<title>OC1C=CC2C34C1Oc1c4c(CC2N(CC3)C)ccc1O&#45;&gt;CCCCN(C(Cc1ccc(c(c1)O)O)CC=CC)C</title>
<path fill="none" stroke="#000000" d="M142.077,-817.2278C146.4146,-806.6335 150.8736,-795.7423 155.3424,-784.8275"/>
<polygon fill="#000000" stroke="#000000" points="157.2578,-780.1491 157.4455,-785.6289 156.3105,-782.4627 155.3633,-784.7763 155.3633,-784.7763 155.3633,-784.7763 156.3105,-782.4627 153.281,-783.9238 157.2578,-780.1491 157.2578,-780.1491"/>
</g>
<!-- CN1CCc2c3C1Cc1ccc(c(c1c3ccc2)O)O -->
<g id="node2" class="node">
<title>CN1CCc2c3C1Cc1ccc(c(c1c3ccc2)O)O</title>
<polygon fill="none" stroke="#000000" points="462,-1018 218,-1018 218,-822 462,-822 462,-1018"/>
<image xlink:href="molecules/CN1CCc2c3C1Cc1cccècèc1c3ccc2ïOïO.svg" width="244px" height="196px" preserveAspectRatio="xMinYMin meet" x="218" y="-1018"/>
</g>
<!-- Oc1ccc(cc1O)CCNCCc1ccccc1 -->
<g id="node5" class="node">
<title>Oc1ccc(cc1O)CCNCCc1ccccc1</title>
<image xlink:href="molecules/Oc1cccècc1OïCCNCCc1ccccc1.svg" width="296px" height="212px" preserveAspectRatio="xMinYMin meet" x="353" y="-750"/>
</g>
<!-- CN1CCc2c3C1Cc1ccc(c(c1c3ccc2)O)O&#45;&gt;Oc1ccc(cc1O)CCNCCc1ccccc1 -->
<g id="edge2" class="edge">
<title>CN1CCc2c3C1Cc1ccc(c(c1c3ccc2)O)O&#45;&gt;Oc1ccc(cc1O)CCNCCc1ccccc1</title>
<path fill="none" stroke="#000000" d="M397.2159,-821.9156C409.926,-800.1269 423.4834,-776.8856 436.4639,-754.6334"/>
<polygon fill="#000000" stroke="#000000" points="439.0518,-750.1969 438.4759,-755.6495 437.7921,-752.3563 436.5324,-754.5158 436.5324,-754.5158 436.5324,-754.5158 437.7921,-752.3563 434.5889,-753.382 439.0518,-750.1969 439.0518,-750.1969"/>
</g>
<!-- CN1CCc2c3C1Cc1ccc(c(c1c3ccc2)O)O&#45;&gt;CCCCN(C(Cc1ccc(c(c1)O)O)CC=CC)C -->
<g id="edge3" class="edge">
<title>CN1CCc2c3C1Cc1ccc(c(c1c3ccc2)O)O&#45;&gt;CCCCN(C(Cc1ccc(c(c1)O)O)CC=CC)C</title>
<path fill="none" stroke="#000000" d="M294.867,-821.9156C289.3426,-809.91 283.6154,-797.4634 277.8732,-784.9843"/>
<polygon fill="#000000" stroke="#000000" points="275.7573,-780.386 279.8915,-783.9877 276.8024,-782.6571 277.8475,-784.9282 277.8475,-784.9282 277.8475,-784.9282 276.8024,-782.6571 275.8035,-785.8688 275.7573,-780.386 275.7573,-780.386"/>
</g>
<!-- CNCC(c1ccc(c(c1)O)O)O -->
<g id="node3" class="node">
<title>CNCC(c1ccc(c(c1)O)O)O</title>
<polygon fill="none" stroke="#000000" points="637,-314 497,-314 497,-72 637,-72 637,-314"/>
<image xlink:href="molecules/CNCCèc1cccècèc1ïOïOïO.svg" width="140px" height="242px" preserveAspectRatio="xMinYMin meet" x="497" y="-314"/>
</g>
<!-- CNCCc1ccc(c(c1)O)O -->
<g id="node9" class="node">
<title>CNCCc1ccc(c(c1)O)O</title>
<ellipse fill="none" stroke="#000000" cx="462" cy="-18" rx="90.9839" ry="18"/>
<text text-anchor="middle" x="462" y="-14.3" font-family="Times,serif" font-size="14.00" fill="#000000">CNCCc1ccc(c(c1)O)O</text>
</g>
<!-- CNCC(c1ccc(c(c1)O)O)O&#45;&gt;CNCCc1ccc(c(c1)O)O -->
<g id="edge4" class="edge">
<title>CNCC(c1ccc(c(c1)O)O)O&#45;&gt;CNCCc1ccc(c(c1)O)O</title>
<path fill="none" stroke="#000000" d="M496.9635,-76.2725C488.8732,-62.7886 481.4106,-50.351 475.4758,-40.4597"/>
<polygon fill="#000000" stroke="#000000" points="472.8598,-36.0996 477.3617,-39.2295 474.146,-38.2434 475.4323,-40.3871 475.4323,-40.3871 475.4323,-40.3871 474.146,-38.2434 473.5029,-41.5447 472.8598,-36.0996 472.8598,-36.0996"/>
</g>
<!-- Oc1ccc(cc1)C1CNCCc2c1cc(O)c(c2Cl)O -->
<g id="node4" class="node">
<title>Oc1ccc(cc1)C1CNCCc2c1cc(O)c(c2Cl)O</title>
<polygon fill="none" stroke="#000000" points="749.5,-1024 480.5,-1024 480.5,-816 749.5,-816 749.5,-1024"/>
<image xlink:href="molecules/Oc1cccècc1ïC1CNCCc2c1ccèOïcèc2ClïO.svg" width="269px" height="208px" preserveAspectRatio="xMinYMin meet" x="480.5" y="-1024"/>
</g>
<!-- Oc1ccc(cc1)C1CNCCc2c1cc(O)c(c2Cl)O&#45;&gt;Oc1ccc(cc1O)CCNCCc1ccccc1 -->
<g id="edge5" class="edge">
<title>Oc1ccc(cc1)C1CNCCc2c1cc(O)c(c2Cl)O&#45;&gt;Oc1ccc(cc1O)CCNCCc1ccccc1</title>
<path fill="none" stroke="#000000" d="M571.9015,-815.6562C563.7293,-795.871 555.1511,-775.1027 546.8962,-755.117"/>
<polygon fill="#000000" stroke="#000000" points="544.9174,-750.3263 548.9059,-754.0887 545.8718,-752.637 546.8263,-754.9477 546.8263,-754.9477 546.8263,-754.9477 545.8718,-752.637 544.7467,-755.8066 544.9174,-750.3263 544.9174,-750.3263"/>
</g>
<!-- CCCCNCCc1ccc(c(c1)O)O -->
<g id="node7" class="node">
<title>CCCCNCCc1ccc(c(c1)O)O</title>
<image xlink:href="molecules/CCCCNCCc1cccècèc1ïOïO.svg" width="296px" height="122px" preserveAspectRatio="xMinYMin meet" x="209" y="-472"/>
</g>
<!-- Oc1ccc(cc1O)CCNCCc1ccccc1&#45;&gt;CCCCNCCc1ccc(c(c1)O)O -->
<g id="edge6" class="edge">
<title>Oc1ccc(cc1O)CCNCCc1ccccc1&#45;&gt;CCCCNCCc1ccc(c(c1)O)O</title>
<path fill="none" stroke="#000000" d="M435.3209,-537.7275C422.4251,-516.8615 409.2568,-495.5545 397.4879,-476.5117"/>
<polygon fill="#000000" stroke="#000000" points="394.8424,-472.2311 399.385,-475.3015 396.1567,-474.3577 397.4711,-476.4844 397.4711,-476.4844 397.4711,-476.4844 396.1567,-474.3577 395.5571,-477.6673 394.8424,-472.2311 394.8424,-472.2311"/>
</g>
<!-- CCCCN(C(Cc1ccc(c(c1)O)O)CC=CC)C&#45;&gt;CCCCNCCc1ccc(c(c1)O)O -->
<g id="edge7" class="edge">
<title>CCCCN(C(Cc1ccc(c(c1)O)O)CC=CC)C&#45;&gt;CCCCNCCc1ccc(c(c1)O)O</title>
<path fill="none" stroke="#000000" d="M297.182,-507.7888C303.8003,-497.0801 310.2771,-486.6002 316.38,-476.7254"/>
<polygon fill="#000000" stroke="#000000" points="319.1569,-472.2323 318.4422,-477.6685 317.8425,-474.3589 316.5282,-476.4856 316.5282,-476.4856 316.5282,-476.4856 317.8425,-474.3589 314.6142,-475.3027 319.1569,-472.2323 319.1569,-472.2323"/>
</g>
<!-- CCNCCc1ccc(c(c1)O)O -->
<g id="node8" class="node">
<title>CCNCCc1ccc(c(c1)O)O</title>
<image xlink:href="molecules/CCNCCc1cccècèc1ïOïO.svg" width="243px" height="122px" preserveAspectRatio="xMinYMin meet" x="235.5" y="-254"/>
</g>
<!-- CCCCNCCc1ccc(c(c1)O)O&#45;&gt;CCNCCc1ccc(c(c1)O)O -->
<g id="edge8" class="edge">
<title>CCCCNCCc1ccc(c(c1)O)O&#45;&gt;CCNCCc1ccc(c(c1)O)O</title>
<path fill="none" stroke="#000000" d="M357,-349.985C357,-321.7628 357,-288.1785 357,-259.3296"/>
<polygon fill="#000000" stroke="#000000" points="357,-254.0003 359.2501,-259.0003 357,-256.5003 357.0001,-259.0003 357.0001,-259.0003 357.0001,-259.0003 357,-256.5003 354.7501,-259.0003 357,-254.0003 357,-254.0003"/>
</g>
<!-- CCNCCc1ccc(c(c1)O)O&#45;&gt;CNCCc1ccc(c(c1)O)O -->
<g id="edge9" class="edge">
<title>CCNCCc1ccc(c(c1)O)O&#45;&gt;CNCCc1ccc(c(c1)O)O</title>
<path fill="none" stroke="#000000" d="M393.7239,-131.7935C412.6852,-100.1913 434.6732,-63.5446 448.4615,-40.5642"/>
<polygon fill="#000000" stroke="#000000" points="451.1064,-36.1559 450.4633,-41.601 449.8202,-38.2997 448.5339,-40.4434 448.5339,-40.4434 448.5339,-40.4434 449.8202,-38.2997 446.6046,-39.2858 451.1064,-36.1559 451.1064,-36.1559"/>
</g>
</g>
</svg>
