<?xml version="1.0" encoding="UTF-8" standalone="no"?>
<!DOCTYPE svg PUBLIC "-//W3C//DTD SVG 1.1//EN"
 "http://www.w3.org/Graphics/SVG/1.1/DTD/svg11.dtd">
<!-- Generated by graphviz version 2.40.1 (20161225.0304)
 -->
<!-- Title: %3 Pages: 1 -->
<svg width="866pt" height="1644pt"
 viewBox="0.00 0.00 866.37 1644.00" xmlns="http://www.w3.org/2000/svg" xmlns:xlink="http://www.w3.org/1999/xlink">
<g id="graph0" class="graph" transform="scale(1 1) rotate(0) translate(4 1640)">
<title>%3</title>
<polygon fill="#ffffff" stroke="transparent" points="-4,4 -4,-1640 862.3727,-1640 862.3727,4 -4,4"/>
<!-- Oc1ccc(cc1)C1CNCCc2c1cc(O)c(c2Cl)O -->
<g id="node1" class="node">
<title>Oc1ccc(cc1)C1CNCCc2c1cc(O)c(c2Cl)O</title>
<polygon fill="none" stroke="#000000" points="525,-1636 256,-1636 256,-1428 525,-1428 525,-1636"/>
<image xlink:href="molecules/Oc1cccècc1ïC1CNCCc2c1ccèOïcèc2ClïO.svg" width="269px" height="208px" preserveAspectRatio="xMinYMin meet" x="256" y="-1636"/>
</g>
<!-- Oc1ccc(cc1O)CCNCCc1ccccc1 -->
<g id="node6" class="node">
<title>Oc1ccc(cc1O)CCNCCc1ccccc1</title>
<image xlink:href="molecules/Oc1cccècc1OïCCNCCc1ccccc1.svg" width="296px" height="212px" preserveAspectRatio="xMinYMin meet" x="522.5" y="-1362"/>
</g>
<!-- Oc1ccc(cc1)C1CNCCc2c1cc(O)c(c2Cl)O&#45;&gt;Oc1ccc(cc1O)CCNCCc1ccccc1 -->
<g id="edge1" class="edge">
<title>Oc1ccc(cc1)C1CNCCc2c1cc(O)c(c2Cl)O&#45;&gt;Oc1ccc(cc1O)CCNCCc1ccccc1</title>
<path fill="none" stroke="#000000" d="M496.356,-1427.6562C516.8515,-1407.4536 538.3867,-1386.226 559.0547,-1365.8532"/>
<polygon fill="#000000" stroke="#000000" points="562.6327,-1362.3263 560.6513,-1367.4388 560.8522,-1364.0814 559.0718,-1365.8364 559.0718,-1365.8364 559.0718,-1365.8364 560.8522,-1364.0814 557.4923,-1364.234 562.6327,-1362.3263 562.6327,-1362.3263"/>
</g>
<!-- NCCc1ccc(cc1C(CC=CCO)C)O -->
<g id="node7" class="node">
<title>NCCc1ccc(cc1C(CC=CCO)C)O</title>
<image xlink:href="molecules/NCCc1cccècc1CèCC=CCOïCïO.svg" width="243px" height="227px" preserveAspectRatio="xMinYMin meet" x="0" y="-1369.5"/>
</g>
<!-- Oc1ccc(cc1)C1CNCCc2c1cc(O)c(c2Cl)O&#45;&gt;NCCc1ccc(cc1C(CC=CCO)C)O -->
<g id="edge2" class="edge">
<title>Oc1ccc(cc1)C1CNCCc2c1cc(O)c(c2Cl)O&#45;&gt;NCCc1ccc(cc1C(CC=CCO)C)O</title>
<path fill="none" stroke="#000000" d="M287.5038,-1427.776C275.6796,-1415.7324 263.8135,-1403.6106 252.5,-1392 246.6266,-1385.9723 240.6138,-1379.786 234.5486,-1373.5333"/>
<polygon fill="#000000" stroke="#000000" points="230.7662,-1369.6324 235.8622,-1371.6558 232.5065,-1371.4272 234.2468,-1373.222 234.2468,-1373.222 234.2468,-1373.222 232.5065,-1371.4272 232.6315,-1374.7883 230.7662,-1369.6324 230.7662,-1369.6324"/>
</g>
<!-- CNCC(c1ccc(c(c1)O)O)O -->
<g id="node2" class="node">
<title>CNCC(c1ccc(c(c1)O)O)O</title>
<polygon fill="none" stroke="#000000" points="308.5,-1084 168.5,-1084 168.5,-842 308.5,-842 308.5,-1084"/>
<image xlink:href="molecules/CNCCèc1cccècèc1ïOïOïO.svg" width="140px" height="242px" preserveAspectRatio="xMinYMin meet" x="168.5" y="-1084"/>
</g>
<!-- CNCCc1ccc(c(c1)O)O -->
<g id="node9" class="node">
<title>CNCCc1ccc(c(c1)O)O</title>
<image xlink:href="molecules/CNCCc1cccècèc1ïOïO.svg" width="218px" height="167px" preserveAspectRatio="xMinYMin meet" x="172.5" y="-806"/>
</g>
<!-- CNCC(c1ccc(c(c1)O)O)O&#45;&gt;CNCCc1ccc(c(c1)O)O -->
<g id="edge3" class="edge">
<title>CNCC(c1ccc(c(c1)O)O)O&#45;&gt;CNCCc1ccc(c(c1)O)O</title>
<path fill="none" stroke="#000000" d="M260.189,-841.6931C262.0197,-831.4538 263.8486,-821.2247 265.6226,-811.3028"/>
<polygon fill="#000000" stroke="#000000" points="266.545,-806.1438 267.8798,-811.4618 266.1049,-808.6048 265.6649,-811.0658 265.6649,-811.0658 265.6649,-811.0658 266.1049,-808.6048 263.45,-810.6697 266.545,-806.1438 266.545,-806.1438"/>
</g>
<!-- CN1CCc2c3C1Cc1ccc(c(c1c3ccc2)O)O -->
<g id="node3" class="node">
<title>CN1CCc2c3C1Cc1ccc(c(c1c3ccc2)O)O</title>
<polygon fill="none" stroke="#000000" points="792.5,-1630 548.5,-1630 548.5,-1434 792.5,-1434 792.5,-1630"/>
<image xlink:href="molecules/CN1CCc2c3C1Cc1cccècèc1c3ccc2ïOïO.svg" width="244px" height="196px" preserveAspectRatio="xMinYMin meet" x="548.5" y="-1630"/>
</g>
<!-- CCCCN(C(Cc1ccc(c(c1)O)O)CC=CC)C -->
<g id="node5" class="node">
<title>CCCCN(C(Cc1ccc(c(c1)O)O)CC=CC)C</title>
<image xlink:href="molecules/CCCCNèCèCc1cccècèc1ïOïOïCC=CCïC.svg" width="243px" height="272px" preserveAspectRatio="xMinYMin meet" x="261" y="-1392"/>
</g>
<!-- CN1CCc2c3C1Cc1ccc(c(c1c3ccc2)O)O&#45;&gt;CCCCN(C(Cc1ccc(c(c1)O)O)CC=CC)C -->
<g id="edge5" class="edge">
<title>CN1CCc2c3C1Cc1ccc(c(c1c3ccc2)O)O&#45;&gt;CCCCN(C(Cc1ccc(c(c1)O)O)CC=CC)C</title>
<path fill="none" stroke="#000000" d="M558.4731,-1433.9839C543.1927,-1420.0703 527.8417,-1405.8006 513.5,-1392 511.6766,-1390.2454 509.8441,-1388.473 508.0047,-1386.6855"/>
<polygon fill="#000000" stroke="#000000" points="504.22,-1382.9958 509.3709,-1384.875 506.0101,-1384.741 507.8002,-1386.4861 507.8002,-1386.4861 507.8002,-1386.4861 506.0101,-1384.741 506.2296,-1388.0973 504.22,-1382.9958 504.22,-1382.9958"/>
</g>
<!-- CN1CCc2c3C1Cc1ccc(c(c1c3ccc2)O)O&#45;&gt;Oc1ccc(cc1O)CCNCCc1ccccc1 -->
<g id="edge6" class="edge">
<title>CN1CCc2c3C1Cc1ccc(c(c1c3ccc2)O)O&#45;&gt;Oc1ccc(cc1O)CCNCCc1ccccc1</title>
<path fill="none" stroke="#000000" d="M670.5,-1433.9156C670.5,-1412.3992 670.5,-1389.4664 670.5,-1367.4683"/>
<polygon fill="#000000" stroke="#000000" points="670.5,-1362.1969 672.7501,-1367.1968 670.5,-1364.6969 670.5001,-1367.1969 670.5001,-1367.1969 670.5001,-1367.1969 670.5,-1364.6969 668.2501,-1367.1969 670.5,-1362.1969 670.5,-1362.1969"/>
</g>
<!-- NCCc1ccccc1CC -->
<g id="node10" class="node">
<title>NCCc1ccccc1CC</title>
<image xlink:href="molecules/NCCc1ccccc1CC.svg" width="191px" height="167px" preserveAspectRatio="xMinYMin meet" x="641" y="-1046.5"/>
</g>
<!-- CN1CCc2c3C1Cc1ccc(c(c1c3ccc2)O)O&#45;&gt;NCCc1ccccc1CC -->
<g id="edge4" class="edge">
<title>CN1CCc2c3C1Cc1ccc(c(c1c3ccc2)O)O&#45;&gt;NCCc1ccccc1CC</title>
<path fill="none" stroke="#000000" d="M792.5602,-1443.7538C806.7013,-1428.167 819.0621,-1410.8296 827.5,-1392 876.9358,-1281.6812 858.8875,-1236.7431 827.5,-1120 821.1616,-1096.4249 810.3229,-1072.7372 798.2889,-1051.165"/>
<polygon fill="#000000" stroke="#000000" points="795.7041,-1046.5947 800.124,-1049.8392 796.9348,-1048.7708 798.1656,-1050.9469 798.1656,-1050.9469 798.1656,-1050.9469 796.9348,-1048.7708 796.2071,-1052.0545 795.7041,-1046.5947 795.7041,-1046.5947"/>
</g>
<!-- OC1C=CC2C34C1Oc1c4c(CC2N(CC3)C)ccc1O -->
<g id="node4" class="node">
<title>OC1C=CC2C34C1Oc1c4c(CC2N(CC3)C)ccc1O</title>
<polygon fill="none" stroke="#000000" points="227.5,-1634.5 27.5,-1634.5 27.5,-1429.5 227.5,-1429.5 227.5,-1634.5"/>
<image xlink:href="molecules/OC1C=CC2C34C1Oc1c4cèCC2NèCC3ïCïccc1O.svg" width="200px" height="205px" preserveAspectRatio="xMinYMin meet" x="27.5" y="-1634.5"/>
</g>
<!-- OC1C=CC2C34C1Oc1c4c(CC2N(CC3)C)ccc1O&#45;&gt;CCCCN(C(Cc1ccc(c(c1)O)O)CC=CC)C -->
<g id="edge7" class="edge">
<title>OC1C=CC2C34C1Oc1c4c(CC2N(CC3)C)ccc1O&#45;&gt;CCCCN(C(Cc1ccc(c(c1)O)O)CC=CC)C</title>
<path fill="none" stroke="#000000" d="M222.4526,-1429.2278C233.7453,-1417.0051 245.4031,-1404.3872 257.0383,-1391.7938"/>
<polygon fill="#000000" stroke="#000000" points="260.6481,-1387.8868 258.9076,-1393.0862 258.9515,-1389.723 257.255,-1391.5593 257.255,-1391.5593 257.255,-1391.5593 258.9515,-1389.723 255.6024,-1390.0324 260.6481,-1387.8868 260.6481,-1387.8868"/>
</g>
<!-- OC1C=CC2C34C1Oc1c4c(CC2N(CC3)C)ccc1O&#45;&gt;NCCc1ccc(cc1C(CC=CCO)C)O -->
<g id="edge8" class="edge">
<title>OC1C=CC2C34C1Oc1c4c(CC2N(CC3)C)ccc1O&#45;&gt;NCCc1ccc(cc1C(CC=CCO)C)O</title>
<path fill="none" stroke="#000000" d="M125.2658,-1429.2278C124.879,-1411.4361 124.4741,-1392.8072 124.079,-1374.6353"/>
<polygon fill="#000000" stroke="#000000" points="123.9679,-1369.5231 126.3261,-1374.473 124.0223,-1372.0225 124.0767,-1374.5219 124.0767,-1374.5219 124.0767,-1374.5219 124.0223,-1372.0225 121.8272,-1374.5708 123.9679,-1369.5231 123.9679,-1369.5231"/>
</g>
<!-- CCCCNCCc1ccc(c(c1)O)O -->
<g id="node8" class="node">
<title>CCCCNCCc1ccc(c(c1)O)O</title>
<image xlink:href="molecules/CCCCNCCc1cccècèc1ïOïO.svg" width="296px" height="122px" preserveAspectRatio="xMinYMin meet" x="326.5" y="-1024"/>
</g>
<!-- CCCCN(C(Cc1ccc(c(c1)O)O)CC=CC)C&#45;&gt;CCCCNCCc1ccc(c(c1)O)O -->
<g id="edge9" class="edge">
<title>CCCCN(C(Cc1ccc(c(c1)O)O)CC=CC)C&#45;&gt;CCCCNCCc1ccc(c(c1)O)O</title>
<path fill="none" stroke="#000000" d="M425.268,-1119.7932C435.1631,-1088.2793 445.2587,-1056.1271 453.7111,-1029.2081"/>
<polygon fill="#000000" stroke="#000000" points="455.2698,-1024.244 455.9185,-1029.6884 454.5208,-1026.6292 453.7719,-1029.0144 453.7719,-1029.0144 453.7719,-1029.0144 454.5208,-1026.6292 451.6252,-1028.3403 455.2698,-1024.244 455.2698,-1024.244"/>
</g>
<!-- Oc1ccc(cc1O)CCNCCc1ccccc1&#45;&gt;CCCCNCCc1ccc(c(c1)O)O -->
<g id="edge10" class="edge">
<title>Oc1ccc(cc1O)CCNCCc1ccccc1&#45;&gt;CCCCNCCc1ccc(c(c1)O)O</title>
<path fill="none" stroke="#000000" d="M599.4624,-1149.806C572.3015,-1109.2032 542.1443,-1064.1213 518.261,-1028.4183"/>
<polygon fill="#000000" stroke="#000000" points="515.3802,-1024.1117 520.0304,-1027.0165 516.7702,-1026.1896 518.1603,-1028.2676 518.1603,-1028.2676 518.1603,-1028.2676 516.7702,-1026.1896 516.2901,-1029.5186 515.3802,-1024.1117 515.3802,-1024.1117"/>
</g>
<!-- NCCc1ccc(cc1C(CC=CCO)C)O&#45;&gt;NCCc1ccccc1CC -->
<g id="edge11" class="edge">
<title>NCCc1ccc(cc1C(CC=CCO)C)O&#45;&gt;NCCc1ccccc1CC</title>
<path fill="none" stroke="#000000" d="M217.0802,-1142.3207C228.2399,-1133.6613 240.0983,-1125.9817 252.5,-1120 404.9012,-1046.4922 481.0595,-1161.4415 631.5,-1084 647.662,-1075.6803 662.4153,-1063.7224 675.4258,-1050.5261"/>
<polygon fill="#000000" stroke="#000000" points="679.0489,-1046.7732 677.1948,-1051.9331 677.3125,-1048.5718 675.5761,-1050.3704 675.5761,-1050.3704 675.5761,-1050.3704 677.3125,-1048.5718 673.9574,-1048.8076 679.0489,-1046.7732 679.0489,-1046.7732"/>
</g>
<!-- CCc1cccc(c1)O -->
<g id="node11" class="node">
<title>CCc1cccc(c1)O</title>
<image xlink:href="molecules/CCc1ccccèc1ïO.svg" width="191px" height="122px" preserveAspectRatio="xMinYMin meet" x="7" y="-565.5"/>
</g>
<!-- NCCc1ccc(cc1C(CC=CCO)C)O&#45;&gt;CCc1cccc(c1)O -->
<g id="edge12" class="edge">
<title>NCCc1ccc(cc1C(CC=CCO)C)O&#45;&gt;CCc1cccc(c1)O</title>
<path fill="none" stroke="#000000" d="M118.6246,-1142.2715C114.6034,-983.2199 107.4287,-699.4438 104.1803,-570.9616"/>
<polygon fill="#000000" stroke="#000000" points="104.0475,-565.709 106.4233,-570.6505 104.1108,-568.2082 104.174,-570.7074 104.174,-570.7074 104.174,-570.7074 104.1108,-568.2082 101.9247,-570.7643 104.0475,-565.709 104.0475,-565.709"/>
</g>
<!-- NCCc1ccc(cc1)O -->
<g id="node14" class="node">
<title>NCCc1ccc(cc1)O</title>
<image xlink:href="molecules/NCCc1cccècc1ïO.svg" width="140px" height="197px" preserveAspectRatio="xMinYMin meet" x="216.5" y="-603"/>
</g>
<!-- NCCc1ccc(cc1C(CC=CCO)C)O&#45;&gt;NCCc1ccc(cc1)O -->
<g id="edge13" class="edge">
<title>NCCc1ccc(cc1C(CC=CCO)C)O&#45;&gt;NCCc1ccc(cc1)O</title>
<path fill="none" stroke="#000000" d="M126.9101,-1142.2434C135.4314,-970.0862 152.1731,-660.9432 163.5,-639 175.0896,-616.5478 189.7209,-620.9533 207.5,-603 209.2401,-601.2428 210.9803,-599.4492 212.7171,-597.6259"/>
<polygon fill="#000000" stroke="#000000" points="216.2764,-593.8434 214.4885,-599.0267 214.5632,-595.6641 212.8499,-597.4847 212.8499,-597.4847 212.8499,-597.4847 214.5632,-595.6641 211.2113,-595.9428 216.2764,-593.8434 216.2764,-593.8434"/>
</g>
<!-- CCCCNCCc1ccc(c(c1)O)O&#45;&gt;CNCCc1ccc(c(c1)O)O -->
<g id="edge14" class="edge">
<title>CCCCNCCc1ccc(c(c1)O)O&#45;&gt;CNCCc1ccc(c(c1)O)O</title>
<path fill="none" stroke="#000000" d="M425.2986,-901.6894C403.0669,-873.9862 376.3856,-840.7383 352.0752,-810.4448"/>
<polygon fill="#000000" stroke="#000000" points="348.8157,-806.3831 353.7,-808.8745 350.3805,-808.3329 351.9452,-810.2827 351.9452,-810.2827 351.9452,-810.2827 350.3805,-808.3329 350.1904,-811.6909 348.8157,-806.3831 348.8157,-806.3831"/>
</g>
<!-- CNCCc1ccc(c(c1)O)O&#45;&gt;CCc1cccc(c1)O -->
<g id="edge15" class="edge">
<title>CNCCc1ccc(c(c1)O)O&#45;&gt;CCc1cccc(c1)O</title>
<path fill="none" stroke="#000000" d="M212.8059,-638.839C193.9644,-615.8924 173.8207,-591.3598 155.9718,-569.622"/>
<polygon fill="#000000" stroke="#000000" points="152.6665,-565.5966 157.5784,-568.0331 154.253,-567.5288 155.8395,-569.4609 155.8395,-569.4609 155.8395,-569.4609 154.253,-567.5288 154.1006,-570.8887 152.6665,-565.5966 152.6665,-565.5966"/>
</g>
<!-- CNCCc1ccc(c(c1)O)O&#45;&gt;NCCc1ccc(cc1)O -->
<g id="edge16" class="edge">
<title>CNCCc1ccc(c(c1)O)O&#45;&gt;NCCc1ccc(cc1)O</title>
<path fill="none" stroke="#000000" d="M283.4188,-638.839C283.6484,-628.8298 283.8849,-618.5188 284.12,-608.2697"/>
<polygon fill="#000000" stroke="#000000" points="284.2352,-603.2449 286.3699,-608.2952 284.1778,-605.7442 284.1205,-608.2435 284.1205,-608.2435 284.1205,-608.2435 284.1778,-605.7442 281.8711,-608.1919 284.2352,-603.2449 284.2352,-603.2449"/>
</g>
<!-- NCCc1ccccc1 -->
<g id="node13" class="node">
<title>NCCc1ccccc1</title>
<image xlink:href="molecules/NCCc1ccccc1.svg" width="140px" height="167px" preserveAspectRatio="xMinYMin meet" x="216.5" y="-370"/>
</g>
<!-- NCCc1ccccc1CC&#45;&gt;NCCc1ccccc1 -->
<g id="edge17" class="edge">
<title>NCCc1ccccc1CC&#45;&gt;NCCc1ccccc1</title>
<path fill="none" stroke="#000000" d="M680.8698,-879.3693C595.3216,-750.7618 432.2376,-505.5921 344.9945,-374.4367"/>
<polygon fill="#000000" stroke="#000000" points="342.1794,-370.2047 346.8221,-373.1216 343.564,-372.2862 344.9487,-374.3678 344.9487,-374.3678 344.9487,-374.3678 343.564,-372.2862 343.0753,-375.614 342.1794,-370.2047 342.1794,-370.2047"/>
</g>
<!-- CCc1ccccc1 -->
<g id="node12" class="node">
<title>CCc1ccccc1</title>
<image xlink:href="molecules/CCc1ccccc1.svg" width="113px" height="167px" preserveAspectRatio="xMinYMin meet" x="138" y="-167"/>
</g>
<!-- CCc1cccc(c1)O&#45;&gt;CCc1ccccc1 -->
<g id="edge18" class="edge">
<title>CCc1cccc(c1)O&#45;&gt;CCc1ccccc1</title>
<path fill="none" stroke="#000000" d="M115.8776,-443.283C131.4337,-372.0969 157.2448,-253.9831 175.0248,-172.6204"/>
<polygon fill="#000000" stroke="#000000" points="176.1841,-167.3153 177.3147,-172.6804 175.6503,-169.7576 175.1166,-172.2 175.1166,-172.2 175.1166,-172.2 175.6503,-169.7576 172.9184,-171.7196 176.1841,-167.3153 176.1841,-167.3153"/>
</g>
<!-- NCCc1ccccc1&#45;&gt;CCc1ccccc1 -->
<g id="edge19" class="edge">
<title>NCCc1ccccc1&#45;&gt;CCc1ccccc1</title>
<path fill="none" stroke="#000000" d="M248.5489,-202.7601C243.9132,-192.5314 239.165,-182.0542 234.5004,-171.7618"/>
<polygon fill="#000000" stroke="#000000" points="232.3639,-167.0474 236.4772,-170.6728 233.3959,-169.3245 234.4279,-171.6016 234.4279,-171.6016 234.4279,-171.6016 233.3959,-169.3245 232.3785,-172.5304 232.3639,-167.0474 232.3639,-167.0474"/>
</g>
<!-- NCCc1ccc(cc1)O&#45;&gt;NCCc1ccccc1 -->
<g id="edge20" class="edge">
<title>NCCc1ccc(cc1)O&#45;&gt;NCCc1ccccc1</title>
<path fill="none" stroke="#000000" d="M286.5,-405.7054C286.5,-395.6324 286.5,-385.442 286.5,-375.4826"/>
<polygon fill="#000000" stroke="#000000" points="286.5,-370.2973 288.7501,-375.2973 286.5,-372.7973 286.5001,-375.2973 286.5001,-375.2973 286.5001,-375.2973 286.5,-372.7973 284.2501,-375.2974 286.5,-370.2973 286.5,-370.2973"/>
</g>
</g>
</svg>
