<?xml version="1.0" encoding="UTF-8" standalone="no"?>
<!DOCTYPE svg PUBLIC "-//W3C//DTD SVG 1.1//EN"
 "http://www.w3.org/Graphics/SVG/1.1/DTD/svg11.dtd">
<!-- Generated by graphviz version 2.40.1 (20161225.0304)
 -->
<!-- Title: %3 Pages: 1 -->
<svg width="1511pt" height="1325pt"
 viewBox="0.00 0.00 1511.00 1325.00" xmlns="http://www.w3.org/2000/svg" xmlns:xlink="http://www.w3.org/1999/xlink">
<g id="graph0" class="graph" transform="scale(1 1) rotate(0) translate(4 1321)">
<title>%3</title>
<polygon fill="#ffffff" stroke="transparent" points="-4,4 -4,-1321 1507,-1321 1507,4 -4,4"/>
<!-- NCCc1ccc(cc1)OC -->
<g id="node1" class="node">
<title>NCCc1ccc(cc1)OC</title>
<image xlink:href="molecules/NCCc1ccc⚪cc1⚫OC.svg" width="140px" height="212px" preserveAspectRatio="xMinYMin meet" x="140" y="-1031.5"/>
</g>
<!-- NCCc1ccc(cc1)O -->
<g id="node14" class="node">
<title>NCCc1ccc(cc1)O</title>
<image xlink:href="molecules/NCCc1ccc⚪cc1⚫O.svg" width="140px" height="197px" preserveAspectRatio="xMinYMin meet" x="320" y="-543"/>
</g>
<!-- NCCc1ccc(cc1)OC&#45;&gt;NCCc1ccc(cc1)O -->
<g id="edge22" class="edge">
<title>NCCc1ccc(cc1)OC&#45;&gt;NCCc1ccc(cc1)O</title>
<path fill="none" stroke="#000000" d="M249.7246,-819.347C279.9744,-738.5129 321.3809,-627.8655 351.3596,-547.7556"/>
<polygon fill="#000000" stroke="#000000" points="353.1374,-543.005 353.4922,-548.4765 352.2612,-545.3465 351.3849,-547.6879 351.3849,-547.6879 351.3849,-547.6879 352.2612,-545.3465 349.2776,-546.8993 353.1374,-543.005 353.1374,-543.005"/>
</g>
<!-- NCCc1cccc(c1)OC -->
<g id="node2" class="node">
<title>NCCc1cccc(c1)OC</title>
<image xlink:href="molecules/NCCc1cccc⚪c1⚫OC.svg" width="166px" height="197px" preserveAspectRatio="xMinYMin meet" x="456" y="-1024"/>
</g>
<!-- NCCc1cccc(c1)O -->
<g id="node11" class="node">
<title>NCCc1cccc(c1)O</title>
<image xlink:href="molecules/NCCc1cccc⚪c1⚫O.svg" width="191px" height="122px" preserveAspectRatio="xMinYMin meet" x="484.5" y="-505.5"/>
</g>
<!-- NCCc1cccc(c1)OC&#45;&gt;NCCc1cccc(c1)O -->
<g id="edge23" class="edge">
<title>NCCc1cccc(c1)OC&#45;&gt;NCCc1cccc(c1)O</title>
<path fill="none" stroke="#000000" d="M504.9748,-826.7515C485.8601,-756.5001 470.1676,-660.5135 494,-579 501.0798,-554.7852 513.9977,-530.7857 527.707,-509.9099"/>
<polygon fill="#000000" stroke="#000000" points="530.6426,-505.5037 529.7428,-510.9124 529.2565,-507.5843 527.8703,-509.6648 527.8703,-509.6648 527.8703,-509.6648 529.2565,-507.5843 525.9978,-508.4173 530.6426,-505.5037 530.6426,-505.5037"/>
</g>
<!-- CNCCC=CC=C(CO)O -->
<g id="node3" class="node">
<title>CNCCC=CC=C(CO)O</title>
<image xlink:href="molecules/CNCCC=CC=C⚪CO⚫O.svg" width="269px" height="107px" preserveAspectRatio="xMinYMin meet" x="687.5" y="-731"/>
</g>
<!-- NCCC=CC=C(CO)O -->
<g id="node4" class="node">
<title>NCCC=CC=C(CO)O</title>
<image xlink:href="molecules/NCCC=CC=C⚪CO⚫O.svg" width="218px" height="197px" preserveAspectRatio="xMinYMin meet" x="707" y="-543"/>
</g>
<!-- CNCCC=CC=C(CO)O&#45;&gt;NCCC=CC=C(CO)O -->
<g id="edge24" class="edge">
<title>CNCCC=CC=C(CO)O&#45;&gt;NCCC=CC=C(CO)O</title>
<path fill="none" stroke="#000000" d="M820.6159,-623.7525C820.0384,-601.3253 819.347,-574.4755 818.6773,-548.4686"/>
<polygon fill="#000000" stroke="#000000" points="818.5437,-543.28 820.9218,-548.2204 818.6081,-545.7792 818.6725,-548.2783 818.6725,-548.2783 818.6725,-548.2783 818.6081,-545.7792 816.4232,-548.3363 818.5437,-543.28 818.5437,-543.28"/>
</g>
<!-- NCCC=CC=CCO -->
<g id="node17" class="node">
<title>NCCC=CC=CCO</title>
<image xlink:href="molecules/NCCC=CC=CCO.svg" width="243px" height="107px" preserveAspectRatio="xMinYMin meet" x="701.5" y="-280"/>
</g>
<!-- NCCC=CC=C(CO)O&#45;&gt;NCCC=CC=CCO -->
<g id="edge26" class="edge">
<title>NCCC=CC=C(CO)O&#45;&gt;NCCC=CC=CCO</title>
<path fill="none" stroke="#000000" d="M819.1723,-345.7054C819.8336,-325.1105 820.5107,-304.0252 821.1079,-285.4255"/>
<polygon fill="#000000" stroke="#000000" points="821.2742,-280.2478 823.3624,-285.3175 821.1939,-282.7465 821.1136,-285.2452 821.1136,-285.2452 821.1136,-285.2452 821.1939,-282.7465 818.8648,-285.1729 821.2742,-280.2478 821.2742,-280.2478"/>
</g>
<!-- NCCC=CC=C(O)C -->
<g id="node19" class="node">
<title>NCCC=CC=C(O)C</title>
<image xlink:href="molecules/NCCC=CC=C⚪O⚫C.svg" width="218px" height="137px" preserveAspectRatio="xMinYMin meet" x="465" y="-295"/>
</g>
<!-- NCCC=CC=C(CO)O&#45;&gt;NCCC=CC=C(O)C -->
<g id="edge25" class="edge">
<title>NCCC=CC=C(CO)O&#45;&gt;NCCC=CC=C(O)C</title>
<path fill="none" stroke="#000000" d="M706.682,-346.0235C688.9816,-330.0784 670.9445,-313.8302 654.1051,-298.6608"/>
<polygon fill="#000000" stroke="#000000" points="650.3056,-295.2381 655.5265,-296.9129 652.1631,-296.9114 654.0206,-298.5846 654.0206,-298.5846 654.0206,-298.5846 652.1631,-296.9114 652.5146,-300.2564 650.3056,-295.2381 650.3056,-295.2381"/>
</g>
<!-- COc1cc(CCN2CCN(CC2)c2ccccc2Cl)ccc1OC -->
<g id="node5" class="node">
<title>COc1cc(CCN2CCN(CC2)c2ccccc2Cl)ccc1OC</title>
<polygon fill="none" stroke="#000000" points="576.5,-1317 229.5,-1317 229.5,-1075 576.5,-1075 576.5,-1317"/>
<image xlink:href="molecules/COc1cc⚪CCN2CCN⚪CC2⚫c2ccccc2Cl⚫ccc1OC.svg" width="347px" height="242px" preserveAspectRatio="xMinYMin meet" x="229.5" y="-1317"/>
</g>
<!-- COc1cc(CCN2CCN(CC2)c2ccccc2Cl)ccc1OC&#45;&gt;NCCc1ccc(cc1)OC -->
<g id="edge6" class="edge">
<title>COc1cc(CCN2CCN(CC2)c2ccccc2Cl)ccc1OC&#45;&gt;NCCc1ccc(cc1)OC</title>
<path fill="none" stroke="#000000" d="M314.6916,-1074.8902C305.9783,-1062.7884 297.2953,-1050.6676 289,-1039 287.0828,-1036.3034 285.1431,-1033.5683 283.1889,-1030.8065"/>
<polygon fill="#000000" stroke="#000000" points="280.1071,-1026.4464 284.8305,-1029.2308 281.5501,-1028.4879 282.9931,-1030.5294 282.9931,-1030.5294 282.9931,-1030.5294 281.5501,-1028.4879 281.1557,-1031.8281 280.1071,-1026.4464 280.1071,-1026.4464"/>
</g>
<!-- COc1cc(CCN2CCN(CC2)c2ccccc2Cl)ccc1OC&#45;&gt;NCCc1cccc(c1)OC -->
<g id="edge7" class="edge">
<title>COc1cc(CCN2CCN(CC2)c2ccccc2Cl)ccc1OC&#45;&gt;NCCc1cccc(c1)OC</title>
<path fill="none" stroke="#000000" d="M463.8399,-1074.9911C471.5953,-1059.566 479.4762,-1043.891 487.0733,-1028.7808"/>
<polygon fill="#000000" stroke="#000000" points="489.4214,-1024.1104 489.1856,-1029.5883 488.2984,-1026.344 487.1754,-1028.5776 487.1754,-1028.5776 487.1754,-1028.5776 488.2984,-1026.344 485.1651,-1027.5669 489.4214,-1024.1104 489.4214,-1024.1104"/>
</g>
<!-- CNCCc1ccc(c(c1)O)O -->
<g id="node18" class="node">
<title>CNCCc1ccc(c(c1)O)O</title>
<image xlink:href="molecules/CNCCc1ccc⚪c⚪c1⚫O⚫O.svg" width="218px" height="167px" preserveAspectRatio="xMinYMin meet" x="650" y="-1009"/>
</g>
<!-- COc1cc(CCN2CCN(CC2)c2ccccc2Cl)ccc1OC&#45;&gt;CNCCc1ccc(c(c1)O)O -->
<g id="edge8" class="edge">
<title>COc1cc(CCN2CCN(CC2)c2ccccc2Cl)ccc1OC&#45;&gt;CNCCc1ccc(c(c1)O)O</title>
<path fill="none" stroke="#000000" d="M576.7241,-1079.6782C595.2806,-1066.2782 613.6872,-1052.5543 631,-1039 641.7264,-1030.6022 652.7181,-1021.5702 663.5357,-1012.4008"/>
<polygon fill="#000000" stroke="#000000" points="667.5125,-1009.0172 665.1624,-1013.971 665.6084,-1010.6373 663.7043,-1012.2573 663.7043,-1012.2573 663.7043,-1012.2573 665.6084,-1010.6373 662.2463,-1010.5437 667.5125,-1009.0172 667.5125,-1009.0172"/>
</g>
<!-- CN(C(CC=CC)CC=CC=C(CO)O)CC -->
<g id="node6" class="node">
<title>CN(C(CC=CC)CC=CC=C(CO)O)CC</title>
<image xlink:href="molecules/CN⚪C⚪CC=CC⚫CC=CC=C⚪CO⚫O⚫CC.svg" width="269px" height="152px" preserveAspectRatio="xMinYMin meet" x="886.5" y="-1001.5"/>
</g>
<!-- CN(C(CC=CC)CC=CC=C(CO)O)CC&#45;&gt;CNCCC=CC=C(CO)O -->
<g id="edge17" class="edge">
<title>CN(C(CC=CC)CC=CC=C(CO)O)CC&#45;&gt;CNCCC=CC=C(CO)O</title>
<path fill="none" stroke="#000000" d="M959.941,-849.4064C930.4078,-812.6012 895.5354,-769.1421 868.2427,-735.129"/>
<polygon fill="#000000" stroke="#000000" points="864.9527,-731.029 869.8369,-733.5206 866.5174,-732.9789 868.082,-734.9288 868.082,-734.9288 868.082,-734.9288 866.5174,-732.9789 866.3271,-736.337 864.9527,-731.029 864.9527,-731.029"/>
</g>
<!-- OC1C=CC2C34C1Oc1c4c(CC2N(CC3)C)ccc1O -->
<g id="node7" class="node">
<title>OC1C=CC2C34C1Oc1c4c(CC2N(CC3)C)ccc1O</title>
<polygon fill="none" stroke="#000000" points="953,-1298.5 753,-1298.5 753,-1093.5 953,-1093.5 953,-1298.5"/>
<image xlink:href="molecules/OC1C=CC2C34C1Oc1c4c⚪CC2N⚪CC3⚫C⚫ccc1O.svg" width="200px" height="205px" preserveAspectRatio="xMinYMin meet" x="753" y="-1298.5"/>
</g>
<!-- OC1C=CC2C34C1Oc1c4c(CC2N(CC3)C)ccc1O&#45;&gt;NCCc1cccc(c1)OC -->
<g id="edge9" class="edge">
<title>OC1C=CC2C34C1Oc1c4c(CC2N(CC3)C)ccc1O&#45;&gt;NCCc1cccc(c1)OC</title>
<path fill="none" stroke="#000000" d="M767.9776,-1093.4186C760.2641,-1086.7232 752.2399,-1080.48 744,-1075 703.621,-1048.1459 681.363,-1065.8781 641,-1039 635.6406,-1035.4311 630.3794,-1031.5168 625.2461,-1027.3549"/>
<polygon fill="#000000" stroke="#000000" points="621.3461,-1024.1256 626.6323,-1025.5815 623.2717,-1025.7201 625.1973,-1027.3145 625.1973,-1027.3145 625.1973,-1027.3145 623.2717,-1025.7201 623.7623,-1029.0475 621.3461,-1024.1256 621.3461,-1024.1256"/>
</g>
<!-- OC1C=CC2C34C1Oc1c4c(CC2N(CC3)C)ccc1O&#45;&gt;CN(C(CC=CC)CC=CC=C(CO)O)CC -->
<g id="edge10" class="edge">
<title>OC1C=CC2C34C1Oc1c4c(CC2N(CC3)C)ccc1O&#45;&gt;CN(C(CC=CC)CC=CC=C(CO)O)CC</title>
<path fill="none" stroke="#000000" d="M916.7531,-1093.3498C934.7277,-1064.4087 954.0174,-1033.3499 971.0565,-1005.915"/>
<polygon fill="#000000" stroke="#000000" points="973.7713,-1001.5438 973.0446,-1006.9784 972.4523,-1003.6676 971.1333,-1005.7913 971.1333,-1005.7913 971.1333,-1005.7913 972.4523,-1003.6676 969.2219,-1004.6042 973.7713,-1001.5438 973.7713,-1001.5438"/>
</g>
<!-- OC1C=CC2C34C1Oc1c4c(CC2N(CC3)C)ccc1O&#45;&gt;CNCCc1ccc(c(c1)O)O -->
<g id="edge11" class="edge">
<title>OC1C=CC2C34C1Oc1c4c(CC2N(CC3)C)ccc1O&#45;&gt;CNCCc1ccc(c(c1)O)O</title>
<path fill="none" stroke="#000000" d="M817.3286,-1093.3498C808.272,-1067.2881 798.6187,-1039.5092 789.8256,-1014.2056"/>
<polygon fill="#000000" stroke="#000000" points="788.0789,-1009.1791 791.8455,-1013.1635 788.8995,-1011.5406 789.7202,-1013.9021 789.7202,-1013.9021 789.7202,-1013.9021 788.8995,-1011.5406 787.5949,-1014.6407 788.0789,-1009.1791 788.0789,-1009.1791"/>
</g>
<!-- CN1CCc2c3C1Cc1ccc(c(c1c3ccc2)O)O -->
<g id="node8" class="node">
<title>CN1CCc2c3C1Cc1ccc(c(c1c3ccc2)O)O</title>
<polygon fill="none" stroke="#000000" points="1503,-1294 1259,-1294 1259,-1098 1503,-1098 1503,-1294"/>
<image xlink:href="molecules/CN1CCc2c3C1Cc1ccc⚪c⚪c1c3ccc2⚫O⚫O.svg" width="244px" height="196px" preserveAspectRatio="xMinYMin meet" x="1259" y="-1294"/>
</g>
<!-- CN1CCc2c3C1Cc1ccc(c(c1c3ccc2)O)O&#45;&gt;CN(C(CC=CC)CC=CC=C(CO)O)CC -->
<g id="edge1" class="edge">
<title>CN1CCc2c3C1Cc1ccc(c(c1c3ccc2)O)O&#45;&gt;CN(C(CC=CC)CC=CC=C(CO)O)CC</title>
<path fill="none" stroke="#000000" d="M1277.9894,-1097.9405C1268.6903,-1089.9836 1259.2794,-1082.2323 1250,-1075 1218.7303,-1050.6284 1183.496,-1026.2503 1150.2101,-1004.4628"/>
<polygon fill="#000000" stroke="#000000" points="1145.7391,-1001.544 1151.1559,-1002.3932 1147.8325,-1002.9106 1149.9259,-1004.2773 1149.9259,-1004.2773 1149.9259,-1004.2773 1147.8325,-1002.9106 1148.696,-1006.1614 1145.7391,-1001.544 1145.7391,-1001.544"/>
</g>
<!-- CN1CCc2c3C1Cc1ccc(c(c1c3ccc2)O)O&#45;&gt;CNCCc1ccc(c(c1)O)O -->
<g id="edge2" class="edge">
<title>CN1CCc2c3C1Cc1ccc(c(c1c3ccc2)O)O&#45;&gt;CNCCc1ccc(c(c1)O)O</title>
<path fill="none" stroke="#000000" d="M1288.565,-1097.9141C1276.3722,-1088.9578 1263.4214,-1081.0114 1250,-1075 1098.4056,-1007.1011 1029.046,-1108.1103 878,-1039 863.1775,-1032.2181 849.0476,-1022.8158 836.0386,-1012.2993"/>
<polygon fill="#000000" stroke="#000000" points="832.0378,-1009.0015 837.3272,-1010.4456 833.9669,-1010.5916 835.896,-1012.1818 835.896,-1012.1818 835.896,-1012.1818 833.9669,-1010.5916 834.4649,-1013.918 832.0378,-1009.0015 832.0378,-1009.0015"/>
</g>
<!-- NC(=N)C(c1ccc2c(c1)OCO2)O -->
<g id="node9" class="node">
<title>NC(=N)C(c1ccc2c(c1)OCO2)O</title>
<polygon fill="none" stroke="#000000" points="212,-1279.5 0,-1279.5 0,-1112.5 212,-1112.5 212,-1279.5"/>
<image xlink:href="molecules/NC⚪=N⚫C⚪c1ccc2c⚪c1⚫OCO2⚫O.svg" width="212px" height="167px" preserveAspectRatio="xMinYMin meet" x="0" y="-1279.5"/>
</g>
<!-- NC(=N)C(c1ccc2c(c1)OCO2)O&#45;&gt;NCCc1ccc(cc1)OC -->
<g id="edge13" class="edge">
<title>NC(=N)C(c1ccc2c(c1)OCO2)O&#45;&gt;NCCc1ccc(cc1)OC</title>
<path fill="none" stroke="#000000" d="M138.194,-1112.2646C147.4043,-1088.309 157.5892,-1061.8184 167.3235,-1036.5"/>
<polygon fill="#000000" stroke="#000000" points="169.1355,-1031.787 169.4413,-1037.2614 168.2383,-1034.1205 167.3411,-1036.4539 167.3411,-1036.4539 167.3411,-1036.4539 168.2383,-1034.1205 165.241,-1035.6465 169.1355,-1031.787 169.1355,-1031.787"/>
</g>
<!-- NC(=N)C(c1ccc2c(c1)OCO2)O&#45;&gt;NCCc1cccc(c1)OC -->
<g id="edge12" class="edge">
<title>NC(=N)C(c1ccc2c(c1)OCO2)O&#45;&gt;NCCc1cccc(c1)OC</title>
<path fill="none" stroke="#000000" d="M171.1578,-1112.4625C186.0748,-1097.9651 202.9188,-1084.5144 221,-1075 311.0099,-1027.6364 358.9263,-1089.8734 447,-1039 452.8634,-1035.6131 458.5044,-1031.6984 463.9056,-1027.4028"/>
<polygon fill="#000000" stroke="#000000" points="467.9889,-1024.0461 465.5553,-1028.9594 466.0577,-1025.6337 464.1264,-1027.2213 464.1264,-1027.2213 464.1264,-1027.2213 466.0577,-1025.6337 462.6976,-1025.4832 467.9889,-1024.0461 467.9889,-1024.0461"/>
</g>
<!-- NCC(c1ccc(c(c1)O)O)O -->
<g id="node20" class="node">
<title>NCC(c1ccc(c(c1)O)O)O</title>
<image xlink:href="molecules/NCC⚪c1ccc⚪c⚪c1⚫O⚫O⚫O.svg" width="140px" height="227px" preserveAspectRatio="xMinYMin meet" x="298" y="-1039"/>
</g>
<!-- NC(=N)C(c1ccc2c(c1)OCO2)O&#45;&gt;NCC(c1ccc(c(c1)O)O)O -->
<g id="edge14" class="edge">
<title>NC(=N)C(c1ccc2c(c1)OCO2)O&#45;&gt;NCC(c1ccc(c(c1)O)O)O</title>
<path fill="none" stroke="#000000" d="M178.7285,-1112.1898C192.1003,-1098.9636 206.4524,-1086.0329 221,-1075 248.2467,-1054.336 263.4,-1061.6721 289,-1039 290.8141,-1037.3933 292.6081,-1035.7369 294.3805,-1034.0372"/>
<polygon fill="#000000" stroke="#000000" points="297.9881,-1030.4894 296.0007,-1035.5996 296.2056,-1032.2424 294.4231,-1033.9953 294.4231,-1033.9953 294.4231,-1033.9953 296.2056,-1032.2424 292.8454,-1032.391 297.9881,-1030.4894 297.9881,-1030.4894"/>
</g>
<!-- Oc1ccc(cc1)C1CNCCc2c1cc(O)c(c2Cl)O -->
<g id="node10" class="node">
<title>Oc1ccc(cc1)C1CNCCc2c1cc(O)c(c2Cl)O</title>
<polygon fill="none" stroke="#000000" points="1240.5,-1300 971.5,-1300 971.5,-1092 1240.5,-1092 1240.5,-1300"/>
<image xlink:href="molecules/Oc1ccc⚪cc1⚫C1CNCCc2c1cc⚪O⚫c⚪c2Cl⚫O.svg" width="269px" height="208px" preserveAspectRatio="xMinYMin meet" x="971.5" y="-1300"/>
</g>
<!-- Oc1ccc(cc1)C1CNCCc2c1cc(O)c(c2Cl)O&#45;&gt;CNCCc1ccc(c(c1)O)O -->
<g id="edge5" class="edge">
<title>Oc1ccc(cc1)C1CNCCc2c1cc(O)c(c2Cl)O&#45;&gt;CNCCc1ccc(c(c1)O)O</title>
<path fill="none" stroke="#000000" d="M987.3866,-1091.8976C978.9852,-1085.9163 970.481,-1080.2215 962,-1075 927.4121,-1053.7055 911.9009,-1061.372 878,-1039 866.1181,-1031.1589 854.3502,-1022.0662 843.1026,-1012.5072"/>
<polygon fill="#000000" stroke="#000000" points="839.3087,-1009.2486 844.5678,-1010.7996 841.2052,-1010.8776 843.1017,-1012.5065 843.1017,-1012.5065 843.1017,-1012.5065 841.2052,-1010.8776 841.6357,-1014.2133 839.3087,-1009.2486 839.3087,-1009.2486"/>
</g>
<!-- NCCc1ccccc1 -->
<g id="node12" class="node">
<title>NCCc1ccccc1</title>
<image xlink:href="molecules/NCCc1ccccc1.svg" width="140px" height="167px" preserveAspectRatio="xMinYMin meet" x="307" y="-310"/>
</g>
<!-- NCCc1cccc(c1)O&#45;&gt;NCCc1ccccc1 -->
<g id="edge30" class="edge">
<title>NCCc1cccc(c1)O&#45;&gt;NCCc1ccccc1</title>
<path fill="none" stroke="#000000" d="M523.1832,-383.485C500.7123,-359.3536 474.5907,-331.3018 450.6966,-305.6422"/>
<polygon fill="#000000" stroke="#000000" points="447.1881,-301.8744 452.2422,-304.0003 448.8918,-303.704 450.5955,-305.5336 450.5955,-305.5336 450.5955,-305.5336 448.8918,-303.704 448.9489,-307.067 447.1881,-301.8744 447.1881,-301.8744"/>
</g>
<!-- NCCc1cccc(c1)O&#45;&gt;NCCC=CC=CCO -->
<g id="edge31" class="edge">
<title>NCCc1cccc(c1)O&#45;&gt;NCCC=CC=CCO</title>
<path fill="none" stroke="#000000" d="M648.0122,-383.485C682.8219,-352.2564 724.95,-314.4625 759.1471,-283.7837"/>
<polygon fill="#000000" stroke="#000000" points="763.2771,-280.0785 761.0578,-285.0923 761.4162,-281.748 759.5553,-283.4175 759.5553,-283.4175 759.5553,-283.4175 761.4162,-281.748 758.0528,-281.7426 763.2771,-280.0785 763.2771,-280.0785"/>
</g>
<!-- NCCC=CC=CC -->
<g id="node16" class="node">
<title>NCCC=CC=CC</title>
<image xlink:href="molecules/NCCC=CC=CC.svg" width="218px" height="107px" preserveAspectRatio="xMinYMin meet" x="465" y="-107"/>
</g>
<!-- NCCc1ccccc1&#45;&gt;NCCC=CC=CC -->
<g id="edge33" class="edge">
<title>NCCc1ccccc1&#45;&gt;NCCC=CC=CC</title>
<path fill="none" stroke="#000000" d="M447.0526,-151.2429C450.039,-148.4225 453.0284,-145.6646 456,-143 468.3173,-131.955 481.8974,-120.8081 495.3272,-110.3083"/>
<polygon fill="#000000" stroke="#000000" points="499.4887,-107.0714 496.9235,-111.9173 497.5154,-108.6063 495.542,-110.1413 495.542,-110.1413 495.542,-110.1413 497.5154,-108.6063 494.1606,-108.3653 499.4887,-107.0714 499.4887,-107.0714"/>
</g>
<!-- NCCc1ccc(c(c1)O)O -->
<g id="node13" class="node">
<title>NCCc1ccc(c(c1)O)O</title>
<image xlink:href="molecules/NCCc1ccc⚪c⚪c1⚫O⚫O.svg" width="166px" height="197px" preserveAspectRatio="xMinYMin meet" x="503" y="-776"/>
</g>
<!-- NCCc1ccc(c(c1)O)O&#45;&gt;NCCC=CC=C(CO)O -->
<g id="edge21" class="edge">
<title>NCCc1ccc(c(c1)O)O&#45;&gt;NCCC=CC=C(CO)O</title>
<path fill="none" stroke="#000000" d="M669.2418,-589.011C672.5274,-585.6214 675.7889,-582.2743 679,-579 689.2741,-568.5236 700.066,-557.6728 710.8938,-546.8863"/>
<polygon fill="#000000" stroke="#000000" points="714.5665,-543.2314 712.6095,-548.3532 712.7945,-544.9948 711.0224,-546.7583 711.0224,-546.7583 711.0224,-546.7583 712.7945,-544.9948 709.4353,-545.1635 714.5665,-543.2314 714.5665,-543.2314"/>
</g>
<!-- NCCc1ccc(c(c1)O)O&#45;&gt;NCCc1cccc(c1)O -->
<g id="edge19" class="edge">
<title>NCCc1ccc(c(c1)O)O&#45;&gt;NCCc1cccc(c1)O</title>
<path fill="none" stroke="#000000" d="M583.4555,-578.687C582.8641,-555.7218 582.2485,-531.8178 581.7036,-510.6573"/>
<polygon fill="#000000" stroke="#000000" points="581.574,-505.6229 583.952,-510.5632 581.6384,-508.122 581.7028,-510.6212 581.7028,-510.6212 581.7028,-510.6212 581.6384,-508.122 579.4535,-510.6792 581.574,-505.6229 581.574,-505.6229"/>
</g>
<!-- NCCc1ccc(c(c1)O)O&#45;&gt;NCCc1ccc(cc1)O -->
<g id="edge20" class="edge">
<title>NCCc1ccc(c(c1)O)O&#45;&gt;NCCc1ccc(cc1)O</title>
<path fill="none" stroke="#000000" d="M502.8784,-578.687C489.7973,-563.1366 476.3541,-547.1557 463.5106,-531.8876"/>
<polygon fill="#000000" stroke="#000000" points="460.2588,-528.0219 465.1993,-530.3998 461.8681,-529.935 463.4774,-531.8482 463.4774,-531.8482 463.4774,-531.8482 461.8681,-529.935 461.7556,-533.2966 460.2588,-528.0219 460.2588,-528.0219"/>
</g>
<!-- NCCc1ccc(cc1)O&#45;&gt;NCCc1ccccc1 -->
<g id="edge27" class="edge">
<title>NCCc1ccc(cc1)O&#45;&gt;NCCc1ccccc1</title>
<path fill="none" stroke="#000000" d="M384.1086,-345.7054C383.5079,-335.6324 382.9002,-325.442 382.3063,-315.4826"/>
<polygon fill="#000000" stroke="#000000" points="381.9971,-310.2973 384.5408,-315.1545 382.146,-312.7929 382.2948,-315.2885 382.2948,-315.2885 382.2948,-315.2885 382.146,-312.7929 380.0488,-315.4225 381.9971,-310.2973 381.9971,-310.2973"/>
</g>
<!-- NCCc1ccc(cc1)O&#45;&gt;NCCC=CC=C(O)C -->
<g id="edge28" class="edge">
<title>NCCc1ccc(cc1)O&#45;&gt;NCCC=CC=C(O)C</title>
<path fill="none" stroke="#000000" d="M460.0874,-361.4617C477.4159,-340.9311 495.8457,-319.0958 512.7183,-299.1055"/>
<polygon fill="#000000" stroke="#000000" points="516.0713,-295.133 514.5657,-300.4052 514.4588,-297.0434 512.8462,-298.9539 512.8462,-298.9539 512.8462,-298.9539 514.4588,-297.0434 511.1268,-297.5026 516.0713,-295.133 516.0713,-295.133"/>
</g>
<!-- CNCC(c1ccc(c(c1)O)O)O -->
<g id="node15" class="node">
<title>CNCC(c1ccc(c(c1)O)O)O</title>
<polygon fill="none" stroke="#000000" points="735,-1317 595,-1317 595,-1075 735,-1075 735,-1317"/>
<image xlink:href="molecules/CNCC⚪c1ccc⚪c⚪c1⚫O⚫O⚫O.svg" width="140px" height="242px" preserveAspectRatio="xMinYMin meet" x="595" y="-1317"/>
</g>
<!-- CNCC(c1ccc(c(c1)O)O)O&#45;&gt;CNCCc1ccc(c(c1)O)O -->
<g id="edge3" class="edge">
<title>CNCC(c1ccc(c(c1)O)O)O&#45;&gt;CNCCc1ccc(c(c1)O)O</title>
<path fill="none" stroke="#000000" d="M707.0511,-1074.9911C714.1712,-1054.502 721.4445,-1033.5719 728.2076,-1014.1101"/>
<polygon fill="#000000" stroke="#000000" points="729.9156,-1009.195 730.3996,-1014.6566 729.0949,-1011.5565 728.2743,-1013.918 728.2743,-1013.918 728.2743,-1013.918 729.0949,-1011.5565 726.149,-1013.1794 729.9156,-1009.195 729.9156,-1009.195"/>
</g>
<!-- CNCC(c1ccc(c(c1)O)O)O&#45;&gt;NCC(c1ccc(c(c1)O)O)O -->
<g id="edge4" class="edge">
<title>CNCC(c1ccc(c(c1)O)O)O&#45;&gt;NCC(c1ccc(c(c1)O)O)O</title>
<path fill="none" stroke="#000000" d="M594.9081,-1082.0347C592.0259,-1079.549 589.0564,-1077.1954 586,-1075 534.1695,-1037.7698 499.3768,-1075.4577 447,-1039 445.3775,-1037.8706 443.7775,-1036.6964 442.2005,-1035.4815"/>
<polygon fill="#000000" stroke="#000000" points="438.0796,-1032.1733 443.3872,-1033.5488 440.0291,-1033.7383 441.9786,-1035.3034 441.9786,-1035.3034 441.9786,-1035.3034 440.0291,-1033.7383 440.5701,-1037.058 438.0796,-1032.1733 438.0796,-1032.1733"/>
</g>
<!-- NCCC=CC=CCO&#45;&gt;NCCC=CC=CC -->
<g id="edge32" class="edge">
<title>NCCC=CC=CCO&#45;&gt;NCCC=CC=CC</title>
<path fill="none" stroke="#000000" d="M745.9201,-172.9465C717.1957,-152.9894 684.512,-130.2814 655.4111,-110.0627"/>
<polygon fill="#000000" stroke="#000000" points="651.1444,-107.0983 656.5344,-108.1034 653.1975,-108.5248 655.2506,-109.9512 655.2506,-109.9512 655.2506,-109.9512 653.1975,-108.5248 653.9668,-111.799 651.1444,-107.0983 651.1444,-107.0983"/>
</g>
<!-- CNCCc1ccc(c(c1)O)O&#45;&gt;CNCCC=CC=C(CO)O -->
<g id="edge15" class="edge">
<title>CNCCc1ccc(c(c1)O)O&#45;&gt;CNCCC=CC=C(CO)O</title>
<path fill="none" stroke="#000000" d="M780.2411,-841.8843C789.0571,-807.1799 799.0767,-767.7379 807.0911,-736.189"/>
<polygon fill="#000000" stroke="#000000" points="808.3596,-731.1954 809.3093,-736.5954 807.7441,-733.6184 807.1285,-736.0414 807.1285,-736.0414 807.1285,-736.0414 807.7441,-733.6184 804.9478,-735.4874 808.3596,-731.1954 808.3596,-731.1954"/>
</g>
<!-- CNCCc1ccc(c(c1)O)O&#45;&gt;NCCc1ccc(c(c1)O)O -->
<g id="edge16" class="edge">
<title>CNCCc1ccc(c(c1)O)O&#45;&gt;NCCc1ccc(c(c1)O)O</title>
<path fill="none" stroke="#000000" d="M700.6713,-841.8843C686.9344,-822.1921 672.1334,-800.9745 657.8781,-780.5391"/>
<polygon fill="#000000" stroke="#000000" points="654.845,-776.1912 659.5511,-779.0047 656.2754,-778.2416 657.7057,-780.292 657.7057,-780.292 657.7057,-780.292 656.2754,-778.2416 655.8604,-781.5793 654.845,-776.1912 654.845,-776.1912"/>
</g>
<!-- NCCC=CC=C(O)C&#45;&gt;NCCC=CC=CC -->
<g id="edge29" class="edge">
<title>NCCC=CC=C(O)C&#45;&gt;NCCC=CC=CC</title>
<path fill="none" stroke="#000000" d="M574,-157.6287C574,-142.6908 574,-127.0204 574,-112.5033"/>
<polygon fill="#000000" stroke="#000000" points="574,-107.2105 576.2501,-112.2105 574,-109.7105 574.0001,-112.2105 574.0001,-112.2105 574.0001,-112.2105 574,-109.7105 571.7501,-112.2105 574,-107.2105 574,-107.2105"/>
</g>
<!-- NCC(c1ccc(c(c1)O)O)O&#45;&gt;NCCc1ccc(c(c1)O)O -->
<g id="edge18" class="edge">
<title>NCC(c1ccc(c(c1)O)O)O&#45;&gt;NCCc1ccc(c(c1)O)O</title>
<path fill="none" stroke="#000000" d="M438.1589,-822.7159C441.0918,-819.058 444.0441,-815.4743 447,-812 463.0138,-793.1778 481.3077,-774.0621 499.2474,-756.3771"/>
<polygon fill="#000000" stroke="#000000" points="502.8298,-752.8597 500.8384,-757.9683 501.0459,-754.6112 499.262,-756.3628 499.262,-756.3628 499.262,-756.3628 501.0459,-754.6112 497.6856,-754.7573 502.8298,-752.8597 502.8298,-752.8597"/>
</g>
</g>
</svg>
