<?xml version="1.0" encoding="UTF-8" standalone="no"?>
<!DOCTYPE svg PUBLIC "-//W3C//DTD SVG 1.1//EN"
 "http://www.w3.org/Graphics/SVG/1.1/DTD/svg11.dtd">
<!-- Generated by graphviz version 2.40.1 (20161225.0304)
 -->
<!-- Title: %3 Pages: 1 -->
<svg width="1556pt" height="2157pt"
 viewBox="0.00 0.00 1555.50 2157.00" xmlns="http://www.w3.org/2000/svg" xmlns:xlink="http://www.w3.org/1999/xlink">
<g id="graph0" class="graph" transform="scale(1 1) rotate(0) translate(4 2153)">
<title>%3</title>
<polygon fill="#ffffff" stroke="transparent" points="-4,4 -4,-2153 1551.5,-2153 1551.5,4 -4,4"/>
<!-- CN(C(CC=CC)CC=CC=C(CO)O)CC -->
<g id="node1" class="node">
<title>CN(C(CC=CC)CC=CC=C(CO)O)CC</title>
<image xlink:href="molecules/CN⚪C⚪CC=CC⚫CC=CC=C⚪CO⚫O⚫CC.svg" width="269px" height="152px" preserveAspectRatio="xMinYMin meet" x="222.5" y="-1833.5"/>
</g>
<!-- CNCCC=CC=C(CO)O -->
<g id="node10" class="node">
<title>CNCCC=CC=C(CO)O</title>
<image xlink:href="molecules/CNCCC=CC=C⚪CO⚫O.svg" width="269px" height="107px" preserveAspectRatio="xMinYMin meet" x="484.5" y="-1563"/>
</g>
<!-- CN(C(CC=CC)CC=CC=C(CO)O)CC&#45;&gt;CNCCC=CC=C(CO)O -->
<g id="edge25" class="edge">
<title>CN(C(CC=CC)CC=CC=C(CO)O)CC&#45;&gt;CNCCC=CC=C(CO)O</title>
<path fill="none" stroke="#000000" d="M437.3892,-1681.4064C476.4301,-1644.4516 522.558,-1600.7887 558.5554,-1566.7147"/>
<polygon fill="#000000" stroke="#000000" points="562.4492,-1563.029 560.3647,-1568.1003 560.6336,-1564.7476 558.8179,-1566.4662 558.8179,-1566.4662 558.8179,-1566.4662 560.6336,-1564.7476 557.2712,-1564.8322 562.4492,-1563.029 562.4492,-1563.029"/>
</g>
<!-- CCCC=CC=C -->
<g id="node12" class="node">
<title>CCCC=CC=C</title>
<image xlink:href="molecules/CCCC=CC=C.svg" width="191px" height="107px" preserveAspectRatio="xMinYMin meet" x="343.5" y="-681.5"/>
</g>
<!-- CN(C(CC=CC)CC=CC=C(CO)O)CC&#45;&gt;CCCC=CC=C -->
<g id="edge24" class="edge">
<title>CN(C(CC=CC)CC=CC=C(CO)O)CC&#45;&gt;CCCC=CC=C</title>
<path fill="none" stroke="#000000" d="M357,-1681.2742C357,-1586.427 357,-1419.5056 357,-1276.5 357,-1276.5 357,-1276.5 357,-1058.5 357,-930.887 345.7509,-895.9761 376,-772 383.1244,-742.8005 395.7806,-712.0704 407.8896,-686.5322"/>
<polygon fill="#000000" stroke="#000000" points="410.1428,-681.8256 410.0132,-687.3071 409.0633,-684.0806 407.9838,-686.3355 407.9838,-686.3355 407.9838,-686.3355 409.0633,-684.0806 405.9543,-685.3639 410.1428,-681.8256 410.1428,-681.8256"/>
</g>
<!-- CCC=CC=CC -->
<g id="node2" class="node">
<title>CCC=CC=CC</title>
<image xlink:href="molecules/CCC=CC=CC.svg" width="191px" height="107px" preserveAspectRatio="xMinYMin meet" x="552.5" y="-681.5"/>
</g>
<!-- CCC=CC=C -->
<g id="node5" class="node">
<title>CCC=CC=C</title>
<image xlink:href="molecules/CCC=CC=C.svg" width="166px" height="107px" preserveAspectRatio="xMinYMin meet" x="387" y="-425.5"/>
</g>
<!-- CCC=CC=CC&#45;&gt;CCC=CC=C -->
<g id="edge55" class="edge">
<title>CCC=CC=CC&#45;&gt;CCC=CC=C</title>
<path fill="none" stroke="#000000" d="M610.6854,-574.334C581.2554,-532.0078 540.2867,-473.0865 510.1476,-429.7404"/>
<polygon fill="#000000" stroke="#000000" points="507.2655,-425.5953 511.9673,-428.416 508.6927,-427.6479 510.1199,-429.7005 510.1199,-429.7005 510.1199,-429.7005 508.6927,-427.6479 508.2726,-430.985 507.2655,-425.5953 507.2655,-425.5953"/>
</g>
<!-- CCCC=CC -->
<g id="node3" class="node">
<title>CCCC=CC</title>
<image xlink:href="molecules/CCCC=CC.svg" width="166px" height="107px" preserveAspectRatio="xMinYMin meet" x="571" y="-425.5"/>
</g>
<!-- CCC=CC -->
<g id="node18" class="node">
<title>CCC=CC</title>
<image xlink:href="molecules/CCC=CC.svg" width="152px" height="88px" preserveAspectRatio="xMinYMin meet" x="486" y="-156"/>
</g>
<!-- CCCC=CC&#45;&gt;CCC=CC -->
<g id="edge58" class="edge">
<title>CCCC=CC&#45;&gt;CCC=CC</title>
<path fill="none" stroke="#000000" d="M635.0491,-318.4431C618.707,-272.2589 595.3007,-206.1108 579.4205,-161.2319"/>
<polygon fill="#000000" stroke="#000000" points="577.7153,-156.4129 581.5044,-160.3759 578.5493,-158.7697 579.3833,-161.1265 579.3833,-161.1265 579.3833,-161.1265 578.5493,-158.7697 577.2621,-161.877 577.7153,-156.4129 577.7153,-156.4129"/>
</g>
<!-- CCC1C(CCC2(C1CCC2)C)C(CCC(=O)C)C -->
<g id="node4" class="node">
<title>CCC1C(CCC2(C1CCC2)C)C(CCC(=O)C)C</title>
<image xlink:href="molecules/CCC1C⚪CCC2⚪C1CCC2⚫C⚫C⚪CCC⚪=O⚫C⚫C.svg" width="238px" height="224px" preserveAspectRatio="xMinYMin meet" x="781" y="-484"/>
</g>
<!-- O=CCCC(C1CCC2(C(C1CC)CCC2)C)C -->
<g id="node24" class="node">
<title>O=CCCC(C1CCC2(C(C1CC)CCC2)C)C</title>
<image xlink:href="molecules/O=CCCC⚪C1CCC2⚪C⚪C1CC⚫CCC2⚫C⚫C.svg" width="238px" height="224px" preserveAspectRatio="xMinYMin meet" x="918" y="-224"/>
</g>
<!-- CCC1C(CCC2(C1CCC2)C)C(CCC(=O)C)C&#45;&gt;O=CCCC(C1CCC2(C(C1CC)CCC2)C)C -->
<g id="edge34" class="edge">
<title>CCC1C(CCC2(C1CCC2)C)C(CCC(=O)C)C&#45;&gt;O=CCCC(C1CCC2(C(C1CC)CCC2)C)C</title>
<path fill="none" stroke="#000000" d="M959.0944,-259.8501C964.544,-249.5078 970.0745,-239.0119 975.5445,-228.6309"/>
<polygon fill="#000000" stroke="#000000" points="977.8846,-224.1897 977.5443,-229.6621 976.7192,-226.4015 975.5538,-228.6132 975.5538,-228.6132 975.5538,-228.6132 976.7192,-226.4015 973.5632,-227.5643 977.8846,-224.1897 977.8846,-224.1897"/>
</g>
<!-- CCC=CC=C&#45;&gt;CCC=CC -->
<g id="edge59" class="edge">
<title>CCC=CC=C&#45;&gt;CCC=CC</title>
<path fill="none" stroke="#000000" d="M488.9509,-318.4431C505.293,-272.2589 528.6993,-206.1108 544.5795,-161.2319"/>
<polygon fill="#000000" stroke="#000000" points="546.2847,-156.4129 546.7379,-161.877 545.4507,-158.7697 544.6167,-161.1265 544.6167,-161.1265 544.6167,-161.1265 545.4507,-158.7697 542.4956,-160.3759 546.2847,-156.4129 546.2847,-156.4129"/>
</g>
<!-- Oc1ccc(cc1)C1CNCCc2c1cc(O)c(c2Cl)O -->
<g id="node6" class="node">
<title>Oc1ccc(cc1)C1CNCCc2c1cc(O)c(c2Cl)O</title>
<polygon fill="none" stroke="#000000" points="749.5,-2132 480.5,-2132 480.5,-1924 749.5,-1924 749.5,-2132"/>
<image xlink:href="molecules/Oc1ccc⚪cc1⚫C1CNCCc2c1cc⚪O⚫c⚪c2Cl⚫O.svg" width="269px" height="208px" preserveAspectRatio="xMinYMin meet" x="480.5" y="-2132"/>
</g>
<!-- CNCCc1ccc(c(c1)O)O -->
<g id="node36" class="node">
<title>CNCCc1ccc(c(c1)O)O</title>
<image xlink:href="molecules/CNCCc1ccc⚪c⚪c1⚫O⚫O.svg" width="218px" height="167px" preserveAspectRatio="xMinYMin meet" x="510" y="-1841"/>
</g>
<!-- Oc1ccc(cc1)C1CNCCc2c1cc(O)c(c2Cl)O&#45;&gt;CNCCc1ccc(c(c1)O)O -->
<g id="edge5" class="edge">
<title>Oc1ccc(cc1)C1CNCCc2c1cc(O)c(c2Cl)O&#45;&gt;CNCCc1ccc(c(c1)O)O</title>
<path fill="none" stroke="#000000" d="M616.5408,-1923.8046C616.9188,-1898.2384 617.32,-1871.1072 617.6863,-1846.3391"/>
<polygon fill="#000000" stroke="#000000" points="617.7639,-1841.0911 619.9396,-1846.1239 617.7269,-1843.5908 617.6899,-1846.0906 617.6899,-1846.0906 617.6899,-1846.0906 617.7269,-1843.5908 615.4401,-1846.0573 617.7639,-1841.0911 617.7639,-1841.0911"/>
</g>
<!-- NCCc1cccc(c1)OC -->
<g id="node7" class="node">
<title>NCCc1cccc(c1)OC</title>
<image xlink:href="molecules/NCCc1cccc⚪c1⚫OC.svg" width="166px" height="197px" preserveAspectRatio="xMinYMin meet" x="746" y="-1856"/>
</g>
<!-- NCCc1cccc(c1)O -->
<g id="node26" class="node">
<title>NCCc1cccc(c1)O</title>
<image xlink:href="molecules/NCCc1cccc⚪c1⚫O.svg" width="191px" height="122px" preserveAspectRatio="xMinYMin meet" x="791.5" y="-1337.5"/>
</g>
<!-- NCCc1cccc(c1)OC&#45;&gt;NCCc1cccc(c1)O -->
<g id="edge31" class="edge">
<title>NCCc1cccc(c1)OC&#45;&gt;NCCc1cccc(c1)O</title>
<path fill="none" stroke="#000000" d="M828.4721,-1658.6363C829.5456,-1588.9574 833.9307,-1493.7053 848,-1411 851.8475,-1388.3828 858.1575,-1364.1647 864.5919,-1342.5989"/>
<polygon fill="#000000" stroke="#000000" points="866.053,-1337.7532 866.7637,-1343.1898 865.3312,-1340.1467 864.6095,-1342.5403 864.6095,-1342.5403 864.6095,-1342.5403 865.3312,-1340.1467 862.4553,-1341.8908 866.053,-1337.7532 866.053,-1337.7532"/>
</g>
<!-- NCCC=CC=C(O)C -->
<g id="node8" class="node">
<title>NCCC=CC=C(O)C</title>
<image xlink:href="molecules/NCCC=CC=C⚪O⚫C.svg" width="218px" height="137px" preserveAspectRatio="xMinYMin meet" x="717" y="-1127"/>
</g>
<!-- CCC=CC=C(O)C -->
<g id="node25" class="node">
<title>CCC=CC=C(O)C</title>
<image xlink:href="molecules/CCC=CC=C⚪O⚫C.svg" width="191px" height="107px" preserveAspectRatio="xMinYMin meet" x="857.5" y="-909"/>
</g>
<!-- NCCC=CC=C(O)C&#45;&gt;CCC=CC=C(O)C -->
<g id="edge42" class="edge">
<title>NCCC=CC=C(O)C&#45;&gt;CCC=CC=C(O)C</title>
<path fill="none" stroke="#000000" d="M868.9964,-989.7735C884.5098,-964.9765 901.8521,-937.2561 916.7328,-913.4704"/>
<polygon fill="#000000" stroke="#000000" points="919.4817,-909.0765 918.7373,-914.5087 918.1557,-911.1959 916.8298,-913.3153 916.8298,-913.3153 916.8298,-913.3153 918.1557,-911.1959 914.9223,-912.122 919.4817,-909.0765 919.4817,-909.0765"/>
</g>
<!-- NCCC=CC=CC -->
<g id="node35" class="node">
<title>NCCC=CC=CC</title>
<image xlink:href="molecules/NCCC=CC=CC.svg" width="218px" height="107px" preserveAspectRatio="xMinYMin meet" x="621" y="-909"/>
</g>
<!-- NCCC=CC=C(O)C&#45;&gt;NCCC=CC=CC -->
<g id="edge43" class="edge">
<title>NCCC=CC=C(O)C&#45;&gt;NCCC=CC=CC</title>
<path fill="none" stroke="#000000" d="M793.4988,-989.7735C781.8208,-965.0794 768.7718,-937.4861 757.5547,-913.7667"/>
<polygon fill="#000000" stroke="#000000" points="755.3367,-909.0765 759.5083,-912.6346 756.4055,-911.3365 757.4743,-913.5965 757.4743,-913.5965 757.4743,-913.5965 756.4055,-911.3365 755.4403,-914.5585 755.3367,-909.0765 755.3367,-909.0765"/>
</g>
<!-- CCc1ccc(cc1)O -->
<g id="node9" class="node">
<title>CCc1ccc(cc1)O</title>
<image xlink:href="molecules/CCc1ccc⚪cc1⚫O.svg" width="191px" height="122px" preserveAspectRatio="xMinYMin meet" x="1338.5" y="-1119.5"/>
</g>
<!-- CCc1ccc(cc1)O&#45;&gt;CCc1ccc(cc1)O -->
<g id="edge32" class="edge">
<title>CCc1ccc(cc1)O&#45;&gt;CCc1ccc(cc1)O</title>
<path fill="none" stroke="#000000" d="M1529.637,-1090.5957C1540.4755,-1084.5853 1547.5,-1073.8867 1547.5,-1058.5 1547.5,-1045.277 1542.3122,-1035.5164 1533.9743,-1029.218"/>
<polygon fill="#000000" stroke="#000000" points="1529.637,-1026.4043 1535.0562,-1027.2379 1531.7343,-1027.7649 1533.8316,-1029.1255 1533.8316,-1029.1255 1533.8316,-1029.1255 1531.7343,-1027.7649 1532.6071,-1031.0131 1529.637,-1026.4043 1529.637,-1026.4043"/>
</g>
<!-- NCCC=CC=C(CO)O -->
<g id="node13" class="node">
<title>NCCC=CC=C(CO)O</title>
<image xlink:href="molecules/NCCC=CC=C⚪CO⚫O.svg" width="218px" height="197px" preserveAspectRatio="xMinYMin meet" x="543" y="-1375"/>
</g>
<!-- CNCCC=CC=C(CO)O&#45;&gt;NCCC=CC=C(CO)O -->
<g id="edge36" class="edge">
<title>CNCCC=CC=C(CO)O&#45;&gt;NCCC=CC=C(CO)O</title>
<path fill="none" stroke="#000000" d="M626.6123,-1455.7525C629.7887,-1433.3253 633.5914,-1406.4755 637.2748,-1380.4686"/>
<polygon fill="#000000" stroke="#000000" points="638.0097,-1375.28 639.5362,-1380.5461 637.6591,-1377.7553 637.3085,-1380.2306 637.3085,-1380.2306 637.3085,-1380.2306 637.6591,-1377.7553 635.0807,-1379.915 638.0097,-1375.28 638.0097,-1375.28"/>
</g>
<!-- CCC=CC=CCO -->
<g id="node11" class="node">
<title>CCC=CC=CCO</title>
<image xlink:href="molecules/CCC=CC=CCO.svg" width="218px" height="107px" preserveAspectRatio="xMinYMin meet" x="385" y="-909"/>
</g>
<!-- CCC=CC=CCO&#45;&gt;CCC=CC=CC -->
<g id="edge51" class="edge">
<title>CCC=CC=CCO&#45;&gt;CCC=CC=CC</title>
<path fill="none" stroke="#000000" d="M530.3008,-801.8738C553.8852,-767.0333 584.6181,-721.6324 608.7651,-685.9606"/>
<polygon fill="#000000" stroke="#000000" points="611.6763,-681.66 610.7367,-687.0618 610.2749,-683.7303 608.8734,-685.8005 608.8734,-685.8005 608.8734,-685.8005 610.2749,-683.7303 607.0102,-684.5392 611.6763,-681.66 611.6763,-681.66"/>
</g>
<!-- CCCC=CC=C&#45;&gt;CCCC=CC -->
<g id="edge57" class="edge">
<title>CCCC=CC=C&#45;&gt;CCCC=CC</title>
<path fill="none" stroke="#000000" d="M485.3896,-574.1881C508.5315,-547.2174 536.8759,-513.993 562,-484 576.7219,-466.4251 592.6178,-447.1737 606.9873,-429.6652"/>
<polygon fill="#000000" stroke="#000000" points="610.2202,-425.7241 608.7887,-431.0169 608.6347,-427.657 607.0491,-429.5899 607.0491,-429.5899 607.0491,-429.5899 608.6347,-427.657 605.3095,-428.1629 610.2202,-425.7241 610.2202,-425.7241"/>
</g>
<!-- CCCC=CC=C&#45;&gt;CCC=CC=C -->
<g id="edge56" class="edge">
<title>CCCC=CC=C&#45;&gt;CCC=CC=C</title>
<path fill="none" stroke="#000000" d="M445.4986,-574.334C450.5827,-532.3491 457.6441,-474.0357 462.8806,-430.7921"/>
<polygon fill="#000000" stroke="#000000" points="463.5099,-425.5953 465.1425,-430.8296 463.2094,-428.0772 462.9088,-430.5591 462.9088,-430.5591 462.9088,-430.5591 463.2094,-428.0772 460.6751,-430.2886 463.5099,-425.5953 463.5099,-425.5953"/>
</g>
<!-- NCCC=CC=C(CO)O&#45;&gt;NCCC=CC=C(O)C -->
<g id="edge38" class="edge">
<title>NCCC=CC=C(CO)O&#45;&gt;NCCC=CC=C(O)C</title>
<path fill="none" stroke="#000000" d="M730.8544,-1177.7054C743.3474,-1162.0533 756.0664,-1146.1179 767.9689,-1131.2057"/>
<polygon fill="#000000" stroke="#000000" points="771.3035,-1127.0278 769.9429,-1132.3393 769.7439,-1128.9818 768.1843,-1130.9357 768.1843,-1130.9357 768.1843,-1130.9357 769.7439,-1128.9818 766.4258,-1129.5321 771.3035,-1127.0278 771.3035,-1127.0278"/>
</g>
<!-- NCCC=CC=CCO -->
<g id="node30" class="node">
<title>NCCC=CC=CCO</title>
<image xlink:href="molecules/NCCC=CC=CCO.svg" width="243px" height="107px" preserveAspectRatio="xMinYMin meet" x="455.5" y="-1112"/>
</g>
<!-- NCCC=CC=C(CO)O&#45;&gt;NCCC=CC=CCO -->
<g id="edge37" class="edge">
<title>NCCC=CC=C(CO)O&#45;&gt;NCCC=CC=CCO</title>
<path fill="none" stroke="#000000" d="M618.011,-1177.7054C610.9256,-1157.1105 603.6715,-1136.0252 597.2725,-1117.4255"/>
<polygon fill="#000000" stroke="#000000" points="595.4912,-1112.2478 599.2455,-1116.2438 596.3045,-1114.6118 597.1179,-1116.9758 597.1179,-1116.9758 597.1179,-1116.9758 596.3045,-1114.6118 594.9903,-1117.7078 595.4912,-1112.2478 595.4912,-1112.2478"/>
</g>
<!-- NC(=N)C(c1ccc2c(c1)OCO2)O -->
<g id="node14" class="node">
<title>NC(=N)C(c1ccc2c(c1)OCO2)O</title>
<polygon fill="none" stroke="#000000" points="1503,-2111.5 1291,-2111.5 1291,-1944.5 1503,-1944.5 1503,-2111.5"/>
<image xlink:href="molecules/NC⚪=N⚫C⚪c1ccc2c⚪c1⚫OCO2⚫O.svg" width="212px" height="167px" preserveAspectRatio="xMinYMin meet" x="1291" y="-2111.5"/>
</g>
<!-- NC(=N)C(c1ccc2c(c1)OCO2)O&#45;&gt;NCCc1cccc(c1)OC -->
<g id="edge12" class="edge">
<title>NC(=N)C(c1ccc2c(c1)OCO2)O&#45;&gt;NCCc1cccc(c1)OC</title>
<path fill="none" stroke="#000000" d="M1332.9038,-1944.2369C1317.7987,-1929.5675 1300.6123,-1916.1083 1282,-1907 1137.1716,-1836.1257 1062.9233,-1947.5258 921,-1871 914.7416,-1867.6255 908.7508,-1863.6291 903.0439,-1859.1876"/>
<polygon fill="#000000" stroke="#000000" points="899.1385,-1856.0437 904.4442,-1857.4264 901.0859,-1857.6114 903.0333,-1859.1791 903.0333,-1859.1791 903.0333,-1859.1791 901.0859,-1857.6114 901.6224,-1860.9318 899.1385,-1856.0437 899.1385,-1856.0437"/>
</g>
<!-- NCCc1ccc(cc1)OC -->
<g id="node22" class="node">
<title>NCCc1ccc(cc1)OC</title>
<image xlink:href="molecules/NCCc1ccc⚪cc1⚫OC.svg" width="140px" height="212px" preserveAspectRatio="xMinYMin meet" x="1088" y="-1863.5"/>
</g>
<!-- NC(=N)C(c1ccc2c(c1)OCO2)O&#45;&gt;NCCc1ccc(cc1)OC -->
<g id="edge13" class="edge">
<title>NC(=N)C(c1ccc2c(c1)OCO2)O&#45;&gt;NCCc1ccc(cc1)OC</title>
<path fill="none" stroke="#000000" d="M1323.0157,-1944.2646C1294.0332,-1911.4623 1260.8514,-1873.9071 1231.8791,-1841.1163"/>
<polygon fill="#000000" stroke="#000000" points="1228.3674,-1837.1417 1233.3642,-1839.3989 1230.0227,-1839.0152 1231.678,-1840.8887 1231.678,-1840.8887 1231.678,-1840.8887 1230.0227,-1839.0152 1229.9919,-1842.3785 1228.3674,-1837.1417 1228.3674,-1837.1417"/>
</g>
<!-- NCC(c1ccc(c(c1)O)O)O -->
<g id="node27" class="node">
<title>NCC(c1ccc(c(c1)O)O)O</title>
<image xlink:href="molecules/NCC⚪c1ccc⚪c⚪c1⚫O⚫O⚫O.svg" width="140px" height="227px" preserveAspectRatio="xMinYMin meet" x="930" y="-1871"/>
</g>
<!-- NC(=N)C(c1ccc2c(c1)OCO2)O&#45;&gt;NCC(c1ccc(c(c1)O)O)O -->
<g id="edge14" class="edge">
<title>NC(=N)C(c1ccc2c(c1)OCO2)O&#45;&gt;NCC(c1ccc(c(c1)O)O)O</title>
<path fill="none" stroke="#000000" d="M1331.3921,-1944.4031C1316.5648,-1930.0029 1299.8694,-1916.6041 1282,-1907 1201.2888,-1863.6208 1156.1866,-1920.379 1079,-1871 1077.3884,-1869.969 1075.8006,-1868.8922 1074.2367,-1867.7735"/>
<polygon fill="#000000" stroke="#000000" points="1070.1526,-1864.7169 1075.5039,-1865.9116 1072.1542,-1866.2149 1074.1557,-1867.7129 1074.1557,-1867.7129 1074.1557,-1867.7129 1072.1542,-1866.2149 1072.8075,-1869.5143 1070.1526,-1864.7169 1070.1526,-1864.7169"/>
</g>
<!-- CCc1ccccc1 -->
<g id="node15" class="node">
<title>CCc1ccccc1</title>
<image xlink:href="molecules/CCc1ccccc1.svg" width="113px" height="167px" preserveAspectRatio="xMinYMin meet" x="1066.5" y="-939"/>
</g>
<!-- CCc1ccccc1&#45;&gt;CCc1ccccc1 -->
<g id="edge50" class="edge">
<title>CCc1ccccc1&#45;&gt;CCc1ccccc1</title>
<path fill="none" stroke="#000000" d="M1179.5255,-891.4309C1190.0723,-887.0062 1197.5,-875.0293 1197.5,-855.5 1197.5,-839.0222 1192.2121,-827.9209 1184.2244,-822.1963"/>
<polygon fill="#000000" stroke="#000000" points="1179.5255,-819.5691 1184.9877,-820.0453 1181.7076,-820.7892 1183.8897,-822.0092 1183.8897,-822.0092 1183.8897,-822.0092 1181.7076,-820.7892 1182.7917,-823.9731 1179.5255,-819.5691 1179.5255,-819.5691"/>
</g>
<!-- Oc1ccc2c(c1)CCC1C2CCC2(C1CCC2=O)C -->
<g id="node16" class="node">
<title>Oc1ccc2c(c1)CCC1C2CCC2(C1CCC2=O)C</title>
<polygon fill="none" stroke="#000000" points="1517.5,-1373.5 1254.5,-1373.5 1254.5,-1179.5 1517.5,-1179.5 1517.5,-1373.5"/>
<image xlink:href="molecules/Oc1ccc2c⚪c1⚫CCC1C2CCC2⚪C1CCC2=O⚫C.svg" width="263px" height="194px" preserveAspectRatio="xMinYMin meet" x="1254.5" y="-1373.5"/>
</g>
<!-- Oc1ccc2c(c1)CCC1C2CCC2(C1CCC2=O)C&#45;&gt;CCc1ccc(cc1)O -->
<g id="edge15" class="edge">
<title>Oc1ccc2c(c1)CCC1C2CCC2(C1CCC2=O)C&#45;&gt;CCc1ccc(cc1)O</title>
<path fill="none" stroke="#000000" d="M1407.403,-1179.2949C1411.4584,-1160.8763 1415.614,-1142.0031 1419.3991,-1124.8124"/>
<polygon fill="#000000" stroke="#000000" points="1420.5614,-1119.5337 1421.6835,-1124.9006 1420.0238,-1121.9752 1419.4861,-1124.4168 1419.4861,-1124.4168 1419.4861,-1124.4168 1420.0238,-1121.9752 1417.2888,-1123.9329 1420.5614,-1119.5337 1420.5614,-1119.5337"/>
</g>
<!-- CCc1cccc(c1)O -->
<g id="node34" class="node">
<title>CCc1cccc(c1)O</title>
<image xlink:href="molecules/CCc1cccc⚪c1⚫O.svg" width="191px" height="122px" preserveAspectRatio="xMinYMin meet" x="1111.5" y="-1119.5"/>
</g>
<!-- Oc1ccc2c(c1)CCC1C2CCC2(C1CCC2=O)C&#45;&gt;CCc1cccc(c1)O -->
<g id="edge16" class="edge">
<title>Oc1ccc2c(c1)CCC1C2CCC2(C1CCC2=O)C&#45;&gt;CCc1cccc(c1)O</title>
<path fill="none" stroke="#000000" d="M1306.1848,-1179.2949C1290.6701,-1160.3999 1274.7627,-1141.0266 1260.3568,-1123.4821"/>
<polygon fill="#000000" stroke="#000000" points="1257.1149,-1119.5337 1262.0268,-1121.9702 1258.7013,-1121.4659 1260.2878,-1123.398 1260.2878,-1123.398 1260.2878,-1123.398 1258.7013,-1121.4659 1258.5489,-1124.8258 1257.1149,-1119.5337 1257.1149,-1119.5337"/>
</g>
<!-- NCCc1ccccc1 -->
<g id="node17" class="node">
<title>NCCc1ccccc1</title>
<image xlink:href="molecules/NCCc1ccccc1.svg" width="140px" height="167px" preserveAspectRatio="xMinYMin meet" x="953" y="-1142"/>
</g>
<!-- NCCc1ccccc1&#45;&gt;CCc1ccccc1 -->
<g id="edge53" class="edge">
<title>NCCc1ccccc1&#45;&gt;CCc1ccccc1</title>
<path fill="none" stroke="#000000" d="M1064.2512,-974.7601C1069.29,-964.5314 1074.4511,-954.0542 1079.5213,-943.7618"/>
<polygon fill="#000000" stroke="#000000" points="1081.8436,-939.0474 1081.6525,-944.5271 1080.7388,-941.2901 1079.6341,-943.5328 1079.6341,-943.5328 1079.6341,-943.5328 1080.7388,-941.2901 1077.6157,-942.5385 1081.8436,-939.0474 1081.8436,-939.0474"/>
</g>
<!-- NCCc1ccccc1&#45;&gt;NCCC=CC=CC -->
<g id="edge52" class="edge">
<title>NCCc1ccccc1&#45;&gt;NCCC=CC=CC</title>
<path fill="none" stroke="#000000" d="M952.8774,-981.3309C949.9556,-979.1062 946.993,-976.9864 944,-975 906.0327,-949.8022 888.2639,-960.3368 848,-939 833.2292,-931.1726 818.1563,-921.7655 803.9385,-912.1307"/>
<polygon fill="#000000" stroke="#000000" points="799.5548,-909.1347 804.9524,-910.0984 801.6188,-910.5454 803.6828,-911.956 803.6828,-911.956 803.6828,-911.956 801.6188,-910.5454 802.4133,-913.8136 799.5548,-909.1347 799.5548,-909.1347"/>
</g>
<!-- CNCC(c1ccc(c(c1)O)O)O -->
<g id="node19" class="node">
<title>CNCC(c1ccc(c(c1)O)O)O</title>
<polygon fill="none" stroke="#000000" points="908,-2149 768,-2149 768,-1907 908,-1907 908,-2149"/>
<image xlink:href="molecules/CNCC⚪c1ccc⚪c⚪c1⚫O⚫O⚫O.svg" width="140px" height="242px" preserveAspectRatio="xMinYMin meet" x="768" y="-2149"/>
</g>
<!-- CNCC(c1ccc(c(c1)O)O)O&#45;&gt;NCC(c1ccc(c(c1)O)O)O -->
<g id="edge3" class="edge">
<title>CNCC(c1ccc(c(c1)O)O)O&#45;&gt;NCC(c1ccc(c(c1)O)O)O</title>
<path fill="none" stroke="#000000" d="M908.1134,-1910.928C915.12,-1899.2286 922.2374,-1887.3443 929.2506,-1875.6341"/>
<polygon fill="#000000" stroke="#000000" points="931.8293,-1871.3283 931.1905,-1876.7739 930.5448,-1873.4731 929.2602,-1875.6179 929.2602,-1875.6179 929.2602,-1875.6179 930.5448,-1873.4731 927.3299,-1874.4618 931.8293,-1871.3283 931.8293,-1871.3283"/>
</g>
<!-- CNCC(c1ccc(c(c1)O)O)O&#45;&gt;CNCCc1ccc(c(c1)O)O -->
<g id="edge4" class="edge">
<title>CNCC(c1ccc(c(c1)O)O)O&#45;&gt;CNCCc1ccc(c(c1)O)O</title>
<path fill="none" stroke="#000000" d="M767.7931,-1919.8164C764.5417,-1915.445 761.2699,-1911.1564 758,-1907 741.6678,-1886.2405 723.0636,-1864.8969 704.8947,-1845.069"/>
<polygon fill="#000000" stroke="#000000" points="701.2676,-1841.1242 706.3081,-1843.2819 702.9597,-1842.9645 704.6519,-1844.8048 704.6519,-1844.8048 704.6519,-1844.8048 702.9597,-1842.9645 702.9956,-1846.3278 701.2676,-1841.1242 701.2676,-1841.1242"/>
</g>
<!-- CN1CCc2c3C1Cc1ccc(c(c1c3ccc2)O)O -->
<g id="node20" class="node">
<title>CN1CCc2c3C1Cc1ccc(c(c1c3ccc2)O)O</title>
<polygon fill="none" stroke="#000000" points="244,-2126 0,-2126 0,-1930 244,-1930 244,-2126"/>
<image xlink:href="molecules/CN1CCc2c3C1Cc1ccc⚪c⚪c1c3ccc2⚫O⚫O.svg" width="244px" height="196px" preserveAspectRatio="xMinYMin meet" x="0" y="-2126"/>
</g>
<!-- CN1CCc2c3C1Cc1ccc(c(c1c3ccc2)O)O&#45;&gt;CN(C(CC=CC)CC=CC=C(CO)O)CC -->
<g id="edge1" class="edge">
<title>CN1CCc2c3C1Cc1ccc(c(c1c3ccc2)O)O&#45;&gt;CN(C(CC=CC)CC=CC=C(CO)O)CC</title>
<path fill="none" stroke="#000000" d="M207.1727,-1929.9608C233.5716,-1899.5739 262.3313,-1866.4697 287.5309,-1837.4634"/>
<polygon fill="#000000" stroke="#000000" points="290.903,-1833.5819 289.3224,-1838.832 289.2634,-1835.4691 287.6238,-1837.3564 287.6238,-1837.3564 287.6238,-1837.3564 289.2634,-1835.4691 285.9253,-1835.8808 290.903,-1833.5819 290.903,-1833.5819"/>
</g>
<!-- CN1CCc2c3C1Cc1ccc(c(c1c3ccc2)O)O&#45;&gt;CNCCc1ccc(c(c1)O)O -->
<g id="edge2" class="edge">
<title>CN1CCc2c3C1Cc1ccc(c(c1c3ccc2)O)O&#45;&gt;CNCCc1ccc(c(c1)O)O</title>
<path fill="none" stroke="#000000" d="M215.499,-1929.9832C227.412,-1921.1401 240.007,-1913.2001 253,-1907 353.1224,-1859.2227 400.2633,-1919.5773 500,-1871 514.3056,-1864.0324 528.0226,-1854.7189 540.7293,-1844.4112"/>
<polygon fill="#000000" stroke="#000000" points="544.6399,-1841.1819 542.2172,-1846.1006 542.7122,-1842.7738 540.7845,-1844.3657 540.7845,-1844.3657 540.7845,-1844.3657 542.7122,-1842.7738 539.3518,-1842.6308 544.6399,-1841.1819 544.6399,-1841.1819"/>
</g>
<!-- OC1C=CC2C34C1Oc1c4c(CC2N(CC3)C)ccc1O -->
<g id="node21" class="node">
<title>OC1C=CC2C34C1Oc1c4c(CC2N(CC3)C)ccc1O</title>
<polygon fill="none" stroke="#000000" points="462,-2130.5 262,-2130.5 262,-1925.5 462,-1925.5 462,-2130.5"/>
<image xlink:href="molecules/OC1C=CC2C34C1Oc1c4c⚪CC2N⚪CC3⚫C⚫ccc1O.svg" width="200px" height="205px" preserveAspectRatio="xMinYMin meet" x="262" y="-2130.5"/>
</g>
<!-- OC1C=CC2C34C1Oc1c4c(CC2N(CC3)C)ccc1O&#45;&gt;CN(C(CC=CC)CC=CC=C(CO)O)CC -->
<g id="edge9" class="edge">
<title>OC1C=CC2C34C1Oc1c4c(CC2N(CC3)C)ccc1O&#45;&gt;CN(C(CC=CC)CC=CC=C(CO)O)CC</title>
<path fill="none" stroke="#000000" d="M360.1026,-1925.3498C359.572,-1896.6469 359.003,-1865.8611 358.4989,-1838.5931"/>
<polygon fill="#000000" stroke="#000000" points="358.4056,-1833.5438 360.7477,-1838.5014 358.4519,-1836.0434 358.4981,-1838.543 358.4981,-1838.543 358.4981,-1838.543 358.4519,-1836.0434 356.2485,-1838.5846 358.4056,-1833.5438 358.4056,-1833.5438"/>
</g>
<!-- OC1C=CC2C34C1Oc1c4c(CC2N(CC3)C)ccc1O&#45;&gt;NCCc1cccc(c1)OC -->
<g id="edge10" class="edge">
<title>OC1C=CC2C34C1Oc1c4c(CC2N(CC3)C)ccc1O&#45;&gt;NCCc1cccc(c1)OC</title>
<path fill="none" stroke="#000000" d="M443.5031,-1925.3979C452.1801,-1918.3767 461.3752,-1912.0847 471,-1907 576.4848,-1851.2734 633.003,-1929.4561 737,-1871 742.9027,-1867.6821 748.5748,-1863.822 754.0002,-1859.5688"/>
<polygon fill="#000000" stroke="#000000" points="758.1006,-1856.2422 755.6353,-1861.1396 756.1592,-1857.8173 754.2177,-1859.3923 754.2177,-1859.3923 754.2177,-1859.3923 756.1592,-1857.8173 752.8002,-1857.645 758.1006,-1856.2422 758.1006,-1856.2422"/>
</g>
<!-- OC1C=CC2C34C1Oc1c4c(CC2N(CC3)C)ccc1O&#45;&gt;CNCCc1ccc(c(c1)O)O -->
<g id="edge11" class="edge">
<title>OC1C=CC2C34C1Oc1c4c(CC2N(CC3)C)ccc1O&#45;&gt;CNCCc1ccc(c(c1)O)O</title>
<path fill="none" stroke="#000000" d="M453.8412,-1925.3677C459.6173,-1919.1245 465.3703,-1912.9611 471,-1907 490.2397,-1886.6277 511.2408,-1865.0382 531.2193,-1844.7909"/>
<polygon fill="#000000" stroke="#000000" points="534.9372,-1841.0266 533.0245,-1846.1651 533.1804,-1842.8053 531.4237,-1844.584 531.4237,-1844.584 531.4237,-1844.584 533.1804,-1842.8053 529.8228,-1843.003 534.9372,-1841.0266 534.9372,-1841.0266"/>
</g>
<!-- NCCc1ccc(cc1)O -->
<g id="node32" class="node">
<title>NCCc1ccc(cc1)O</title>
<image xlink:href="molecules/NCCc1ccc⚪cc1⚫O.svg" width="140px" height="197px" preserveAspectRatio="xMinYMin meet" x="1001" y="-1375"/>
</g>
<!-- NCCc1ccc(cc1)OC&#45;&gt;NCCc1ccc(cc1)O -->
<g id="edge30" class="edge">
<title>NCCc1ccc(cc1)OC&#45;&gt;NCCc1ccc(cc1)O</title>
<path fill="none" stroke="#000000" d="M1138.7998,-1651.347C1124.2082,-1570.674 1104.2456,-1460.3062 1089.7628,-1380.2347"/>
<polygon fill="#000000" stroke="#000000" points="1088.8169,-1375.005 1091.921,-1379.5247 1089.2619,-1377.4651 1089.7069,-1379.9252 1089.7069,-1379.9252 1089.7069,-1379.9252 1089.2619,-1377.4651 1087.4928,-1380.3257 1088.8169,-1375.005 1088.8169,-1375.005"/>
</g>
<!-- O=CCCC1(C)CCCC2C1CCC1(C2CCC1)C -->
<g id="node23" class="node">
<title>O=CCCC1(C)CCCC2C1CCC1(C2CCC1)C</title>
<image xlink:href="molecules/O=CCCC1⚪C⚫CCCC2C1CCC1⚪C2CCC1⚫C.svg" width="275px" height="186px" preserveAspectRatio="xMinYMin meet" x="1037.5" y="-465"/>
</g>
<!-- O=CCCC1(C)CCCC2C1CCC1(C2CCC1)C&#45;&gt;O=CCCC(C1CCC2(C(C1CC)CCC2)C)C -->
<g id="edge35" class="edge">
<title>O=CCCC1(C)CCCC2C1CCC1(C2CCC1)C&#45;&gt;O=CCCC(C1CCC2(C(C1CC)CCC2)C)C</title>
<path fill="none" stroke="#000000" d="M1125.5686,-278.8684C1116.9441,-262.6193 1107.8749,-245.5325 1098.9639,-228.7436"/>
<polygon fill="#000000" stroke="#000000" points="1096.4552,-224.0171 1100.7868,-227.3787 1097.6273,-226.2254 1098.7994,-228.4336 1098.7994,-228.4336 1098.7994,-228.4336 1097.6273,-226.2254 1096.812,-229.4885 1096.4552,-224.0171 1096.4552,-224.0171"/>
</g>
<!-- CCC=CC=C(O)C&#45;&gt;CCC=CC=CC -->
<g id="edge49" class="edge">
<title>CCC=CC=C(O)C&#45;&gt;CCC=CC=CC</title>
<path fill="none" stroke="#000000" d="M891.9659,-801.8152C878.0764,-791.0904 862.9823,-780.5193 848,-772 808.7496,-749.6813 790.7469,-760.7767 753,-736 731.9639,-722.1921 711.9072,-703.5061 695.0657,-685.5598"/>
<polygon fill="#000000" stroke="#000000" points="691.3007,-681.5031 696.3512,-683.6374 693.0013,-683.3355 694.702,-685.168 694.702,-685.168 694.702,-685.168 693.0013,-683.3355 693.0528,-686.6986 691.3007,-681.5031 691.3007,-681.5031"/>
</g>
<!-- NCCc1cccc(c1)O&#45;&gt;NCCc1ccccc1 -->
<g id="edge46" class="edge">
<title>NCCc1cccc(c1)O&#45;&gt;NCCc1ccccc1</title>
<path fill="none" stroke="#000000" d="M925.0644,-1215.485C938.3803,-1194.1405 953.6095,-1169.7288 968.0271,-1146.6183"/>
<polygon fill="#000000" stroke="#000000" points="970.7091,-1142.3193 969.9715,-1147.7524 969.3858,-1144.4404 968.0625,-1146.5614 968.0625,-1146.5614 968.0625,-1146.5614 969.3858,-1144.4404 966.1536,-1145.3705 970.7091,-1142.3193 970.7091,-1142.3193"/>
</g>
<!-- NCCc1cccc(c1)O&#45;&gt;NCCC=CC=CCO -->
<g id="edge44" class="edge">
<title>NCCc1cccc(c1)O&#45;&gt;NCCC=CC=CCO</title>
<path fill="none" stroke="#000000" d="M818.3593,-1215.3305C802.8526,-1202.4776 786.1808,-1189.3794 770,-1178 743.9361,-1159.6702 735.2184,-1158.567 708,-1142 693.8027,-1133.3586 678.8495,-1124.0389 664.327,-1114.8683"/>
<polygon fill="#000000" stroke="#000000" points="659.8352,-1112.0279 665.2637,-1112.7985 661.9482,-1113.3641 664.0612,-1114.7002 664.0612,-1114.7002 664.0612,-1114.7002 661.9482,-1113.3641 662.8587,-1116.6019 659.8352,-1112.0279 659.8352,-1112.0279"/>
</g>
<!-- NCCc1cccc(c1)O&#45;&gt;CCc1cccc(c1)O -->
<g id="edge45" class="edge">
<title>NCCc1cccc(c1)O&#45;&gt;CCc1cccc(c1)O</title>
<path fill="none" stroke="#000000" d="M943.2537,-1215.2982C958.092,-1201.6339 974.797,-1188.1926 992,-1178 1036.2559,-1151.779 1056.711,-1166.3932 1102,-1142 1112.4065,-1136.3949 1122.8135,-1129.7306 1132.8118,-1122.6474"/>
<polygon fill="#000000" stroke="#000000" points="1137.0705,-1119.5879 1134.3225,-1124.3325 1135.0401,-1121.0465 1133.0098,-1122.5052 1133.0098,-1122.5052 1133.0098,-1122.5052 1135.0401,-1121.0465 1131.697,-1120.6778 1137.0705,-1119.5879 1137.0705,-1119.5879"/>
</g>
<!-- NCCc1ccc(c(c1)O)O -->
<g id="node33" class="node">
<title>NCCc1ccc(c(c1)O)O</title>
<image xlink:href="molecules/NCCc1ccc⚪c⚪c1⚫O⚫O.svg" width="166px" height="197px" preserveAspectRatio="xMinYMin meet" x="857" y="-1608"/>
</g>
<!-- NCC(c1ccc(c(c1)O)O)O&#45;&gt;NCCc1ccc(c(c1)O)O -->
<g id="edge26" class="edge">
<title>NCC(c1ccc(c(c1)O)O)O&#45;&gt;NCCc1ccc(c(c1)O)O</title>
<path fill="none" stroke="#000000" d="M972.4585,-1643.6617C969.9964,-1633.485 967.512,-1623.2163 965.0723,-1613.1324"/>
<polygon fill="#000000" stroke="#000000" points="963.8786,-1608.1981 967.2413,-1612.5288 964.4665,-1610.628 965.0544,-1613.0579 965.0544,-1613.0579 965.0544,-1613.0579 964.4665,-1610.628 962.8675,-1613.587 963.8786,-1608.1981 963.8786,-1608.1981"/>
</g>
<!-- COc1cc(CCN2CCN(CC2)c2ccccc2Cl)ccc1OC -->
<g id="node28" class="node">
<title>COc1cc(CCN2CCN(CC2)c2ccccc2Cl)ccc1OC</title>
<polygon fill="none" stroke="#000000" points="1273.5,-2149 926.5,-2149 926.5,-1907 1273.5,-1907 1273.5,-2149"/>
<image xlink:href="molecules/COc1cc⚪CCN2CCN⚪CC2⚫c2ccccc2Cl⚫ccc1OC.svg" width="347px" height="242px" preserveAspectRatio="xMinYMin meet" x="926.5" y="-2149"/>
</g>
<!-- COc1cc(CCN2CCN(CC2)c2ccccc2Cl)ccc1OC&#45;&gt;NCCc1cccc(c1)OC -->
<g id="edge6" class="edge">
<title>COc1cc(CCN2CCN(CC2)c2ccccc2Cl)ccc1OC&#45;&gt;NCCc1cccc(c1)OC</title>
<path fill="none" stroke="#000000" d="M957.2252,-1906.752C944.7127,-1894.9423 932.4623,-1882.9166 921,-1871 917.5711,-1867.4352 914.1308,-1863.7549 910.7007,-1859.9975"/>
<polygon fill="#000000" stroke="#000000" points="907.2748,-1856.2157 912.2992,-1858.4107 908.9532,-1858.0685 910.6317,-1859.9213 910.6317,-1859.9213 910.6317,-1859.9213 908.9532,-1858.0685 908.9642,-1861.4319 907.2748,-1856.2157 907.2748,-1856.2157"/>
</g>
<!-- COc1cc(CCN2CCN(CC2)c2ccccc2Cl)ccc1OC&#45;&gt;NCCc1ccc(cc1)OC -->
<g id="edge7" class="edge">
<title>COc1cc(CCN2CCN(CC2)c2ccccc2Cl)ccc1OC&#45;&gt;NCCc1ccc(cc1)OC</title>
<path fill="none" stroke="#000000" d="M1125.9464,-1906.9911C1128.689,-1894.2002 1131.4685,-1881.2375 1134.1852,-1868.5675"/>
<polygon fill="#000000" stroke="#000000" points="1135.2635,-1863.5384 1136.4151,-1868.8991 1134.7393,-1865.9829 1134.2151,-1868.4273 1134.2151,-1868.4273 1134.2151,-1868.4273 1134.7393,-1865.9829 1132.0151,-1867.9556 1135.2635,-1863.5384 1135.2635,-1863.5384"/>
</g>
<!-- COc1cc(CCN2CCN(CC2)c2ccccc2Cl)ccc1OC&#45;&gt;CNCCc1ccc(c(c1)O)O -->
<g id="edge8" class="edge">
<title>COc1cc(CCN2CCN(CC2)c2ccccc2Cl)ccc1OC&#45;&gt;CNCCc1ccc(c(c1)O)O</title>
<path fill="none" stroke="#000000" d="M926.2498,-1910.9671C923.166,-1909.5936 920.0814,-1908.2695 917,-1907 841.5669,-1875.922 809.3015,-1908.7954 737,-1871 723.3076,-1863.8423 710.11,-1854.6074 697.8143,-1844.4999"/>
<polygon fill="#000000" stroke="#000000" points="693.6797,-1841.0404 698.9583,-1842.5233 695.5971,-1842.6447 697.5145,-1844.249 697.5145,-1844.249 697.5145,-1844.249 695.5971,-1842.6447 696.0706,-1845.9746 693.6797,-1841.0404 693.6797,-1841.0404"/>
</g>
<!-- O=C1CCC2(C(=C1)CCC1C2CCC2(C1CCC2C(=O)C)C)C -->
<g id="node29" class="node">
<title>O=C1CCC2(C(=C1)CCC1C2CCC2(C1CCC2C(=O)C)C)C</title>
<polygon fill="none" stroke="#000000" points="1030,-736 762,-736 762,-520 1030,-520 1030,-736"/>
<image xlink:href="molecules/O=C1CCC2⚪C⚪=C1⚫CCC1C2CCC2⚪C1CCC2C⚪=O⚫C⚫C⚫C.svg" width="268px" height="216px" preserveAspectRatio="xMinYMin meet" x="762" y="-736"/>
</g>
<!-- O=C1CCC2(C(=C1)CCC1C2CCC2(C1CCC2C(=O)C)C)C&#45;&gt;CCCC=CC -->
<g id="edge19" class="edge">
<title>O=C1CCC2(C(=C1)CCC1C2CCC2(C1CCC2C(=O)C)C)C&#45;&gt;CCCC=CC</title>
<path fill="none" stroke="#000000" d="M793.721,-519.804C764.4584,-488.8486 733.6989,-456.3096 708.513,-429.6666"/>
<polygon fill="#000000" stroke="#000000" points="704.8383,-425.7793 709.9082,-427.8672 706.5557,-427.5961 708.2731,-429.4129 708.2731,-429.4129 708.2731,-429.4129 706.5557,-427.5961 706.638,-430.9585 704.8383,-425.7793 704.8383,-425.7793"/>
</g>
<!-- O=C1CCC2(C(=C1)CCC1C2CCC2(C1CCC2C(=O)C)C)C&#45;&gt;CCC1C(CCC2(C1CCC2)C)C(CCC(=O)C)C -->
<g id="edge20" class="edge">
<title>O=C1CCC2(C(=C1)CCC1C2CCC2(C1CCC2C(=O)C)C)C&#45;&gt;CCC1C(CCC2(C1CCC2)C)C(CCC(=O)C)C</title>
<path fill="none" stroke="#000000" d="M897.6906,-519.804C897.8467,-509.8103 898.0054,-499.6516 898.1628,-489.5795"/>
<polygon fill="#000000" stroke="#000000" points="898.245,-484.3217 900.4165,-489.3563 898.2059,-486.8214 898.1668,-489.3211 898.1668,-489.3211 898.1668,-489.3211 898.2059,-486.8214 895.917,-489.2859 898.245,-484.3217 898.245,-484.3217"/>
</g>
<!-- O=C1CCC2(C(=C1)CCC1C2CCC2(C1CCC2C(=O)C)C)C&#45;&gt;O=CCCC1(C)CCCC2C1CCC1(C2CCC1)C -->
<g id="edge21" class="edge">
<title>O=C1CCC2(C(=C1)CCC1C2CCC2(C1CCC2C(=O)C)C)C&#45;&gt;O=CCCC1(C)CCCC2C1CCC1(C2CCC1)C</title>
<path fill="none" stroke="#000000" d="M1013.9167,-519.804C1032.3059,-502.9308 1051.2079,-485.587 1069.3025,-468.9841"/>
<polygon fill="#000000" stroke="#000000" points="1073.3936,-465.2303 1071.2306,-470.2686 1071.5515,-466.9205 1069.7094,-468.6107 1069.7094,-468.6107 1069.7094,-468.6107 1071.5515,-466.9205 1068.1882,-466.9529 1073.3936,-465.2303 1073.3936,-465.2303"/>
</g>
<!-- NCCC=CC=CCO&#45;&gt;CCC=CC=CCO -->
<g id="edge47" class="edge">
<title>NCCC=CC=CCO&#45;&gt;CCC=CC=CCO</title>
<path fill="none" stroke="#000000" d="M555.0842,-1004.8986C543.6429,-976.9158 529.6249,-942.6308 517.9047,-913.9657"/>
<polygon fill="#000000" stroke="#000000" points="515.8946,-909.0495 519.8696,-912.8261 516.8408,-911.3636 517.787,-913.6776 517.787,-913.6776 517.787,-913.6776 516.8408,-911.3636 515.7043,-914.5292 515.8946,-909.0495 515.8946,-909.0495"/>
</g>
<!-- NCCC=CC=CCO&#45;&gt;NCCC=CC=CC -->
<g id="edge48" class="edge">
<title>NCCC=CC=CCO&#45;&gt;NCCC=CC=CC</title>
<path fill="none" stroke="#000000" d="M617.3991,-1004.8986C638.6639,-976.6846 664.7574,-942.0637 686.4695,-913.2562"/>
<polygon fill="#000000" stroke="#000000" points="689.64,-909.0495 688.4274,-914.3967 688.1353,-911.046 686.6306,-913.0424 686.6306,-913.0424 686.6306,-913.0424 688.1353,-911.046 684.8337,-911.6882 689.64,-909.0495 689.64,-909.0495"/>
</g>
<!-- O=C1CCC2(C(C1)CCC1C2CCC2(C1CCC2O)C)C -->
<g id="node31" class="node">
<title>O=C1CCC2(C(C1)CCC1C2CCC2(C1CCC2O)C)C</title>
<polygon fill="none" stroke="#000000" points="1311.5,-725 1048.5,-725 1048.5,-531 1311.5,-531 1311.5,-725"/>
<image xlink:href="molecules/O=C1CCC2⚪C⚪C1⚫CCC1C2CCC2⚪C1CCC2O⚫C⚫C.svg" width="263px" height="194px" preserveAspectRatio="xMinYMin meet" x="1048.5" y="-725"/>
</g>
<!-- O=C1CCC2(C(C1)CCC1C2CCC2(C1CCC2O)C)C&#45;&gt;CCC1C(CCC2(C1CCC2)C)C(CCC(=O)C)C -->
<g id="edge18" class="edge">
<title>O=C1CCC2(C(C1)CCC1C2CCC2(C1CCC2O)C)C&#45;&gt;CCC1C(CCC2(C1CCC2)C)C(CCC(=O)C)C</title>
<path fill="none" stroke="#000000" d="M1073.7448,-530.8524C1057.2044,-515.7298 1039.9959,-499.9962 1023.1194,-484.5663"/>
<polygon fill="#000000" stroke="#000000" points="1019.2964,-481.071 1024.5048,-482.7843 1021.1415,-482.7579 1022.9865,-484.4448 1022.9865,-484.4448 1022.9865,-484.4448 1021.1415,-482.7579 1021.4683,-486.1054 1019.2964,-481.071 1019.2964,-481.071"/>
</g>
<!-- O=C1CCC2(C(C1)CCC1C2CCC2(C1CCC2O)C)C&#45;&gt;O=CCCC1(C)CCCC2C1CCC1(C2CCC1)C -->
<g id="edge17" class="edge">
<title>O=C1CCC2(C(C1)CCC1C2CCC2(C1CCC2O)C)C&#45;&gt;O=CCCC1(C)CCCC2C1CCC1(C2CCC1)C</title>
<path fill="none" stroke="#000000" d="M1178.1026,-530.8524C1177.7155,-511.0322 1177.3079,-490.1626 1176.92,-470.3025"/>
<polygon fill="#000000" stroke="#000000" points="1176.8218,-465.2763 1179.1691,-470.2314 1176.8707,-467.7758 1176.9195,-470.2753 1176.9195,-470.2753 1176.9195,-470.2753 1176.8707,-467.7758 1174.67,-470.3193 1176.8218,-465.2763 1176.8218,-465.2763"/>
</g>
<!-- NCCc1ccc(cc1)O&#45;&gt;NCCC=CC=C(O)C -->
<g id="edge39" class="edge">
<title>NCCc1ccc(cc1)O&#45;&gt;NCCC=CC=C(O)C</title>
<path fill="none" stroke="#000000" d="M1000.5485,-1187.4303C997.3892,-1184.1845 994.2005,-1181.0282 991,-1178 984.5149,-1171.864 957.4791,-1151.9796 927.1118,-1130.146"/>
<polygon fill="#000000" stroke="#000000" points="923.0029,-1127.1944 928.3765,-1128.2842 925.0334,-1128.653 927.0638,-1130.1116 927.0638,-1130.1116 927.0638,-1130.1116 925.0334,-1128.653 925.7511,-1131.939 923.0029,-1127.1944 923.0029,-1127.1944"/>
</g>
<!-- NCCc1ccc(cc1)O&#45;&gt;CCc1ccc(cc1)O -->
<g id="edge40" class="edge">
<title>NCCc1ccc(cc1)O&#45;&gt;CCc1ccc(cc1)O</title>
<path fill="none" stroke="#000000" d="M1141.1668,-1234.7211C1172.7795,-1216.4951 1210.8338,-1195.3695 1246,-1178 1282.4174,-1160.0125 1295.1766,-1162.9071 1330,-1142 1339.7275,-1136.1599 1349.5413,-1129.4963 1359.0521,-1122.5385"/>
<polygon fill="#000000" stroke="#000000" points="1363.1084,-1119.54 1360.4251,-1124.3215 1361.098,-1121.0261 1359.0876,-1122.5122 1359.0876,-1122.5122 1359.0876,-1122.5122 1361.098,-1121.0261 1357.7502,-1120.7028 1363.1084,-1119.54 1363.1084,-1119.54"/>
</g>
<!-- NCCc1ccc(cc1)O&#45;&gt;NCCc1ccccc1 -->
<g id="edge41" class="edge">
<title>NCCc1ccc(cc1)O&#45;&gt;NCCc1ccccc1</title>
<path fill="none" stroke="#000000" d="M1049.2471,-1177.7054C1047.0088,-1167.54 1044.7442,-1157.2551 1042.5322,-1147.2085"/>
<polygon fill="#000000" stroke="#000000" points="1041.4508,-1142.2973 1044.7234,-1146.6965 1041.9884,-1144.7389 1042.526,-1147.1804 1042.526,-1147.1804 1042.526,-1147.1804 1041.9884,-1144.7389 1040.3287,-1147.6642 1041.4508,-1142.2973 1041.4508,-1142.2973"/>
</g>
<!-- NCCc1ccc(c(c1)O)O&#45;&gt;NCCC=CC=C(CO)O -->
<g id="edge29" class="edge">
<title>NCCc1ccc(c(c1)O)O&#45;&gt;NCCC=CC=C(CO)O</title>
<path fill="none" stroke="#000000" d="M856.6985,-1442.1067C828.1599,-1419.0182 795.728,-1392.78 765.2282,-1368.1048"/>
<polygon fill="#000000" stroke="#000000" points="761.1323,-1364.791 766.4346,-1366.1867 763.0759,-1366.3635 765.0195,-1367.9359 765.0195,-1367.9359 765.0195,-1367.9359 763.0759,-1366.3635 763.6043,-1369.6851 761.1323,-1364.791 761.1323,-1364.791"/>
</g>
<!-- NCCc1ccc(c(c1)O)O&#45;&gt;NCCc1cccc(c1)O -->
<g id="edge28" class="edge">
<title>NCCc1ccc(c(c1)O)O&#45;&gt;NCCc1cccc(c1)O</title>
<path fill="none" stroke="#000000" d="M917.5232,-1410.687C912.2994,-1387.7218 906.862,-1363.8178 902.0487,-1342.6573"/>
<polygon fill="#000000" stroke="#000000" points="900.9035,-1337.6229 904.2065,-1341.9992 901.458,-1340.0606 902.0126,-1342.4983 902.0126,-1342.4983 902.0126,-1342.4983 901.458,-1340.0606 899.8186,-1342.9974 900.9035,-1337.6229 900.9035,-1337.6229"/>
</g>
<!-- NCCc1ccc(c(c1)O)O&#45;&gt;NCCc1ccc(cc1)O -->
<g id="edge27" class="edge">
<title>NCCc1ccc(c(c1)O)O&#45;&gt;NCCc1ccc(cc1)O</title>
<path fill="none" stroke="#000000" d="M995.5558,-1410.687C1001.3525,-1400.3769 1007.2555,-1389.8776 1013.0776,-1379.5222"/>
<polygon fill="#000000" stroke="#000000" points="1015.5673,-1375.094 1015.0781,-1380.5551 1014.3421,-1377.2732 1013.1169,-1379.4524 1013.1169,-1379.4524 1013.1169,-1379.4524 1014.3421,-1377.2732 1011.1556,-1378.3496 1015.5673,-1375.094 1015.5673,-1375.094"/>
</g>
<!-- CCc1cccc(c1)O&#45;&gt;CCc1cccc(c1)O -->
<g id="edge33" class="edge">
<title>CCc1cccc(c1)O&#45;&gt;CCc1cccc(c1)O</title>
<path fill="none" stroke="#000000" d="M1302.637,-1090.5957C1313.4755,-1084.5853 1320.5,-1073.8867 1320.5,-1058.5 1320.5,-1045.277 1315.3122,-1035.5164 1306.9743,-1029.218"/>
<polygon fill="#000000" stroke="#000000" points="1302.637,-1026.4043 1308.0562,-1027.2379 1304.7343,-1027.7649 1306.8316,-1029.1255 1306.8316,-1029.1255 1306.8316,-1029.1255 1304.7343,-1027.7649 1305.6071,-1031.0131 1302.637,-1026.4043 1302.637,-1026.4043"/>
</g>
<!-- NCCC=CC=CC&#45;&gt;CCC=CC=CC -->
<g id="edge54" class="edge">
<title>NCCC=CC=CC&#45;&gt;CCC=CC=CC</title>
<path fill="none" stroke="#000000" d="M710.671,-801.8738C698.1641,-767.1749 681.8818,-722.0014 669.0483,-686.3961"/>
<polygon fill="#000000" stroke="#000000" points="667.3412,-681.66 671.1534,-685.6008 668.1889,-684.0119 669.0367,-686.3638 669.0367,-686.3638 669.0367,-686.3638 668.1889,-684.0119 666.92,-687.1267 667.3412,-681.66 667.3412,-681.66"/>
</g>
<!-- CNCCc1ccc(c(c1)O)O&#45;&gt;CNCCC=CC=C(CO)O -->
<g id="edge23" class="edge">
<title>CNCCc1ccc(c(c1)O)O&#45;&gt;CNCCC=CC=C(CO)O</title>
<path fill="none" stroke="#000000" d="M619,-1673.8843C619,-1639.3227 619,-1600.0624 619,-1568.5789"/>
<polygon fill="#000000" stroke="#000000" points="619,-1563.1954 621.2501,-1568.1953 619,-1565.6954 619.0001,-1568.1954 619.0001,-1568.1954 619.0001,-1568.1954 619,-1565.6954 616.7501,-1568.1954 619,-1563.1954 619,-1563.1954"/>
</g>
<!-- CNCCc1ccc(c(c1)O)O&#45;&gt;NCCc1ccc(c(c1)O)O -->
<g id="edge22" class="edge">
<title>CNCCc1ccc(c(c1)O)O&#45;&gt;NCCc1ccc(c(c1)O)O</title>
<path fill="none" stroke="#000000" d="M702.3987,-1673.7546C713.7485,-1663.4139 725.4657,-1653.2429 737,-1644 773.1406,-1615.039 815.5229,-1586.2351 852.1871,-1562.757"/>
<polygon fill="#000000" stroke="#000000" points="856.6292,-1559.9205 853.6259,-1564.5078 854.5221,-1561.266 852.415,-1562.6115 852.415,-1562.6115 852.415,-1562.6115 854.5221,-1561.266 851.2041,-1560.7151 856.6292,-1559.9205 856.6292,-1559.9205"/>
</g>
</g>
</svg>
