<?xml version="1.0" encoding="UTF-8" standalone="no"?>
<!DOCTYPE svg PUBLIC "-//W3C//DTD SVG 1.1//EN"
 "http://www.w3.org/Graphics/SVG/1.1/DTD/svg11.dtd">
<!-- Generated by graphviz version 2.40.1 (20161225.0304)
 -->
<!-- Title: %3 Pages: 1 -->
<svg width="502pt" height="332pt"
 viewBox="0.00 0.00 502.23 332.00" xmlns="http://www.w3.org/2000/svg" xmlns:xlink="http://www.w3.org/1999/xlink">
<g id="graph0" class="graph" transform="scale(1 1) rotate(0) translate(4 328)">
<title>%3</title>
<polygon fill="#ffffff" stroke="transparent" points="-4,4 -4,-328 498.2288,-328 498.2288,4 -4,4"/>
<!-- epinephrine -->
<g id="node1" class="node">
<title>epinephrine</title>
<ellipse fill="#ffd700" stroke="#000000" cx="442.2334" cy="-234" rx="51.9908" ry="18"/>
<text text-anchor="middle" x="442.2334" y="-230.3" font-family="Times,serif" font-size="14.00" fill="#000000">epinephrine</text>
</g>
<!-- ine -->
<g id="node9" class="node">
<title>ine</title>
<ellipse fill="none" stroke="#000000" cx="308.2334" cy="-162" rx="27" ry="18"/>
<text text-anchor="middle" x="308.2334" y="-158.3" font-family="Times,serif" font-size="14.00" fill="#000000">ine</text>
</g>
<!-- epinephrine&#45;&gt;ine -->
<g id="edge7" class="edge">
<title>epinephrine&#45;&gt;ine</title>
<path fill="none" stroke="#000000" d="M413.8155,-218.7307C390.1917,-206.0373 356.8604,-188.1279 334.003,-175.8464"/>
<polygon fill="#000000" stroke="#000000" points="329.5772,-173.4683 335.0467,-173.8529 331.7795,-174.6516 333.9817,-175.8349 333.9817,-175.8349 333.9817,-175.8349 331.7795,-174.6516 332.9167,-177.817 329.5772,-173.4683 329.5772,-173.4683"/>
</g>
<!-- h -->
<g id="node11" class="node">
<title>h</title>
<ellipse fill="none" stroke="#000000" cx="359.2334" cy="-90" rx="27" ry="18"/>
<text text-anchor="middle" x="359.2334" y="-86.3" font-family="Times,serif" font-size="14.00" fill="#000000">h</text>
</g>
<!-- epinephrine&#45;&gt;h -->
<g id="edge8" class="edge">
<title>epinephrine&#45;&gt;h</title>
<path fill="none" stroke="#000000" d="M432.056,-216.3428C416.7706,-189.8236 387.9315,-139.7895 371.5042,-111.289"/>
<polygon fill="#000000" stroke="#000000" points="368.9782,-106.9066 373.4245,-110.115 370.2267,-109.0726 371.4751,-111.2386 371.4751,-111.2386 371.4751,-111.2386 370.2267,-109.0726 369.5258,-112.3622 368.9782,-106.9066 368.9782,-106.9066"/>
</g>
<!-- melatonin -->
<g id="node2" class="node">
<title>melatonin</title>
<ellipse fill="#ffd700" stroke="#000000" cx="66.2334" cy="-234" rx="46.2923" ry="18"/>
<text text-anchor="middle" x="66.2334" y="-230.3" font-family="Times,serif" font-size="14.00" fill="#000000">melatonin</text>
</g>
<!-- t -->
<g id="node6" class="node">
<title>t</title>
<ellipse fill="none" stroke="#000000" cx="215.2334" cy="-90" rx="27" ry="18"/>
<text text-anchor="middle" x="215.2334" y="-86.3" font-family="Times,serif" font-size="14.00" fill="#000000">t</text>
</g>
<!-- melatonin&#45;&gt;t -->
<g id="edge1" class="edge">
<title>melatonin&#45;&gt;t</title>
<path fill="none" stroke="#000000" d="M70.5362,-216.0572C76.082,-196.2673 87.4473,-164.5153 107.2334,-144 107.2827,-143.9489 156.8543,-119.1725 188.8117,-103.2026"/>
<polygon fill="#000000" stroke="#000000" points="193.391,-100.9143 189.9241,-105.1621 191.1547,-102.0318 188.9183,-103.1494 188.9183,-103.1494 188.9183,-103.1494 191.1547,-102.0318 187.9125,-101.1367 193.391,-100.9143 193.391,-100.9143"/>
</g>
<!-- onin -->
<g id="node7" class="node">
<title>onin</title>
<ellipse fill="none" stroke="#000000" cx="143.2334" cy="-162" rx="27" ry="18"/>
<text text-anchor="middle" x="143.2334" y="-158.3" font-family="Times,serif" font-size="14.00" fill="#000000">onin</text>
</g>
<!-- melatonin&#45;&gt;onin -->
<g id="edge2" class="edge">
<title>melatonin&#45;&gt;onin</title>
<path fill="none" stroke="#000000" d="M84.0923,-217.3008C96.0098,-206.1571 111.6737,-191.5104 123.8869,-180.0902"/>
<polygon fill="#000000" stroke="#000000" points="127.5585,-176.6571 125.4431,-181.7155 125.7324,-178.3646 123.9064,-180.0721 123.9064,-180.0721 123.9064,-180.0721 125.7324,-178.3646 122.3696,-178.4286 127.5585,-176.6571 127.5585,-176.6571"/>
</g>
<!-- norepinephrine -->
<g id="node3" class="node">
<title>norepinephrine</title>
<ellipse fill="#ffd700" stroke="#000000" cx="217.2334" cy="-306" rx="63.8893" ry="18"/>
<text text-anchor="middle" x="217.2334" y="-302.3" font-family="Times,serif" font-size="14.00" fill="#000000">norepinephrine</text>
</g>
<!-- norepinephrine&#45;&gt;epinephrine -->
<g id="edge6" class="edge">
<title>norepinephrine&#45;&gt;epinephrine</title>
<path fill="none" stroke="#000000" d="M259.5542,-292.4574C299.4326,-279.6963 358.8992,-260.667 399.0553,-247.817"/>
<polygon fill="#000000" stroke="#000000" points="403.8541,-246.2814 399.7777,-249.9483 401.473,-247.0434 399.092,-247.8053 399.092,-247.8053 399.092,-247.8053 401.473,-247.0434 398.4062,-245.6624 403.8541,-246.2814 403.8541,-246.2814"/>
</g>
<!-- o -->
<g id="node10" class="node">
<title>o</title>
<ellipse fill="none" stroke="#000000" cx="143.2334" cy="-90" rx="27" ry="18"/>
<text text-anchor="middle" x="143.2334" y="-86.3" font-family="Times,serif" font-size="14.00" fill="#000000">o</text>
</g>
<!-- norepinephrine&#45;&gt;o -->
<g id="edge5" class="edge">
<title>norepinephrine&#45;&gt;o</title>
<path fill="none" stroke="#000000" d="M158.9101,-298.6781C104.5435,-290.5132 29.2182,-275.3069 11.2334,-252 -32.0305,-195.9333 67.4322,-131.1789 117.1147,-103.5843"/>
<polygon fill="#000000" stroke="#000000" points="121.7608,-101.0314 118.4622,-105.4112 119.5697,-102.2353 117.3787,-103.4392 117.3787,-103.4392 117.3787,-103.4392 119.5697,-102.2353 116.2952,-101.4673 121.7608,-101.0314 121.7608,-101.0314"/>
</g>
<!-- triiodothyronine -->
<g id="node4" class="node">
<title>triiodothyronine</title>
<ellipse fill="#ffd700" stroke="#000000" cx="198.2334" cy="-234" rx="67.6881" ry="18"/>
<text text-anchor="middle" x="198.2334" y="-230.3" font-family="Times,serif" font-size="14.00" fill="#000000">triiodothyronine</text>
</g>
<!-- triiodothyronine&#45;&gt;onin -->
<g id="edge10" class="edge">
<title>triiodothyronine&#45;&gt;onin</title>
<path fill="none" stroke="#000000" d="M184.6379,-216.2022C176.7747,-205.9086 166.8533,-192.9206 158.6938,-182.239"/>
<polygon fill="#000000" stroke="#000000" points="155.5465,-178.119 160.3698,-180.7265 157.0642,-180.1057 158.5818,-182.0924 158.5818,-182.0924 158.5818,-182.0924 157.0642,-180.1057 156.7938,-183.4582 155.5465,-178.119 155.5465,-178.119"/>
</g>
<!-- thyro -->
<g id="node8" class="node">
<title>thyro</title>
<ellipse fill="none" stroke="#000000" cx="217.2334" cy="-162" rx="29.4969" ry="18"/>
<text text-anchor="middle" x="217.2334" y="-158.3" font-family="Times,serif" font-size="14.00" fill="#000000">thyro</text>
</g>
<!-- triiodothyronine&#45;&gt;thyro -->
<g id="edge9" class="edge">
<title>triiodothyronine&#45;&gt;thyro</title>
<path fill="none" stroke="#000000" d="M203.0279,-215.8314C205.4994,-206.4659 208.5392,-194.9464 211.1719,-184.9701"/>
<polygon fill="#000000" stroke="#000000" points="212.5063,-179.9134 213.406,-185.322 211.8684,-182.3307 211.2304,-184.7479 211.2304,-184.7479 211.2304,-184.7479 211.8684,-182.3307 209.0549,-184.1738 212.5063,-179.9134 212.5063,-179.9134"/>
</g>
<!-- triiodothyronine&#45;&gt;ine -->
<g id="edge11" class="edge">
<title>triiodothyronine&#45;&gt;ine</title>
<path fill="none" stroke="#000000" d="M223.7461,-217.3008C242.0008,-205.3522 266.4085,-189.3763 284.2951,-177.6687"/>
<polygon fill="#000000" stroke="#000000" points="288.6944,-174.7892 285.7431,-179.4101 286.6026,-176.1584 284.5109,-177.5275 284.5109,-177.5275 284.5109,-177.5275 286.6026,-176.1584 283.2786,-175.6449 288.6944,-174.7892 288.6944,-174.7892"/>
</g>
<!-- thyroxine -->
<g id="node5" class="node">
<title>thyroxine</title>
<ellipse fill="#ffd700" stroke="#000000" cx="328.2334" cy="-234" rx="44.393" ry="18"/>
<text text-anchor="middle" x="328.2334" y="-230.3" font-family="Times,serif" font-size="14.00" fill="#000000">thyroxine</text>
</g>
<!-- thyroxine&#45;&gt;thyro -->
<g id="edge3" class="edge">
<title>thyroxine&#45;&gt;thyro</title>
<path fill="none" stroke="#000000" d="M304.6932,-218.7307C286.2717,-206.7816 260.7243,-190.2103 241.9968,-178.0627"/>
<polygon fill="#000000" stroke="#000000" points="237.391,-175.0752 242.8103,-175.9085 239.4884,-176.4357 241.5858,-177.7962 241.5858,-177.7962 241.5858,-177.7962 239.4884,-176.4357 240.3614,-179.6838 237.391,-175.0752 237.391,-175.0752"/>
</g>
<!-- thyroxine&#45;&gt;ine -->
<g id="edge4" class="edge">
<title>thyroxine&#45;&gt;ine</title>
<path fill="none" stroke="#000000" d="M323.1866,-215.8314C320.5851,-206.4659 317.3852,-194.9464 314.614,-184.9701"/>
<polygon fill="#000000" stroke="#000000" points="313.2094,-179.9134 316.7156,-184.1288 313.8785,-182.3222 314.5477,-184.731 314.5477,-184.731 314.5477,-184.731 313.8785,-182.3222 312.3797,-185.3332 313.2094,-179.9134 313.2094,-179.9134"/>
</g>
<g id="node13" class="node">
<title></title>
<ellipse fill="none" stroke="#000000" cx="251.2334" cy="-18" rx="27" ry="18"/>
</g>
<!-- t&#45;&gt; -->
<g id="edge21" class="edge">
<title>t&#45;&gt;</title>
<path fill="none" stroke="#000000" d="M223.948,-72.5708C228.8564,-62.7541 235.0333,-50.4003 240.2681,-39.9306"/>
<polygon fill="#000000" stroke="#000000" points="242.5991,-35.2687 242.3754,-40.7471 241.481,-37.5048 240.363,-39.7408 240.363,-39.7408 240.363,-39.7408 241.481,-37.5048 238.3505,-38.7346 242.5991,-35.2687 242.5991,-35.2687"/>
</g>
<!-- onin&#45;&gt;o -->
<g id="edge12" class="edge">
<title>onin&#45;&gt;o</title>
<path fill="none" stroke="#000000" d="M143.2334,-143.8314C143.2334,-134.6078 143.2334,-123.295 143.2334,-113.4246"/>
<polygon fill="#000000" stroke="#000000" points="143.2334,-108.4133 145.4835,-113.4132 143.2335,-110.9133 143.2335,-113.4133 143.2335,-113.4133 143.2335,-113.4133 143.2335,-110.9133 140.9835,-113.4133 143.2334,-108.4133 143.2334,-108.4133"/>
</g>
<!-- in -->
<g id="node12" class="node">
<title>in</title>
<ellipse fill="none" stroke="#000000" cx="287.2334" cy="-90" rx="27" ry="18"/>
<text text-anchor="middle" x="287.2334" y="-86.3" font-family="Times,serif" font-size="14.00" fill="#000000">in</text>
</g>
<!-- onin&#45;&gt;in -->
<g id="edge13" class="edge">
<title>onin&#45;&gt;in</title>
<path fill="none" stroke="#000000" d="M165.1039,-151.0647C190.838,-138.1977 233.5336,-116.8499 261.0179,-103.1078"/>
<polygon fill="#000000" stroke="#000000" points="265.6289,-100.8022 262.163,-105.0508 263.3929,-101.9203 261.1568,-103.0384 261.1568,-103.0384 261.1568,-103.0384 263.3929,-101.9203 260.1505,-101.0259 265.6289,-100.8022 265.6289,-100.8022"/>
</g>
<!-- thyro&#45;&gt;t -->
<g id="edge16" class="edge">
<title>thyro&#45;&gt;t</title>
<path fill="none" stroke="#000000" d="M216.7287,-143.8314C216.4725,-134.6078 216.1583,-123.295 215.8841,-113.4246"/>
<polygon fill="#000000" stroke="#000000" points="215.7449,-108.4133 218.133,-113.3488 215.8144,-110.9123 215.8838,-113.4113 215.8838,-113.4113 215.8838,-113.4113 215.8144,-110.9123 213.6347,-113.4739 215.7449,-108.4133 215.7449,-108.4133"/>
</g>
<!-- thyro&#45;&gt;o -->
<g id="edge17" class="edge">
<title>thyro&#45;&gt;o</title>
<path fill="none" stroke="#000000" d="M201.5399,-146.7307C190.0823,-135.5827 174.4896,-120.4115 162.3119,-108.5628"/>
<polygon fill="#000000" stroke="#000000" points="158.6505,-105.0004 163.8033,-106.8746 160.4424,-106.7438 162.2342,-108.4873 162.2342,-108.4873 162.2342,-108.4873 160.4424,-106.7438 160.6651,-110.0999 158.6505,-105.0004 158.6505,-105.0004"/>
</g>
<!-- thyro&#45;&gt;h -->
<g id="edge18" class="edge">
<title>thyro&#45;&gt;h</title>
<path fill="none" stroke="#000000" d="M240.0482,-150.432C265.3942,-137.5804 306.2523,-116.8637 332.9267,-103.3386"/>
<polygon fill="#000000" stroke="#000000" points="337.408,-101.0664 333.9661,-105.3344 335.1783,-102.197 332.9485,-103.3276 332.9485,-103.3276 332.9485,-103.3276 335.1783,-102.197 331.931,-101.3208 337.408,-101.0664 337.408,-101.0664"/>
</g>
<!-- ine&#45;&gt;in -->
<g id="edge14" class="edge">
<title>ine&#45;&gt;in</title>
<path fill="none" stroke="#000000" d="M303.0424,-144.2022C300.2659,-134.6829 296.8174,-122.8593 293.8503,-112.6865"/>
<polygon fill="#000000" stroke="#000000" points="292.4375,-107.8425 295.9976,-112.0125 293.1375,-110.2425 293.8376,-112.6426 293.8376,-112.6426 293.8376,-112.6426 293.1375,-110.2425 291.6776,-113.2726 292.4375,-107.8425 292.4375,-107.8425"/>
</g>
<!-- o&#45;&gt; -->
<g id="edge19" class="edge">
<title>o&#45;&gt;</title>
<path fill="none" stroke="#000000" d="M162.5417,-77.1278C180.8175,-64.9439 208.2872,-46.6308 227.8073,-33.6174"/>
<polygon fill="#000000" stroke="#000000" points="232.0923,-30.7607 229.1802,-35.4064 230.0122,-32.1475 227.9321,-33.5343 227.9321,-33.5343 227.9321,-33.5343 230.0122,-32.1475 226.684,-31.6621 232.0923,-30.7607 232.0923,-30.7607"/>
</g>
<!-- h&#45;&gt; -->
<g id="edge20" class="edge">
<title>h&#45;&gt;</title>
<path fill="none" stroke="#000000" d="M339.9252,-77.1278C321.6493,-64.9439 294.1797,-46.6308 274.6596,-33.6174"/>
<polygon fill="#000000" stroke="#000000" points="270.3745,-30.7607 275.7829,-31.6621 272.4546,-32.1475 274.5348,-33.5343 274.5348,-33.5343 274.5348,-33.5343 272.4546,-32.1475 273.2867,-35.4064 270.3745,-30.7607 270.3745,-30.7607"/>
</g>
<!-- in&#45;&gt; -->
<g id="edge15" class="edge">
<title>in&#45;&gt;</title>
<path fill="none" stroke="#000000" d="M278.5188,-72.5708C273.6105,-62.7541 267.4336,-50.4003 262.1987,-39.9306"/>
<polygon fill="#000000" stroke="#000000" points="259.8678,-35.2687 264.1164,-38.7346 260.9858,-37.5048 262.1039,-39.7408 262.1039,-39.7408 262.1039,-39.7408 260.9858,-37.5048 260.0914,-40.7471 259.8678,-35.2687 259.8678,-35.2687"/>
</g>
</g>
</svg>
