<?xml version="1.0"?>
<svg xmlns="http://www.w3.org/2000/svg"
xmlns:xlink="http://www.w3.org/1999/xlink" xmlns:cml="http://www.xml-cml.org/schema" width="314.759" height="296.542" x="0" y="0" font-family="sans-serif" stroke="rgb(0,0,0)" stroke-width="1"  stroke-linecap="round">
<rect x="0%" y="0%" width="100%" height="100%" stroke-width="0" fill="rgb(255,255,255)"  />
<line x1="112.8" y1="190.0" x2="136.2" y2="176.5" stroke="rgb(0,0,0)"  stroke-width="1.0"/>
<line x1="136.2" y1="176.5" x2="136.2" y2="136.5" stroke="rgb(0,0,0)"  stroke-width="1.0"/>
<line x1="101.6" y1="76.5" x2="112.5" y2="51.9" stroke="rgb(0,0,0)"  stroke-width="1.0"/>
<line x1="170.8" y1="116.5" x2="205.5" y2="136.5" stroke="rgb(0,0,0)"  stroke-width="1.0"/>
<line x1="205.5" y1="136.5" x2="205.5" y2="176.5" stroke="rgb(0,0,0)"  stroke-width="1.0"/>
<line x1="205.5" y1="176.5" x2="240.1" y2="196.5" stroke="rgb(0,0,0)"  stroke-width="1.0"/>
<line x1="240.1" y1="196.5" x2="240.1" y2="236.5" stroke="rgb(0,0,0)"  stroke-width="1.0"/>
<line x1="241.6" y1="239.1" x2="218.2" y2="252.6" stroke="rgb(0,0,0)"  stroke-width="1.0"/>
<line x1="238.6" y1="233.9" x2="215.2" y2="247.4" stroke="rgb(0,0,0)"  stroke-width="1.0"/>
<line x1="240.1" y1="236.5" x2="263.5" y2="250.0" stroke="rgb(0,0,0)"  stroke-width="1.0"/>
<line x1="205.5" y1="136.5" x2="228.9" y2="123.0" stroke="rgb(0,0,0)"  stroke-width="1.0"/>
<line x1="40.0" y1="96.5" x2="63.5" y2="128.9" stroke="rgb(0,0,0)"  stroke-width="1.0"/>
<line x1="63.5" y1="128.9" x2="101.6" y2="116.5" stroke="rgb(0,0,0)"  stroke-width="1.0"/>
<line x1="101.6" y1="116.5" x2="101.6" y2="76.5" stroke="rgb(0,0,0)"  stroke-width="1.0"/>
<line x1="101.6" y1="76.5" x2="63.5" y2="64.2" stroke="rgb(0,0,0)"  stroke-width="1.0"/>
<line x1="63.5" y1="64.2" x2="40.0" y2="96.5" stroke="rgb(0,0,0)"  stroke-width="1.0"/>
<line x1="136.2" y1="136.5" x2="170.8" y2="116.5" stroke="rgb(0,0,0)"  stroke-width="1.0"/>
<line x1="170.8" y1="116.5" x2="170.8" y2="76.5" stroke="rgb(0,0,0)"  stroke-width="1.0"/>
<line x1="170.8" y1="76.5" x2="136.2" y2="56.5" stroke="rgb(0,0,0)"  stroke-width="1.0"/>
<line x1="136.2" y1="56.5" x2="101.6" y2="76.5" stroke="rgb(0,0,0)"  stroke-width="1.0"/>
<line x1="101.6" y1="116.5" x2="136.2" y2="136.5" stroke="rgb(0,0,0)"  stroke-width="1.0"/>
<text x="75.553671" y="204.541818" fill="rgb(102,102,102)"  stroke="rgb(102,102,102)" stroke-width="1" font-size="16" >H</text>
<text x="87.553671" y="208.221818" fill="rgb(102,102,102)"  stroke="rgb(102,102,102)" stroke-width="1" font-size="13" >3</text>
<text x="94.053671" y="204.541818" fill="rgb(102,102,102)"  stroke="rgb(102,102,102)" stroke-width="1" font-size="16" >C</text>
<text x="113.823136" y="48.000000" fill="rgb(102,102,102)"  stroke="rgb(102,102,102)" stroke-width="1" font-size="16" >CH</text>
<text x="137.823136" y="51.680000" fill="rgb(102,102,102)"  stroke="rgb(102,102,102)" stroke-width="1" font-size="13" >3</text>
<text x="199.476719" y="264.541818" fill="rgb(255,12,12)"  stroke="rgb(255,12,12)" stroke-width="1" font-size="16" >O</text>
<text x="270.758752" y="264.541818" fill="rgb(102,102,102)"  stroke="rgb(102,102,102)" stroke-width="1" font-size="16" >CH</text>
<text x="294.758752" y="268.221818" fill="rgb(102,102,102)"  stroke="rgb(102,102,102)" stroke-width="1" font-size="13" >3</text>
<text x="236.117735" y="124.541818" fill="rgb(102,102,102)"  stroke="rgb(102,102,102)" stroke-width="1" font-size="16" >CH</text>
<text x="260.117735" y="128.221818" fill="rgb(102,102,102)"  stroke="rgb(102,102,102)" stroke-width="1" font-size="13" >3</text>
<text font-size="18.000000" fill ="black" font-family="sans-serif"
x="10.000000" y="20.000000" ></text>
<title> - OBDepict</title>
</svg>
