<?xml version="1.0"?>
<svg xmlns="http://www.w3.org/2000/svg"
xmlns:xlink="http://www.w3.org/1999/xlink" xmlns:cml="http://www.xml-cml.org/schema" width="458.564" height="280" x="0" y="0" font-family="sans-serif" stroke="rgb(0,0,0)" stroke-width="1"  stroke-linecap="round">
<rect x="0%" y="0%" width="100%" height="100%" stroke-width="0" fill="rgb(255,255,255)"  />
<line x1="120.5" y1="46.5" x2="143.9" y2="60.0" stroke="rgb(0,0,0)"  stroke-width="1.0"/>
<line x1="143.9" y1="60.0" x2="143.9" y2="87.0" stroke="rgb(0,0,0)"  stroke-width="1.0"/>
<line x1="155.2" y1="106.5" x2="178.6" y2="120.0" stroke="rgb(0,0,0)"  stroke-width="1.0"/>
<line x1="178.6" y1="120.0" x2="178.6" y2="160.0" stroke="rgb(0,0,0)"  stroke-width="1.0"/>
<line x1="178.6" y1="160.0" x2="143.9" y2="180.0" stroke="rgb(0,0,0)"  stroke-width="1.0"/>
<line x1="74.6" y1="180.0" x2="51.3" y2="166.5" stroke="rgb(0,0,0)"  stroke-width="1.0"/>
<line x1="74.6" y1="220.0" x2="51.3" y2="233.5" stroke="rgb(0,0,0)"  stroke-width="1.0"/>
<line x1="332.1" y1="63.4" x2="318.6" y2="40.0" stroke="rgb(0,0,0)"  stroke-width="1.0"/>
<line x1="318.6" y1="43.0" x2="278.6" y2="37.0" stroke="rgb(0,0,0)"  stroke-width="1.0"/>
<line x1="318.6" y1="37.0" x2="278.6" y2="43.0" stroke="rgb(0,0,0)"  stroke-width="1.0"/>
<line x1="278.6" y1="40.0" x2="258.6" y2="74.6" stroke="rgb(0,0,0)"  stroke-width="1.0"/>
<line x1="258.6" y1="74.6" x2="231.6" y2="74.6" stroke="rgb(0,0,0)"  stroke-width="1.0"/>
<line x1="405.6" y1="40.0" x2="391.6" y2="40.0" stroke="rgb(0,0,0)"  stroke-width="1.0"/>
<line x1="143.9" y1="180.0" x2="143.9" y2="220.0" stroke="rgb(0,0,0)"  stroke-width="1.0"/>
<line x1="136.7" y1="186.0" x2="136.7" y2="214.0" stroke="rgb(0,0,0)"  stroke-width="1.0"/>
<line x1="143.9" y1="220.0" x2="109.3" y2="240.0" stroke="rgb(0,0,0)"  stroke-width="1.0"/>
<line x1="109.3" y1="240.0" x2="74.6" y2="220.0" stroke="rgb(0,0,0)"  stroke-width="1.0"/>
<line x1="107.7" y1="230.8" x2="83.4" y2="216.8" stroke="rgb(0,0,0)"  stroke-width="1.0"/>
<line x1="74.6" y1="220.0" x2="74.6" y2="180.0" stroke="rgb(0,0,0)"  stroke-width="1.0"/>
<line x1="74.6" y1="180.0" x2="109.3" y2="160.0" stroke="rgb(0,0,0)"  stroke-width="1.0"/>
<line x1="83.4" y1="183.2" x2="107.7" y2="169.2" stroke="rgb(0,0,0)"  stroke-width="1.0"/>
<line x1="109.3" y1="160.0" x2="143.9" y2="180.0" stroke="rgb(0,0,0)"  stroke-width="1.0"/>
<text x="83.282032" y="48.000000" fill="rgb(102,102,102)"  stroke="rgb(102,102,102)" stroke-width="1" font-size="16" >H</text>
<text x="95.282032" y="51.680000" fill="rgb(102,102,102)"  stroke="rgb(102,102,102)" stroke-width="1" font-size="13" >3</text>
<text x="101.782032" y="48.000000" fill="rgb(102,102,102)"  stroke="rgb(102,102,102)" stroke-width="1" font-size="16" >C</text>
<text x="125.923048" y="108.000000" fill="rgb(12,12,255)"  stroke="rgb(12,12,255)" stroke-width="1" font-size="16" >HN</text>
<text x="22.000000" y="168.000000" fill="rgb(255,12,12)"  stroke="rgb(255,12,12)" stroke-width="1" font-size="16" >HO</text>
<text x="22.000000" y="248.000000" fill="rgb(255,12,12)"  stroke="rgb(255,12,12)" stroke-width="1" font-size="16" >HO</text>
<text x="334.564065" y="82.641016" fill="rgb(102,102,102)"  stroke="rgb(102,102,102)" stroke-width="1" font-size="16" >CH</text>
<text x="358.564065" y="86.321016" fill="rgb(102,102,102)"  stroke="rgb(102,102,102)" stroke-width="1" font-size="13" >3</text>
<text x="200.564065" y="82.641016" fill="rgb(255,12,12)"  stroke="rgb(255,12,12)" stroke-width="1" font-size="16" >HO</text>
<text x="414.564065" y="48.000000" fill="rgb(102,102,102)"  stroke="rgb(102,102,102)" stroke-width="1" font-size="16" >CH</text>
<text x="438.564065" y="51.680000" fill="rgb(102,102,102)"  stroke="rgb(102,102,102)" stroke-width="1" font-size="13" >3</text>
<text x="352.564065" y="48.000000" fill="rgb(102,102,102)"  stroke="rgb(102,102,102)" stroke-width="1" font-size="16" >H</text>
<text x="364.564065" y="51.680000" fill="rgb(102,102,102)"  stroke="rgb(102,102,102)" stroke-width="1" font-size="13" >3</text>
<text x="371.064065" y="48.000000" fill="rgb(102,102,102)"  stroke="rgb(102,102,102)" stroke-width="1" font-size="16" >C</text>
<text font-size="18.000000" fill ="black" font-family="sans-serif"
x="10.000000" y="20.000000" ></text>
<title> - OBDepict</title>
</svg>
