<?xml version="1.0"?>
<svg xmlns="http://www.w3.org/2000/svg"
xmlns:xlink="http://www.w3.org/1999/xlink" xmlns:cml="http://www.xml-cml.org/schema" width="453.205" height="320" x="0" y="0" font-family="sans-serif" stroke="rgb(0,0,0)" stroke-width="1"  stroke-linecap="round">
<rect x="0%" y="0%" width="100%" height="100%" stroke-width="0" fill="rgb(255,255,255)"  />
<line x1="201.9" y1="53.5" x2="178.6" y2="40.0" stroke="rgb(0,0,0)"  stroke-width="1.0"/>
<line x1="178.6" y1="40.0" x2="155.2" y2="53.5" stroke="rgb(0,0,0)"  stroke-width="1.0"/>
<line x1="143.9" y1="73.0" x2="143.9" y2="100.0" stroke="rgb(0,0,0)"  stroke-width="1.0"/>
<line x1="143.9" y1="100.0" x2="109.3" y2="120.0" stroke="rgb(0,0,0)"  stroke-width="1.0"/>
<line x1="109.3" y1="120.0" x2="109.3" y2="160.0" stroke="rgb(0,0,0)"  stroke-width="1.0"/>
<line x1="74.6" y1="220.0" x2="51.3" y2="233.5" stroke="rgb(0,0,0)"  stroke-width="1.0"/>
<line x1="109.3" y1="240.0" x2="109.3" y2="267.0" stroke="rgb(0,0,0)"  stroke-width="1.0"/>
<line x1="326.7" y1="63.4" x2="313.2" y2="40.0" stroke="rgb(0,0,0)"  stroke-width="1.0"/>
<line x1="313.2" y1="43.0" x2="273.2" y2="37.0" stroke="rgb(0,0,0)"  stroke-width="1.0"/>
<line x1="313.2" y1="37.0" x2="273.2" y2="43.0" stroke="rgb(0,0,0)"  stroke-width="1.0"/>
<line x1="273.2" y1="40.0" x2="259.7" y2="63.4" stroke="rgb(0,0,0)"  stroke-width="1.0"/>
<line x1="400.2" y1="40.0" x2="386.2" y2="40.0" stroke="rgb(0,0,0)"  stroke-width="1.0"/>
<line x1="109.3" y1="160.0" x2="143.9" y2="180.0" stroke="rgb(0,0,0)"  stroke-width="1.0"/>
<line x1="110.9" y1="169.2" x2="135.1" y2="183.2" stroke="rgb(0,0,0)"  stroke-width="1.0"/>
<line x1="143.9" y1="180.0" x2="143.9" y2="220.0" stroke="rgb(0,0,0)"  stroke-width="1.0"/>
<line x1="143.9" y1="220.0" x2="109.3" y2="240.0" stroke="rgb(0,0,0)"  stroke-width="1.0"/>
<line x1="135.1" y1="216.8" x2="110.9" y2="230.8" stroke="rgb(0,0,0)"  stroke-width="1.0"/>
<line x1="109.3" y1="240.0" x2="74.6" y2="220.0" stroke="rgb(0,0,0)"  stroke-width="1.0"/>
<line x1="74.6" y1="220.0" x2="74.6" y2="180.0" stroke="rgb(0,0,0)"  stroke-width="1.0"/>
<line x1="81.8" y1="214.0" x2="81.8" y2="186.0" stroke="rgb(0,0,0)"  stroke-width="1.0"/>
<line x1="74.6" y1="180.0" x2="109.3" y2="160.0" stroke="rgb(0,0,0)"  stroke-width="1.0"/>
<text x="209.205081" y="68.000000" fill="rgb(102,102,102)"  stroke="rgb(102,102,102)" stroke-width="1" font-size="16" >CH</text>
<text x="233.205081" y="71.680000" fill="rgb(102,102,102)"  stroke="rgb(102,102,102)" stroke-width="1" font-size="13" >3</text>
<text x="125.923048" y="68.000000" fill="rgb(12,12,255)"  stroke="rgb(12,12,255)" stroke-width="1" font-size="16" >HN</text>
<text x="22.000000" y="248.000000" fill="rgb(255,12,12)"  stroke="rgb(255,12,12)" stroke-width="1" font-size="16" >HO</text>
<text x="103.282032" y="288.000000" fill="rgb(255,12,12)"  stroke="rgb(255,12,12)" stroke-width="1" font-size="16" >OH</text>
<text x="329.205081" y="82.641016" fill="rgb(102,102,102)"  stroke="rgb(102,102,102)" stroke-width="1" font-size="16" >CH</text>
<text x="353.205081" y="86.321016" fill="rgb(102,102,102)"  stroke="rgb(102,102,102)" stroke-width="1" font-size="13" >3</text>
<text x="227.205081" y="82.641016" fill="rgb(102,102,102)"  stroke="rgb(102,102,102)" stroke-width="1" font-size="16" >H</text>
<text x="239.205081" y="86.321016" fill="rgb(102,102,102)"  stroke="rgb(102,102,102)" stroke-width="1" font-size="13" >3</text>
<text x="245.705081" y="82.641016" fill="rgb(102,102,102)"  stroke="rgb(102,102,102)" stroke-width="1" font-size="16" >C</text>
<text x="409.205081" y="48.000000" fill="rgb(102,102,102)"  stroke="rgb(102,102,102)" stroke-width="1" font-size="16" >CH</text>
<text x="433.205081" y="51.680000" fill="rgb(102,102,102)"  stroke="rgb(102,102,102)" stroke-width="1" font-size="13" >3</text>
<text x="347.205081" y="48.000000" fill="rgb(102,102,102)"  stroke="rgb(102,102,102)" stroke-width="1" font-size="16" >H</text>
<text x="359.205081" y="51.680000" fill="rgb(102,102,102)"  stroke="rgb(102,102,102)" stroke-width="1" font-size="13" >3</text>
<text x="365.705081" y="48.000000" fill="rgb(102,102,102)"  stroke="rgb(102,102,102)" stroke-width="1" font-size="16" >C</text>
<text font-size="18.000000" fill ="black" font-family="sans-serif"
x="10.000000" y="20.000000" ></text>
<title> - OBDepict</title>
</svg>
