<?xml version="1.0"?>
<svg xmlns="http://www.w3.org/2000/svg"
xmlns:xlink="http://www.w3.org/1999/xlink" xmlns:cml="http://www.xml-cml.org/schema" width="287.846" height="260" x="0" y="0" font-family="sans-serif" stroke="rgb(0,0,0)" stroke-width="1"  stroke-linecap="round">
<rect x="0%" y="0%" width="100%" height="100%" stroke-width="0" fill="rgb(255,255,255)"  />
<line x1="51.3" y1="206.5" x2="74.6" y2="220.0" stroke="rgb(0,0,0)"  stroke-width="1.0"/>
<line x1="74.6" y1="220.0" x2="98.0" y2="206.5" stroke="rgb(0,0,0)"  stroke-width="1.0"/>
<line x1="120.5" y1="206.5" x2="143.9" y2="220.0" stroke="rgb(0,0,0)"  stroke-width="1.0"/>
<line x1="143.9" y1="220.0" x2="178.6" y2="200.0" stroke="rgb(0,0,0)"  stroke-width="1.0"/>
<line x1="178.6" y1="200.0" x2="178.6" y2="160.0" stroke="rgb(0,0,0)"  stroke-width="1.0"/>
<line x1="213.2" y1="100.0" x2="236.6" y2="86.5" stroke="rgb(0,0,0)"  stroke-width="1.0"/>
<line x1="247.8" y1="67.0" x2="247.8" y2="53.0" stroke="rgb(0,0,0)"  stroke-width="1.0"/>
<line x1="178.6" y1="80.0" x2="178.6" y2="53.0" stroke="rgb(0,0,0)"  stroke-width="1.0"/>
<line x1="109.3" y1="187.0" x2="109.3" y2="173.0" stroke="rgb(0,0,0)"  stroke-width="1.0"/>
<line x1="178.6" y1="160.0" x2="143.9" y2="140.0" stroke="rgb(0,0,0)"  stroke-width="1.0"/>
<line x1="177.0" y1="150.8" x2="152.7" y2="136.8" stroke="rgb(0,0,0)"  stroke-width="1.0"/>
<line x1="143.9" y1="140.0" x2="143.9" y2="100.0" stroke="rgb(0,0,0)"  stroke-width="1.0"/>
<line x1="143.9" y1="100.0" x2="178.6" y2="80.0" stroke="rgb(0,0,0)"  stroke-width="1.0"/>
<line x1="152.7" y1="103.2" x2="177.0" y2="89.2" stroke="rgb(0,0,0)"  stroke-width="1.0"/>
<line x1="178.6" y1="80.0" x2="213.2" y2="100.0" stroke="rgb(0,0,0)"  stroke-width="1.0"/>
<line x1="213.2" y1="100.0" x2="213.2" y2="140.0" stroke="rgb(0,0,0)"  stroke-width="1.0"/>
<line x1="206.0" y1="106.0" x2="206.0" y2="134.0" stroke="rgb(0,0,0)"  stroke-width="1.0"/>
<line x1="213.2" y1="140.0" x2="178.6" y2="160.0" stroke="rgb(0,0,0)"  stroke-width="1.0"/>
<text x="14.000000" y="208.000000" fill="rgb(102,102,102)"  stroke="rgb(102,102,102)" stroke-width="1" font-size="16" >H</text>
<text x="26.000000" y="211.680000" fill="rgb(102,102,102)"  stroke="rgb(102,102,102)" stroke-width="1" font-size="13" >3</text>
<text x="32.500000" y="208.000000" fill="rgb(102,102,102)"  stroke="rgb(102,102,102)" stroke-width="1" font-size="16" >C</text>
<text x="103.282032" y="208.000000" fill="rgb(12,12,255)"  stroke="rgb(12,12,255)" stroke-width="1" font-size="16" >N</text>
<text x="241.846097" y="88.000000" fill="rgb(255,12,12)"  stroke="rgb(255,12,12)" stroke-width="1" font-size="16" >O</text>
<text x="243.846097" y="48.000000" fill="rgb(102,102,102)"  stroke="rgb(102,102,102)" stroke-width="1" font-size="16" >CH</text>
<text x="267.846097" y="51.680000" fill="rgb(102,102,102)"  stroke="rgb(102,102,102)" stroke-width="1" font-size="13" >3</text>
<text x="172.564065" y="48.000000" fill="rgb(255,12,12)"  stroke="rgb(255,12,12)" stroke-width="1" font-size="16" >OH</text>
<text x="105.282032" y="168.000000" fill="rgb(102,102,102)"  stroke="rgb(102,102,102)" stroke-width="1" font-size="16" >CH</text>
<text x="129.282032" y="171.680000" fill="rgb(102,102,102)"  stroke="rgb(102,102,102)" stroke-width="1" font-size="13" >3</text>
<text font-size="18.000000" fill ="black" font-family="sans-serif"
x="10.000000" y="20.000000" ></text>
<title> - OBDepict</title>
</svg>
