<?xml version="1.0"?>
<svg xmlns="http://www.w3.org/2000/svg"
xmlns:xlink="http://www.w3.org/1999/xlink" xmlns:cml="http://www.xml-cml.org/schema" width="323.433" height="259.413" x="0" y="0" font-family="sans-serif" stroke="rgb(0,0,0)" stroke-width="1"  stroke-linecap="round">
<rect x="0%" y="0%" width="100%" height="100%" stroke-width="0" fill="rgb(255,255,255)"  />
<line x1="249.4" y1="206.4" x2="249.2" y2="192.4" stroke="rgb(0,0,0)"  stroke-width="1.0"/>
<line x1="109.4" y1="100.7" x2="108.9" y2="73.8" stroke="rgb(0,0,0)"  stroke-width="1.0"/>
<line x1="74.9" y1="121.5" x2="51.4" y2="108.4" stroke="rgb(0,0,0)"  stroke-width="1.0"/>
<line x1="260.3" y1="172.9" x2="283.4" y2="159.4" stroke="rgb(0,0,0)"  stroke-width="1.0"/>
<line x1="283.4" y1="159.4" x2="283.3" y2="119.6" stroke="rgb(0,0,0)"  stroke-width="1.0"/>
<line x1="283.3" y1="119.6" x2="248.5" y2="99.6" stroke="rgb(0,0,0)"  stroke-width="1.0"/>
<line x1="248.5" y1="99.6" x2="214.2" y2="119.6" stroke="rgb(0,0,0)"  stroke-width="1.0"/>
<line x1="247.0" y1="108.8" x2="223.0" y2="122.8" stroke="rgb(0,0,0)"  stroke-width="1.0"/>
<line x1="214.2" y1="119.6" x2="214.2" y2="160.0" stroke="rgb(0,0,0)"  stroke-width="1.0"/>
<line x1="214.2" y1="160.0" x2="237.7" y2="173.1" stroke="rgb(0,0,0)"  stroke-width="1.0"/>
<line x1="74.9" y1="121.5" x2="75.7" y2="161.7" stroke="rgb(0,0,0)"  stroke-width="1.0"/>
<line x1="82.3" y1="127.3" x2="82.8" y2="155.5" stroke="rgb(0,0,0)"  stroke-width="1.0"/>
<line x1="75.7" y1="161.7" x2="110.9" y2="181.1" stroke="rgb(0,0,0)"  stroke-width="1.0"/>
<line x1="110.9" y1="181.1" x2="145.3" y2="160.4" stroke="rgb(0,0,0)"  stroke-width="1.0"/>
<line x1="112.3" y1="171.9" x2="136.5" y2="157.3" stroke="rgb(0,0,0)"  stroke-width="1.0"/>
<line x1="145.3" y1="160.4" x2="144.6" y2="120.2" stroke="rgb(0,0,0)"  stroke-width="1.0"/>
<line x1="144.6" y1="120.2" x2="109.4" y2="100.7" stroke="rgb(0,0,0)"  stroke-width="1.0"/>
<line x1="135.9" y1="123.6" x2="111.2" y2="109.9" stroke="rgb(0,0,0)"  stroke-width="1.0"/>
<line x1="109.4" y1="100.7" x2="74.9" y2="121.5" stroke="rgb(0,0,0)"  stroke-width="1.0"/>
<line x1="145.3" y1="160.4" x2="179.7" y2="180.2" stroke="rgb(0,0,0)"  stroke-width="1.0"/>
<line x1="179.7" y1="180.2" x2="214.2" y2="160.0" stroke="rgb(0,0,0)"  stroke-width="1.0"/>
<line x1="214.2" y1="119.6" x2="179.1" y2="100.0" stroke="rgb(0,0,0)"  stroke-width="1.0"/>
<line x1="179.1" y1="100.0" x2="144.6" y2="120.2" stroke="rgb(0,0,0)"  stroke-width="1.0"/>
<line x1="213.7" y1="40.0" x2="179.4" y2="60.1" stroke="rgb(0,0,0)"  stroke-width="1.0"/>
<line x1="179.4" y1="60.1" x2="179.1" y2="100.0" stroke="rgb(0,0,0)"  stroke-width="1.0"/>
<line x1="186.5" y1="66.1" x2="186.4" y2="94.0" stroke="rgb(0,0,0)"  stroke-width="1.0"/>
<line x1="248.5" y1="99.6" x2="248.2" y2="59.6" stroke="rgb(0,0,0)"  stroke-width="1.0"/>
<line x1="248.2" y1="59.6" x2="213.7" y2="40.0" stroke="rgb(0,0,0)"  stroke-width="1.0"/>
<line x1="239.4" y1="62.9" x2="215.4" y2="49.2" stroke="rgb(0,0,0)"  stroke-width="1.0"/>
<text x="245.522768" y="227.413347" fill="rgb(102,102,102)"  stroke="rgb(102,102,102)" stroke-width="1" font-size="16" >CH</text>
<text x="269.522768" y="231.093347" fill="rgb(102,102,102)"  stroke="rgb(102,102,102)" stroke-width="1" font-size="13" >3</text>
<text x="243.101725" y="187.415563" fill="rgb(12,12,255)"  stroke="rgb(12,12,255)" stroke-width="1" font-size="16" >N</text>
<text x="90.671754" y="68.778994" fill="rgb(255,12,12)"  stroke="rgb(255,12,12)" stroke-width="1" font-size="16" >HO</text>
<text x="22.000000" y="110.123931" fill="rgb(255,12,12)"  stroke="rgb(255,12,12)" stroke-width="1" font-size="16" >HO</text>
<text font-size="18.000000" fill ="black" font-family="sans-serif"
x="10.000000" y="20.000000" ></text>
<title> - OBDepict</title>
</svg>
