<?xml version="1.0"?>
<svg xmlns="http://www.w3.org/2000/svg"
xmlns:xlink="http://www.w3.org/1999/xlink" xmlns:cml="http://www.xml-cml.org/schema" width="357.128" height="200" x="0" y="0" font-family="sans-serif" stroke="rgb(0,0,0)" stroke-width="1"  stroke-linecap="round">
<rect x="0%" y="0%" width="100%" height="100%" stroke-width="0" fill="rgb(255,255,255)"  />
<line x1="213.2" y1="147.0" x2="213.2" y2="133.0" stroke="rgb(0,0,0)"  stroke-width="1.0"/>
<line x1="224.5" y1="113.5" x2="247.8" y2="100.0" stroke="rgb(0,0,0)"  stroke-width="1.0"/>
<line x1="247.8" y1="100.0" x2="282.5" y2="120.0" stroke="rgb(0,0,0)"  stroke-width="1.0"/>
<line x1="282.5" y1="120.0" x2="317.1" y2="100.0" stroke="rgb(0,0,0)"  stroke-width="1.0"/>
<line x1="314.1" y1="100.0" x2="320.1" y2="60.0" stroke="rgb(0,0,0)"  stroke-width="1.0"/>
<line x1="320.1" y1="100.0" x2="314.1" y2="60.0" stroke="rgb(0,0,0)"  stroke-width="1.0"/>
<line x1="317.1" y1="60.0" x2="293.7" y2="46.5" stroke="rgb(0,0,0)"  stroke-width="1.0"/>
<line x1="247.8" y1="100.0" x2="247.8" y2="60.0" stroke="rgb(0,0,0)"  stroke-width="1.0"/>
<line x1="247.8" y1="60.0" x2="213.2" y2="40.0" stroke="rgb(0,0,0)"  stroke-width="1.0"/>
<line x1="214.7" y1="42.6" x2="177.1" y2="57.4" stroke="rgb(0,0,0)"  stroke-width="1.0"/>
<line x1="211.7" y1="37.4" x2="180.1" y2="62.6" stroke="rgb(0,0,0)"  stroke-width="1.0"/>
<line x1="178.6" y1="60.0" x2="143.9" y2="40.0" stroke="rgb(0,0,0)"  stroke-width="1.0"/>
<line x1="145.4" y1="42.6" x2="107.8" y2="57.4" stroke="rgb(0,0,0)"  stroke-width="1.0"/>
<line x1="142.4" y1="37.4" x2="110.8" y2="62.6" stroke="rgb(0,0,0)"  stroke-width="1.0"/>
<line x1="109.3" y1="60.0" x2="74.6" y2="40.0" stroke="rgb(0,0,0)"  stroke-width="1.0"/>
<line x1="74.6" y1="40.0" x2="51.3" y2="53.5" stroke="rgb(0,0,0)"  stroke-width="1.0"/>
<line x1="109.3" y1="60.0" x2="109.3" y2="87.0" stroke="rgb(0,0,0)"  stroke-width="1.0"/>
<line x1="201.9" y1="113.5" x2="178.6" y2="100.0" stroke="rgb(0,0,0)"  stroke-width="1.0"/>
<line x1="178.6" y1="100.0" x2="155.2" y2="113.5" stroke="rgb(0,0,0)"  stroke-width="1.0"/>
<text x="209.205081" y="168.000000" fill="rgb(102,102,102)"  stroke="rgb(102,102,102)" stroke-width="1" font-size="16" >CH</text>
<text x="233.205081" y="171.680000" fill="rgb(102,102,102)"  stroke="rgb(102,102,102)" stroke-width="1" font-size="13" >3</text>
<text x="207.205081" y="128.000000" fill="rgb(12,12,255)"  stroke="rgb(12,12,255)" stroke-width="1" font-size="16" >N</text>
<text x="256.487113" y="48.000000" fill="rgb(102,102,102)"  stroke="rgb(102,102,102)" stroke-width="1" font-size="16" >H</text>
<text x="268.487113" y="51.680000" fill="rgb(102,102,102)"  stroke="rgb(102,102,102)" stroke-width="1" font-size="13" >3</text>
<text x="274.987113" y="48.000000" fill="rgb(102,102,102)"  stroke="rgb(102,102,102)" stroke-width="1" font-size="16" >C</text>
<text x="22.000000" y="68.000000" fill="rgb(255,12,12)"  stroke="rgb(255,12,12)" stroke-width="1" font-size="16" >HO</text>
<text x="103.282032" y="108.000000" fill="rgb(255,12,12)"  stroke="rgb(255,12,12)" stroke-width="1" font-size="16" >OH</text>
<text x="117.923048" y="128.000000" fill="rgb(102,102,102)"  stroke="rgb(102,102,102)" stroke-width="1" font-size="16" >H</text>
<text x="129.923048" y="131.680000" fill="rgb(102,102,102)"  stroke="rgb(102,102,102)" stroke-width="1" font-size="13" >3</text>
<text x="136.423048" y="128.000000" fill="rgb(102,102,102)"  stroke="rgb(102,102,102)" stroke-width="1" font-size="16" >C</text>
<text font-size="18.000000" fill ="black" font-family="sans-serif"
x="10.000000" y="20.000000" ></text>
<title> - OBDepict</title>
</svg>
