<?xml version="1.0"?>
<svg xmlns="http://www.w3.org/2000/svg"
xmlns:xlink="http://www.w3.org/1999/xlink" xmlns:cml="http://www.xml-cml.org/schema" width="322.487" height="300" x="0" y="0" font-family="sans-serif" stroke="rgb(0,0,0)" stroke-width="1"  stroke-linecap="round">
<rect x="0%" y="0%" width="100%" height="100%" stroke-width="0" fill="rgb(255,255,255)"  />
<line x1="51.3" y1="206.5" x2="74.6" y2="220.0" stroke="rgb(0,0,0)"  stroke-width="1.0"/>
<line x1="74.6" y1="220.0" x2="109.3" y2="200.0" stroke="rgb(0,0,0)"  stroke-width="1.0"/>
<line x1="109.3" y1="200.0" x2="109.3" y2="160.0" stroke="rgb(0,0,0)"  stroke-width="1.0"/>
<line x1="143.9" y1="140.0" x2="178.6" y2="160.0" stroke="rgb(0,0,0)"  stroke-width="1.0"/>
<line x1="178.6" y1="160.0" x2="178.6" y2="200.0" stroke="rgb(0,0,0)"  stroke-width="1.0"/>
<line x1="178.6" y1="200.0" x2="213.2" y2="220.0" stroke="rgb(0,0,0)"  stroke-width="1.0"/>
<line x1="211.7" y1="217.4" x2="249.3" y2="202.6" stroke="rgb(0,0,0)"  stroke-width="1.0"/>
<line x1="214.7" y1="222.6" x2="246.3" y2="197.4" stroke="rgb(0,0,0)"  stroke-width="1.0"/>
<line x1="247.8" y1="200.0" x2="282.5" y2="220.0" stroke="rgb(0,0,0)"  stroke-width="1.0"/>
<line x1="282.5" y1="220.0" x2="282.5" y2="247.0" stroke="rgb(0,0,0)"  stroke-width="1.0"/>
<line x1="178.6" y1="160.0" x2="201.9" y2="146.5" stroke="rgb(0,0,0)"  stroke-width="1.0"/>
<line x1="109.3" y1="80.0" x2="109.3" y2="53.0" stroke="rgb(0,0,0)"  stroke-width="1.0"/>
<line x1="109.3" y1="160.0" x2="74.6" y2="140.0" stroke="rgb(0,0,0)"  stroke-width="1.0"/>
<line x1="107.7" y1="150.8" x2="83.4" y2="136.8" stroke="rgb(0,0,0)"  stroke-width="1.0"/>
<line x1="74.6" y1="140.0" x2="74.6" y2="100.0" stroke="rgb(0,0,0)"  stroke-width="1.0"/>
<line x1="74.6" y1="100.0" x2="109.3" y2="80.0" stroke="rgb(0,0,0)"  stroke-width="1.0"/>
<line x1="83.4" y1="103.2" x2="107.7" y2="89.2" stroke="rgb(0,0,0)"  stroke-width="1.0"/>
<line x1="109.3" y1="80.0" x2="143.9" y2="100.0" stroke="rgb(0,0,0)"  stroke-width="1.0"/>
<line x1="143.9" y1="100.0" x2="143.9" y2="140.0" stroke="rgb(0,0,0)"  stroke-width="1.0"/>
<line x1="136.7" y1="106.0" x2="136.7" y2="134.0" stroke="rgb(0,0,0)"  stroke-width="1.0"/>
<line x1="143.9" y1="140.0" x2="109.3" y2="160.0" stroke="rgb(0,0,0)"  stroke-width="1.0"/>
<text x="14.000000" y="208.000000" fill="rgb(12,12,255)"  stroke="rgb(12,12,255)" stroke-width="1" font-size="16" >H</text>
<text x="26.000000" y="211.680000" fill="rgb(12,12,255)"  stroke="rgb(12,12,255)" stroke-width="1" font-size="13" >2</text>
<text x="32.500000" y="208.000000" fill="rgb(12,12,255)"  stroke="rgb(12,12,255)" stroke-width="1" font-size="16" >N</text>
<text x="276.487113" y="268.000000" fill="rgb(255,12,12)"  stroke="rgb(255,12,12)" stroke-width="1" font-size="16" >OH</text>
<text x="209.205081" y="148.000000" fill="rgb(102,102,102)"  stroke="rgb(102,102,102)" stroke-width="1" font-size="16" >CH</text>
<text x="233.205081" y="151.680000" fill="rgb(102,102,102)"  stroke="rgb(102,102,102)" stroke-width="1" font-size="13" >3</text>
<text x="103.282032" y="48.000000" fill="rgb(255,12,12)"  stroke="rgb(255,12,12)" stroke-width="1" font-size="16" >OH</text>
<text font-size="18.000000" fill ="black" font-family="sans-serif"
x="10.000000" y="20.000000" ></text>
<title> - OBDepict</title>
</svg>
