<?xml version="1.0"?>
<svg xmlns="http://www.w3.org/2000/svg"
xmlns:xlink="http://www.w3.org/1999/xlink" xmlns:cml="http://www.xml-cml.org/schema" width="253.205" height="220" x="0" y="0" font-family="sans-serif" stroke="rgb(0,0,0)" stroke-width="1"  stroke-linecap="round">
<rect x="0%" y="0%" width="100%" height="100%" stroke-width="0" fill="rgb(255,255,255)"  />
<line x1="51.3" y1="166.5" x2="74.6" y2="180.0" stroke="rgb(0,0,0)"  stroke-width="1.0"/>
<line x1="74.6" y1="180.0" x2="109.3" y2="160.0" stroke="rgb(0,0,0)"  stroke-width="1.0"/>
<line x1="109.3" y1="160.0" x2="109.3" y2="120.0" stroke="rgb(0,0,0)"  stroke-width="1.0"/>
<line x1="143.9" y1="100.0" x2="178.6" y2="120.0" stroke="rgb(0,0,0)"  stroke-width="1.0"/>
<line x1="178.6" y1="120.0" x2="201.9" y2="106.5" stroke="rgb(0,0,0)"  stroke-width="1.0"/>
<line x1="109.3" y1="120.0" x2="74.6" y2="100.0" stroke="rgb(0,0,0)"  stroke-width="1.0"/>
<line x1="107.7" y1="110.8" x2="83.4" y2="96.8" stroke="rgb(0,0,0)"  stroke-width="1.0"/>
<line x1="74.6" y1="100.0" x2="74.6" y2="60.0" stroke="rgb(0,0,0)"  stroke-width="1.0"/>
<line x1="74.6" y1="60.0" x2="109.3" y2="40.0" stroke="rgb(0,0,0)"  stroke-width="1.0"/>
<line x1="83.4" y1="63.2" x2="107.7" y2="49.2" stroke="rgb(0,0,0)"  stroke-width="1.0"/>
<line x1="109.3" y1="40.0" x2="143.9" y2="60.0" stroke="rgb(0,0,0)"  stroke-width="1.0"/>
<line x1="143.9" y1="60.0" x2="143.9" y2="100.0" stroke="rgb(0,0,0)"  stroke-width="1.0"/>
<line x1="136.7" y1="66.0" x2="136.7" y2="94.0" stroke="rgb(0,0,0)"  stroke-width="1.0"/>
<line x1="143.9" y1="100.0" x2="109.3" y2="120.0" stroke="rgb(0,0,0)"  stroke-width="1.0"/>
<text x="14.000000" y="168.000000" fill="rgb(12,12,255)"  stroke="rgb(12,12,255)" stroke-width="1" font-size="16" >H</text>
<text x="26.000000" y="171.680000" fill="rgb(12,12,255)"  stroke="rgb(12,12,255)" stroke-width="1" font-size="13" >2</text>
<text x="32.500000" y="168.000000" fill="rgb(12,12,255)"  stroke="rgb(12,12,255)" stroke-width="1" font-size="16" >N</text>
<text x="209.205081" y="108.000000" fill="rgb(102,102,102)"  stroke="rgb(102,102,102)" stroke-width="1" font-size="16" >CH</text>
<text x="233.205081" y="111.680000" fill="rgb(102,102,102)"  stroke="rgb(102,102,102)" stroke-width="1" font-size="13" >3</text>
<text font-size="18.000000" fill ="black" font-family="sans-serif"
x="10.000000" y="20.000000" ></text>
<title> - OBDepict</title>
</svg>
