<?xml version="1.0"?>
<svg xmlns="http://www.w3.org/2000/svg"
xmlns:xlink="http://www.w3.org/1999/xlink" xmlns:cml="http://www.xml-cml.org/schema" width="348.582" height="255.699" x="0" y="0" font-family="sans-serif" stroke="rgb(0,0,0)" stroke-width="1"  stroke-linecap="round">
<rect x="0%" y="0%" width="100%" height="100%" stroke-width="0" fill="rgb(255,255,255)"  />
<line x1="52.8" y1="43.9" x2="76.1" y2="57.4" stroke="rgb(0,0,0)"  stroke-width="1.0"/>
<line x1="49.8" y1="49.1" x2="73.2" y2="62.6" stroke="rgb(0,0,0)"  stroke-width="1.0"/>
<line x1="275.2" y1="175.7" x2="275.2" y2="202.7" stroke="rgb(0,0,0)"  stroke-width="1.0"/>
<line x1="241.8" y1="156.4" x2="241.8" y2="183.4" stroke="rgb(0,0,0)"  stroke-width="1.0"/>
<line x1="141.5" y1="98.6" x2="141.5" y2="125.6" stroke="rgb(0,0,0)"  stroke-width="1.0"/>
<line x1="308.6" y1="156.4" x2="275.2" y2="175.7" stroke="rgb(0,0,0)"  stroke-width="1.0"/>
<line x1="275.2" y1="175.7" x2="241.8" y2="156.4" stroke="rgb(0,0,0)"  stroke-width="1.0"/>
<line x1="241.8" y1="156.4" x2="241.8" y2="117.8" stroke="rgb(0,0,0)"  stroke-width="1.0"/>
<line x1="241.8" y1="117.8" x2="308.6" y2="117.8" stroke="rgb(0,0,0)"  stroke-width="1.0"/>
<line x1="308.6" y1="117.8" x2="308.6" y2="156.4" stroke="rgb(0,0,0)"  stroke-width="1.0"/>
<line x1="74.6" y1="60.0" x2="74.7" y2="98.6" stroke="rgb(0,0,0)"  stroke-width="1.0"/>
<line x1="74.7" y1="98.6" x2="108.1" y2="117.9" stroke="rgb(0,0,0)"  stroke-width="1.0"/>
<line x1="108.1" y1="117.9" x2="141.5" y2="98.6" stroke="rgb(0,0,0)"  stroke-width="1.0"/>
<line x1="141.5" y1="98.6" x2="141.5" y2="60.0" stroke="rgb(0,0,0)"  stroke-width="1.0"/>
<line x1="141.5" y1="60.0" x2="108.0" y2="40.7" stroke="rgb(0,0,0)"  stroke-width="1.0"/>
<line x1="108.0" y1="40.7" x2="74.6" y2="60.0" stroke="rgb(0,0,0)"  stroke-width="1.0"/>
<line x1="208.3" y1="98.5" x2="208.3" y2="59.9" stroke="rgb(0,0,0)"  stroke-width="1.0"/>
<line x1="208.3" y1="59.9" x2="174.9" y2="40.7" stroke="rgb(0,0,0)"  stroke-width="1.0"/>
<line x1="174.9" y1="40.7" x2="141.5" y2="60.0" stroke="rgb(0,0,0)"  stroke-width="1.0"/>
<line x1="141.5" y1="98.6" x2="174.9" y2="117.9" stroke="rgb(0,0,0)"  stroke-width="1.0"/>
<line x1="174.9" y1="117.9" x2="208.3" y2="98.5" stroke="rgb(0,0,0)"  stroke-width="1.0"/>
<line x1="241.8" y1="117.8" x2="208.3" y2="98.5" stroke="rgb(0,0,0)"  stroke-width="1.0"/>
<line x1="174.9" y1="117.9" x2="174.9" y2="156.4" stroke="rgb(0,0,0)"  stroke-width="1.0"/>
<line x1="174.9" y1="156.4" x2="208.3" y2="175.7" stroke="rgb(0,0,0)"  stroke-width="1.0"/>
<line x1="208.3" y1="175.7" x2="241.8" y2="156.4" stroke="rgb(0,0,0)"  stroke-width="1.0"/>
<text x="34.000000" y="48.000000" fill="rgb(255,12,12)"  stroke="rgb(255,12,12)" stroke-width="1" font-size="16" >O</text>
<text x="269.229848" y="223.699185" fill="rgb(255,12,12)"  stroke="rgb(255,12,12)" stroke-width="1" font-size="16" >OH</text>
<text x="237.783797" y="204.409622" fill="rgb(102,102,102)"  stroke="rgb(102,102,102)" stroke-width="1" font-size="16" >CH</text>
<text x="261.783797" y="208.089622" fill="rgb(102,102,102)"  stroke="rgb(102,102,102)" stroke-width="1" font-size="13" >3</text>
<text x="137.482052" y="146.564308" fill="rgb(102,102,102)"  stroke="rgb(102,102,102)" stroke-width="1" font-size="16" >CH</text>
<text x="161.482052" y="150.244308" fill="rgb(102,102,102)"  stroke="rgb(102,102,102)" stroke-width="1" font-size="13" >3</text>
<text font-size="18.000000" fill ="black" font-family="sans-serif"
x="10.000000" y="20.000000" ></text>
<title> - OBDepict</title>
</svg>
