<?xml version="1.0"?>
<svg xmlns="http://www.w3.org/2000/svg"
xmlns:xlink="http://www.w3.org/1999/xlink" xmlns:cml="http://www.xml-cml.org/schema" width="354.817" height="286.396" x="0" y="0" font-family="sans-serif" stroke="rgb(0,0,0)" stroke-width="1"  stroke-linecap="round">
<rect x="0%" y="0%" width="100%" height="100%" stroke-width="0" fill="rgb(255,255,255)"  />
<line x1="302.1" y1="242.5" x2="278.5" y2="228.9" stroke="rgb(0,0,0)"  stroke-width="1.0"/>
<line x1="305.1" y1="237.3" x2="281.5" y2="223.7" stroke="rgb(0,0,0)"  stroke-width="1.0"/>
<line x1="78.5" y1="110.1" x2="78.5" y2="71.3" stroke="rgb(0,0,0)"  stroke-width="1.0"/>
<line x1="76.1" y1="69.6" x2="91.2" y2="48.8" stroke="rgb(0,0,0)"  stroke-width="1.0"/>
<line x1="81.0" y1="73.1" x2="96.1" y2="52.3" stroke="rgb(0,0,0)"  stroke-width="1.0"/>
<line x1="78.5" y1="71.3" x2="52.9" y2="68.7" stroke="rgb(0,0,0)"  stroke-width="1.0"/>
<line x1="112.1" y1="129.5" x2="112.1" y2="102.5" stroke="rgb(0,0,0)"  stroke-width="1.0"/>
<line x1="212.9" y1="187.6" x2="212.9" y2="160.6" stroke="rgb(0,0,0)"  stroke-width="1.0"/>
<line x1="45.0" y1="129.5" x2="78.5" y2="110.1" stroke="rgb(0,0,0)"  stroke-width="1.0"/>
<line x1="78.5" y1="110.1" x2="112.1" y2="129.5" stroke="rgb(0,0,0)"  stroke-width="1.0"/>
<line x1="112.1" y1="129.5" x2="112.1" y2="168.2" stroke="rgb(0,0,0)"  stroke-width="1.0"/>
<line x1="112.1" y1="168.2" x2="45.0" y2="168.2" stroke="rgb(0,0,0)"  stroke-width="1.0"/>
<line x1="45.0" y1="168.2" x2="45.0" y2="129.5" stroke="rgb(0,0,0)"  stroke-width="1.0"/>
<line x1="280.0" y1="226.3" x2="280.0" y2="187.5" stroke="rgb(0,0,0)"  stroke-width="1.0"/>
<line x1="280.0" y1="187.5" x2="246.4" y2="168.2" stroke="rgb(0,0,0)"  stroke-width="1.0"/>
<line x1="246.4" y1="168.2" x2="212.9" y2="187.6" stroke="rgb(0,0,0)"  stroke-width="1.0"/>
<line x1="212.9" y1="187.6" x2="212.9" y2="226.3" stroke="rgb(0,0,0)"  stroke-width="1.0"/>
<line x1="212.9" y1="226.3" x2="246.5" y2="245.7" stroke="rgb(0,0,0)"  stroke-width="1.0"/>
<line x1="221.7" y1="223.1" x2="244.9" y2="236.5" stroke="rgb(0,0,0)"  stroke-width="1.0"/>
<line x1="246.5" y1="245.7" x2="280.0" y2="226.3" stroke="rgb(0,0,0)"  stroke-width="1.0"/>
<line x1="145.7" y1="187.6" x2="145.7" y2="226.4" stroke="rgb(0,0,0)"  stroke-width="1.0"/>
<line x1="145.7" y1="226.4" x2="179.3" y2="245.7" stroke="rgb(0,0,0)"  stroke-width="1.0"/>
<line x1="179.3" y1="245.7" x2="212.9" y2="226.3" stroke="rgb(0,0,0)"  stroke-width="1.0"/>
<line x1="212.9" y1="187.6" x2="179.3" y2="168.2" stroke="rgb(0,0,0)"  stroke-width="1.0"/>
<line x1="179.3" y1="168.2" x2="145.7" y2="187.6" stroke="rgb(0,0,0)"  stroke-width="1.0"/>
<line x1="112.1" y1="168.2" x2="145.7" y2="187.6" stroke="rgb(0,0,0)"  stroke-width="1.0"/>
<line x1="179.3" y1="168.2" x2="179.3" y2="129.4" stroke="rgb(0,0,0)"  stroke-width="1.0"/>
<line x1="179.3" y1="129.4" x2="145.7" y2="110.1" stroke="rgb(0,0,0)"  stroke-width="1.0"/>
<line x1="145.7" y1="110.1" x2="112.1" y2="129.5" stroke="rgb(0,0,0)"  stroke-width="1.0"/>
<text x="308.816656" y="254.395719" fill="rgb(255,12,12)"  stroke="rgb(255,12,12)" stroke-width="1" font-size="16" >O</text>
<text x="95.271946" y="48.000000" fill="rgb(255,12,12)"  stroke="rgb(255,12,12)" stroke-width="1" font-size="16" >O</text>
<text x="14.000000" y="75.323275" fill="rgb(102,102,102)"  stroke="rgb(102,102,102)" stroke-width="1" font-size="16" >H</text>
<text x="26.000000" y="79.003275" fill="rgb(102,102,102)"  stroke="rgb(102,102,102)" stroke-width="1" font-size="13" >3</text>
<text x="32.500000" y="75.323275" fill="rgb(102,102,102)"  stroke="rgb(102,102,102)" stroke-width="1" font-size="16" >C</text>
<text x="108.120076" y="97.459481" fill="rgb(102,102,102)"  stroke="rgb(102,102,102)" stroke-width="1" font-size="16" >CH</text>
<text x="132.120076" y="101.139481" fill="rgb(102,102,102)"  stroke="rgb(102,102,102)" stroke-width="1" font-size="13" >3</text>
<text x="208.875569" y="155.566476" fill="rgb(102,102,102)"  stroke="rgb(102,102,102)" stroke-width="1" font-size="16" >CH</text>
<text x="232.875569" y="159.246476" fill="rgb(102,102,102)"  stroke="rgb(102,102,102)" stroke-width="1" font-size="13" >3</text>
<text font-size="18.000000" fill ="black" font-family="sans-serif"
x="10.000000" y="20.000000" ></text>
<title> - OBDepict</title>
</svg>
