<?xml version="1.0"?>
<svg xmlns="http://www.w3.org/2000/svg"
xmlns:xlink="http://www.w3.org/1999/xlink" xmlns:cml="http://www.xml-cml.org/schema" width="365.477" height="245.824" x="0" y="0" font-family="sans-serif" stroke="rgb(0,0,0)" stroke-width="1"  stroke-linecap="round">
<rect x="0%" y="0%" width="100%" height="100%" stroke-width="0" fill="rgb(255,255,255)"  />
<line x1="316.4" y1="196.1" x2="302.9" y2="172.7" stroke="rgb(0,0,0)"  stroke-width="1.0"/>
<line x1="321.6" y1="193.1" x2="308.1" y2="169.7" stroke="rgb(0,0,0)"  stroke-width="1.0"/>
<line x1="305.5" y1="171.2" x2="265.5" y2="171.2" stroke="rgb(0,0,0)"  stroke-width="1.0"/>
<line x1="265.5" y1="171.2" x2="245.5" y2="136.5" stroke="rgb(0,0,0)"  stroke-width="1.0"/>
<line x1="245.5" y1="136.5" x2="205.5" y2="136.5" stroke="rgb(0,0,0)"  stroke-width="1.0"/>
<line x1="205.5" y1="136.5" x2="219.0" y2="113.2" stroke="rgb(0,0,0)"  stroke-width="1.0"/>
<line x1="101.6" y1="76.5" x2="112.5" y2="51.9" stroke="rgb(0,0,0)"  stroke-width="1.0"/>
<line x1="40.0" y1="96.5" x2="63.5" y2="128.9" stroke="rgb(0,0,0)"  stroke-width="1.0"/>
<line x1="63.5" y1="128.9" x2="101.6" y2="116.5" stroke="rgb(0,0,0)"  stroke-width="1.0"/>
<line x1="101.6" y1="116.5" x2="101.6" y2="76.5" stroke="rgb(0,0,0)"  stroke-width="1.0"/>
<line x1="101.6" y1="76.5" x2="63.5" y2="64.2" stroke="rgb(0,0,0)"  stroke-width="1.0"/>
<line x1="63.5" y1="64.2" x2="40.0" y2="96.5" stroke="rgb(0,0,0)"  stroke-width="1.0"/>
<line x1="205.5" y1="136.5" x2="205.5" y2="176.5" stroke="rgb(0,0,0)"  stroke-width="1.0"/>
<line x1="205.5" y1="176.5" x2="170.8" y2="196.5" stroke="rgb(0,0,0)"  stroke-width="1.0"/>
<line x1="170.8" y1="196.5" x2="136.2" y2="176.5" stroke="rgb(0,0,0)"  stroke-width="1.0"/>
<line x1="136.2" y1="176.5" x2="136.2" y2="136.5" stroke="rgb(0,0,0)"  stroke-width="1.0"/>
<line x1="136.2" y1="136.5" x2="170.8" y2="116.5" stroke="rgb(0,0,0)"  stroke-width="1.0"/>
<line x1="170.8" y1="116.5" x2="205.5" y2="136.5" stroke="rgb(0,0,0)"  stroke-width="1.0"/>
<line x1="101.6" y1="76.5" x2="136.2" y2="56.5" stroke="rgb(0,0,0)"  stroke-width="1.0"/>
<line x1="136.2" y1="56.5" x2="170.8" y2="76.5" stroke="rgb(0,0,0)"  stroke-width="1.0"/>
<line x1="170.8" y1="76.5" x2="170.8" y2="116.5" stroke="rgb(0,0,0)"  stroke-width="1.0"/>
<line x1="136.2" y1="136.5" x2="101.6" y2="116.5" stroke="rgb(0,0,0)"  stroke-width="1.0"/>
<text x="319.476719" y="213.823851" fill="rgb(255,12,12)"  stroke="rgb(255,12,12)" stroke-width="1" font-size="16" >O</text>
<text x="221.476719" y="109.900802" fill="rgb(102,102,102)"  stroke="rgb(102,102,102)" stroke-width="1" font-size="16" >CH</text>
<text x="245.476719" y="113.580802" fill="rgb(102,102,102)"  stroke="rgb(102,102,102)" stroke-width="1" font-size="13" >3</text>
<text x="113.823136" y="48.000000" fill="rgb(102,102,102)"  stroke="rgb(102,102,102)" stroke-width="1" font-size="16" >CH</text>
<text x="137.823136" y="51.680000" fill="rgb(102,102,102)"  stroke="rgb(102,102,102)" stroke-width="1" font-size="13" >3</text>
<text font-size="18.000000" fill ="black" font-family="sans-serif"
x="10.000000" y="20.000000" ></text>
<title> - OBDepict</title>
</svg>
