<?xml version="1.0"?>
<svg xmlns="http://www.w3.org/2000/svg"
xmlns:xlink="http://www.w3.org/1999/xlink" xmlns:cml="http://www.xml-cml.org/schema" width="391.769" height="280" x="0" y="0" font-family="sans-serif" stroke="rgb(0,0,0)" stroke-width="1"  stroke-linecap="round">
<rect x="0%" y="0%" width="100%" height="100%" stroke-width="0" fill="rgb(255,255,255)"  />
<line x1="340.5" y1="113.5" x2="317.1" y2="100.0" stroke="rgb(0,0,0)"  stroke-width="1.0"/>
<line x1="317.1" y1="60.0" x2="340.5" y2="46.5" stroke="rgb(0,0,0)"  stroke-width="1.0"/>
<line x1="247.8" y1="60.0" x2="213.2" y2="40.0" stroke="rgb(0,0,0)"  stroke-width="1.0"/>
<line x1="213.2" y1="40.0" x2="178.6" y2="60.0" stroke="rgb(0,0,0)"  stroke-width="1.0"/>
<line x1="178.6" y1="60.0" x2="178.6" y2="87.0" stroke="rgb(0,0,0)"  stroke-width="1.0"/>
<line x1="167.3" y1="106.5" x2="143.9" y2="120.0" stroke="rgb(0,0,0)"  stroke-width="1.0"/>
<line x1="143.9" y1="120.0" x2="143.9" y2="160.0" stroke="rgb(0,0,0)"  stroke-width="1.0"/>
<line x1="143.9" y1="160.0" x2="109.3" y2="180.0" stroke="rgb(0,0,0)"  stroke-width="1.0"/>
<line x1="317.1" y1="100.0" x2="282.5" y2="120.0" stroke="rgb(0,0,0)"  stroke-width="1.0"/>
<line x1="308.3" y1="96.8" x2="284.1" y2="110.8" stroke="rgb(0,0,0)"  stroke-width="1.0"/>
<line x1="282.5" y1="120.0" x2="247.8" y2="100.0" stroke="rgb(0,0,0)"  stroke-width="1.0"/>
<line x1="247.8" y1="100.0" x2="247.8" y2="60.0" stroke="rgb(0,0,0)"  stroke-width="1.0"/>
<line x1="255.0" y1="94.0" x2="255.0" y2="66.0" stroke="rgb(0,0,0)"  stroke-width="1.0"/>
<line x1="247.8" y1="60.0" x2="282.5" y2="40.0" stroke="rgb(0,0,0)"  stroke-width="1.0"/>
<line x1="282.5" y1="40.0" x2="317.1" y2="60.0" stroke="rgb(0,0,0)"  stroke-width="1.0"/>
<line x1="284.1" y1="49.2" x2="308.3" y2="63.2" stroke="rgb(0,0,0)"  stroke-width="1.0"/>
<line x1="317.1" y1="60.0" x2="317.1" y2="100.0" stroke="rgb(0,0,0)"  stroke-width="1.0"/>
<line x1="109.3" y1="180.0" x2="109.3" y2="220.0" stroke="rgb(0,0,0)"  stroke-width="1.0"/>
<line x1="102.1" y1="186.0" x2="102.1" y2="214.0" stroke="rgb(0,0,0)"  stroke-width="1.0"/>
<line x1="109.3" y1="220.0" x2="74.6" y2="240.0" stroke="rgb(0,0,0)"  stroke-width="1.0"/>
<line x1="74.6" y1="240.0" x2="40.0" y2="220.0" stroke="rgb(0,0,0)"  stroke-width="1.0"/>
<line x1="73.0" y1="230.8" x2="48.8" y2="216.8" stroke="rgb(0,0,0)"  stroke-width="1.0"/>
<line x1="40.0" y1="220.0" x2="40.0" y2="180.0" stroke="rgb(0,0,0)"  stroke-width="1.0"/>
<line x1="40.0" y1="180.0" x2="74.6" y2="160.0" stroke="rgb(0,0,0)"  stroke-width="1.0"/>
<line x1="48.8" y1="183.2" x2="73.0" y2="169.2" stroke="rgb(0,0,0)"  stroke-width="1.0"/>
<line x1="74.6" y1="160.0" x2="109.3" y2="180.0" stroke="rgb(0,0,0)"  stroke-width="1.0"/>
<text x="345.769145" y="128.000000" fill="rgb(255,12,12)"  stroke="rgb(255,12,12)" stroke-width="1" font-size="16" >OH</text>
<text x="345.769145" y="48.000000" fill="rgb(255,12,12)"  stroke="rgb(255,12,12)" stroke-width="1" font-size="16" >OH</text>
<text x="172.564065" y="108.000000" fill="rgb(12,12,255)"  stroke="rgb(12,12,255)" stroke-width="1" font-size="16" >NH</text>
<text font-size="18.000000" fill ="black" font-family="sans-serif"
x="10.000000" y="20.000000" ></text>
<title> - OBDepict</title>
</svg>
