<?xml version="1.0"?>
<svg xmlns="http://www.w3.org/2000/svg"
xmlns:xlink="http://www.w3.org/1999/xlink" xmlns:cml="http://www.xml-cml.org/schema" width="348.582" height="255.699" x="0" y="0" font-family="sans-serif" stroke="rgb(0,0,0)" stroke-width="1"  stroke-linecap="round">
<rect x="0%" y="0%" width="100%" height="100%" stroke-width="0" fill="rgb(255,255,255)"  />
<line x1="297.3" y1="209.2" x2="273.9" y2="195.7" stroke="rgb(0,0,0)"  stroke-width="1.0"/>
<line x1="70.4" y1="80.0" x2="70.4" y2="53.0" stroke="rgb(0,0,0)"  stroke-width="1.0"/>
<line x1="76.4" y1="80.0" x2="76.4" y2="53.0" stroke="rgb(0,0,0)"  stroke-width="1.0"/>
<line x1="106.8" y1="99.3" x2="106.8" y2="72.3" stroke="rgb(0,0,0)"  stroke-width="1.0"/>
<line x1="40.0" y1="99.3" x2="73.4" y2="80.0" stroke="rgb(0,0,0)"  stroke-width="1.0"/>
<line x1="73.4" y1="80.0" x2="106.8" y2="99.3" stroke="rgb(0,0,0)"  stroke-width="1.0"/>
<line x1="106.8" y1="99.3" x2="106.8" y2="137.9" stroke="rgb(0,0,0)"  stroke-width="1.0"/>
<line x1="106.8" y1="137.9" x2="40.0" y2="137.9" stroke="rgb(0,0,0)"  stroke-width="1.0"/>
<line x1="40.0" y1="137.9" x2="40.0" y2="99.3" stroke="rgb(0,0,0)"  stroke-width="1.0"/>
<line x1="273.9" y1="195.7" x2="273.9" y2="157.1" stroke="rgb(0,0,0)"  stroke-width="1.0"/>
<line x1="266.7" y1="189.7" x2="266.7" y2="163.1" stroke="rgb(0,0,0)"  stroke-width="1.0"/>
<line x1="273.9" y1="157.1" x2="240.5" y2="137.8" stroke="rgb(0,0,0)"  stroke-width="1.0"/>
<line x1="240.5" y1="137.8" x2="207.1" y2="157.1" stroke="rgb(0,0,0)"  stroke-width="1.0"/>
<line x1="238.9" y1="147.1" x2="215.9" y2="160.4" stroke="rgb(0,0,0)"  stroke-width="1.0"/>
<line x1="207.1" y1="157.1" x2="207.1" y2="195.7" stroke="rgb(0,0,0)"  stroke-width="1.0"/>
<line x1="207.1" y1="195.7" x2="240.5" y2="215.0" stroke="rgb(0,0,0)"  stroke-width="1.0"/>
<line x1="215.9" y1="192.5" x2="238.9" y2="205.8" stroke="rgb(0,0,0)"  stroke-width="1.0"/>
<line x1="240.5" y1="215.0" x2="273.9" y2="195.7" stroke="rgb(0,0,0)"  stroke-width="1.0"/>
<line x1="140.3" y1="157.2" x2="140.3" y2="195.8" stroke="rgb(0,0,0)"  stroke-width="1.0"/>
<line x1="140.3" y1="195.8" x2="173.7" y2="215.0" stroke="rgb(0,0,0)"  stroke-width="1.0"/>
<line x1="173.7" y1="215.0" x2="207.1" y2="195.7" stroke="rgb(0,0,0)"  stroke-width="1.0"/>
<line x1="207.1" y1="157.1" x2="173.7" y2="137.8" stroke="rgb(0,0,0)"  stroke-width="1.0"/>
<line x1="173.7" y1="137.8" x2="140.3" y2="157.2" stroke="rgb(0,0,0)"  stroke-width="1.0"/>
<line x1="106.8" y1="137.9" x2="140.3" y2="157.2" stroke="rgb(0,0,0)"  stroke-width="1.0"/>
<line x1="173.7" y1="137.8" x2="173.7" y2="99.3" stroke="rgb(0,0,0)"  stroke-width="1.0"/>
<line x1="173.7" y1="99.3" x2="140.2" y2="80.0" stroke="rgb(0,0,0)"  stroke-width="1.0"/>
<line x1="140.2" y1="80.0" x2="106.8" y2="99.3" stroke="rgb(0,0,0)"  stroke-width="1.0"/>
<text x="302.582401" y="223.699185" fill="rgb(255,12,12)"  stroke="rgb(255,12,12)" stroke-width="1" font-size="16" >OH</text>
<text x="67.352553" y="48.000000" fill="rgb(255,12,12)"  stroke="rgb(255,12,12)" stroke-width="1" font-size="16" >O</text>
<text x="102.798604" y="67.289563" fill="rgb(102,102,102)"  stroke="rgb(102,102,102)" stroke-width="1" font-size="16" >CH</text>
<text x="126.798604" y="70.969563" fill="rgb(102,102,102)"  stroke="rgb(102,102,102)" stroke-width="1" font-size="13" >3</text>
<text font-size="18.000000" fill ="black" font-family="sans-serif"
x="10.000000" y="20.000000" ></text>
<title> - OBDepict</title>
</svg>
