<?xml version="1.0"?>
<svg xmlns="http://www.w3.org/2000/svg"
xmlns:xlink="http://www.w3.org/1999/xlink" xmlns:cml="http://www.xml-cml.org/schema" width="265.229" height="270.776" x="0" y="0" font-family="sans-serif" stroke="rgb(0,0,0)" stroke-width="1"  stroke-linecap="round">
<rect x="0%" y="0%" width="100%" height="100%" stroke-width="0" fill="rgb(255,255,255)"  />
<line x1="51.3" y1="46.5" x2="74.6" y2="60.0" stroke="rgb(0,0,0)"  stroke-width="1.0"/>
<line x1="211.7" y1="86.4" x2="218.7" y2="74.3" stroke="rgb(0,0,0)"  stroke-width="1.0"/>
<line x1="74.6" y1="210.8" x2="51.3" y2="224.3" stroke="rgb(0,0,0)"  stroke-width="1.0"/>
<line x1="74.6" y1="173.1" x2="51.3" y2="145.3" stroke="rgb(0,0,0)"  stroke-width="1.0"/>
<line x1="51.3" y1="125.4" x2="74.6" y2="97.7" stroke="rgb(0,0,0)"  stroke-width="1.0"/>
<line x1="74.6" y1="97.7" x2="107.3" y2="116.5" stroke="rgb(0,0,0)"  stroke-width="1.0"/>
<line x1="107.3" y1="116.5" x2="107.3" y2="154.2" stroke="rgb(0,0,0)"  stroke-width="1.0"/>
<line x1="107.3" y1="154.2" x2="74.6" y2="173.1" stroke="rgb(0,0,0)"  stroke-width="1.0"/>
<line x1="98.5" y1="151.0" x2="76.2" y2="163.8" stroke="rgb(0,0,0)"  stroke-width="1.0"/>
<line x1="74.6" y1="60.0" x2="107.3" y2="41.2" stroke="rgb(0,0,0)"  stroke-width="1.0"/>
<line x1="107.3" y1="41.2" x2="139.9" y2="60.0" stroke="rgb(0,0,0)"  stroke-width="1.0"/>
<line x1="108.9" y1="50.4" x2="131.1" y2="63.2" stroke="rgb(0,0,0)"  stroke-width="1.0"/>
<line x1="139.9" y1="60.0" x2="139.9" y2="97.7" stroke="rgb(0,0,0)"  stroke-width="1.0"/>
<line x1="139.9" y1="97.7" x2="107.3" y2="116.5" stroke="rgb(0,0,0)"  stroke-width="1.0"/>
<line x1="74.6" y1="97.7" x2="74.6" y2="60.0" stroke="rgb(0,0,0)"  stroke-width="1.0"/>
<line x1="172.6" y1="154.2" x2="139.9" y2="173.1" stroke="rgb(0,0,0)"  stroke-width="1.0"/>
<line x1="139.9" y1="173.1" x2="107.3" y2="154.2" stroke="rgb(0,0,0)"  stroke-width="1.0"/>
<line x1="139.9" y1="97.7" x2="172.6" y2="116.5" stroke="rgb(0,0,0)"  stroke-width="1.0"/>
<line x1="172.6" y1="116.5" x2="172.6" y2="154.2" stroke="rgb(0,0,0)"  stroke-width="1.0"/>
<line x1="205.2" y1="110.7" x2="205.2" y2="135.4" stroke="rgb(0,0,0)"  stroke-width="1.0"/>
<line x1="205.2" y1="135.4" x2="139.9" y2="135.4" stroke="rgb(0,0,0)"  stroke-width="1.0"/>
<line x1="139.9" y1="135.4" x2="107.3" y2="116.5" stroke="rgb(0,0,0)"  stroke-width="1.0"/>
<line x1="172.6" y1="116.5" x2="194.0" y2="104.2" stroke="rgb(0,0,0)"  stroke-width="1.0"/>
<line x1="107.3" y1="229.6" x2="74.6" y2="210.8" stroke="rgb(0,0,0)"  stroke-width="1.0"/>
<line x1="105.7" y1="220.4" x2="83.4" y2="207.5" stroke="rgb(0,0,0)"  stroke-width="1.0"/>
<line x1="74.6" y1="210.8" x2="74.6" y2="173.1" stroke="rgb(0,0,0)"  stroke-width="1.0"/>
<line x1="139.9" y1="173.1" x2="139.9" y2="210.8" stroke="rgb(0,0,0)"  stroke-width="1.0"/>
<line x1="132.7" y1="179.1" x2="132.7" y2="204.8" stroke="rgb(0,0,0)"  stroke-width="1.0"/>
<line x1="139.9" y1="210.8" x2="107.3" y2="229.6" stroke="rgb(0,0,0)"  stroke-width="1.0"/>
<text x="22.000000" y="48.000000" fill="rgb(255,12,12)"  stroke="rgb(255,12,12)" stroke-width="1" font-size="16" >HO</text>
<text x="36.955371" y="143.397215" fill="rgb(255,12,12)"  stroke="rgb(255,12,12)" stroke-width="1" font-size="16" >O</text>
<text x="199.229501" y="105.698498" fill="rgb(12,12,255)"  stroke="rgb(12,12,255)" stroke-width="1" font-size="16" >N</text>
<text x="221.229281" y="71.057355" fill="rgb(102,102,102)"  stroke="rgb(102,102,102)" stroke-width="1" font-size="16" >CH</text>
<text x="245.229281" y="74.737355" fill="rgb(102,102,102)"  stroke="rgb(102,102,102)" stroke-width="1" font-size="13" >3</text>
<text x="22.000000" y="238.775582" fill="rgb(255,12,12)"  stroke="rgb(255,12,12)" stroke-width="1" font-size="16" >HO</text>
<text font-size="18.000000" fill ="black" font-family="sans-serif"
x="10.000000" y="20.000000" ></text>
<title> - OBDepict</title>
</svg>
