<?xml version="1.0" encoding="UTF-8" standalone="no"?>
<!DOCTYPE svg PUBLIC "-//W3C//DTD SVG 1.1//EN"
 "http://www.w3.org/Graphics/SVG/1.1/DTD/svg11.dtd">
<!-- Generated by graphviz version 2.40.1 (20161225.0304)
 -->
<!-- Title: %3 Pages: 1 -->
<svg width="449pt" height="404pt"
 viewBox="0.00 0.00 449.00 404.00" xmlns="http://www.w3.org/2000/svg" xmlns:xlink="http://www.w3.org/1999/xlink">
<g id="graph0" class="graph" transform="scale(1 1) rotate(0) translate(4 400)">
<title>%3</title>
<polygon fill="#ffffff" stroke="transparent" points="-4,4 -4,-400 445,-400 445,4 -4,4"/>
<!-- 80 -->
<g id="node1" class="node">
<title>80</title>
<ellipse fill="#ffd700" stroke="#000000" cx="342" cy="-378" rx="27" ry="18"/>
<text text-anchor="middle" x="342" y="-374.3" font-family="Times,serif" font-size="14.00" fill="#000000">80</text>
</g>
<!-- 40 -->
<g id="node2" class="node">
<title>40</title>
<ellipse fill="#ffd700" stroke="#000000" cx="342" cy="-306" rx="27" ry="18"/>
<text text-anchor="middle" x="342" y="-302.3" font-family="Times,serif" font-size="14.00" fill="#000000">40</text>
</g>
<!-- 80&#45;&gt;40 -->
<g id="edge2" class="edge">
<title>80&#45;&gt;40</title>
<path fill="none" stroke="#000000" d="M342,-359.8314C342,-350.6078 342,-339.295 342,-329.4246"/>
<polygon fill="#000000" stroke="#000000" points="342,-324.4133 344.2501,-329.4132 342,-326.9133 342.0001,-329.4133 342.0001,-329.4133 342.0001,-329.4133 342,-326.9133 339.7501,-329.4133 342,-324.4133 342,-324.4133"/>
</g>
<!-- 20 -->
<g id="node3" class="node">
<title>20</title>
<ellipse fill="#ffd700" stroke="#000000" cx="342" cy="-234" rx="27" ry="18"/>
<text text-anchor="middle" x="342" y="-230.3" font-family="Times,serif" font-size="14.00" fill="#000000">20</text>
</g>
<!-- 40&#45;&gt;20 -->
<g id="edge1" class="edge">
<title>40&#45;&gt;20</title>
<path fill="none" stroke="#000000" d="M342,-287.8314C342,-278.6078 342,-267.295 342,-257.4246"/>
<polygon fill="#000000" stroke="#000000" points="342,-252.4133 344.2501,-257.4132 342,-254.9133 342.0001,-257.4133 342.0001,-257.4133 342.0001,-257.4133 342,-254.9133 339.7501,-257.4133 342,-252.4133 342,-252.4133"/>
</g>
<!-- 4 -->
<g id="node11" class="node">
<title>4</title>
<ellipse fill="none" stroke="#000000" cx="342" cy="-162" rx="27" ry="18"/>
<text text-anchor="middle" x="342" y="-158.3" font-family="Times,serif" font-size="14.00" fill="#000000">4</text>
</g>
<!-- 20&#45;&gt;4 -->
<g id="edge3" class="edge">
<title>20&#45;&gt;4</title>
<path fill="none" stroke="#000000" d="M342,-215.8314C342,-206.6078 342,-195.295 342,-185.4246"/>
<polygon fill="#000000" stroke="#000000" points="342,-180.4133 344.2501,-185.4132 342,-182.9133 342.0001,-185.4133 342.0001,-185.4133 342.0001,-185.4133 342,-182.9133 339.7501,-185.4133 342,-180.4133 342,-180.4133"/>
</g>
<!-- 10 -->
<g id="node12" class="node">
<title>10</title>
<ellipse fill="none" stroke="#000000" cx="414" cy="-162" rx="27" ry="18"/>
<text text-anchor="middle" x="414" y="-158.3" font-family="Times,serif" font-size="14.00" fill="#000000">10</text>
</g>
<!-- 20&#45;&gt;10 -->
<g id="edge4" class="edge">
<title>20&#45;&gt;10</title>
<path fill="none" stroke="#000000" d="M357.2693,-218.7307C368.3425,-207.6575 383.3851,-192.6149 395.1982,-180.8018"/>
<polygon fill="#000000" stroke="#000000" points="398.7527,-177.2473 396.8081,-182.3739 396.9849,-179.0151 395.2171,-180.7829 395.2171,-180.7829 395.2171,-180.7829 396.9849,-179.0151 393.6261,-179.1919 398.7527,-177.2473 398.7527,-177.2473"/>
</g>
<!-- 50 -->
<g id="node4" class="node">
<title>50</title>
<ellipse fill="#ffd700" stroke="#000000" cx="414" cy="-234" rx="27" ry="18"/>
<text text-anchor="middle" x="414" y="-230.3" font-family="Times,serif" font-size="14.00" fill="#000000">50</text>
</g>
<!-- 50&#45;&gt;10 -->
<g id="edge5" class="edge">
<title>50&#45;&gt;10</title>
<path fill="none" stroke="#000000" d="M414,-215.8314C414,-206.6078 414,-195.295 414,-185.4246"/>
<polygon fill="#000000" stroke="#000000" points="414,-180.4133 416.2501,-185.4132 414,-182.9133 414.0001,-185.4133 414.0001,-185.4133 414.0001,-185.4133 414,-182.9133 411.7501,-185.4133 414,-180.4133 414,-180.4133"/>
</g>
<!-- 12 -->
<g id="node5" class="node">
<title>12</title>
<ellipse fill="#ffd700" stroke="#000000" cx="242" cy="-234" rx="27" ry="18"/>
<text text-anchor="middle" x="242" y="-230.3" font-family="Times,serif" font-size="14.00" fill="#000000">12</text>
</g>
<!-- 12&#45;&gt;4 -->
<g id="edge7" class="edge">
<title>12&#45;&gt;4</title>
<path fill="none" stroke="#000000" d="M260.8092,-220.4574C277.3952,-208.5154 301.6053,-191.0842 319.2712,-178.3647"/>
<polygon fill="#000000" stroke="#000000" points="323.613,-175.2387 320.87,-179.9862 321.5841,-176.6994 319.5553,-178.1602 319.5553,-178.1602 319.5553,-178.1602 321.5841,-176.6994 318.2406,-176.3343 323.613,-175.2387 323.613,-175.2387"/>
</g>
<!-- 3 -->
<g id="node13" class="node">
<title>3</title>
<ellipse fill="none" stroke="#000000" cx="243" cy="-90" rx="27" ry="18"/>
<text text-anchor="middle" x="243" y="-86.3" font-family="Times,serif" font-size="14.00" fill="#000000">3</text>
</g>
<!-- 12&#45;&gt;3 -->
<g id="edge6" class="edge">
<title>12&#45;&gt;3</title>
<path fill="none" stroke="#000000" d="M238.6685,-216.0736C236.8913,-205.5982 234.8913,-192.0982 234,-180 232.8244,-164.0432 232.6803,-159.9455 234,-144 234.8466,-133.7703 236.5807,-122.5611 238.3028,-113.0195"/>
<polygon fill="#000000" stroke="#000000" points="239.2526,-107.9069 240.5514,-113.2338 238.7959,-110.3649 238.3393,-112.8228 238.3393,-112.8228 238.3393,-112.8228 238.7959,-110.3649 236.1271,-112.4119 239.2526,-107.9069 239.2526,-107.9069"/>
</g>
<!-- 77 -->
<g id="node6" class="node">
<title>77</title>
<ellipse fill="#ffd700" stroke="#000000" cx="99" cy="-162" rx="27" ry="18"/>
<text text-anchor="middle" x="99" y="-158.3" font-family="Times,serif" font-size="14.00" fill="#000000">77</text>
</g>
<!-- 11 -->
<g id="node8" class="node">
<title>11</title>
<ellipse fill="#ffd700" stroke="#000000" cx="99" cy="-90" rx="27" ry="18"/>
<text text-anchor="middle" x="99" y="-86.3" font-family="Times,serif" font-size="14.00" fill="#000000">11</text>
</g>
<!-- 77&#45;&gt;11 -->
<g id="edge8" class="edge">
<title>77&#45;&gt;11</title>
<path fill="none" stroke="#000000" d="M99,-143.8314C99,-134.6078 99,-123.295 99,-113.4246"/>
<polygon fill="#000000" stroke="#000000" points="99,-108.4133 101.2501,-113.4132 99,-110.9133 99.0001,-113.4133 99.0001,-113.4133 99.0001,-113.4133 99,-110.9133 96.7501,-113.4133 99,-108.4133 99,-108.4133"/>
</g>
<!-- 13 -->
<g id="node7" class="node">
<title>13</title>
<ellipse fill="#ffd700" stroke="#000000" cx="27" cy="-90" rx="27" ry="18"/>
<text text-anchor="middle" x="27" y="-86.3" font-family="Times,serif" font-size="14.00" fill="#000000">13</text>
</g>
<!-- 1 -->
<g id="node14" class="node">
<title>1</title>
<ellipse fill="none" stroke="#000000" cx="207" cy="-18" rx="27" ry="18"/>
<text text-anchor="middle" x="207" y="-14.3" font-family="Times,serif" font-size="14.00" fill="#000000">1</text>
</g>
<!-- 13&#45;&gt;1 -->
<g id="edge9" class="edge">
<title>13&#45;&gt;1</title>
<path fill="none" stroke="#000000" d="M48.5278,-78.7766C53.2525,-76.4429 58.2601,-74.0669 63,-72 102.0995,-54.9499 148.4785,-38.1502 177.8243,-27.9285"/>
<polygon fill="#000000" stroke="#000000" points="182.7416,-26.2217 178.7559,-29.9869 180.3798,-27.0415 178.0181,-27.8613 178.0181,-27.8613 178.0181,-27.8613 180.3798,-27.0415 177.2803,-25.7357 182.7416,-26.2217 182.7416,-26.2217"/>
</g>
<!-- 11&#45;&gt;1 -->
<g id="edge10" class="edge">
<title>11&#45;&gt;1</title>
<path fill="none" stroke="#000000" d="M118.3082,-77.1278C136.5841,-64.9439 164.0537,-46.6308 183.5738,-33.6174"/>
<polygon fill="#000000" stroke="#000000" points="187.8589,-30.7607 184.9468,-35.4064 185.7788,-32.1475 183.6987,-33.5343 183.6987,-33.5343 183.6987,-33.5343 185.7788,-32.1475 182.4506,-31.6621 187.8589,-30.7607 187.8589,-30.7607"/>
</g>
<!-- 15 -->
<g id="node9" class="node">
<title>15</title>
<ellipse fill="#ffd700" stroke="#000000" cx="270" cy="-162" rx="27" ry="18"/>
<text text-anchor="middle" x="270" y="-158.3" font-family="Times,serif" font-size="14.00" fill="#000000">15</text>
</g>
<!-- 15&#45;&gt;3 -->
<g id="edge11" class="edge">
<title>15&#45;&gt;3</title>
<path fill="none" stroke="#000000" d="M263.3258,-144.2022C259.7292,-134.6113 255.2555,-122.6813 251.4215,-112.4573"/>
<polygon fill="#000000" stroke="#000000" points="249.5974,-107.593 253.4598,-111.4846 250.4752,-109.9339 251.3531,-112.2747 251.3531,-112.2747 251.3531,-112.2747 250.4752,-109.9339 249.2463,-113.0647 249.5974,-107.593 249.5974,-107.593"/>
</g>
<!-- 5 -->
<g id="node15" class="node">
<title>5</title>
<ellipse fill="none" stroke="#000000" cx="315" cy="-90" rx="27" ry="18"/>
<text text-anchor="middle" x="315" y="-86.3" font-family="Times,serif" font-size="14.00" fill="#000000">5</text>
</g>
<!-- 15&#45;&gt;5 -->
<g id="edge12" class="edge">
<title>15&#45;&gt;5</title>
<path fill="none" stroke="#000000" d="M280.437,-145.3008C286.7073,-135.2684 294.752,-122.3967 301.5023,-111.5963"/>
<polygon fill="#000000" stroke="#000000" points="304.3071,-107.1086 303.5651,-112.5412 302.9821,-109.2286 301.6571,-111.3486 301.6571,-111.3486 301.6571,-111.3486 302.9821,-109.2286 299.7491,-110.1561 304.3071,-107.1086 304.3071,-107.1086"/>
</g>
<!-- 17 -->
<g id="node10" class="node">
<title>17</title>
<ellipse fill="#ffd700" stroke="#000000" cx="171" cy="-90" rx="27" ry="18"/>
<text text-anchor="middle" x="171" y="-86.3" font-family="Times,serif" font-size="14.00" fill="#000000">17</text>
</g>
<!-- 17&#45;&gt;1 -->
<g id="edge13" class="edge">
<title>17&#45;&gt;1</title>
<path fill="none" stroke="#000000" d="M179.7146,-72.5708C184.623,-62.7541 190.7998,-50.4003 196.0347,-39.9306"/>
<polygon fill="#000000" stroke="#000000" points="198.3657,-35.2687 198.142,-40.7471 197.2476,-37.5048 196.1295,-39.7408 196.1295,-39.7408 196.1295,-39.7408 197.2476,-37.5048 194.1171,-38.7346 198.3657,-35.2687 198.3657,-35.2687"/>
</g>
<!-- 2 -->
<g id="node16" class="node">
<title>2</title>
<ellipse fill="none" stroke="#000000" cx="387" cy="-90" rx="27" ry="18"/>
<text text-anchor="middle" x="387" y="-86.3" font-family="Times,serif" font-size="14.00" fill="#000000">2</text>
</g>
<!-- 4&#45;&gt;2 -->
<g id="edge16" class="edge">
<title>4&#45;&gt;2</title>
<path fill="none" stroke="#000000" d="M352.437,-145.3008C358.7073,-135.2684 366.752,-122.3967 373.5023,-111.5963"/>
<polygon fill="#000000" stroke="#000000" points="376.3071,-107.1086 375.5651,-112.5412 374.9821,-109.2286 373.6571,-111.3486 373.6571,-111.3486 373.6571,-111.3486 374.9821,-109.2286 371.7491,-110.1561 376.3071,-107.1086 376.3071,-107.1086"/>
</g>
<!-- 10&#45;&gt;5 -->
<g id="edge15" class="edge">
<title>10&#45;&gt;5</title>
<path fill="none" stroke="#000000" d="M395.3789,-148.4574C379.062,-136.5906 355.292,-119.3033 337.8322,-106.6053"/>
<polygon fill="#000000" stroke="#000000" points="333.5376,-103.4819 338.9047,-104.6032 335.5595,-104.9524 337.5813,-106.4228 337.5813,-106.4228 337.5813,-106.4228 335.5595,-104.9524 336.2579,-108.2425 333.5376,-103.4819 333.5376,-103.4819"/>
</g>
<!-- 10&#45;&gt;2 -->
<g id="edge14" class="edge">
<title>10&#45;&gt;2</title>
<path fill="none" stroke="#000000" d="M407.3258,-144.2022C403.7292,-134.6113 399.2555,-122.6813 395.4215,-112.4573"/>
<polygon fill="#000000" stroke="#000000" points="393.5974,-107.593 397.4598,-111.4846 394.4752,-109.9339 395.3531,-112.2747 395.3531,-112.2747 395.3531,-112.2747 394.4752,-109.9339 393.2463,-113.0647 393.5974,-107.593 393.5974,-107.593"/>
</g>
<!-- 3&#45;&gt;1 -->
<g id="edge19" class="edge">
<title>3&#45;&gt;1</title>
<path fill="none" stroke="#000000" d="M234.2854,-72.5708C229.377,-62.7541 223.2002,-50.4003 217.9653,-39.9306"/>
<polygon fill="#000000" stroke="#000000" points="215.6343,-35.2687 219.8829,-38.7346 216.7524,-37.5048 217.8705,-39.7408 217.8705,-39.7408 217.8705,-39.7408 216.7524,-37.5048 215.858,-40.7471 215.6343,-35.2687 215.6343,-35.2687"/>
</g>
<!-- 5&#45;&gt;1 -->
<g id="edge18" class="edge">
<title>5&#45;&gt;1</title>
<path fill="none" stroke="#000000" d="M295.6918,-77.1278C277.4159,-64.9439 249.9463,-46.6308 230.4262,-33.6174"/>
<polygon fill="#000000" stroke="#000000" points="226.1411,-30.7607 231.5494,-31.6621 228.2212,-32.1475 230.3013,-33.5343 230.3013,-33.5343 230.3013,-33.5343 228.2212,-32.1475 229.0532,-35.4064 226.1411,-30.7607 226.1411,-30.7607"/>
</g>
<!-- 2&#45;&gt;1 -->
<g id="edge17" class="edge">
<title>2&#45;&gt;1</title>
<path fill="none" stroke="#000000" d="M365.4722,-78.7766C360.7475,-76.4429 355.7399,-74.0669 351,-72 311.9005,-54.9499 265.5215,-38.1502 236.1757,-27.9285"/>
<polygon fill="#000000" stroke="#000000" points="231.2584,-26.2217 236.7197,-25.7357 233.6202,-27.0415 235.9819,-27.8613 235.9819,-27.8613 235.9819,-27.8613 233.6202,-27.0415 235.2441,-29.9869 231.2584,-26.2217 231.2584,-26.2217"/>
</g>
</g>
</svg>
